<?xml version="1.0" encoding="UTF-8"?>
<svg width="11px" height="6px" viewBox="0 0 11 6" version="1.1" xmlns="http://www.w3.org/2000/svg" xmlns:xlink="http://www.w3.org/1999/xlink">
    <title>Path</title>
    <g id="Page-1" stroke="none" stroke-width="1" fill="none" fill-rule="evenodd">
        <g id="home" transform="translate(-1185.000000, -73.000000)" fill="#000000" fill-rule="nonzero">
            <g id="ic:round-keyboard-arrow-down" transform="translate(1185.366800, 72.998161)">
                <path d="M1.54119963,0.262838953 L5.03319963,3.75483895 L8.52519963,0.262838953 C8.75188464,0.0361539301 9.08228526,-0.0523766508 9.39194275,0.0305958233 C9.70160025,0.113568297 9.94347028,0.355438334 10.0264428,0.665095829 C10.1094152,0.974753324 10.0208847,1.30515394 9.79419963,1.53183895 L5.66319963,5.66283895 C5.49503949,5.83134423 5.26675815,5.92603858 5.02869963,5.92603858 C4.79064111,5.92603858 4.56235976,5.83134423 4.39419963,5.66283895 L0.263199629,1.53183895 C0.0946943488,1.36367882 0,1.13539748 0,0.897338953 C0,0.659280429 0.0946943488,0.430999088 0.263199629,0.262838953 C0.614199629,-0.0791610474 1.19019963,-0.0881610474 1.54119963,0.262838953 Z" id="Path"></path>
            </g>
        </g>
    </g>
</svg>