<?xml version="1.0" encoding="UTF-8"?>
<svg width="19px" height="17px" viewBox="0 0 19 17" version="1.1" xmlns="http://www.w3.org/2000/svg" xmlns:xlink="http://www.w3.org/1999/xlink">
    <title>eva:alert-triangle-fill</title>
    <defs>
        <filter id="filter-1">
            <feColorMatrix in="SourceGraphic" type="matrix" values="0 0 0 0 0.779269 0 0 0 0 0.292879 0 0 0 0 0.331790 0 0 0 1.000000 0"></feColorMatrix>
        </filter>
    </defs>
    <g id="Page-1" stroke="none" stroke-width="1" fill="none" fill-rule="evenodd">
        <g id="eva:alert-triangle-fill" transform="translate(-585.000000, -299.000000)" filter="url(#filter-1)">
            <g transform="translate(585.810076, 299.891651)">
                <path d="M17.2379243,11.4420988 L11.1019243,1.26609879 C10.5976991,0.477298796 9.72611248,0 8.78992426,0 C7.85373604,0 6.98214937,0.477298796 6.47792426,1.26609879 L0.34192426,11.4420988 C-0.0992389373,12.1774965 -0.114487465,13.0924082 0.30192426,13.8420988 C0.783503166,14.6862091 1.68210811,15.2058106 2.65392426,15.2020988 L14.9259243,15.2020988 C15.8911276,15.2123983 16.7881894,14.705894 17.2779243,13.8740988 C17.706793,13.1162093 17.6914849,12.1854746 17.2379243,11.4420988 L17.2379243,11.4420988 Z M8.78992426,12.0020988 C8.34809646,12.0020988 7.98992426,11.6439266 7.98992426,11.2020988 C7.98992426,10.760271 8.34809646,10.4020988 8.78992426,10.4020988 C9.23175206,10.4020988 9.58992426,10.760271 9.58992426,11.2020988 C9.58992426,11.6439266 9.23175206,12.0020988 8.78992426,12.0020988 Z M9.58992426,8.80209879 C9.58992426,9.24392659 9.23175206,9.60209879 8.78992426,9.60209879 C8.34809646,9.60209879 7.98992426,9.24392659 7.98992426,8.80209879 L7.98992426,5.60209879 C7.98992426,5.16027099 8.34809646,4.80209879 8.78992426,4.80209879 C9.23175206,4.80209879 9.58992426,5.16027099 9.58992426,5.60209879 L9.58992426,8.80209879 Z" id="Shape" fill="#C74B55" fill-rule="nonzero"></path>
            </g>
        </g>
    </g>
</svg>