<?xml version="1.0" encoding="UTF-8"?>
<svg width="34px" height="36px" viewBox="0 0 34 36" version="1.1" xmlns="http://www.w3.org/2000/svg" xmlns:xlink="http://www.w3.org/1999/xlink">
    <title>ri:secure-payment-line</title>
    <defs>
        <filter id="filter-1">
            <feColorMatrix in="SourceGraphic" type="matrix" values="0 0 0 0 1.000000 0 0 0 0 1.000000 0 0 0 0 1.000000 0 0 0 1.000000 0"></feColorMatrix>
        </filter>
    </defs>
    <g id="Page-1" stroke="none" stroke-width="1" fill="none" fill-rule="evenodd">
        <g id="home" transform="translate(-163.000000, -3910.000000)">
            <g id="ri:secure-payment-line" transform="translate(137.500000, 3883.380462)" filter="url(#filter-1)">
                <g transform="translate(21.000000, 24.120000)">
                    <rect id="ViewBox" x="0" y="0" width="41.472" height="41.472"></rect>
                    <path d="M19.008,3.456 L31.618944,7.39584 C32.340846,7.62120602 32.8323283,8.289818 32.832,9.04608 L32.832,12.096 L36.288,12.096 C37.242348,12.096 38.016,12.869652 38.016,13.824 L38.016,27.648 C38.016,28.602348 37.242348,29.376 36.288,29.376 L30.72384,29.377728 C30.055104,30.259008 29.242944,31.036608 28.30464,31.675968 L19.008,38.016 L9.71136,31.677696 C6.87843974,29.746177 5.18364476,26.5390039 5.18399994,23.110272 L5.18399994,9.04608 C5.18442762,8.29045603 5.67576299,7.62274386 6.397056,7.397568 L19.008,3.456 Z M19.008,7.074432 L8.63999981,10.31616 L8.63999981,23.110272 C8.63949887,25.2543821 9.63405383,27.2773248 11.332224,28.586304 L11.658816,28.821312 L19.008,33.83424 L25.543296,29.376 L17.28,29.376 C16.325652,29.376 15.552,28.602348 15.552,27.648 L15.552,13.824 C15.552,12.869652 16.325652,12.096 17.28,12.096 L29.376,12.096 L29.376,10.31616 L19.008,7.074432 Z M19.008,20.736 L19.008,25.92 L34.56,25.92 L34.56,20.736 L19.008,20.736 Z M19.008,17.28 L34.56,17.28 L34.56,15.552 L19.008,15.552 L19.008,17.28 Z" id="Shape" fill="#000000" fill-rule="nonzero"></path>
                </g>
            </g>
        </g>
    </g>
</svg>