<?xml version="1.0" encoding="UTF-8"?>
<svg width="85px" height="85px" viewBox="0 0 85 85" version="1.1" xmlns="http://www.w3.org/2000/svg" xmlns:xlink="http://www.w3.org/1999/xlink">
    <title>Group 29</title>
    <defs>
        <filter id="filter-1">
            <feColorMatrix in="SourceGraphic" type="matrix" values="0 0 0 0 1.000000 0 0 0 0 0.349020 0 0 0 0 0.349020 0 0 0 1.000000 0"></feColorMatrix>
        </filter>
    </defs>
    <g id="Page-1" stroke="none" stroke-width="1" fill="none" fill-rule="evenodd">
        <g id="home" transform="translate(-137.000000, -3883.000000)">
            <g id="whh:skypebusy" transform="translate(137.500000, 3883.380462)" filter="url(#filter-1)">
                <g>
                    <path d="M20.9343495,0 C26.5343495,0 31.346,1.93009709 35.369301,5.79029126 C37.5984272,5.40970874 39.746,5.21941748 41.8120194,5.21941748 C46.7595922,5.21941748 51.4896893,6.18446602 56.0023107,8.11456311 C60.514932,10.0446602 64.4023107,12.6407767 67.6644466,15.9029126 C70.9265825,19.1650485 73.522699,23.0524272 75.4527961,27.5650485 C77.3828932,32.0776699 78.3479417,36.807767 78.3479417,41.7553398 C78.3479417,43.8213592 78.1576505,45.968932 77.777068,48.1980583 C81.6372621,52.2213592 83.5673592,57.0330097 83.5673592,62.6330097 C83.5673592,68.3961165 81.5285243,73.3165049 77.4508544,77.3941748 C73.3731845,81.4718447 68.4527961,83.5106796 62.6896893,83.5106796 C57.0896893,83.5106796 52.2780388,81.5805825 48.2547379,77.7203883 C46.0256117,78.1009709 43.8780388,78.2912621 41.8120194,78.2912621 C36.8644466,78.2912621 32.1343495,77.3262136 27.6217282,75.3961165 C23.1091068,73.4660194 19.2217282,70.8699029 15.9595922,67.607767 C12.6974563,64.3456311 10.1013398,60.4582524 8.17124272,55.9456311 C6.24114563,51.4330097 5.27609709,46.7029126 5.27609709,41.7553398 C5.27609709,39.6893204 5.46638835,37.5417476 5.84697087,35.3126214 C1.9867767,31.2893204 0.0566796117,26.4776699 0.0566796117,20.8776699 C0.0566796117,15.1145631 2.09551456,10.1941748 6.17318447,6.11650485 C10.2508544,2.03883495 15.1712427,0 20.9343495,0 Z" id="Shape" fill="#000000" fill-rule="nonzero"></path>
                </g>
            </g>
        </g>
    </g>
</svg>