<?xml version="1.0" encoding="UTF-8"?>
<svg width="47px" height="34px" viewBox="0 0 47 34" version="1.1" xmlns="http://www.w3.org/2000/svg" xmlns:xlink="http://www.w3.org/1999/xlink">
    <title>24-hours-board</title>
    <defs>
        <linearGradient x1="49.9781182%" y1="0%" x2="49.9781182%" y2="100%" id="linearGradient-1">
            <stop stop-color="#29ABE2" offset="0%"></stop>
            <stop stop-color="#0071BC" offset="100%"></stop>
        </linearGradient>
    </defs>
    <g id="Page-1" stroke="none" stroke-width="1" fill="none" fill-rule="evenodd">
        <g id="About-us" transform="translate(-1182.000000, -333.000000)" fill-rule="nonzero">
            <g id="24-hours-board" transform="translate(1182.470000, 333.750000)">
                <path d="M37.5327186,12.0107786 L36.1723581,13.4635824 L27.3768082,5.23026528 L24.7309563,2.7547264 L24.6949506,2.72272128 C24.2534514,2.29308112 23.656213,2.03418256 22.9956787,2.03418256 C22.4305883,2.03418256 21.909505,2.225356 21.4957245,2.54797904 C21.375991,2.63942224 21.2649733,2.74301024 21.1692437,2.85817152 L18.6182642,5.2458392 L9.83528768,13.4637253 L8.47464144,12.0109214 L19.7047237,1.50109728 L19.7167256,1.48938112 L20.2022318,1.03559424 C20.4531291,0.828704 20.7316022,0.64953248 21.0257922,0.50236608 C21.6187442,0.2121768 22.2874226,0.04457856 22.9956787,0.04457856 C23.7042206,0.04457856 24.376471,0.2121768 24.9734237,0.51065312 C25.3277661,0.68596688 25.654104,0.90428752 25.944579,1.16690096 L26.1474686,1.3580744 L37.5327186,12.0107786 Z" id="Path" fill="#FFBE55"></path>
                <path d="M21.4958674,2.54797904 L21.1693866,2.85817152 C21.2651162,2.74301024 21.3761339,2.63942224 21.4958674,2.54797904 Z" id="Path" fill="url(#linearGradient-1)"></path>
                <path d="M45.885912,13.9836656 L45.885912,30.7320592 C45.885912,31.9165344 44.9257584,32.8752592 43.742712,32.8752592 L2.264648,32.8752592 C1.0816016,32.8752592 0.121448,31.9165344 0.121448,30.7320592 L0.121448,13.9836656 C0.121448,12.7991904 1.0816016,11.8404656 2.264648,11.8404656 L43.742712,11.8404656 C44.9257584,11.8404656 45.885912,12.7991904 45.885912,13.9836656 Z" id="Path" fill="#2A94F4"></path>
                <path d="M16.2117363,27.1194813 L12.2695342,27.1194813 C11.7663109,27.1194813 11.4188267,26.7719971 11.4188267,26.3286405 C11.4188267,26.1608994 11.4306858,25.9451506 11.5146992,25.7655504 C11.9939187,24.711096 12.868773,23.944259 13.7194805,23.1774221 C14.378443,22.5783262 15.337025,21.895217 15.337025,21.0086466 C15.337025,20.3975488 14.953535,19.9181864 14.2107019,19.9181864 C13.8032082,19.9181864 13.4917298,19.990055 13.2041123,20.1099314 C12.9404987,20.2178058 12.700889,20.4335546 12.3534048,20.4335546 C11.945911,20.4335546 11.5385602,20.1459371 11.5385602,19.7025805 C11.5385602,18.8278691 13.25212,18.4563811 14.222561,18.4563811 C15.9719837,18.4563811 16.9904323,19.5348394 16.9904323,20.8887702 C16.9904323,21.9072189 16.5950834,22.5781834 16.0438523,23.1534182 C15.2411525,23.9922667 14.1866981,24.7350998 13.5395946,25.6218131 L16.2117363,25.6218131 C16.6790968,25.6218131 17.03844,25.9452934 17.03844,26.3646462 C17.03844,26.783999 16.6789539,27.1194813 16.2117363,27.1194813 Z M22.9092363,26.4603758 C22.9092363,26.8917306 22.5497502,27.2152109 22.0825326,27.2152109 C21.615315,27.2152109 21.2556861,26.8915877 21.2556861,26.4603758 L21.2556861,25.4777901 L18.619693,25.4777901 C18.1164696,25.4777901 17.7689854,25.0943002 17.7689854,24.6630883 C17.7689854,24.6150806 17.8168502,24.3993318 17.8888618,24.2435926 L20.1895155,18.9354578 C20.309249,18.6478403 20.6208702,18.4680973 20.9323486,18.4680973 C21.3398424,18.4680973 21.7590523,18.8275834 21.7590523,19.2469362 C21.7590523,19.3188048 21.7590523,19.4026754 21.7111875,19.5105498 C21.0162192,21.1162352 20.4529862,22.3744365 19.7580179,23.979979 L21.2556861,23.979979 L21.2556861,22.1466858 C21.2556861,21.7151882 21.615315,21.3918507 22.0825326,21.3918507 C22.5258893,21.3918507 22.9092363,21.715331 22.9092363,22.1466858 L22.9092363,23.979979 L23.0651184,23.979979 C23.520477,23.979979 23.8678182,24.3274632 23.8678182,24.7228122 C23.8678182,25.1423078 23.5203341,25.4776472 23.0651184,25.4776472 L22.9092363,25.4776472 L22.9092363,26.4603758 Z M25.305191,27.1434851 C25.1613109,27.5149731 24.7779638,27.7065752 24.3944739,27.6465656 C23.9631192,27.562695 23.615635,27.1673461 23.7475133,26.783999 L26.8748707,18.5402517 C27.0187509,18.1686208 27.390096,17.9770187 27.7735859,18.0490302 C28.1810797,18.1208989 28.4685542,18.5163907 28.4325485,18.8877358 C28.4205466,18.9596045 28.3965427,19.0194712 28.3726818,19.0674789 L25.305191,27.1434851 Z M34.1716094,19.8101691 L31.1879893,26.7359914 C31.0921168,26.9517402 30.9003718,27.2152109 30.4451562,27.2152109 C30.0017995,27.2152109 29.5824467,26.9635992 29.5824467,26.5082406 C29.5824467,26.436372 29.5944486,26.2926347 29.6423134,26.1847603 L32.2664475,20.1935162 L29.5465838,20.1935162 C29.1150862,20.1935162 28.7317392,19.8580339 28.7317392,19.4266792 C28.7317392,19.0073264 29.0912253,18.6598422 29.5465838,18.6598422 L33.3809115,18.6598422 C33.848272,18.6598422 34.2434781,19.0074693 34.2434781,19.462685 C34.2434781,19.5466984 34.231619,19.7024376 34.1716094,19.8101691 Z" id="Shape" fill="#F7F7F7"></path>
            </g>
        </g>
    </g>
</svg>