<?xml version="1.0" encoding="UTF-8"?>
<svg width="77px" height="77px" viewBox="0 0 77 77" version="1.1" xmlns="http://www.w3.org/2000/svg" xmlns:xlink="http://www.w3.org/1999/xlink">
    <title>Group 17</title>
    <g id="Page-1" stroke="none" stroke-width="1" fill="none" fill-rule="evenodd">
        <g id="Dashboard-products" transform="translate(-695.000000, -165.000000)">
            <g id="Group-17" transform="translate(695.525868, 165.533125)">
                <circle id="Oval" fill="#F8F8F8" cx="38" cy="38" r="38"></circle>
                <g id="lipstick" transform="translate(20.500000, 17.000000)" fill-rule="nonzero">
                    <rect id="Rectangle" fill="#F2F2FC" x="21" y="28.0091" width="13.125" height="3.5"></rect>
                    <path d="M34.125,31.5091 L34.125,37.9554 C34.125,39.7103 32.7012,41.1341 30.9463,41.1341 L24.1794,41.1341 C22.4245,41.1341 21.0007,39.7103 21.0007,37.9554 L21.0007,31.5091 L34.125,31.5091 L34.125,31.5091 Z" id="Path" fill="#B5B6D9"></path>
                    <rect id="Rectangle" fill="#B5B6D9" x="21" y="22.7591" width="13.125" height="5.25"></rect>
                    <polygon id="Path" fill="#B5B6D9" points="15.8753 30.6341 15.4588 35.0091 15.4574 35.0091 2.0419 35.0091 2.0412 35.0091 1.6247 30.6341"></polygon>
                    <path d="M15.4574,35.0091 L15.0941,38.8255 C14.9702,40.1345 13.8698,41.1334 12.5559,41.1334 L4.9434,41.1334 C3.6295,41.1334 2.5291,40.1345 2.4052,38.8255 L2.0419,35.0091 L15.4574,35.0091 Z" id="Path" fill="#D8D9FB"></path>
                    <polygon id="Path" fill="#D8D9FB" points="16.625 22.7591 15.8753 30.6341 1.6247 30.6341 0.875 22.7591 2.625 22.7591 14.875 22.7591"></polygon>
                    <polygon id="Path" fill="#F2F2FC" points="14.875 18.3841 14.875 22.7591 2.625 22.7591 2.625 18.3841 4.375 18.3841 13.125 18.3841"></polygon>
                    <polygon id="Path" fill="#DD2056" points="13.125 14.0091 13.125 18.3841 4.375 18.3841 4.375 14.0091 5.25 14.0091 12.25 14.0091"></polygon>
                    <path d="M5.25,2.3366 C5.2255,2.1938 5.2304,2.0531 5.2675,1.9173 C5.53,0.9569 7.3003,0.602 9.2225,1.1263 C11.0754,1.631 12.3935,2.7685 12.25,3.7121 C12.2444,3.7471 12.2381,3.7821 12.2283,3.8164 C11.9665,4.7768 10.1955,5.1317 8.2733,4.6074 C6.622,4.1566 5.397,3.206 5.25,2.3366 Z" id="Path" fill="#DD2056"></path>
                    <path d="M12.25,3.7121 L12.25,14.0091 L5.25,14.0091 L5.25,2.3366 C5.6315,4.5927 11.6669,5.8765 12.2283,3.8164 C12.2374,3.7821 12.2444,3.7471 12.25,3.7121 Z" id="Path" fill="#EC6385"></path>
                    <path d="M31.1031,6.8327 C31.1038,6.8586 31.1052,6.8852 31.1052,6.9111 C31.1052,7.7966 30.4087,8.533 29.5155,8.575 L25.5605,8.7584 L25.3771,4.8034 C25.3344,3.8836 26.0456,3.1031 26.9654,3.0611 C26.9913,3.0604 27.0179,3.059 27.0438,3.059 C27.9293,3.059 28.665,3.7548 28.707,4.648 L28.7364,5.2724 L29.3601,5.2437 C30.2799,5.2024 31.0604,5.9129 31.1031,6.8327 Z" id="Path" fill="#FF9DDC"></path>
                    <path d="M26.817,13.1173 C27.5254,13.1495 28.0735,13.7515 28.0413,14.4606 L27.8999,17.5091 L24.85,17.3677 C24.1612,17.3355 23.625,16.7678 23.625,16.086 C23.625,16.0657 23.6257,16.0447 23.6264,16.0251 C23.6586,15.3167 24.2606,14.7679 24.9697,14.8008 L25.4506,14.8232 L25.473,14.3409 C25.5045,13.6521 26.0729,13.1159 26.7547,13.1159 C26.7757,13.1159 26.7967,13.1166 26.817,13.1173 Z" id="Path" fill="#FEB8F8"></path>
                    <circle id="Oval" fill="#000000" cx="32.375" cy="2.6341" r="1"></circle>
                    <circle id="Oval" fill="#000000" cx="31.5" cy="17.5091" r="1"></circle>
                    <circle id="Oval" fill="#000000" cx="21.875" cy="6.1341" r="1"></circle>
                    <path d="M13.125,18.8216 C12.8835,18.8216 12.6875,18.6256 12.6875,18.3841 L12.6875,14.4466 L12.25,14.4466 C12.0085,14.4466 11.8125,14.2506 11.8125,14.0091 C11.8125,13.7676 12.0085,13.5716 12.25,13.5716 L13.125,13.5716 C13.3665,13.5716 13.5625,13.7676 13.5625,14.0091 L13.5625,18.3841 C13.5625,18.6256 13.3665,18.8216 13.125,18.8216 Z M4.375,18.8216 C4.1335,18.8216 3.9375,18.6256 3.9375,18.3841 L3.9375,14.0091 C3.9375,13.7676 4.1335,13.5716 4.375,13.5716 L5.25,13.5716 C5.4915,13.5716 5.6875,13.7676 5.6875,14.0091 C5.6875,14.2506 5.4915,14.4466 5.25,14.4466 L4.8125,14.4466 L4.8125,18.3841 C4.8125,18.6256 4.6165,18.8216 4.375,18.8216 Z" id="Shape" fill="#000000"></path>
                    <path d="M12.25,14.4466 L5.25,14.4466 C5.0085,14.4466 4.8125,14.2506 4.8125,14.0091 L4.8125,2.3366 C4.8125,2.0951 5.0085,1.8949 5.25,1.8949 C5.4915,1.8949 5.6875,2.0867 5.6875,2.3282 L5.6875,13.5709 L11.8125,13.5709 L11.8125,3.7121 C11.8125,3.4706 12.0085,3.2746 12.25,3.2746 C12.4915,3.2746 12.6875,3.4706 12.6875,3.7121 L12.6875,14.0091 C12.6875,14.2506 12.4915,14.4466 12.25,14.4466 Z" id="Path" fill="#000000"></path>
                    <path d="M9.9946,5.2871 C9.4129,5.2871 8.785,5.2003 8.1578,5.0295 C6.3413,4.5339 4.9994,3.4811 4.8181,2.4094 C4.7824,2.2029 4.7915,1.9985 4.8447,1.8025 C5.1814,0.5691 7.1127,0.0973 9.3373,0.7042 C11.424,1.2726 12.8618,2.5935 12.6826,3.7772 C12.6742,3.8332 12.663,3.885 12.649,3.9347 C12.4775,4.564 11.8769,5.0141 10.9592,5.1975 C10.6596,5.2577 10.3348,5.2871 9.9946,5.2871 Z M7.5082,1.3237 C6.5191,1.3237 5.8037,1.6142 5.6896,2.0328 C5.67,2.1042 5.6672,2.1819 5.6812,2.2624 C5.7834,2.8644 6.7662,3.7422 8.3881,4.1853 C9.2533,4.4212 10.1059,4.4758 10.7877,4.3393 C11.3554,4.2259 11.7264,3.9928 11.8062,3.7009 C11.8111,3.6834 11.8146,3.6666 11.8174,3.647 C11.8174,3.647 11.8174,3.6463 11.8174,3.6463 C11.9112,3.0289 10.8213,2.0153 9.1077,1.5484 C8.5351,1.393 7.9891,1.3237 7.5082,1.3237 Z M14.875,23.1966 C14.6335,23.1966 14.4375,23.0006 14.4375,22.7591 L14.4375,18.8216 L3.0625,18.8216 L3.0625,22.7591 C3.0625,23.0006 2.8665,23.1966 2.625,23.1966 C2.3835,23.1966 2.1875,23.0006 2.1875,22.7591 L2.1875,18.3841 C2.1875,18.1426 2.3835,17.9466 2.625,17.9466 L14.875,17.9466 C15.1165,17.9466 15.3125,18.1426 15.3125,18.3841 L15.3125,22.7591 C15.3125,23.0006 15.1165,23.1966 14.875,23.1966 Z M15.8753,31.0716 L1.6247,31.0716 C1.3832,31.0716 1.1872,30.8756 1.1872,30.6341 C1.1872,30.3926 1.3832,30.1966 1.6247,30.1966 L15.8746,30.1966 C16.1161,30.1966 16.3121019,30.3926 16.3121019,30.6341 C16.3128,30.8756 16.1168,31.0716 15.8753,31.0716 Z M15.4574,35.4466 L2.0419,35.4466 C1.8004,35.4466 1.6044,35.2506 1.6044,35.0091 C1.6044,34.7676 1.8004,34.5716 2.0419,34.5716 L15.4574,34.5716 C15.6989,34.5716 15.8949,34.7676 15.8949,35.0091 C15.8949,35.2506 15.6996,35.4466 15.4574,35.4466 Z" id="Shape" fill="#000000"></path>
                    <path d="M12.5559,41.5716 L4.9434,41.5716 C3.3943,41.5716 2.1161,40.4089 1.9698,38.8675 L1.6093,35.0777 C1.6079,35.0686 1.6065,35.0595 1.6058,35.0504 L0.4396,22.8004 C0.4277,22.6779 0.4683,22.5561 0.5516,22.4644 C0.6342,22.3734 0.7518,22.3216 0.875,22.3216 L16.625,22.3216 C16.7482,22.3216 16.8658,22.3734 16.9484,22.4644 C17.031,22.5554 17.0716,22.6772 17.0604,22.8004 L15.8942,35.0504 C15.8935,35.0595 15.8921,35.0686 15.8907,35.0777 L15.5302,38.8675 C15.3839,40.4089 14.105,41.5716 12.5559,41.5716 Z M2.4745,34.9405 C2.4759,34.9496 2.4773,34.9587 2.478,34.9678 L2.8413,38.7842 C2.9449,39.8741 3.8486,40.6966 4.9441,40.6966 L12.5566,40.6966 C13.6521,40.6966 14.5558,39.8748 14.6594,38.7842 L15.0227,34.9671 C15.0234,34.958 15.0248,34.9489 15.0262,34.9398 L16.1441,23.1959 L1.3559,23.1959 L2.4745,34.9405 Z M30.9456,41.5716 L24.1787,41.5716 C22.1844,41.5716 20.5625,39.9497 20.5625,37.9554 L20.5625,22.7591 C20.5625,22.5176 20.7585,22.3216 21,22.3216 L34.125,22.3216 C34.3665,22.3216 34.5625,22.5176 34.5625,22.7591 L34.5625,37.9554 C34.5625,39.949 32.9399,41.5716 30.9456,41.5716 Z M21.4375,23.1966 L21.4375,37.9554 C21.4375,39.4667 22.6674,40.6966 24.1787,40.6966 L30.9456,40.6966 C32.4569,40.6966 33.6868,39.4667 33.6868,37.9554 L33.6868,23.1966 L21.4375,23.1966 Z" id="Shape" fill="#000000"></path>
                    <path d="M34.125,28.4466 L21,28.4466 C20.7585,28.4466 20.5625,28.2506 20.5625,28.0091 C20.5625,27.7676 20.7585,27.5716 21,27.5716 L34.125,27.5716 C34.3665,27.5716 34.5625,27.7676 34.5625,28.0091 C34.5625,28.2506 34.3665,28.4466 34.125,28.4466 Z M34.125,31.9466 L21,31.9466 C20.7585,31.9466 20.5625,31.7506 20.5625,31.5091 C20.5625,31.2676 20.7585,31.0716 21,31.0716 L34.125,31.0716 C34.3665,31.0716 34.5625,31.2676 34.5625,31.5091 C34.5625,31.7506 34.3665,31.9466 34.125,31.9466 Z M25.5598,9.1966 C25.3274,9.1966 25.1342,9.0139 25.123,8.7794 L24.9389,4.8244 C24.913,4.263 25.1069,3.7247 25.4856,3.3089 C25.8643,2.8931 26.3823,2.6502 26.9437,2.625 C26.9458,2.625 26.9542,2.625 26.9563,2.6243 C26.985,2.6236 27.0137,2.6222 27.0424,2.6222 C28.1673,2.6222 29.0899,3.5035 29.1431,4.6284 L29.1522,4.8167 L29.3398,4.8083 C30.5004,4.7551 31.486,5.6532 31.5399,6.8124 C31.5399,6.8145 31.5399,6.8201 31.5399,6.8222 C31.5406,6.8516 31.542,6.8817 31.542,6.9118 C31.542,8.0374 30.6607,8.96 29.5351,9.0132 L25.5801,9.1966 C25.5738,9.1966 25.5668,9.1966 25.5598,9.1966 Z M27.0431,3.4979 C27.0242,3.4979 27.0046,3.4986 26.9857,3.4993 C26.6567,3.514 26.3543,3.6561 26.1331,3.899 C25.9119,4.1419 25.7985,4.4562 25.8139,4.7845 L25.9777,8.3027 L29.4959,8.1396 C30.1532,8.1088 30.6684,7.5698 30.6684,6.9125 C30.6684,6.8922 30.6677,6.8719 30.667,6.8516 C30.6355,6.1768 30.0587,5.6553 29.3818,5.6833 L28.7581,5.712 C28.5159,5.7218 28.3122,5.537 28.301,5.2955 L28.2716,4.6704 C28.2387,4.0124 27.7004,3.4979 27.0431,3.4979 Z M27.8999,17.9466 C27.8929,17.9466 27.8859,17.9466 27.8796,17.9459 L24.8304,17.8045 C23.9092,17.7611 23.1882,17.0065 23.1882,16.0853 C23.1882,16.0587 23.1889,16.0314 23.1903,16.0048 C23.2113,15.5449 23.4101,15.1207 23.7503,14.8106 C24.0905,14.5005 24.5315,14.3402 24.9907,14.3633 L25.0348,14.3654 L25.0369,14.3206 C25.0789,13.4001 25.8342,12.6784 26.7561,12.6784 C26.7813,12.6784 26.8079,12.6791 26.8331,12.6805 C27.7858,12.7239 28.5222,13.5317 28.4788,14.4809 L28.3367,17.5301 C28.3255,17.7639 28.1316,17.9466 27.8999,17.9466 Z M24.9088,15.2362 C24.6974,15.2362 24.4965,15.3139 24.3397,15.4574 C24.1724,15.61 24.0744,15.8186 24.0639,16.044 C24.0632,16.0573 24.0625,16.0713 24.0625,16.0853 C24.0625,16.5375 24.4174,16.9092 24.8703,16.9302 L27.4827,17.0513 L27.6038,14.4396 C27.6248,13.9727 27.2629,13.5751 26.7967,13.5541 C26.782,13.5534 26.7687,13.5527 26.7554,13.5527 C26.3025,13.5527 25.9315,13.9076 25.9105,14.3605 L25.8881,14.8435 C25.8825,14.9597 25.8314,15.0682 25.7453,15.1466 C25.6592,15.225 25.5465,15.2656 25.4303,15.26 L24.9494,15.2369 C24.9354,15.2369 24.9221,15.2362 24.9088,15.2362 Z" id="Shape" fill="#000000"></path>
                </g>
            </g>
        </g>
    </g>
</svg>