<?xml version="1.0" encoding="UTF-8"?>
<svg width="36px" height="28px" viewBox="0 0 36 28" version="1.1" xmlns="http://www.w3.org/2000/svg" xmlns:xlink="http://www.w3.org/1999/xlink">
    <title>crab</title>
    <g id="Page-1" stroke="none" stroke-width="1" fill="none" fill-rule="evenodd">
        <g id="Dashboard-products" transform="translate(-468.000000, -376.000000)" fill-rule="nonzero">
            <g id="crab" transform="translate(468.200318, 376.033125)">
                <path d="M13.9774027,23.5602583 L20.5825973,23.5602583 C23.9071927,23.5602583 26.6023107,20.8651403 26.6023107,17.5405449 L26.6023107,17.4189345 C26.6023107,14.094337 23.9071928,11.3992191 20.5825973,11.3992191 L13.9774027,11.3992191 C10.6528062,11.3992191 7.95768929,14.094337 7.95768929,17.4189345 L7.95768929,17.5405449 C7.95768929,20.8651403 10.6528062,23.5602583 13.9774027,23.5602583 Z" id="Path" fill="#F04C42"></path>
                <circle id="Oval" fill="#D2433A" cx="13.37472" cy="11.73798" r="3.30264"></circle>
                <circle id="Oval" fill="#D2433A" cx="21.18528" cy="11.73798" r="3.30264"></circle>
                <circle id="Oval" fill="#F04C42" cx="13.37472" cy="11.39913" r="3.30264"></circle>
                <circle id="Oval" fill="#F04C42" cx="21.18528" cy="11.39913" r="3.30264"></circle>
                <circle id="Oval" fill="#FDFFFA" cx="13.54158" cy="11.09781" r="3.13578"></circle>
                <circle id="Oval" fill="#FDFFFA" cx="21.01842" cy="11.09781" r="3.13578"></circle>
                <circle id="Oval" fill="#1F323A" cx="21.01842" cy="11.09781" r="1.43532"></circle>
                <circle id="Oval" fill="#FDFFFA" cx="20.65635" cy="10.55862" r="1"></circle>
                <circle id="Oval" fill="#1F323A" cx="13.54158" cy="11.09781" r="1.43532"></circle>
                <circle id="Oval" fill="#FDFFFA" cx="13.17951" cy="10.55862" r="1"></circle>
                <path d="M10.0438375,15.0617326 C5.41368725,14.4994235 2.10427254,10.2750416 2.66658164,5.64503974 L4.16224799,5.82659122 C3.93817737,7.6716774 4.44502064,9.49234097 5.58950077,10.953286 C6.7339809,12.4140818 8.38030277,13.3419946 10.2253889,13.5660663 L10.0438375,15.0617326 Z" id="Path" fill="#F04C42"></path>
                <path d="M5.76581074,3.66248372 C5.49936878,1.88364047 4.40551775,0.515568132 3.1466303,0.221760936 L2.91284964,4.08982476 L1.05553363,0.843783993 C0.254588859,1.63573587 -0.163777572,3.02390958 0.059888295,4.51714725 C0.382991652,6.67428393 1.92222464,8.23166909 3.49787111,7.99566317 C5.07353612,7.75965728 6.08891488,5.81962039 5.76581074,3.66248372 Z M24.5161636,15.0617326 C29.1463117,14.4994235 32.4557254,10.2750416 31.8934163,5.64503974 L30.397752,5.82659123 C30.6218216,7.6716774 30.1149783,9.49234097 28.9704982,10.953286 C27.8260181,12.4140818 26.1796983,13.3419946 24.3346111,13.5660663 L24.5161636,15.0617326 Z" id="Shape" fill="#F04C42"></path>
                <path d="M28.7941882,3.66248372 C29.0606307,1.88364047 30.1544817,0.515568132 31.4133708,0.221760936 L31.6471509,4.08982476 L33.5044679,0.843783993 C34.3054125,1.63573587 34.7237773,3.02390958 34.5001135,4.51714725 C34.1770084,6.67428393 32.6377744,8.23166909 31.0621289,7.99566317 C29.4864649,7.75965728 28.4710851,5.81962039 28.7941882,3.66248372 Z M31.6185713,22.8746228 L33.2236615,22.8746228 C31.8415759,18.601268 27.3117817,16.1236938 22.9382171,17.3245585 L23.3370538,18.7774667 C25.1293593,18.2853541 27.0046596,18.5198531 28.6175837,19.4378165 C29.9938417,20.2211794 31.0355722,21.4252453 31.6185713,22.8746228 Z" id="Shape" fill="#F04C42"></path>
                <path d="M28.8335104,25.1952917 L30.4385985,25.1952917 C29.0565129,20.9219369 24.5267207,18.4443647 20.1531562,19.6452294 L20.5519908,21.0981377 C22.3442962,20.606025 24.2195986,20.840522 25.8325227,21.7584854 C27.2087787,22.5418504 28.2505112,23.7459162 28.8335104,25.1952917 Z" id="Path" fill="#F04C42"></path>
                <path d="M24.9972205,26.7782396 L26.6023107,26.7782396 C25.2202252,22.5048848 20.690433,20.0273106 16.3168684,21.2281753 L16.715703,22.6810835 C18.5080085,22.1889709 20.3833108,22.4234699 21.9962349,23.3414333 C23.3724909,24.1247962 24.4142235,25.3288621 24.9972205,26.7782396 Z M2.94142868,22.8746228 L1.33633903,22.8746228 C2.71842458,18.601268 7.24821728,16.1236938 11.6217813,17.3245585 L11.2229457,18.7774667 C9.43064127,18.2853541 7.55533891,18.5198531 5.9424148,19.4378165 C4.56615932,20.2211794 3.52442729,21.4252453 2.94142868,22.8746228 Z" id="Shape" fill="#F04C42"></path>
                <path d="M5.72649067,25.1952917 L4.12140101,25.1952917 C5.50348657,20.9219369 10.0332793,18.4443647 14.4068433,19.6452294 L14.0080077,21.0981377 C12.2157022,20.606025 10.3404009,20.840522 8.72747679,21.7584854 C7.35122131,22.5418504 6.30948876,23.7459162 5.72649067,25.1952917 Z" id="Path" fill="#F04C42"></path>
                <path d="M9.56277843,26.7782396 L7.95768929,26.7782396 C9.33977485,22.5048848 13.869567,20.0273106 18.2431316,21.2281753 L17.844297,22.6810835 C16.0519915,22.1889709 14.1766892,22.4234699 12.5637651,23.3414333 C11.1875091,24.1247962 10.1457765,25.3288621 9.56277843,26.7782396 Z" id="Path" fill="#F04C42"></path>
                <path d="M19.5831759,15.9444772 C19.5831759,17.216486 18.5520087,18.2476531 17.28,18.2476531 C16.0079913,18.2476531 14.9768241,17.216486 14.9768241,15.9444772" id="Path" fill="#B43932"></path>
            </g>
        </g>
    </g>
</svg>