<?xml version="1.0" encoding="UTF-8"?>
<svg width="35px" height="40px" viewBox="0 0 35 40" version="1.1" xmlns="http://www.w3.org/2000/svg" xmlns:xlink="http://www.w3.org/1999/xlink">
    <title>pixelarticons:arrow-down</title>
    <defs>
        <filter id="filter-1">
            <feColorMatrix in="SourceGraphic" type="matrix" values="0 0 0 0 0.984314 0 0 0 0 0.866667 0 0 0 0 0.635294 0 0 0 0.472274 0"></feColorMatrix>
        </filter>
    </defs>
    <g id="Page-1" stroke="none" stroke-width="1" fill="none" fill-rule="evenodd">
        <g id="pixelarticons:arrow-down" transform="translate(-781.000000, -652.000000)" filter="url(#filter-1)">
            <g transform="translate(781.500000, 652.500000)" id="Group" fill="#000000" fill-rule="nonzero">
                <path d="M14.4,0 L19.2,0 L19.2,28.8 L24,28.8 L24,33.6 L19.2,33.6 L19.2,38.4 L14.4,38.4 L14.4,33.6 L9.6,33.6 L9.6,28.8 L14.4,28.8 L14.4,0 Z M4.8,24 L4.8,28.8 L9.6,28.8 L9.6,24 L4.8,24 Z M4.8,24 L4.8,19.2 L0,19.2 L0,24 L4.8,24 Z M28.8,24 L28.8,28.8 L24,28.8 L24,24 L28.8,24 Z M28.8,24 L28.8,19.2 L33.6,19.2 L33.6,24 L28.8,24 Z" id="Shape"></path>
            </g>
        </g>
    </g>
</svg>