<?xml version="1.0" encoding="UTF-8"?>
<svg width="77px" height="77px" viewBox="0 0 77 77" version="1.1" xmlns="http://www.w3.org/2000/svg" xmlns:xlink="http://www.w3.org/1999/xlink">
    <title>Group 21</title>
    <g id="Page-1" stroke="none" stroke-width="1" fill="none" fill-rule="evenodd">
        <g id="Dashboard-products" transform="translate(-1428.000000, -165.000000)">
            <g id="Group-21" transform="translate(1428.628066, 165.533125)">
                <circle id="Oval" fill="#F8F8F8" cx="38" cy="38" r="38"></circle>
                <g id="cheers-in-love" transform="translate(21.000000, 18.500000)" fill-rule="nonzero">
                    <path d="M28.72,21.68 C27.5106864,23.518329 25.3368567,24.4780639 23.1636337,24.1331078 C20.9904107,23.7881518 19.2206193,22.2024453 18.64,20.08 L16.8,13.096 C19.344,12.424 17.152,13.008 27.616,10.2 L29.48,17.152 C29.8854878,18.7005838 29.6088661,20.3486664 28.72,21.68 Z" id="Path" fill="#DAD7E5"></path>
                    <path d="M28.72,21.68 C27.2219092,22.6658983 25.3422515,22.8746534 23.6643465,22.2414817 C21.9864415,21.60831 20.7132927,20.2098166 20.24,18.48 C19.768,16.696 20.104,17.952 18.64,12.616 L27.56,10.216 L29.424,17.168 C29.841075,18.7037114 29.5850899,20.3443427 28.72,21.68 Z" id="Path" fill="#EDEBF2"></path>
                    <path d="M25.272,23.2 C24.0314669,23.5435033 22.7049486,23.3743578 21.590309,22.7305444 C20.4756695,22.086731 19.6663213,21.0222046 19.344,19.776 L18.472,16.576 C22.552,18.096 24.368,18.584 28.72,17.376 C29.3677541,19.935192 27.8273192,22.5371331 25.272,23.2 Z" id="Path" fill="#DB5669"></path>
                    <path d="M26.768,22.488 C23.8780287,23.0825867 21.0224692,21.3328567 20.24,18.488 L19.864,17.072 C22.6879283,18.2119888 25.8228482,18.3224331 28.72,17.384 C29.1957688,19.3258267 28.4181126,21.3592064 26.768,22.488 L26.768,22.488 Z" id="Path" fill="#F26674"></path>
                    <path d="M32.256,33.8 C32.6,35.08 31.152,36.576 29.056,37.152 C26.96,37.728 24.912,37.152 24.568,35.864 C24.224,34.576 25.68,33.088 27.816,32.512 C29.952,31.936 31.912,32.52 32.256,33.8 Z M16.8,13.096 L14.936,20.056 C13.9842131,22.8484759 11.0291825,24.4235981 8.1802981,23.6569969 C5.33141365,22.8903956 3.56588514,20.0450267 4.144,17.152 L6.008,10.2 L16.8,13.096 Z" id="Shape" fill="#DAD7E5"></path>
                    <path d="M16.8,13.096 L14.936,20.056 C14.5621871,21.4446737 13.6684591,22.636311 12.44,23.384 C10.6151641,23.5516944 8.82373382,22.8159407 7.64353553,21.4140566 C6.46333723,20.0121724 6.04370822,18.1215461 6.52,16.352 L8.024,10.752 L16.8,13.096 Z" id="Path" fill="#EDEBF2"></path>
                    <path d="M8.328,23.2 C9.56853311,23.5435033 10.8950514,23.3743578 12.009691,22.7305444 C13.1243305,22.086731 13.9336787,21.0222046 14.256,19.776 L15.128,16.576 C11.048,18.096 9.232,18.584 4.88,17.376 C4.23224586,19.935192 5.77268077,22.5371331 8.328,23.2 L8.328,23.2 Z" id="Path" fill="#DB5669"></path>
                    <path d="M15.128,16.52 L14.256,19.72 C13.7935353,21.4810324 12.3745041,22.8288022 10.592,23.2 L10.504,23.2 C8.02373797,22.5364237 6.31244856,20.2711909 6.352,17.704 C10.184,18.504 12.688,17.432 15.128,16.52 Z" id="Path" fill="#F26674"></path>
                    <path d="M1.344,33.8 C1,35.08 2.448,36.576 4.584,37.152 C6.72,37.728 8.728,37.152 9.072,35.864 C9.416,34.576 8,33.088 5.824,32.512 C3.648,31.936 1.688,32.52 1.344,33.8 Z" id="Path" fill="#DAD7E5"></path>
                    <path d="M20.8,3.2 C20.8,4.528 20.112,4.904 16.8,8.192 C13.4,4.8 13.464,4.872 13.416,4.8 C12.7856213,4.09521909 12.6278177,3.08598547 13.0129695,2.22241642 C13.3981213,1.35884737 14.2544368,0.801910829 15.2,0.8 C15.7898775,0.807180024 16.3576028,1.02575429 16.8,1.416 C17.2420211,1.02513471 17.809986,0.806468245 18.4,0.8 C19.7254834,0.8 20.8,1.8745166 20.8,3.2 Z" id="Path" fill="#DB5669"></path>
                    <path d="M20.8,3.2 C20.8,4.48 20.104,4.888 17.912,7.088 C15.2,4.36 14.3999407,3.904 14.3999407,2.584 C14.3951562,1.90141946 14.6870911,1.25040444 15.2,0.799963622 C15.7918412,0.7967101 16.3631672,1.01667063 16.8,1.416 C17.2427701,1.02636961 17.8102585,0.807886568 18.4,0.799963622 C19.7254834,0.799963622 20.8,1.8745166 20.8,3.2 Z" id="Path" fill="#F26674"></path>
                    <path d="M28.352,31.584 L26.464,24.528 C29.4482983,23.3115329 31.0625789,20.0658348 30.232,16.952 L28.368,9.992 C28.3136392,9.78568999 28.1791214,9.6096409 27.9943443,9.50298095 C27.8095672,9.396321 27.5898405,9.3678875 27.384,9.424 L16.8,12.264 L6.216,9.424 C6.01015951,9.3678875 5.79043276,9.396321 5.60565567,9.50298095 C5.42087858,9.6096409 5.28636083,9.78568999 5.232,9.992 C3.36,16.984 2.336,18.904 4,21.808 C4.71204437,23.0365724 5.81245601,23.9934521 7.128,24.528 L5.248,31.576 C-0.432,30.696 -1.392,36.376 4.376,37.92 C10.144,39.464 12.152,34.064 6.776,31.992 L8.664,24.944 C10.0726705,25.14263 11.5071785,24.8608013 12.736,24.144 C15.592,22.504 15.792,19.984 16.784,16.288 C17.744,19.856 17.976,22.496 20.832,24.144 C22.0610447,24.8602099 23.4953466,25.1419981 24.904,24.944 L26.808,32 C21.472,34.064 23.432,39.48 29.208,37.928 C34.984,36.376 34.032,30.704 28.352,31.584 Z M27.024,11.2 L28.48,16.608 C24.056,17.792 22.296,17.112 18.272,15.6 L17.752,13.68 L27.024,11.2 Z M6.576,11.2 L15.848,13.68 L15.328,15.6 C11.2,17.12 9.6,17.784 5.12,16.592 L6.576,11.2 Z M8.296,35.672 C7.824,37.432 2.112,36.472 2.112,34.016 C2.296,33.328 3.464,33.112 4.192,33.112 C6.776,33.096 8.528,34.792 8.296,35.656 L8.296,35.672 Z M14.192,19.864 C13.5000276,22.2200268 11.1414918,23.6738949 8.72575535,23.2335478 C6.31001894,22.7932006 4.61616234,20.600651 4.8,18.152 C8.912,19.256 11.2,18.864 14.848,17.488 L14.192,19.864 Z M21.648,22.776 C19.592,21.592 19.408,19.856 18.776,17.504 C22.392,18.856 24.632,19.288 28.824,18.168 C28.9854249,19.9522599 28.1397565,21.6779191 26.6307264,22.6435638 C25.1216963,23.6092084 23.2004886,23.6541032 21.648,22.76 L21.648,22.776 Z M30.992,35.2 C29.28,36.976 25.64,36.928 25.304,35.68 C25.048,34.736 26.984,33.112 29.408,33.112 C31.136,33.096 32.2,33.936 30.992,35.2 Z M12.936,5.464 C16.56,9.08 16.352,8.992 16.8,8.992 C17.248,8.992 17.08,9.04 20.664,5.464 C21.2595596,4.86044036 21.5954812,4.04791219 21.6,3.2 C21.5988287,2.05733632 20.9884494,1.00200339 19.9985802,0.431178828 C19.008711,-0.13964573 17.7895759,-0.139332741 16.8,0.432 C15.8104241,-0.139332741 14.591289,-0.13964573 13.6014198,0.431178828 C12.6115506,1.00200339 12.0011713,2.05733632 12,3.2 C12.0053659,4.04774142 12.3411608,4.85996309 12.936,5.464 Z M16.256,2.008 C16.5708715,2.27131514 17.0291285,2.27131514 17.344,2.008 C17.8147145,1.59444736 18.4835059,1.49371376 19.0551518,1.7502657 C19.6267978,2.00681763 19.9960849,2.57343585 20,3.2 C20,4.08 19.632,4.232 16.8,7.064 C14.216,4.496 13.6,4.136 13.6,3.2 C13.6039151,2.57343585 13.9732022,2.00681763 14.5448482,1.7502657 C15.1164941,1.49371376 15.7852855,1.59444736 16.256,2.008 Z" id="Shape" fill="#000000"></path>
                </g>
            </g>
        </g>
    </g>
</svg>