<?xml version="1.0" encoding="UTF-8"?>
<svg width="42px" height="37px" viewBox="0 0 42 37" version="1.1" xmlns="http://www.w3.org/2000/svg" xmlns:xlink="http://www.w3.org/1999/xlink">
    <title>easy-return</title>
    <g id="Page-1" stroke="none" stroke-width="1" fill="none" fill-rule="evenodd">
        <g id="About-us" transform="translate(-509.000000, -334.000000)" fill-rule="nonzero">
            <g id="easy-return" transform="translate(509.200000, 334.375000)">
                <path d="M3,7.72 L37.96,7.72 L37.96,32.84 C37.96,34.1654834 36.8854834,35.24 35.56,35.24 L5.4,35.24 C4.0745166,35.24 3,34.1654834 3,32.84 L3,7.72 Z" id="Path" fill="#FFC166"></path>
                <path d="M3,7.72 L3,9.32 L29.4373096,9.32 C33.2606058,9.32000044 36.3599996,12.4193942 36.36,16.2426904 L36.36,34.44 C36.3601006,34.6761005 36.3253511,34.9109228 36.2568752,35.1368752 C37.26834,34.8296936 37.96,33.8970816 37.96,32.84 L37.96,7.72 L3,7.72 Z" id="Path" fill="#FFAE36"></path>
                <circle id="Oval" fill="#FFFFFF" cx="20.48" cy="21.48" r="11"></circle>
                <rect id="Rectangle" fill="#FFC166" x="0.6" y="0.6" width="39.76" height="7.12" rx="0.79888"></rect>
                <path d="M39.5610936,0.6 L37.9610936,0.6 C38.1729775,0.6 38.3761838,0.684167171 38.5260083,0.83399169 C38.6758328,0.983816208 38.7600023,1.18702253 38.76,1.3989064 L38.76,6.9210936 C38.7600023,7.13297747 38.6758328,7.33618379 38.5260083,7.48600831 C38.3761838,7.63583283 38.1729775,7.72 37.9610936,7.72 L39.5610936,7.72 C39.7729775,7.72 39.9761838,7.63583283 40.1260083,7.48600831 C40.2758328,7.33618379 40.36,7.13297747 40.36,6.9210936 L40.36,1.3989064 C40.36,1.18702253 40.2758328,0.983816208 40.1260083,0.83399169 C39.9761838,0.684167171 39.7729775,0.6 39.5610936,0.6 Z" id="Path" fill="#FFAE36"></path>
                <path d="M24.5660056,18.5725008 L17.5260056,18.5725008 C17.3050917,18.5725008 17.1260056,18.3934147 17.1260056,18.1725008 L17.1260056,16.7882544 C17.1260056,16.6340617 17.0373784,16.493598 16.8982055,16.4272181 C16.7590326,16.3608382 16.5940974,16.3803628 16.4742696,16.4774024 L12.5422584,19.6616488 C12.4484763,19.737596 12.3939944,19.8518233 12.3939944,19.9725008 C12.3939944,20.0931783 12.4484763,20.2074056 12.5422584,20.2833528 L16.4742696,23.4676 C16.5940974,23.5646396 16.7590326,23.5841642 16.8982055,23.5177843 C17.0373784,23.4514044 17.1260056,23.3109407 17.1260056,23.156748 L17.1260056,21.7725008 C17.1260056,21.5515869 17.3050917,21.3725008 17.5260056,21.3725008 L24.5321112,21.3725008 C25.1809391,21.3656741 25.7220311,21.8670119 25.76464,22.5144752 C25.7804989,22.842422 25.6612982,23.1625454 25.434813,23.4002534 C25.2083278,23.6379614 24.8943389,23.7724929 24.5660088,23.7725008 L19.9260088,23.7725008 C19.7050949,23.7725008 19.5260088,23.9515869 19.5260088,24.1725008 L19.5260088,26.1725008 C19.5260088,26.3934147 19.7050949,26.5725008 19.9260088,26.5725008 L24.5660088,26.5725008 C26.7751478,26.5725008 28.5660088,24.7816398 28.5660088,22.5725008 L28.5660088,22.5725008 C28.5660088,21.5116343 28.144581,20.4942181 27.3944348,19.7440725 C26.6442886,18.9939269 25.6268721,18.5725 24.5660056,18.5725008 L24.5660056,18.5725008 Z" id="Path" fill="#63EA86"></path>
                <rect id="Rectangle" fill="#FFCD85" x="14.51832" y="0.6" width="11.92344" height="7.12"></rect>
                <path d="M17.156484,24.0593752 C17.5058091,23.8949584 17.7280047,23.542799 17.726016,23.15672 L17.726016,21.9725 L24.5321096,21.9725 C24.8601945,21.9667457 25.1367943,22.2158404 25.1653096,22.5427344 C25.1734402,22.7068286 25.1139335,22.8670799 25.0006738,22.9860977 C24.8874141,23.1051156 24.7303083,23.1724897 24.5660128,23.1725 L19.9260128,23.1725 C19.3739854,23.1731208 18.9266336,23.6204726 18.9260128,24.1725 L18.9260128,26.1725 C18.9266336,26.7245274 19.3739854,27.1718792 19.9260128,27.1725 L24.5660128,27.1725 C27.1065226,27.1725 29.1660128,25.1130098 29.1660128,22.5725 C29.1660128,20.0319902 27.1065226,17.9725 24.5660128,17.9725 L17.7260128,17.9725 L17.7260128,16.7882816 C17.7260499,16.4027928 17.504492,16.0516124 17.1565534,15.8856597 C16.8086148,15.7197069 16.3962667,15.7685396 16.0967152,16.011172 L12.1646064,19.1953904 C11.9302029,19.3852874 11.7940588,19.6708473 11.7940588,19.9725191 C11.7940588,20.2741909 11.9302633,20.5597367 12.1646864,20.7496096 L16.09664,23.933828 C16.3954486,24.178215 16.8088472,24.2271854 17.156484,24.0593752 Z M16.526016,17.2075784 L16.526016,18.1725 C16.5266368,18.7245274 16.9739886,19.1718792 17.526016,19.1725 L24.566016,19.1725 C26.4437841,19.1725001 27.9660159,20.6947319 27.9660159,22.5725 C27.9660159,24.4502681 26.4437841,25.9725 24.566016,25.9725 L20.126016,25.9725 L20.126016,24.3725 L24.566016,24.3725 C25.0579628,24.3715255 25.5282792,24.170163 25.868516,23.814844 C26.2099959,23.4593693 26.3892906,22.9785162 26.3639064,22.4862496 C26.3099333,21.5170174 25.5027854,20.7618848 24.5321096,20.7725 L17.526016,20.7725 C16.9739886,20.7731208 16.5266368,21.2204726 16.526016,21.7725 L16.526016,22.7374216 L13.1117968,19.9725 L16.526016,17.2075784 Z M38.56,8.32 L39.5610936,8.32 C40.3333171,8.31910464 40.9591046,7.6933171 40.96,6.9210936 L40.96,1.3989064 C40.9591046,0.626682904 40.3333171,0.000895362137 39.5610936,0 L1.3989064,0 C0.626682904,0.000895362137 0.000895362137,0.626682904 0,1.3989064 L0,6.9210936 C0.000895362137,7.6933171 0.626682904,8.31910464 1.3989064,8.32 L2.4,8.32 L2.4,32.84 C2.39932514,33.4894845 2.61055908,34.1214581 3.0016408,34.64 L0.6,34.64 C0.26862915,34.64 0,34.9086292 0,35.24 C0,35.5713708 0.26862915,35.84 0.6,35.84 L40.36,35.84 C40.6913708,35.84 40.96,35.5713708 40.96,35.24 C40.96,34.9086292 40.6913708,34.64 40.36,34.64 L37.9583592,34.64 C38.3494409,34.1214581 38.5606749,33.4894845 38.56,32.84 L38.56,8.32 Z M15.1182816,1.2 L25.8417216,1.2 L25.8417216,7.12 L15.1182816,7.12 L15.1182816,1.2 Z M1.3989064,7.12 C1.28910223,7.11988227 1.2,7.03089777 1.2,6.9210936 L1.2,1.3989064 C1.2,1.28910223 1.28910223,1.20011773 1.3989064,1.2 L13.9182816,1.2 L13.9182816,7.12 L1.3989064,7.12 Z M37.36,32.84 C37.3588599,33.8336399 36.5536399,34.6388599 35.56,34.64 L5.4,34.64 C4.40636006,34.6388599 3.60114006,33.8336399 3.6,32.84 L3.6,8.32 L37.36,8.32 L37.36,32.84 Z M27.0417184,7.12 L27.0417184,1.2 L39.5610936,1.2 C39.6708978,1.20011773 39.76,1.28910223 39.76,1.3989064 L39.76,6.9210936 C39.76,7.03089777 39.6708978,7.11988227 39.5610936,7.12 L27.0417184,7.12 Z M20.48,33.08 C26.8762496,33.08 32.08,27.8762496 32.08,21.48 C32.08,15.0837504 26.8762496,9.88 20.48,9.88 C14.0837504,9.88 8.88,15.0837504 8.88,21.48 C8.88,27.8762496 14.0837504,33.08 20.48,33.08 Z M20.48,11.08 C26.2237614,11.08 30.88,15.7362386 30.88,21.48 C30.88,27.2237614 26.2237614,31.88 20.48,31.88 C14.7362386,31.88 10.08,27.2237614 10.08,21.48 C10.0864698,15.7389206 14.7389206,11.0864698 20.48,11.08 Z" id="Shape" fill="#313440"></path>
            </g>
        </g>
    </g>
</svg>