<svg xmlns="http://www.w3.org/2000/svg" width="375" viewBox="0 0 375 375" height="375" version="1.0"><defs><clipPath id="a"><path d="M 112.5 126.46875 L 262.5 126.46875 L 262.5 220 L 112.5 220 Z M 112.5 126.46875"/></clipPath><clipPath id="b"><path d="M 191 176 L 246 176 L 246 248.71875 L 191 248.71875 Z M 191 176"/></clipPath></defs><path fill="#A6CE5D" d="M 158.316406 177.128906 C 155.125 177.128906 152.226562 178.398438 150.09375 180.453125 C 147.960938 178.398438 145.0625 177.128906 141.867188 177.128906 C 135.320312 177.128906 130.011719 182.449219 130.011719 189.007812 C 130.011719 195.5625 135.320312 200.882812 141.867188 200.882812 C 145.0625 200.882812 147.960938 199.613281 150.09375 197.558594 C 152.226562 199.613281 155.125 200.882812 158.316406 200.882812 C 164.863281 200.882812 170.175781 195.5625 170.175781 189.007812 C 170.175781 182.449219 164.863281 177.128906 158.316406 177.128906"/><g clip-path="url(#a)"><path fill="#547E23" d="M 254.546875 150.871094 L 120.453125 150.871094 L 120.453125 139.792969 C 120.453125 137.035156 122.691406 134.792969 125.445312 134.792969 L 249.554688 134.792969 C 252.308594 134.792969 254.546875 137.035156 254.546875 139.792969 Z M 262.523438 206.785156 L 262.523438 139.792969 C 262.523438 132.628906 256.703125 126.804688 249.554688 126.804688 L 125.445312 126.804688 C 118.296875 126.804688 112.480469 132.628906 112.480469 139.792969 L 112.480469 206.785156 C 112.480469 213.941406 118.296875 219.765625 125.445312 219.765625 L 184.929688 219.765625 L 184.929688 211.785156 L 125.445312 211.785156 C 122.691406 211.785156 120.453125 209.539062 120.453125 206.785156 L 120.453125 166.230469 L 254.546875 166.230469 L 254.546875 206.785156 C 254.546875 208.707031 253.421875 210.464844 251.707031 211.289062 L 251.707031 219.585938 C 257.921875 218.542969 262.523438 213.164062 262.523438 206.785156"/></g><g clip-path="url(#b)"><path fill="#A6CE5D" d="M 231.230469 201.132812 L 205.40625 201.132812 L 205.40625 184.421875 L 231.230469 184.421875 Z M 223.0625 233.882812 L 213.578125 233.882812 L 214.964844 224.367188 C 213.964844 223.457031 213.332031 222.140625 213.332031 220.675781 C 213.332031 220.003906 213.464844 219.363281 213.703125 218.777344 C 214.453125 216.960938 216.238281 215.683594 218.316406 215.683594 C 220.402344 215.683594 222.183594 216.960938 222.929688 218.777344 C 223.171875 219.363281 223.300781 220.003906 223.300781 220.675781 C 223.300781 222.140625 222.675781 223.457031 221.671875 224.367188 Z M 239.382812 201.203125 L 239.382812 183.0625 C 239.382812 179.3125 236.335938 176.257812 232.589844 176.257812 L 204.046875 176.257812 C 200.296875 176.257812 197.25 179.3125 197.25 183.0625 L 197.25 201.203125 C 193.832031 201.550781 191.132812 204.429688 191.132812 207.9375 L 191.132812 241.660156 C 191.132812 245.398438 194.191406 248.464844 197.929688 248.464844 L 238.703125 248.464844 C 242.445312 248.464844 245.5 245.398438 245.5 241.660156 L 245.5 207.9375 C 245.5 204.429688 242.804688 201.550781 239.382812 201.203125"/></g></svg>