<?xml version="1.0" encoding="UTF-8"?>
<svg width="19px" height="29px" viewBox="0 0 19 29" version="1.1" xmlns="http://www.w3.org/2000/svg" xmlns:xlink="http://www.w3.org/1999/xlink">
    <title>fa-brands:facebook-f</title>
    <g id="Page-1" stroke="none" stroke-width="1" fill="none" fill-rule="evenodd">
        <g id="login" transform="translate(-790.000000, -630.000000)">
            <g id="Group-3" transform="translate(684.500000, 612.793750)">
                <g id="Group-5" transform="translate(83.912027, 0.000000)">
                    <g id="fa-brands:facebook-f" transform="translate(22.166100, 17.216100)">
                        <rect id="ViewBox" x="0" y="0" width="17.28" height="27.648"></rect>
                        <path d="M15.43356,15.678 L16.20144,10.67436 L11.4003,10.67436 L11.4003,7.42734 C11.4003,6.05844 12.07098,4.7241 14.22126,4.7241 L16.40394,4.7241 L16.40394,0.46404 C16.40394,0.46404 14.42322,0.126 12.52944,0.126 C8.57556,0.126 5.99112,2.52252 5.99112,6.86088 L5.99112,10.67436 L1.59606,10.67436 L1.59606,15.678 L5.99112,15.678 L5.99112,27.774 L11.4003,27.774 L11.4003,15.678 L15.43356,15.678 Z" id="Path" fill="#FFFFFF" fill-rule="nonzero"></path>
                    </g>
                </g>
            </g>
        </g>
    </g>
</svg>