<?xml version="1.0" encoding="UTF-8"?>
<svg width="47px" height="47px" viewBox="0 0 47 47" version="1.1" xmlns="http://www.w3.org/2000/svg" xmlns:xlink="http://www.w3.org/1999/xlink">
    <title>Group 25</title>
    <defs>
        <filter id="filter-1">
            <feColorMatrix in="SourceGraphic" type="matrix" values="0 0 0 0 1.000000 0 0 0 0 1.000000 0 0 0 0 1.000000 0 0 0 1.000000 0"></feColorMatrix>
        </filter>
    </defs>
    <g id="Page-1" stroke="none" stroke-width="1" fill="none" fill-rule="evenodd">
        <g id="home" transform="translate(-1144.000000, -7021.000000)">
            <g id="Group-25" transform="translate(1144.031838, 7021.000000)">
                <g id="Shape-2" transform="translate(0.000000, 0.000000)" fill="#F0B015" fill-rule="nonzero">
                    <path d="M11.7273634,1.77635684e-14 C14.8729843,1.77635684e-14 17.5757751,1.08417032 19.8357358,3.25251095 C21.0878761,3.03873088 22.2942065,2.93184085 23.4547268,2.93184085 C26.2338676,2.93184085 28.8908484,3.47392601 31.4256691,4.55809633 C33.9604899,5.64226664 36.1441005,7.10055207 37.976501,8.9329526 C39.8089016,10.7653531 41.267187,12.9489638 42.3513573,15.4837845 C43.4355276,18.0186052 43.9776128,20.675586 43.9776128,23.4547268 C43.9776128,24.6152472 43.8707228,25.8215775 43.6569427,27.0737179 C45.8252833,29.3336785 46.9094536,32.0364693 46.9094536,35.1820902 C46.9094536,38.4193312 45.7642033,41.183202 43.4737026,43.4737026 C41.183202,45.7642033 38.4193312,46.9094536 35.1820902,46.9094536 C32.0364693,46.9094536 29.3336785,45.8252833 27.0737179,43.6569427 C25.8215775,43.8707228 24.6152472,43.9776128 23.4547268,43.9776128 C20.675586,43.9776128 18.0186052,43.4355276 15.4837845,42.3513573 C12.9489638,41.267187 10.7653531,39.8089016 8.9329526,37.976501 C7.10055207,36.1441005 5.64226664,33.9604899 4.55809633,31.4256691 C3.47392601,28.8908484 2.93184085,26.2338676 2.93184085,23.4547268 C2.93184085,22.2942065 3.03873088,21.0878761 3.25251095,19.8357358 C1.08417032,17.5757751 2.13162821e-14,14.8729843 2.13162821e-14,11.7273634 C2.13162821e-14,8.49012247 1.14525033,5.72625167 3.435751,3.435751 C5.72625167,1.14525033 8.49012247,1.77635684e-14 11.7273634,1.77635684e-14 Z" id="Shape"></path>
                </g>
                <g filter="url(#filter-1)" id="cib:facebook-f">
                    <g transform="translate(14.309883, 14.745098)">
                        <rect id="ViewBox" x="0" y="0" width="18.5788235" height="18.5788235"></rect>
                        <path d="M13.6124718,10.4505882 L14.1286147,7.08840176 L10.9022859,7.08840176 L10.9022859,4.90655118 C10.9022859,3.98689941 11.3528224,3.08989059 12.7979065,3.08989059 L14.2644724,3.08989059 L14.2644724,0.227590588 C14.2644724,0.227590588 12.9337641,0.000580588235 11.6611147,0.000580588235 C9.00434294,0.000580588235 7.26780353,1.61113235 7.26780353,4.52626588 L7.26780353,7.08898235 L4.31435118,7.08898235 L4.31435118,10.4511688 L7.26780353,10.4511688 L7.26780353,18.5794041 L10.9022859,18.5794041 L10.9022859,10.4511688 L13.6124718,10.4505882 Z" id="Path" fill="#000000" fill-rule="nonzero"></path>
                    </g>
                </g>
            </g>
        </g>
    </g>
</svg>