<?xml version="1.0" encoding="UTF-8"?>
<svg width="235px" height="246px" viewBox="0 0 235 246" version="1.1" xmlns="http://www.w3.org/2000/svg" xmlns:xlink="http://www.w3.org/1999/xlink">
    <title>undraw_choose_re_7d5a</title>
    <g id="Page-1" stroke="none" stroke-width="1" fill="none" fill-rule="evenodd">
        <g id="how-it-works" transform="translate(-1053.000000, -394.000000)" fill-rule="nonzero">
            <g id="undraw_choose_re_7d5a" transform="translate(1053.000000, 394.500000)">
                <path d="M215.398659,209.305799 L204.641081,219.209432 L213.190379,204.8644 C206.454793,192.649918 195.438814,182.093625 195.438814,182.093625 C195.438814,182.093625 172.584514,203.989867 172.584514,221.20174 C172.584514,238.413613 182.816684,244.423355 195.438814,244.423355 C208.060759,244.423355 218.292925,238.413617 218.292925,221.20174 C218.292925,217.370727 217.159047,213.307849 215.398659,209.305799 Z" id="Path" fill="#F2F2F2"></path>
                <path d="M201.874533,219.745583 L201.874533,220.593983 C201.824133,230.455583 200.160933,238.149983 196.897533,243.567983 C196.851333,243.647783 196.800933,243.723383 196.754733,243.803183 L196.389333,243.580583 L196.040733,243.362183 C199.661133,237.511583 200.942133,229.241783 200.988333,220.640183 C200.992533,220.362983 200.996733,220.081583 200.992533,219.800183 C200.979933,216.158762 200.757333,212.475383 200.400333,208.896983 C200.375133,208.619783 200.345733,208.338383 200.316333,208.056983 C199.820733,203.336183 199.106733,198.825383 198.375933,194.906783 C198.325533,194.629583 198.270933,194.352383 198.216333,194.079383 C196.952133,187.451783 195.662733,182.651183 195.368733,181.588583 C195.335133,181.458383 195.314133,181.386983 195.309933,181.370183 L195.708933,181.256783 L195.713133,181.252583 L196.116333,181.139183 C196.120533,181.155983 196.191933,181.395404 196.309533,181.840583 C196.758933,183.503783 197.926533,188.018783 199.073133,193.974383 C199.123533,194.243183 199.178133,194.520383 199.228533,194.797583 C199.824933,197.976983 200.408733,201.530183 200.870733,205.259783 C200.988333,206.1964 201.093333,207.1204 201.185733,208.031783 C201.219333,208.313183 201.248733,208.594583 201.273933,208.871783 C201.660355,212.739989 201.860555,216.364589 201.874533,219.745583 Z" id="Path" fill="#FFFFFF"></path>
                <path d="M199.073137,193.974367 C198.791737,194.012167 198.506137,194.049967 198.216337,194.079367 C197.429334,194.160382 196.638699,194.201035 195.847537,194.201167 C192.475808,194.205638 189.146034,193.453569 186.103537,192.000367 C185.927137,192.222967 185.750737,192.445567 185.570137,192.672367 C188.77072,194.23467 192.286005,195.044895 195.847537,195.041179 C196.692116,195.040935 197.536093,194.996072 198.375937,194.906767 C198.661537,194.877367 198.947137,194.839567 199.228537,194.797567 C201.551358,194.464399 203.81011,193.7804 205.927537,192.768967 C205.746937,192.537967 205.570537,192.311167 205.398337,192.088567 C203.394302,193.025206 201.262896,193.660665 199.073137,193.974367 Z" id="Path" fill="#FFFFFF"></path>
                <path d="M201.18575,208.031779 C200.89595,208.048579 200.60615,208.056979 200.31635,208.056979 C200.22815,208.061179 200.13575,208.061179 200.04755,208.061179 C192.632186,208.061282 185.686024,204.4329 181.44995,198.346579 C181.28195,198.594379 181.11395,198.842179 180.950175,199.094179 C185.363513,205.249835 192.4733,208.90089 200.047575,208.901179 C200.165175,208.901179 200.282775,208.901179 200.400375,208.896979 C200.694354,208.892779 200.984154,208.884379 201.273954,208.871779 C205.758327,208.642069 210.081644,207.125627 213.726954,204.503779 C213.592554,204.255979 213.458154,204.008179 213.319554,203.7604 C209.776741,206.334536 205.559812,207.818993 201.18575,208.031779 Z" id="Path" fill="#FFFFFF"></path>
                <path d="M201.874533,219.745583 C201.580533,219.770783 201.286533,219.787583 200.992533,219.800183 C200.677533,219.812783 200.362533,219.821183 200.047533,219.821183 C189.964146,219.809561 181.094856,213.15331 178.266333,203.474762 C178.077333,203.814988 177.888333,204.150983 177.707733,204.491183 C180.890117,214.13329 189.893831,220.65036 200.047533,220.661183 C200.362533,220.661183 200.677533,220.656983 200.988333,220.640183 C201.286533,220.631783 201.580533,220.614983 201.874533,220.593962 C207.812919,220.129402 213.352856,217.425492 217.372533,213.029762 C217.284333,212.718962 217.183533,212.412362 217.082733,212.101562 C213.200183,216.530217 207.745052,219.272103 201.874533,219.745583 Z" id="Path" fill="#FFFFFF"></path>
                <path d="M176.713652,52.8985212 L59.706549,37.981041 C59.3913311,37.9406205 59.0738872,37.920021 58.756089,37.919353 C58.442862,37.9188177 58.129929,37.9385753 57.819258,37.9785126 C57.5091131,38.0183825 57.2019099,38.0785066 56.8996176,38.1584994 C56.5937606,38.2401484 56.2934987,38.3414744 56.0007084,38.4618444 C55.7138647,38.5795903 55.4344417,38.7146593 55.1639844,38.8663044 C54.8898366,39.0190492 54.6249593,39.1878687 54.3707388,39.3718794 C54.11067,39.5606696 53.8615258,39.764068 53.624508,39.9810936 C53.3798074,40.2044185 53.1472463,40.440692 52.9278246,40.6888986 C52.7026478,40.9444934 52.4907044,41.211449 52.2928266,41.4887172 C52.0929458,41.7694788 51.9053766,42.0615328 51.730119,42.3648792 C51.5548614,42.6692392 51.392236,42.9857288 51.2422428,43.314348 C51.0922496,43.6429672 50.9554052,43.9827122 50.8317096,44.333583 C50.7036348,44.6962502 50.5913996,45.0670052 50.495004,45.445848 C50.3986084,45.8246908 50.3180538,46.2101108 50.2533402,46.602108 C50.1899762,46.9937608 50.1414424,47.3918172 50.1077388,47.7962772 C50.0740352,48.2007372 50.0571792,48.6100832 50.0571792,49.0243152 C50.0585204,49.4382112 50.0753736,49.8507604 50.1077388,50.2619628 C50.140104,50.6731652 50.1886378,51.080995 50.2533402,51.4854522 C50.3187314,51.8916006 50.3996206,52.2937016 50.4960078,52.6917552 C50.592395,53.0898088 50.7046288,53.4833138 50.8327092,53.8722702 C50.956402,54.2480806 51.0932464,54.6153006 51.2432424,54.9739302 C51.39323,55.3328902 51.5558568,55.6820726 51.7311228,56.0214774 C51.9063888,56.3608822 52.093958,56.6905178 52.2938304,57.0103842 C52.4933724,57.3315918 52.7050412,57.6406656 52.9288368,57.9376056 C53.1526324,58.2345456 53.3848602,58.5178356 53.6255202,58.7874756 C53.8661718,59.0554356 54.114914,59.3082238 54.3717468,59.5458402 C54.6285796,59.7834566 54.8929948,60.0054028 55.1649924,60.2116788 C55.4340142,60.4158915 55.7132872,60.6062355 56.0017206,60.7819674 C56.2921574,60.959174 56.5922608,61.1200281 56.9006298,61.2637788 C57.1997781,61.4031803 57.5068533,61.5248972 57.8202702,61.628301 C58.1272425,61.7296339 58.4400962,61.8121946 58.757097,61.8755256 C59.070962,61.9380642 59.3883953,61.9811264 59.707578,62.0044656 L176.714685,70.5632928 C177.055041,70.5880553 177.397118,70.5538475 177.725831,70.4621778 C177.89311,70.415638 178.056285,70.3554401 178.213711,70.282191 C178.378056,70.2057247 178.536411,70.116994 178.687433,70.016751 C178.840492,69.915185 178.986747,69.8037216 179.125262,69.6830736 C179.270608,69.5564785 179.408363,69.4214242 179.537812,69.2786136 C179.67459,69.1277359 179.803351,68.9697805 179.923565,68.8053996 C180.047935,68.6361984 180.16742,68.4558784 180.282018,68.2644396 C180.396616,68.0730008 180.504976,67.8732992 180.607098,67.6653348 C180.709225,67.457376 180.804778,67.2413266 180.893756,67.0171866 C180.983076,66.7933854 181.065654,66.5618324 181.141489,66.3225276 C181.217324,66.0832228 181.28642,65.8368396 181.348776,65.583378 C181.414498,65.3211552 181.471122,65.0542116 181.518649,64.7825472 C181.566176,64.5108828 181.60679,64.2351766 181.640491,63.9554286 C181.673184,63.675675 181.69762,63.3922156 181.713798,63.1050504 C181.729976,62.8178852 181.738066,62.5275168 181.738066,62.2339452 C181.738066,61.9407096 181.728968,61.648825 181.713798,61.3582914 C181.698628,61.0677578 181.674192,60.7794124 181.640491,60.4932552 C181.607798,60.2070952 181.567184,59.9232998 181.518649,59.641869 C181.470114,59.3604382 181.41349,59.0820342 181.348776,58.806657 C181.28642,58.5403938 181.217324,58.2801926 181.141489,58.0260534 C181.066326,57.7752882 180.983748,57.5282302 180.893756,57.2848794 C180.803764,57.0415286 180.708212,56.8055936 180.607098,56.5770744 C180.505307,56.3488912 180.396947,56.1274504 180.282018,55.912752 C180.167089,55.6980536 180.047605,55.4937936 179.923565,55.299972 C179.799525,55.1061672 179.67094,54.922476 179.537812,54.7488984 C179.404683,54.5753208 179.267166,54.412862 179.125262,54.261522 C178.986965,54.1132447 178.840812,53.9724936 178.687433,53.8398756 C178.537207,53.7099433 178.37899,53.5895484 178.213711,53.479398 C178.057816,53.3753682 177.894785,53.2824498 177.725831,53.2013328 C177.564247,53.1238105 177.396908,53.0589033 177.225313,53.007192 C177.058028,52.9570181 176.886907,52.920664 176.713673,52.898496" id="f3dd3be3-e3f2-4729-8854-c6cb5bd65852-210" fill="#FBDDA2"></path>
                <path d="M176.713652,86.5429782 L59.706549,83.7405786 C59.0718367,83.7248784 58.4376904,83.7896012 57.819237,83.9332032 C57.5072606,84.005836 57.2001177,84.0978546 56.8995966,84.2087232 C56.5923144,84.3220047 56.2921344,84.453692 56.0006874,84.6030696 C55.7129039,84.7505304 55.4335628,84.9139159 55.1639634,85.0924662 C54.8891882,85.2744465 54.6243912,85.4710618 54.3707178,85.6814616 C54.1104132,85.897425 53.8613432,86.1265819 53.624487,86.3680314 C53.3834938,86.6133982 53.151266,86.8742742 52.9278036,87.1506594 C52.7043384,87.427711 52.4926724,87.716391 52.2928056,88.0166994 C52.0929248,88.3170106 51.9053556,88.6284448 51.730098,88.951002 C51.5548404,89.2735592 51.392215,89.6068992 51.2422218,89.951022 C51.0922342,90.295142 50.9553898,90.6490438 50.8316886,91.0127274 C50.7036138,91.3892154 50.5913786,91.7717668 50.494983,92.1603816 C50.3985874,92.5489964 50.3180328,92.9426764 50.2533192,93.3414216 C50.1899552,93.7401416 50.1414214,94.1434214 50.1077178,94.551261 C50.0740142,94.9591006 50.0571582,95.3701322 50.0571582,95.7843558 C50.0584994,96.1985906 50.0753526,96.6094542 50.1077178,97.0169466 C50.140083,97.424439 50.1886168,97.8273814 50.2533192,98.2257738 C50.3187104,98.6221502 50.3995996,99.0143084 50.4959868,99.4022484 C50.592374,99.7901884 50.7046078,100.172065 50.8326882,100.547878 C50.956381,100.912564 51.0932254,101.266466 51.2432214,101.609584 C51.3932174,101.952701 51.5558442,102.285032 51.7311018,102.606575 C51.9063818,102.928125 52.093951,103.238379 52.2938094,103.537337 C52.4933514,103.835291 52.7050202,104.121784 52.9288158,104.396817 C53.1526114,104.67185 53.3848392,104.93121 53.6254992,105.174896 C53.8623513,105.414913 54.1114243,105.642554 54.3717258,105.856913 C54.6254264,106.06571 54.8902279,106.260641 55.1649714,106.440852 C55.4346216,106.617639 55.7139691,106.779172 56.0016996,106.924692 C56.2932158,107.072308 56.5934013,107.202141 56.9006088,107.313478 C57.2012343,107.422397 57.5083813,107.512397 57.8202492,107.58295 C58.129001,107.653279 58.4419057,107.703939 58.757076,107.734624 C59.0729422,107.764836 59.3903967,107.775136 59.707557,107.765465 L176.713652,104.205713 C176.885562,104.200474 177.056721,104.180686 177.225292,104.14656 C177.395818,104.111964 177.563219,104.063435 177.72581,104.001463 C177.89406,103.937128 178.057158,103.860057 178.21369,103.77092 C178.378608,103.677063 178.536888,103.571994 178.687412,103.456454 C178.840698,103.338795 178.986896,103.21218 179.125241,103.077269 C179.270578,102.935707 179.408288,102.786521 179.537791,102.630343 C179.670586,102.471261 179.799171,102.300209 179.923544,102.117187 C180.047917,101.934165 180.167401,101.741541 180.281997,101.539313 C180.396593,101.335737 180.504953,101.124744 180.607077,100.906336 C180.709201,100.687927 180.804754,100.462107 180.893735,100.228876 C180.983055,99.9919284 181.065633,99.7507686 181.141468,99.5053962 C181.217303,99.2600238 181.286399,99.007237 181.348755,98.7470358 C181.414477,98.4807558 181.471101,98.2092622 181.518628,97.932555 C181.566155,97.6558478 181.606769,97.3759276 181.64047,97.0927944 C181.673163,96.8086644 181.697599,96.5221726 181.713777,96.233319 C181.729955,95.9444654 181.738045,95.6532542 181.738045,95.3596854 C181.738045,95.0688158 181.728947,94.7782794 181.713777,94.4880762 C181.698607,94.197873 181.674171,93.9113812 181.64047,93.6286008 C181.607777,93.3448068 181.567163,93.0652268 181.518628,92.7898608 C181.470093,92.5144948 181.413469,92.2419904 181.348755,91.9723476 C181.28606,91.7121436 181.216797,91.458682 181.140964,91.2119628 C181.065132,90.9652436 180.982722,90.7256014 180.893735,90.4930362 C180.805093,90.2604738 180.709708,90.0351564 180.607581,89.817084 C180.505454,89.5990116 180.397094,89.3888604 180.282501,89.1866304 C180.167569,88.9840644 180.048085,88.7919466 179.924048,88.610277 C179.800011,88.4286074 179.671426,88.2582274 179.538295,88.099137 C179.4088,87.9437545 179.271087,87.79541 179.125745,87.6547392 C178.987389,87.5207889 178.841189,87.3951847 178.687921,87.2785914 C178.537371,87.1639985 178.379087,87.0599395 178.214198,86.9671572 C178.057429,86.8792887 177.894155,86.8035677 177.72581,86.7406596 C177.563152,86.6796485 177.395747,86.632133 177.225292,86.5985946 C177.056624,86.5656243 176.885464,86.5470188 176.713652,86.5429782" id="f1003c66-3f14-4be1-907c-7cdab0d8529f-211" fill="#E4E4E4"></path>
                <path d="M176.713652,118.08426 L59.706549,126.641596 C59.3873733,126.664936 59.0699471,126.707998 58.756089,126.770536 C58.4390868,126.833867 58.1262317,126.916428 57.819258,127.017761 C57.5058416,127.121166 57.1987665,127.242883 56.8996176,127.382283 C56.5912507,127.526038 56.2911476,127.686892 56.0007084,127.864094 C55.7122783,128.039829 55.4330069,128.230173 55.1639844,128.434383 C54.891648,128.642342 54.6272328,128.864288 54.3707388,129.100222 C54.1142448,129.337169 53.8655012,129.589956 53.624508,129.858582 C53.3835148,130.127208 53.151287,130.4105 52.9278246,130.708456 C52.7043594,131.007415 52.4926934,131.316826 52.2928266,131.63669 C52.0929458,131.956548 51.9053766,132.286182 51.730119,132.625592 C51.5548614,132.965339 51.392236,133.314523 51.2422428,133.673144 C51.0922496,134.031765 50.9554052,134.398985 50.8317096,134.774804 C50.7036348,135.163085 50.5913996,135.55659 50.495004,135.955319 C50.3986084,136.354047 50.3180538,136.755641 50.2533402,137.160101 C50.1899762,137.565236 50.1414424,137.973235 50.1077388,138.384099 C50.0740352,138.794963 50.0571792,139.20751 50.0571792,139.621742 C50.0585204,140.03598 50.0753736,140.445327 50.1077388,140.849785 C50.140104,141.254242 50.1886378,141.652465 50.2533402,142.044454 C50.3187314,142.437456 50.3996206,142.823041 50.4960078,143.201209 C50.592395,143.579377 50.7046288,143.950132 50.8327092,144.313474 C50.956402,144.664678 51.0932464,145.004423 51.2432424,145.332709 C51.39323,145.661334 51.5558568,145.977824 51.7311228,146.282178 C51.9063888,146.586532 52.093958,146.878586 52.2938304,147.15834 C52.4917082,147.43561 52.7036545,147.702566 52.9288368,147.958159 C53.1482575,148.206366 53.3808186,148.44264 53.6255202,148.665964 C53.8625375,148.882989 54.1116803,149.086389 54.3717468,149.275182 C54.6259689,149.45919 54.8908461,149.62801 55.1649924,149.780757 C55.4354507,149.932403 55.7148752,150.067472 56.0017206,150.185217 C56.2945086,150.305593 56.5947708,150.406919 56.9006298,150.488562 C57.2029226,150.568551 57.5101257,150.628674 57.8202702,150.668545 C58.1309399,150.708481 58.4438714,150.72824 58.757097,150.727708 C59.0749021,150.727034 59.3923526,150.706433 59.707578,150.666016 L176.713673,135.752077 C176.886907,135.729909 177.058029,135.693554 177.225313,135.643376 C177.396909,135.59167 177.564248,135.526764 177.725831,135.44924 C177.894785,135.368123 178.057816,135.275204 178.213711,135.171175 C178.37899,135.061024 178.537207,134.940629 178.687433,134.810697 C178.840812,134.678079 178.986965,134.537328 179.125262,134.389051 C179.265475,134.237375 179.402992,134.074916 179.537812,133.901674 C179.670607,133.728433 179.799192,133.544741 179.923565,133.350601 C180.047938,133.15646 180.167422,132.952207 180.282018,132.737842 C180.396614,132.524826 180.504974,132.303385 180.607098,132.073519 C180.709222,131.843653 180.804775,131.607718 180.893756,131.365714 C180.983076,131.122702 181.065654,130.874128 181.141489,130.619992 C181.217324,130.365855 181.28642,130.105653 181.348776,129.839384 C181.414498,129.563679 181.471122,129.285108 181.518649,129.003672 C181.566176,128.722236 181.60679,128.438439 181.640491,128.152282 C181.673184,127.866122 181.69762,127.577776 181.713798,127.287245 C181.729976,126.996715 181.738066,126.704661 181.738066,126.411083 C181.736716,126.1192 181.728456,125.82968 181.713286,125.542523 C181.698115,125.255367 181.67368,124.971909 181.639979,124.692149 C181.607622,124.411388 181.567176,124.135168 181.518641,123.863489 C181.470106,123.591811 181.413481,123.324869 181.348768,123.062663 C181.286412,122.808862 181.217316,122.562479 181.141481,122.323513 C181.066659,122.084547 180.984251,121.852987 180.894256,121.628833 C180.804261,121.404679 180.708707,121.18863 180.607594,120.980685 C180.504794,120.774412 180.395928,120.575216 180.280993,120.383096 C180.166059,120.190977 180.046574,120.010657 179.92254,119.842136 C179.802326,119.677755 179.673564,119.519798 179.536787,119.368918 C179.407338,119.226109 179.269582,119.091054 179.124238,118.964458 C178.985724,118.843809 178.839471,118.732345 178.686413,118.630781 C178.535389,118.530538 178.377033,118.441807 178.212686,118.365341 C178.055261,118.292096 177.892087,118.231899 177.72481,118.185358 C177.396098,118.093678 177.054018,118.05947 176.71366,118.084243" id="e5b3fa8a-e15d-46b1-859f-01f7147e98c8-212" fill="#E4E4E4"></path>
                <path d="M112.93834,119.65217 C114.472615,122.202917 117.67362,123.200897 120.385646,121.974022 C123.097672,120.747147 124.461535,117.684097 123.558746,114.847677 L146.235835,68.2589922 L135.381086,61.6786212 L115.796701,111.165277 C115.721865,111.194369 115.648158,111.224855 115.575579,111.256736 C115.503,111.288617 115.430689,111.32191 115.358645,111.356616 C115.286604,111.391319 115.215101,111.427833 115.144138,111.466156 C115.073175,111.50448 115.00273,111.544768 114.932803,111.58702 C112.155398,113.263438 111.262361,116.873668 112.937929,119.651587 L112.93834,119.65217 Z" id="bafb1f3d-b2ca-45c8-ab7e-ed03dda6d8fc-213" fill="#9E616A"></path>
                <path d="M141.907093,86.223774 L125.797006,82.0946826 C125.797006,82.0946826 126.322967,80.9056626 127.177848,78.935808 C128.032729,76.9659534 129.227154,74.2190904 130.570742,71.1004434 C131.914331,67.9817964 133.405054,64.4971698 134.861101,61.0527036 C136.317149,57.6082374 137.733187,54.2050656 138.925861,51.2552334 C140.118535,48.3054012 141.473371,46.5387426 142.835091,45.5486136 C143.962121,44.6920633 145.381563,44.3147182 146.785162,44.4985254 C147.87608,44.6610014 148.918838,45.0579337 149.841661,45.662001 C150.278561,45.9338231 150.689314,46.2455726 151.068645,46.593246 L154.803869,53.3859648 L141.907093,86.223774 Z" id="a23fb8c4-4f70-46f7-bb51-5893ecfd1d6a-214" fill="#CCCCCC"></path>
                <path d="M12.9788358,82.534284 C12.5886989,82.5630681 12.2004829,82.6137044 11.8160154,82.6859544 C11.4290651,82.7583878 11.0464311,82.8522326 10.6698774,82.9670562 C10.2875851,83.0838108 9.91189896,83.2211911 9.5444706,83.3785932 C9.16842016,83.5396192 8.80104088,83.7201854 8.4438354,83.9195532 C8.094317,84.1160488 7.752717,84.3297378 7.4190354,84.5606202 C7.0853538,84.7915026 6.7612804,85.0395714 6.4468152,85.3048266 C6.132686,85.5694098 5.8278248,85.8515196 5.5322316,86.151156 C5.2366384,86.4507924 4.9518322,86.7667724 4.677813,87.099096 C4.403791,87.431428 4.144091,87.7757244 3.898713,88.1319852 C3.653335,88.488246 3.4231302,88.8552938 3.2080986,89.2331286 C2.995083,89.6116326 2.7958868,90.0004126 2.61051,90.3994686 C2.4251332,90.7985246 2.2566082,91.2068612 2.104935,91.6244784 C1.946861,92.0575824 1.8085018,92.4952392 1.6898574,92.9374488 C1.571213,93.3796584 1.472289,93.8255752 1.3930854,94.2751992 C1.3135402,94.724826 1.253882,95.1774838 1.2141108,95.6331726 C1.1743396,96.0888614 1.1544708,96.5464066 1.1544708,97.0058082 C1.1544708,97.4652042 1.1743508,97.9187048 1.2141108,98.36631 C1.2538708,98.8139152 1.313529,99.2546072 1.3930854,99.688386 C1.4722918,100.12217 1.5712158,100.548202 1.6898574,100.96648 C1.808499,101.384758 1.9463528,101.794441 2.1034188,102.19553 C2.256436,102.582801 2.4249596,102.957431 2.6089896,103.31942 C2.79089536,103.677732 2.99068201,104.026682 3.2075946,104.364952 C3.42111052,104.696823 3.65162228,105.017447 3.898209,105.325542 C4.14244586,105.63178 4.40267289,105.924917 4.6778046,106.203728 C4.94838833,106.477817 5.23361188,106.737056 5.5322232,106.980308 C5.82463501,107.218474 6.13014303,107.440093 6.447315,107.644127 C7.07324619,108.046969 7.74329163,108.376734 8.444331,108.626965 C9.16298352,108.883744 9.9098178,109.053479 10.668861,109.13254 C11.0495887,109.171803 11.4322929,109.188684 11.814999,109.183095 C12.2038521,109.177632 12.5920824,109.150119 12.9778194,109.100687 C13.3670277,109.05109 13.7531996,108.980034 14.1345708,108.887843 C14.5170895,108.795309 14.8942986,108.682061 15.2645304,108.548601 C15.6389692,108.413508 16.0060203,108.258756 16.3641534,108.084988 C16.7290612,107.907955 17.0847682,107.712553 17.4299076,107.499533 C17.7659468,107.289892 18.0932206,107.06508 18.411729,106.825097 C18.7302374,106.585115 19.0388072,106.329294 19.3374384,106.057636 C19.6360612,105.785977 19.9244066,105.499485 20.2024746,105.19816 C20.4805426,104.896835 20.7478236,104.580683 21.0043176,104.249704 C21.2624944,103.919057 21.5055064,103.578468 21.7333536,103.227936 C21.9612008,102.877404 22.1745608,102.517604 22.3734336,102.148536 C22.5722924,101.779465 22.756321,101.401801 22.9255194,101.015544 C23.0947178,100.629287 23.248918,100.234939 23.38812,99.8325006 C23.532376,99.4159054 23.6586014,98.9957724 23.7667962,98.5721016 C23.874991,98.1484308 23.9653204,97.7217262 24.0377844,97.2919878 C24.1099124,96.8619078 24.1641778,96.429641 24.2005806,95.9951874 C24.2369834,95.5607338 24.2551806,95.1244238 24.2551806,94.6862574 C24.2548446,94.2480938 24.2366446,93.8153216 24.2005806,93.3879408 C24.1645166,92.96056 24.1102512,92.5392482 24.0377844,92.1240054 C23.9656536,91.7094374 23.8753242,91.3009328 23.7667962,90.8984916 C23.6582682,90.4960504 23.5320428,90.1011972 23.38812,89.713932 C23.248246,89.3391324 23.0940458,88.9756252 22.9255194,88.6234104 C22.7546382,88.2722008 22.5697668,87.9314408 22.3709052,87.6011304 C21.9772325,86.9483388 21.5194455,86.3364304 21.0043386,85.7744874 C20.7515421,85.4981032 20.4845771,85.23502 20.20452,84.9862986 C19.9287142,84.742228 19.6399482,84.5132069 19.3394796,84.3002328 C19.0418706,84.0893506 18.7328306,83.8950828 18.4137744,83.7183186 C18.0949355,83.5416993 17.7664747,83.3830377 17.4299286,83.243076 C16.7350576,82.9536546 16.0083835,82.7474644 15.2650596,82.628805 C14.8909343,82.5691659 14.5136334,82.5315197 14.1351,82.5160602 C13.7494633,82.5004478 13.3632498,82.5068632 12.9783444,82.5352752" id="bf4ad07a-caea-45f0-95a0-f5e060234fe8-215" fill="#E4E4E4"></path>
                <path d="M12.9788358,130.058275 C12.5886989,130.087059 12.2004829,130.137696 11.8160154,130.209946 C11.4290655,130.282381 11.0464317,130.376226 10.6698774,130.491047 C10.2875857,130.607804 9.91189969,130.745184 9.5444706,130.902584 C9.16842016,131.06361 8.80104088,131.244177 8.4438354,131.443544 C8.094317,131.640046 7.752717,131.853735 7.4190354,132.084611 C7.0853538,132.315488 6.7612804,132.563557 6.4468152,132.828818 C6.132686,133.093401 5.8278248,133.375512 5.5322316,133.675151 C5.2366384,133.974791 4.9518322,134.290771 4.677813,134.623091 C4.403791,134.955421 4.144091,135.299716 3.898713,135.655976 C3.653335,136.012237 3.4231302,136.379285 3.2080986,136.75712 C2.995083,137.135624 2.7958868,137.524404 2.61051,137.92346 C2.4251332,138.322516 2.2566082,138.730851 2.104935,139.148465 C1.946861,139.581569 1.8085018,140.019228 1.6898574,140.46144 C1.571213,140.903652 1.472289,141.349568 1.3930854,141.799186 C1.3135402,142.248813 1.253882,142.701471 1.2141108,143.15716 C1.1743396,143.612848 1.1544708,144.070394 1.1544708,144.529795 C1.1544708,144.989197 1.1743508,145.442697 1.2141108,145.890297 C1.2538708,146.337897 1.313529,146.77859 1.3930854,147.212377 C1.4722918,147.646159 1.5712158,148.072189 1.6898574,148.490467 C1.808499,148.908745 1.9463528,149.318428 2.1034188,149.719517 C2.256436,150.106785 2.4249596,150.481416 2.6089896,150.843412 C2.79089538,151.201722 2.99068203,151.550671 3.2075946,151.888939 C3.42111052,152.22081 3.65162228,152.541434 3.898209,152.849529 C4.14244586,153.155767 4.40267289,153.448904 4.6778046,153.727715 C4.9483884,154.001804 5.23361194,154.261043 5.5322232,154.504295 C5.82463708,154.742459 6.13014495,154.964078 6.447315,155.168114 C7.07324724,155.570953 7.7432925,155.900716 8.444331,156.150947 C9.16298296,156.407729 9.90981747,156.577464 10.668861,156.656522 C11.0495886,156.695787 11.4322928,156.712669 11.814999,156.707082 C12.203852,156.701617 12.5920822,156.674104 12.9778194,156.624674 C13.3670278,156.575075 13.7531997,156.504018 14.1345708,156.411826 C14.5170906,156.319295 14.8942998,156.206048 15.2645304,156.072584 C15.6389699,155.937493 16.0060211,155.78274 16.3641534,155.608971 C16.729062,155.431939 17.0847692,155.236537 17.4299076,155.023516 C17.7659468,154.813875 18.0932206,154.589064 18.411729,154.349084 C18.7302374,154.109105 19.0388072,153.853283 19.3374384,153.581618 C19.6360612,153.30996 19.9244066,153.023468 20.2024746,152.722143 C20.4805426,152.420818 20.7478236,152.104666 21.0043176,151.773686 C21.2624944,151.443043 21.5055064,151.102454 21.7333536,150.751919 C21.9612008,150.401384 22.1745608,150.041584 22.3734336,149.672519 C22.5722924,149.303448 22.756321,148.925784 22.9255194,148.539527 C23.0947178,148.15327 23.248918,147.758922 23.38812,147.356483 C23.532376,146.939888 23.6586014,146.519755 23.7667962,146.096084 C23.874991,145.672414 23.9653204,145.245709 24.0377844,144.815971 C24.1099124,144.385891 24.1641778,143.953625 24.2005806,143.519174 C24.2369834,143.084724 24.2551806,142.648412 24.2551806,142.21024 C24.2548446,141.772074 24.2366446,141.339302 24.2005806,140.911924 C24.1645166,140.484546 24.1102512,140.063234 24.0377844,139.647988 C23.9656536,139.23342 23.8753242,138.824917 23.7667962,138.422479 C23.6582682,138.02004 23.5320428,137.625186 23.38812,137.237915 C23.248246,136.863115 23.0940458,136.499608 22.9255194,136.147393 C22.7546382,135.796186 22.5697668,135.455426 22.3709052,135.125113 C21.9772325,134.472322 21.5194455,133.860413 21.0043386,133.29847 C20.7515399,133.022088 20.4845751,132.759005 20.20452,132.510281 C19.9287131,132.266212 19.6399472,132.037191 19.3394796,131.824216 C19.0418706,131.613333 18.7328306,131.419066 18.4137744,131.242301 C18.0949355,131.065683 17.7664747,130.907023 17.4299286,130.767063 C16.7350584,130.477638 16.0083841,130.271447 15.2650596,130.152788 C14.8909345,130.093148 14.5136335,130.055503 14.1351,130.040047 C13.7494634,130.024431 13.3632498,130.030845 12.9783444,130.059258" id="b68b3c2d-1cd9-4a2b-b264-66241f72f014-216" fill="#E4E4E4"></path>
                <path d="M12.9808602,31.0506252 C12.5928478,31.0411866 12.2046128,31.0538477 11.8180398,31.088547 C11.4330511,31.1231354 11.0503723,31.1798536 10.6719018,31.2584202 C10.2912807,31.3379572 9.91552936,31.4392367 9.546495,31.561761 C9.17177878,31.6858102 8.80432223,31.8307983 8.4458598,31.996041 C8.09499058,32.1576688 7.75291304,32.3377362 7.4210598,32.535489 C7.08593144,32.7352034 6.76141952,32.9522167 6.4488396,33.185649 C6.13121016,33.4228355 5.82578887,33.6759461 5.5337478,33.9440094 C5.2368078,34.2166818 4.9514962,34.505702 4.677813,34.81107 C4.403791,35.116774 4.144091,35.43596 3.898713,35.768628 C3.653335,36.101296 3.4231302,36.4460978 3.2080986,36.8030334 C2.9940694,37.164687 2.7943678,37.535267 2.6089938,37.9147734 C2.4236198,38.2942798 2.2550948,38.6862686 2.1034188,39.0907398 C1.9463556,39.5076598 1.8085018,39.9315 1.6898574,40.3622604 C1.571213,40.7930208 1.472289,41.2293308 1.3930854,41.6711904 C1.3135402,42.1144108 1.253882,42.5613398 1.2141108,43.0119774 C1.1743396,43.462615 1.1544708,43.9176318 1.1544708,44.3770278 C1.1544708,44.8357518 1.1743508,45.2907686 1.2141108,45.7420782 C1.2538708,46.1933878 1.313529,46.63981 1.3930854,47.0813448 C1.4722918,47.5228796 1.5712158,47.9585162 1.6898574,48.3882546 C1.808499,48.817993 1.9463528,49.240989 2.1034188,49.6572426 C2.256436,50.0593422 2.424961,50.4503202 2.6089938,50.8301766 C2.7943734,51.2086806 2.9945734,51.5759006 3.2095938,51.9318366 C3.4246142,52.2877726 3.654819,52.6310526 3.9002082,52.9616766 C4.1452446,53.2933338 4.4049446,53.6108342 4.6793082,53.9141778 C4.9536718,54.2175214 5.238478,54.5040146 5.5337268,54.7736574 C5.8242387,55.0407054 6.12814423,55.2928056 6.4442658,55.5289812 C6.7568911,55.7603246 7.08140821,55.9751501 7.416486,56.1725766 C7.74840038,56.3682387 8.09048322,56.5461148 8.441286,56.7054516 C8.79984147,56.8684332 9.16730333,57.0110634 9.5419212,57.132663 C10.2790821,57.3711974 11.041304,57.5238802 11.813466,57.5876826 C12.5866664,57.6517957 13.3646383,57.6282209 14.132538,57.5174082 C14.5132381,57.4623821 14.8905005,57.3857484 15.2624976,57.2878782 C15.6354375,57.1895984 16.0025576,57.0704314 16.3621206,56.9309412 C16.7258957,56.7899035 17.0816779,56.629059 17.4278706,56.4491298 C17.7654628,56.2737839 18.0938425,56.0812439 18.4117164,55.8722682 C18.7314394,55.6619141 19.0403982,55.4356384 19.3374258,55.1942958 C19.6360486,54.951617 19.924394,54.6931 20.202462,54.4187448 C20.48053,54.1443896 20.747811,53.8541892 21.004305,53.5481436 C21.2624818,53.2421036 21.5054938,52.9249406 21.733341,52.5966546 C21.9611882,52.2683686 22.1745482,51.9292956 22.373421,51.5794356 C22.5729546,51.2295812 22.7569832,50.8697812 22.9255068,50.5000356 C23.0940304,50.13029 23.2482306,49.7516152 23.3881074,49.3640112 C23.5323634,48.9615756 23.6585888,48.5537458 23.7667836,48.1405218 C23.8749784,47.7272978 23.9653078,47.3093558 24.0377718,46.8866958 C24.1098998,46.462353 24.1641652,46.0346376 24.200568,45.6035496 C24.2369708,45.1724616 24.255168,44.7378358 24.255168,44.2996722 C24.254832,43.8618418 24.236632,43.4273854 24.200568,42.996303 C24.164504,42.5652206 24.1102386,42.138684 24.0377718,41.7166932 C23.965641,41.2943692 23.8753116,40.8767646 23.7667836,40.4638794 C23.6582556,40.0509942 23.5320302,39.6438378 23.3881074,39.2424102 C23.2482334,38.8544674 23.0940332,38.47613 22.9255068,38.107398 C22.7569804,37.738666 22.572109,37.3795394 22.3708926,37.0300182 C22.1720338,36.6835294 21.9586738,36.3464794 21.7308126,36.0188682 C21.5029514,35.691257 21.2607822,35.3757796 21.004305,35.072436 C20.749505,34.7694256 20.4828988,34.4814162 20.2044864,34.2084078 C19.926074,33.9353994 19.6377272,33.678736 19.339446,33.4384176 C19.0425914,33.1984947 18.7337968,32.9737333 18.4142448,32.7649938 C18.0963267,32.5579467 17.767942,32.3674337 17.430399,32.1942138 C17.0841323,32.016378 16.7283447,31.8577255 16.364649,31.7189754 C16.0049809,31.5817638 15.6378562,31.4649581 15.265026,31.3691154 C14.8929079,31.2735441 14.5156422,31.1992725 14.1350664,31.1466624 C13.7515509,31.0938011 13.3653451,31.0627426 12.9783108,31.0536366 M12.9783108,29.788689 C14.6766707,29.8351878 16.342362,30.266304 17.8500252,31.049592 C19.3482624,31.8330162 20.6762423,32.9058132 21.7571046,34.205892 C22.8869331,35.5607707 23.7668463,37.1057539 24.355758,38.7687006 C25.6169718,42.3480039 25.6169718,46.2508617 24.355758,49.830165 C23.7662376,51.4979003 22.8864774,53.0482624 21.7571046,54.409656 C20.6760878,55.7159063 19.3482672,56.7963385 17.8495212,57.5892114 C16.3438297,58.3818616 14.6784,58.8238006 12.9778068,58.8819714 C11.2667336,58.9380823 9.56575599,58.5989937 8.0069976,57.8910444 C6.43338788,57.1702393 5.0256161,56.132183 3.8719044,54.8419284 C2.64677301,53.4755846 1.68790804,51.8922215 1.0447332,50.173452 C-0.348268016,46.4317582 -0.348268016,42.3137294 1.0447332,38.5720356 C1.68853879,36.8481052 2.64721582,35.2588814 3.8719044,33.8853606 C5.02526144,32.5878945 6.43267079,31.5409852 8.0069976,30.8094486 C9.5645418,30.0915095 11.2663873,29.741556 12.9808392,29.7866688 L12.9783108,29.788689 Z" id="a5644fa4-417a-45bc-a470-f5aa82f96b47-217" fill="#FBDDA2"></path>
                <polygon id="aeea3032-7d6f-43a2-9023-7da5e46a69d9-218" fill="#FBDDA2" points="12.9798522 47.9110296 8.9974458 39.6145512 9.9428658 38.998764 13.2230322 45.8144106 26.9958864 29.6259306 27.8295864 30.5142306"></polygon>
                <g id="b65364ff-7d92-487e-8061-939b37583c0d" transform="translate(137.760000, 211.260000)">
                    <polygon id="efb13e16-1633-4e88-9f48-a8cd4f1f0a11-219" fill="#9E616A" points="20.155905 0.4455024 10.297203 0.4070766 13.4762544 26.1676086 20.155905 26.2009776"></polygon>
                    <path d="M21.8591688,32.6829468 L0.332822774,32.569194 L0.332822774,32.2971936 C0.33244204,31.7447066 0.386290812,31.193516 0.4935966,30.6515496 C0.705255917,29.5823826 1.12714462,28.5658966 1.7347806,27.6610782 C2.35190293,26.7440959 3.14288974,25.9570589 4.0629498,25.3445346 C4.97068088,24.7409087 5.9892143,24.3234934 7.0594902,24.1164924 C7.60209326,24.0121964 8.15362129,23.9613962 8.7061464,23.964822 L8.7061464,23.964822 L21.8591688,24.0295356 L21.8591688,32.6829468 Z" id="b5b13dc0-906f-47cb-af24-0252d232cfd5-220" fill="#2F2E41"></path>
                </g>
                <g id="b7f9c824-5877-4162-b4d5-ccd00fd098dd" transform="translate(106.260000, 211.260000)">
                    <polygon id="a1d436e5-b88b-4a37-a10d-47f639496f81-221" fill="#9E616A" points="20.0893434 0.3231522 10.2589536 0.2847264 13.4278956 26.0103732 20.0893434 26.0437422"></polygon>
                    <path d="M21.7880712,32.5155978 L0.318347016,32.4028572 L0.318347016,32.13084 C0.318347016,31.5792 0.372030023,31.0288692 0.4791234,30.4877244 C0.690147621,29.4202071 1.11081185,28.4051466 1.7167668,27.5012976 C2.33197269,26.5851745 3.12110508,25.7987876 4.0393668,25.1867784 C4.94468711,24.5844519 5.96068442,24.16805 7.028322,23.9617686 C7.56957188,23.8575271 8.11975568,23.8067262 8.670942,23.8100982 L8.670942,23.8100982 L21.7880712,23.8743036 L21.7880712,32.5155978 Z" id="aa34d611-dd92-4168-ad92-5f109db8b699-222" fill="#2F2E41"></path>
                </g>
                <path d="M125.931737,106.293243 L109.400957,167.984439 L115.451675,227.11996 L128.849393,227.489535 L125.932233,174.093301 L142.646015,147.446494 L146.270985,227.853041 L158.423979,226.993565 L165.184522,157.860305 C167.48072,152.462176 169.164681,146.823702 170.204874,141.050461 C171.022352,136.518761 171.419903,131.921293 171.39247,127.316532 C171.378641,124.216505 171.140397,121.121547 170.679608,118.055927 C170.514939,116.913483 170.292028,115.780195 170.011745,114.660491 L165.082903,109.663898 L125.931737,106.293243 Z" id="a2716e79-bed1-4374-9a2b-fced6059ca2b-223" fill="#2F2E41"></path>
                <path d="M147.83378,116.611114 C145.053741,116.611114 142.445251,116.521906 140.079878,116.345741 C137.663713,116.179976 135.260246,115.86361 132.883485,115.398486 C130.859846,115.020504 128.889128,114.400045 127.013947,113.550528 C125.504398,112.8985 124.191857,111.862623 123.206874,110.545928 L123.094184,110.382069 L127.612569,80.9765334 L132.485018,47.9134278 C133.148965,43.3840736 137.103401,40.0722683 141.678978,40.2135678 L156.938838,40.6811454 C159.250797,40.7520541 161.435456,41.7563657 162.994528,43.4650129 C164.553601,45.17366 165.354133,47.4409322 165.213535,49.7497014 L163.210333,82.6313124 L170.599393,115.065443 L170.076136,115.138451 C169.865623,115.166344 169.054641,115.273393 167.784389,115.416332 C166.124074,115.602955 164.428694,115.771118 162.745514,115.916312 C160.364148,116.121596 158.033845,116.282972 155.819412,116.396196 C153.011078,116.539336 150.319428,116.608653 147.83378,116.611114 Z" id="Path" fill="#CCCCCC"></path>
                <path d="M139.365862,34.3707504 C139.36181,34.3707504 139.35775,34.3707504 139.353682,34.3707504 C138.707116,34.3703302 138.087193,34.1130916 137.630291,33.6556117 C137.173388,33.1981318 136.916932,32.5778851 136.917333,31.931319 L136.917333,18.3263346 C136.914968,15.8888578 137.402735,13.4757879 138.351641,11.2305984 C140.209758,6.84920002 143.686993,3.35385814 148.058681,1.4730114 C153.674896,-0.935879454 160.125355,-0.364045204 165.230216,2.99527078 C170.335078,6.35458677 173.412244,12.0525217 173.421832,18.1635384 L173.421832,31.789275 C173.422199,32.1171902 173.356517,32.4418206 173.228702,32.7438006 C172.9782,33.3328752 172.509781,33.8023812 171.921288,34.0542468 C171.619337,34.1831281 171.294563,34.2500088 170.966258,34.250916 L139.363816,34.3707504 L139.365862,34.3707504 Z" id="ad5d6a80-02ce-46d1-bab9-e92b7dd0c553-224" fill="#2F2E41"></path>
                <path d="M163.410979,13.6603908 C166.014138,18.4149192 165.499166,24.2690209 162.105921,28.4960601 C158.712676,32.7230994 153.10845,34.4918146 147.903496,32.9784 C144.499143,32.0001138 141.627987,29.6999112 139.930589,26.5909728 C137.333753,21.8387119 137.849982,15.9909645 141.239211,11.767143 C144.62844,7.54332144 150.22546,5.77244266 155.427455,7.2780288 C158.834966,8.25272613 161.710192,10.5514883 163.410979,13.6609074 L163.410979,13.6603908 Z" id="b726e025-86c8-4394-a2c8-021cc2286f1b-225" fill="#9E616A"></path>
                <path d="M132.602281,19.4335428 C132.600543,17.5057894 132.986356,15.5973572 133.736795,13.8216666 C135.205992,10.3570776 137.955817,7.59330724 141.412929,6.1066026 C143.186661,5.34662081 145.095135,4.95117029 147.024809,4.943778 L149.747833,4.930128 C149.778415,4.92988986 149.808998,4.92988986 149.839582,4.92988986 C153.647643,4.93223574 157.298805,6.44722912 159.989854,9.14159165 C162.680903,11.8359542 164.191402,15.4889777 164.189061,19.2970386 L164.189061,19.569543 L158.428544,19.5927984 L156.464385,14.10528 L156.071551,19.6034034 L153.096245,19.6165452 L152.105827,16.8480228 L151.907137,19.6200858 L132.604811,19.7065386 L132.602281,19.4335428 Z" id="f57fd208-21ef-4a3c-a796-e350b3c4ef74-226" fill="#2F2E41"></path>
                <path d="M109.411474,48.0541782 C108.525102,48.2710347 107.696205,48.6772729 106.981774,49.2449622 C106.423443,49.6867 105.946021,50.2219967 105.570767,50.8270182 C104.83072,52.0243899 104.504652,53.4317745 104.64274,54.832596 C104.712425,55.5402582 104.904371,56.2304627 105.210038,56.8724982 C105.972206,58.491006 107.391056,59.7055944 109.107734,60.2090695 C110.824411,60.7125447 112.674519,60.456692 114.190129,59.5062216 C114.245348,59.4705748 114.300032,59.4343974 114.354181,59.3976894 C114.40833,59.3609814 114.461519,59.32353 114.513748,59.2853352 C114.566295,59.2470312 114.617934,59.2081434 114.668665,59.1686718 C114.719395,59.1292002 114.769753,59.0891448 114.819739,59.0485056 L146.606536,70.3616256 C148.61569,71.0762583 150.85532,70.3767429 152.100585,68.64564 L159.636435,58.2116388 L150.525463,52.076325 L145.744183,57.5078112 L116.653992,51.7210512 C116.62224,51.6456752 116.589365,51.5706772 116.555368,51.4960572 C116.52137,51.4214372 116.485884,51.3471392 116.44891,51.2731632 C116.411295,51.1994028 116.372561,51.1260204 116.332709,51.053016 C116.292856,50.9800116 116.250716,50.9075966 116.206289,50.835771 C114.782395,48.535324 112.039757,47.4125704 109.411474,48.0541782 Z" id="a4aedf3a-b803-468c-96e6-3db664c8a6b9-227" fill="#9E616A"></path>
                <path d="M146.25718,54.0824508 C147.20806,52.895766 148.537469,51.3550212 149.888197,49.8268512 C151.238926,48.2986812 152.609671,46.7840436 153.643657,45.6510054 C154.677642,44.5179672 155.373427,43.7670156 155.373427,43.7670156 C157.341213,40.7915934 161.134286,39.6167038 164.439425,40.9588577 C167.744564,42.3010116 169.644628,45.7877755 168.980855,49.292733 C168.796946,50.2713407 168.416939,51.2026221 167.863706,52.0305282 C167.863706,52.0305282 166.826663,53.3875482 165.261319,55.4130654 C163.695974,57.4385826 161.601539,60.1349448 159.48899,62.8155444 C157.37644,65.496144 155.243235,68.162892 153.598435,70.1313774 C151.953635,72.0998628 150.796128,73.3715388 150.633071,73.262637 L144.895796,56.208432 C144.732739,56.099526 145.306316,55.2691356 146.25718,54.0824508 Z" id="f92404ba-5ab9-4b2c-8e33-361dae08dca6-228" fill="#CCCCCC"></path>
                <path d="M149.662388,33.9420102 C149.572189,34.3818293 149.607222,34.8381341 149.763503,35.2590294 C149.841933,35.4744493 149.950167,35.6778144 150.085047,35.863191 C150.200502,36.0211358 150.334228,36.1648736 150.483442,36.2914104 C150.925475,36.6649536 151.486153,36.8687562 152.064877,36.8662746 C152.100943,36.8659102 152.137009,36.864898 152.173073,36.8632152 C152.209137,36.8615324 152.245201,36.8590054 152.281265,36.8556342 C152.317665,36.8526018 152.353897,36.8485572 152.389961,36.8435004 C152.426025,36.8384436 152.462258,36.8327134 152.498661,36.8263098 L154.543221,36.4547148 L157.359271,30.4383786 L157.359271,35.9491398 L166.654761,34.2756876 L166.654761,10.8903438 L151.071442,10.965171 L151.456687,11.4126054 C152.73541,12.9139219 153.575139,14.7389285 153.883447,16.6867554 C154.185764,18.6596328 154.147803,20.6697247 153.771211,22.6297806 C153.405147,24.6130887 152.849498,26.5566669 152.111912,28.4337606 C151.467149,30.0966954 150.72711,31.7211008 149.895476,33.298902 C149.78809,33.5013175 149.70963,33.7177962 149.662388,33.9420102 L149.662388,33.9420102 Z" id="ed7e3964-87ca-4ccc-8578-c3f29353ddd2-229" fill="#2F2E41"></path>
                <path d="M41.723871,244.65 L234.347715,244.65 C234.626936,244.65 234.85329,244.423646 234.85329,244.144425 C234.85329,243.865204 234.626936,243.63885 234.347715,243.63885 L41.723871,243.63885 C41.4446496,243.63885 41.218296,243.865204 41.218296,244.144425 C41.218296,244.423646 41.4446496,244.65 41.723871,244.65 L41.723871,244.65 Z" id="Path" fill="#CACACA"></path>
            </g>
        </g>
    </g>
</svg>