<?xml version="1.0" encoding="UTF-8"?>
<svg width="92px" height="91px" viewBox="0 0 92 91" version="1.1" xmlns="http://www.w3.org/2000/svg" xmlns:xlink="http://www.w3.org/1999/xlink">
    <title>Group 4</title>
    <defs>
        <polygon id="path-1" points="0 0.324072 25.1484642 0.324072 25.1484642 49.8959441 0 49.8959441"></polygon>
    </defs>
    <g id="Page-1" stroke="none" stroke-width="1" fill="none" fill-rule="evenodd">
        <g id="how-it-works" transform="translate(-249.000000, -446.000000)">
            <g id="Group-4" transform="translate(249.600000, 446.000000)">
                <circle id="Oval" fill="#F7F7F7" cx="45.5" cy="45.5" r="45.5"></circle>
                <g id="Group-6" transform="translate(30.500000, 20.000000)">
                    <g id="Group-3" transform="translate(0.000000, 0.179978)">
                        <mask id="mask-2" fill="white">
                            <use xlink:href="#path-1"></use>
                        </mask>
                        <g id="Clip-2"></g>
                        <path d="M10.8872064,18.677484 C9.6614784,19.9647 8.5516704,21.067452 7.1510544,21.807828 C4.8074544,23.047164 2.1201264,22.48218 0.8142624,20.42082 C-0.2406096,18.756612 -0.1251936,16.93314 0.3450384,15.124788 C0.9861264,12.658212 2.2405824,10.510668 4.0040784,8.68518 C6.3920304,6.21306 9.0128304,4.017132 11.8629504,2.080764 C14.3275104,0.406476 16.9357104,-0.123228 19.8054864,0.717948 C21.1269744,1.10502 22.0694544,1.967868 22.7851344,3.10842 C24.0002784,5.044788 24.5143584,7.20594 24.8102064,9.437652 C25.1005104,11.621484 25.1549424,13.81842 25.1478864,16.01586 C25.1226864,23.952852 25.0919424,31.890348 24.7925664,39.823308 C24.7250304,41.60394 24.5955024,43.382052 24.2749584,45.150588 C23.4861984,49.502628 19.9375344,50.511636 16.7522544,49.575204 C13.2383664,48.542004 10.5676704,46.524996 10.5701904,41.784876 C10.5737184,34.780788 10.4945904,27.77418 10.8826704,20.774628 C10.9174464,20.149164 10.8872064,19.520172 10.8872064,18.677484" id="Fill-1" fill="#C66D3C" mask="url(#mask-2)"></path>
                    </g>
                    <path d="M19.9464048,2.78334 C20.8359648,3.548916 21.0688128,4.368924 21.2401728,5.186916 C21.7310688,7.526988 21.8878128,9.90738 21.8999088,12.289284 C21.9412368,20.076588 21.6005328,27.851292 21.0234528,35.615916 C20.7034128,39.92814 20.7739728,44.291772 19.3239648,48.459348 C20.8238688,48.527892 21.8968848,47.877732 22.4477568,46.606644 C23.0979168,45.106236 23.1961968,43.516116 23.2748208,41.912388 C23.5248048,36.771588 23.4245088,31.627764 23.4466848,26.484948 C23.4678528,21.49182 23.7072528,16.496172 23.4376128,11.505564 C23.2889328,8.751204 22.9003488,6.023556 21.6448848,3.503052 C21.3218208,2.854908 20.9589408,2.25918 20.2064688,2.037924 C17.7151968,1.305108 15.3645408,1.540476 13.1771808,3.018204 C10.0080288,5.1597 7.1397648,7.656516 4.6978848,10.588284 C3.0810528,12.529188 1.9410048,14.764428 2.0024928,17.407908 C2.0367648,18.885132 3.0629088,19.633572 4.4715888,19.247004 C4.9342608,19.119996 5.3893728,18.950148 5.8278528,18.753588 C7.8131088,17.864532 9.3230928,16.38378 10.7489088,14.793156 C11.0684448,14.437332 11.3078448,13.918212 12.2629248,13.898052 C9.9445248,17.093916 7.4542608,19.571076 3.5946288,20.44098 C4.6988928,21.066948 5.6791728,20.774124 6.6342528,20.338668 C8.3276928,19.565532 9.6794208,18.357948 10.8935568,16.965396 C11.5492608,16.213428 12.2775408,16.391844 12.5043408,17.351964 C12.6580608,18.000612 12.7633968,18.677988 12.7649088,19.34226 C12.7759968,23.591484 12.7805328,27.840708 12.7321488,32.089428 C12.6888048,35.851788 12.4433568,39.611124 12.5602848,43.376508 C12.6116928,45.046764 13.4357328,46.35918 14.7874608,47.176668 C17.5912128,48.872124 17.8628688,48.729996 18.7015248,45.71658 C18.7312608,45.609228 18.7529328,45.499356 18.7720848,45.389484 C19.6928928,40.181148 20.2261248,34.932996 20.3662368,29.645028 C20.4554448,26.293428 20.4882048,22.938804 20.6540208,19.590732 C20.8863648,14.894964 20.8727568,10.212804 20.3571648,5.534676 C20.2654368,4.700556 19.8173808,3.9249 19.9464048,2.78334" id="Fill-4" fill="#FE8422"></path>
                </g>
            </g>
        </g>
    </g>
</svg>