<?xml version="1.0" encoding="UTF-8"?>
<svg width="390px" height="200px" viewBox="0 0 390 200" version="1.1" xmlns="http://www.w3.org/2000/svg" xmlns:xlink="http://www.w3.org/1999/xlink">
    <title>undraw_takeout_boxes_ap54(1)</title>
    <g id="Page-1" stroke="none" stroke-width="1" fill="none" fill-rule="evenodd">
        <g id="how-it-works" transform="translate(-238.000000, -1503.000000)" fill-rule="nonzero">
            <g id="undraw_takeout_boxes_ap54(1)" transform="translate(238.000000, 1503.000000)">
                <polygon id="Path" fill="#FBDDA2" points="194.256751 49.3260274 194.246575 49.3941292 194.218787 49.590998 191.351076 70.1694716 173.791781 76.6121331 173.516634 76.4806262 163.685714 71.8117417 158.602348 52.3072407 158.254012 50.9682975 158.360078 50.927593 180.108023 42.7569472 194.243836 49.3181996"></polygon>
                <polygon id="Path" fill="#FBDDA2" points="173.516634 76.4806262 163.685714 71.8117417 158.254012 50.9682975 158.360078 50.927593 172.528767 56.9052838"></polygon>
                <polygon id="Path" fill="#000000" opacity="0.2" points="173.763209 76.2426614 166.285323 61.9123288 167.245793 57.8497065 162.722505 52.5232877 162.337378 52.8504892 166.695108 57.9819961 163.439922 71.7534247 163.931898 71.8700587 166.107632 62.6641879 173.315068 76.4763209"></polygon>
                <polygon id="Path" fill="#3F3D56" points="194.256751 49.5784736 194.218787 49.590998 172.528767 57.1581213 158.602348 52.3072407 158.254012 50.9682975 158.360078 50.927593 180.108023 42.7569472 194.243836 49.3181996 194.246575 49.3941292"></polygon>
                <polygon id="Path" fill="#FBDDA2" points="172.907632 57.5369863 168.486106 54.1264188 169.496673 50.3365949 182.129159 45.7886497 190.719374 46.2939335 194.130333 49.1996086 194.382779 49.9573386"></polygon>
                <polygon id="Path" fill="#FBDDA2" points="158.506458 50.9682975 168.486106 50.5890411 173.892368 48.7542074 182.321331 45.7886497 183.897847 43.5150685 179.964384 42.8109589"></polygon>
                <polygon id="Rectangle" fill="#CCCCCC" transform="translate(175.871299, 48.054005) rotate(-19.337590) translate(-175.871299, -48.054005) " points="173.113972 47.8014141 178.628625 47.8014141 178.628625 48.3065961 173.113972 48.3065961"></polygon>
                <polygon id="Path" fill="#9F616A" points="109.850489 17.355773 107.410959 29.5526419 118.794912 38.0908023 124.080626 22.2344423"></polygon>
                <circle id="Oval" fill="#9F616A" cx="118.998325" cy="17.5589941" r="10.9774129"></circle>
                <path d="M95.2139256,100.733104 C95.2641252,104.27474 110.689072,143.691018 108.547389,148.823515 C105.171401,152.274485 97.9096125,170.642403 94.8071037,175.542387 C94.4007867,175.542137 92.3679295,181.640701 92.3679295,181.640701 C92.3679295,181.640701 97.2467828,189.365554 102.532204,186.112978 C109.178106,170.482059 125.822117,161.764141 126.116207,141.391558 C126.919562,147.827198 129.291029,189.136626 129.291029,189.136626 C129.291029,189.136626 128.836172,189.329765 139.075765,190.310795 C140.665464,166.335233 147.161933,125.545491 132.617867,99.9196086 C128.146168,97.8871076 95.2139256,100.733104 95.2139256,100.733104 Z" id="Path" fill="#2F2E41"></path>
                <path d="M129.290344,188.33256 C128.815025,189.246634 125.406274,197.683984 128.50825,198.52998 C132.08555,199.505605 135.55326,198.138591 135.55326,198.138591 C135.55326,198.138591 141.815491,200.095538 145.647922,197.608407 C147.436571,195.819757 147.030059,194.193718 146.176384,193.014838 C145.298483,191.839273 143.94683,191.110702 142.482223,191.023601 C140.537409,190.884932 139.919796,190.524474 139.697018,189.633386 C139.3718,188.33256 129.290344,188.33256 129.290344,188.33256 Z" id="Path" fill="#2F2E41"></path>
                <path d="M95.8370998,180.964693 C95.8370998,180.964693 87.0987241,183.72418 88.9383836,186.943558 C90.1331436,188.938887 91.877671,190.547586 93.9630959,191.577049 C93.9630959,191.577049 95.7855773,199.090243 100.844638,199.090243 C103.374188,199.090243 104.236505,197.65301 104.466462,196.215777 C104.676942,194.763758 104.236357,193.292816 103.262313,192.195593 C101.985178,190.722352 101.803335,190.030744 102.275902,189.243131 C102.965773,188.09335 95.8370998,180.964693 95.8370998,180.964693 Z" id="Path" fill="#2F2E41"></path>
                <path d="M134.653068,101.923319 C134.653068,101.923319 133.024888,105.175765 126.519996,103.95463 C120.015104,102.737409 94.4025793,103.95463 94.4025793,103.95463 C94.4025793,103.95463 95.8233229,74.886137 92.5708767,57.402771 C89.3184305,39.9194051 102.124693,29.958544 102.124693,29.958544 L106.191229,25.8920078 C110.257765,25.4888767 118.844849,38.107272 118.844849,38.107272 C121.670681,38.5808532 124.308646,50.5925949 126.559135,61.958544 C126.692207,62.6082505 126.817452,63.2501292 126.942697,63.8920078 C127.979879,69.1914207 129.424106,75.0896595 130.289076,80.3851585 C130.351699,80.7608924 130.410407,81.1327123 130.465202,81.5045323 C131.493419,88.3810695 132.891401,95.1972115 134.653068,101.923319 L134.653068,101.923319 Z" id="Path" fill="#E6E6E6"></path>
                <path d="M106.156176,10.7237926 C106.156176,10.7237926 104.103777,6.20851272 109.44002,4.15610959 C109.44002,4.15610959 113.955299,-3.23254012 122.985855,1.69323288 C122.985855,1.69323288 129.143057,4.15610959 129.143057,10.7237926 C129.143057,17.2914755 131.195456,18.5229119 131.195456,18.5229119 C131.195456,18.5229119 128.139076,15.3873464 127.318117,12.9244775 C126.497159,10.4616086 120.112497,9.90284149 117.649624,12.3657221 C115.186751,14.8286027 109.029546,14.4181213 109.029546,14.4181213 L109.440027,23.448681 C109.440027,23.448681 107.387624,18.1124423 106.566665,18.1124423 C105.745706,18.1124423 104.92474,10.7237926 106.156176,10.7237926 Z" id="Path" fill="#2F2E41"></path>
                <path d="M130.289068,80.3851703 C120.590438,75.1131546 104.880067,63.5515108 99.8115734,57.2971076 C93.1305558,49.0583601 100.418227,42.7961292 100.418227,42.7961292 C108.680458,37.5828219 118.559127,55.469319 118.559127,55.469319 L126.559127,61.9585558 C126.6922,62.6082622 126.817444,63.2501409 126.942689,63.8920196 C127.979883,69.1914207 129.42411,75.0896595 130.289068,80.3851703 Z" id="Path" fill="#000000" opacity="0.2"></path>
                <path d="M159.24153,74.3097339 C159.24153,74.3097339 173.660317,80.1631663 176.033479,73.5831272 C178.406642,67.0030881 164.649613,67.1160157 164.649613,67.1160157 L159.24883,67.8812877 L159.24153,74.3097339 Z" id="Path" fill="#9F616A"></path>
                <path d="M98.5700861,40.1185088 C98.5700861,40.1185088 91.2859374,46.3843953 97.96218,54.620407 C104.638423,62.8564188 135.320693,80.4538434 135.320693,80.4538434 L155.30647,75.0509511 L160.962333,76.0859335 L162.028673,65.4673386 L153.696474,66.2807084 L132.54528,61.7770998 L119.057969,50.8333933 C119.057969,50.8333933 106.830145,34.9080039 98.5700861,40.1185088 Z" id="Path" fill="#E6E6E6"></path>
                <polygon id="Path" fill="#000000" opacity="0.2" points="125.106067 115.601566 126.380431 145.378865 123.149119 115.601566"></polygon>
                <path d="M262.693354,94.3008454 L251.124599,96.981409 C249.263831,97.412563 247.397724,96.2851225 246.913793,94.4373777 L246.913793,94.4373777 C246.640337,93.3932782 246.859672,92.2814491 247.509155,91.4194209 C248.158639,90.5573926 249.166863,90.0399421 250.245886,90.0148493 L261.420513,89.7549667 L262.693354,94.3008454 Z" id="Path" fill="#FFB9B9"></path>
                <path d="M261.465119,95.9986106 L258.895781,88.2905871 L274.299053,83.029272 L270.210885,47.0270176 L270.210885,47.0270176 C277.571452,48.3653033 281.074536,54.153319 280.746407,61.6273581 L282.739143,86.1943053 L261.465119,95.9986106 Z" id="Path" fill="#3F3D56"></path>
                <path d="M272.107663,39.0895029 L297.273239,39.0895029 L297.273239,26.5746262 C297.282114,23.1946863 295.957736,19.947591 293.587479,17.5380352 C291.248753,15.1397382 288.039401,13.7893795 284.689558,13.7941556 C277.79945,13.806873 272.196821,19.3507609 272.111499,26.2403523 C272.109581,26.3549628 272.107663,26.4638356 272.107663,26.5746419 L272.107663,39.0895029 Z" id="Path" fill="#2F2E41"></path>
                <path d="M307.795675,186.156614 L299.751209,185.233472 L290.124219,120.218411 L270.210885,185.497225 L261.507045,185.760978 L271.397773,105.448258 L269.947143,87.1174403 L294.608023,79.336728 C312.074528,91.5297025 311.713045,134.596145 307.795675,186.156614 Z" id="Path" fill="#2F2E41"></path>
                <circle id="Oval" fill="#FFB9B9" cx="282.475393" cy="27.113683" r="9.4950998"></circle>
                <path d="M291.970489,44.2576125 L275.881569,48.4776595 C278.592333,43.2647006 279.459714,38.3983875 277.991593,33.9712564 L289.332963,32.1249863 C288.604013,36.3582374 289.549843,40.709056 291.970489,44.2576125 L291.970489,44.2576125 Z" id="Path" fill="#FFB9B9"></path>
                <path d="M297.377421,82.8973933 C288.353546,88.6362231 277.841785,95.2289315 270.07901,88.8318317 L266.38647,70.8966419 C263.451628,68.2826184 264.7531,60.2163327 268.720568,48.7188219 C269.23116,47.2400223 270.393942,46.0785039 271.873295,45.5695186 L277.991593,43.4663562 C280.703139,45.7466145 285.147949,44.3865988 290.387973,41.3563327 L296.454286,42.9388493 L299.091816,62.7203092 C295.284462,68.4247162 295.949491,76.0202975 297.377421,82.8973933 Z" id="Path" fill="#3F3D56"></path>
                <path d="M289.85989,90.6083053 L278.291135,93.2888728 C276.430367,93.7200227 274.564262,92.5925841 274.080325,90.7448415 L274.080325,90.7448415 C273.80687,89.7007416 274.026204,88.5889122 274.675687,87.7268834 C275.325171,86.8648546 276.333395,86.3474031 277.412419,86.3223092 L288.587045,86.0624266 L289.85989,90.6083053 Z" id="Path" fill="#FFB9B9"></path>
                <path d="M306.39744,198.586587 C305.046364,199.203209 303.914658,195.381546 302.775002,196.501503 C299.587233,199.634184 291.93998,198.931969 291.93998,198.931969 C291.421121,198.765185 290.993216,198.393164 290.755908,197.902536 C290.5186,197.411907 290.492601,196.845491 290.683965,196.335186 L290.683965,196.335186 C290.914007,195.721741 291.430891,195.260566 292.066489,195.101667 L295.456681,194.254117 L300.779769,184.892826 L306.580994,184.158607 L306.727519,184.398231 C308.996333,188.054817 309.580388,192.511415 308.330431,196.629151 C307.847984,198.174951 307.191295,198.224278 306.39744,198.586587 Z" id="Path" fill="#2F2E41"></path>
                <path d="M268.153288,198.586587 C266.802211,199.203209 265.670505,195.381546 264.530853,196.501503 C261.34308,199.634184 253.695828,198.931969 253.695828,198.931969 C253.176969,198.765185 252.749063,198.393164 252.511755,197.902536 C252.274447,197.411907 252.248448,196.845491 252.439812,196.335186 L252.439812,196.335186 C252.669855,195.721741 253.186738,195.260566 253.822337,195.101667 L257.212528,194.254117 L262.535616,184.892826 L268.336841,184.158607 L268.483366,184.398231 C270.75218,188.054817 271.336235,192.511415 270.086278,196.629151 C269.603832,198.174951 268.947143,198.224278 268.153288,198.586587 Z" id="Path" fill="#2F2E41"></path>
                <path d="M293.606618,19.1939609 L291.215217,26.8024149 L270.539577,26.4349628 C270.684467,20.9776799 274.279557,16.2148964 279.488163,14.5798568 C284.696769,12.9448172 290.368852,14.7985315 293.606618,19.1939609 L293.606618,19.1939609 Z" id="Path" fill="#2F2E41"></path>
                <path d="M288.631656,92.3060744 L286.062317,84.5980509 L301.465589,79.336728 L295.638943,42.5543209 L295.638943,42.5543209 C302.999503,43.8926105 308.241047,50.4607795 307.912916,57.9348141 L309.905652,82.5017573 L288.631656,92.3060744 Z" id="Path" fill="#3F3D56"></path>
                <polygon id="Path" fill="#CCCCCC" points="251.841487 71.525636 235.820744 74.9710372 232.547554 59.2086106 238.576908 51.1119374 244.003131 50.0782779 250.032485 56.1937378"></polygon>
                <polygon id="Path" fill="#E6E6E6" points="244.434051 72.2129159 234.786301 72.2129159 233.471233 65.7197652 232.03092 58.6043053 234.183562 55.504501 238.320548 56.7960861 242.798043 62.9996086 243.921331 69.3205479 243.999609 69.7706458"></polygon>
                <polygon id="Path" fill="#CCCCCC" points="260.627006 68.4246575 249.515851 69.7166341 251.497065 55.590998 255.975734 51.5424658 259.851663 52.4900196 262.436008 58.4332681"></polygon>
                <polygon id="Path" fill="#E6E6E6" points="262.089628 60.0681018 261.05636 65.7549902 257.698239 85.132681 244.778474 89.2696673 244.33229 89.0270059 237.369472 85.2187867 233.451663 65.7119374 233.471233 65.7197652 243.831311 69.8880626 243.921331 69.3205479 243.983953 68.909589 244.778474 63.8606654 248.308806 60.0681018 260.109198 57.2266145"></polygon>
                <circle id="Oval" fill="#E6E6E6" cx="253.908626" cy="56.7105871" r="2.75626614"></circle>
                <polygon id="Rectangle" fill="#FFFFFF" transform="translate(244.003295, 58.777771) rotate(-10.097130) translate(-244.003295, -58.777771) " points="240.809967 58.7777708 247.196624 58.7777708 247.196624 58.7777708"></polygon>
                <polygon id="Path" fill="#F2F2F2" points="244.33229 89.0270059 237.369472 85.2187867 233.451663 65.7119374 233.471233 65.7197652 232.03092 58.6043053 234.183562 55.504501 238.320548 56.7960861 242.798043 62.9996086 243.921331 69.3205479 243.983953 68.909589 243.999609 69.7706458 244.042661 72.2129159"></polygon>
                <polygon id="Path" fill="#CCCCCC" points="237.454403 85.2430528 237.287671 85.1984344 240.722114 72.3193738 236.789432 67.134638 236.92681 67.0305284 240.910372 72.2821918"></polygon>
                <polygon id="Rectangle" fill="#CCCCCC" transform="translate(242.047144, 83.598396) rotate(-25.718700) translate(-242.047144, -83.598396) " points="242.047144 77.3042885 242.047144 77.3042885 242.047144 89.8925038 242.047144 89.8925038"></polygon>
                <path d="M261.411746,64.5747241 L260.764885,68.1483992 L260.732153,68.1518395 L257.836352,84.8582661 L244.916348,88.9926654 L244.83883,89.0297025 L244.787166,88.9220352 L237.508888,84.9443992 L237.425339,84.9220039 L237.470125,84.753182 L233.589804,65.4351977 L233.609613,65.4429472 L233.179808,63.3223444 L233.501084,62.8598082 L234.494204,61.4299961 L238.628603,62.7219961 L243.10755,68.9235969 L243.173014,69.2922466 L243.643295,71.9382661 L243.831945,73.0011468 L244.230744,75.2466458 L244.60973,72.834047 L244.745824,71.9658278 L245.088634,69.7849315 L248.620098,65.9950646 L250.190309,65.6169354 L251.283342,65.3533699 L252.787233,64.9916086 C251.833325,64.4118734 251.323261,63.3140343 251.495404,62.2111285 C251.667547,61.1082228 252.487903,60.2180369 253.573107,59.9565683 C254.658311,59.6950998 255.794073,60.1139798 256.449633,61.0174594 C257.105193,61.9209389 257.1511,63.1306113 256.565902,64.0811781 L260.420368,63.1526654 L261.370419,64.5161487 L261.411746,64.5747241 Z" id="Path" fill="#000000" opacity="0.2"></path>
                <polygon id="Path" fill="#E6E6E6" points="244.744031 79.0011742 235.097065 79.0011742 232.3409 65.3921722 234.494325 62.2911937 238.628571 63.5831703 243.107632 69.7847358"></polygon>
                <polygon id="Path" fill="#E6E6E6" points="258.008611 91.9213307 245.088454 96.0555773 237.681018 92.0074364 233.762035 72.4982387 244.141292 76.6755382 245.088454 70.646184 248.619961 66.8563601 260.420352 64.01409 262.401566 66.8563601 261.367906 72.5412916"></polygon>
                <circle id="Oval" fill="#E6E6E6" cx="254.218751" cy="63.4971937" r="2.75626614"></circle>
                <polygon id="Path" fill="#F2F2F2" points="244.649315 95.6806262 237.686497 91.872407 233.768689 72.3655577 233.788258 72.3733855 232.347945 65.2579256 234.500587 62.1581213 238.637573 63.4497065 243.115068 69.653229 244.238356 75.9741683 244.300978 75.5632094 244.316634 76.4242661 244.359687 78.8665362"></polygon>
                <polygon id="Path" fill="#CCCCCC" points="237.764384 92.0293542 237.598043 91.9851272 241.032485 79.1056751 237.099413 73.9209393 237.236791 73.8168297 241.220744 79.0688845"></polygon>
                <polygon id="Rectangle" fill="#CCCCCC" transform="translate(242.357273, 90.385009) rotate(-25.718700) translate(-242.357273, -90.385009) " points="242.357273 84.0909012 242.357273 84.0909012 242.357273 96.6791165 242.357273 96.6791165"></polygon>
                <polygon id="Path" fill="#CCCCCC" points="352.819961 182.032877 336.799217 185.478278 333.526027 169.715851 339.555382 161.619178 344.981605 160.585519 351.010959 166.700978"></polygon>
                <polygon id="Path" fill="#E6E6E6" points="345.412524 182.720157 335.764775 182.720157 334.449706 176.227006 333.009393 169.111546 335.162035 166.011742 339.299022 167.303327 343.776517 173.506849 344.899804 179.827789 344.978082 180.277886"></polygon>
                <polygon id="Path" fill="#CCCCCC" points="361.605479 178.931898 350.494325 180.224266 352.475538 166.098239 356.954207 162.050098 360.830137 162.99726 363.414481 168.940509"></polygon>
                <polygon id="Path" fill="#E6E6E6" points="363.068102 170.575342 362.034834 176.262231 358.676712 195.639922 345.756947 199.776908 345.310763 199.534247 338.347945 195.726027 334.430137 176.219178 334.449706 176.227006 344.809785 180.395303 344.899804 179.827789 344.962427 179.41683 345.756947 174.367906 349.28728 170.575342 361.087671 167.733855"></polygon>
                <circle id="Oval" fill="#E6E6E6" cx="354.8871" cy="167.217949" r="2.75626614"></circle>
                <polygon id="Rectangle" fill="#FFFFFF" transform="translate(344.981773, 169.285128) rotate(-10.097130) translate(-344.981773, -169.285128) " points="341.788444 169.285128 348.175102 169.285128 348.175102 169.285128"></polygon>
                <polygon id="Path" fill="#F2F2F2" points="345.310763 199.534247 338.347945 195.726027 334.430137 176.219178 334.449706 176.227006 333.009393 169.111546 335.162035 166.011742 339.299022 167.303327 343.776517 173.506849 344.899804 179.827789 344.962427 179.41683 344.978082 180.277886 345.021135 182.720157"></polygon>
                <polygon id="Path" fill="#CCCCCC" points="338.432877 195.750294 338.266145 195.706067 341.700587 182.826614 337.767906 177.641879 337.905284 177.537769 341.888845 182.789432"></polygon>
                <polygon id="Rectangle" fill="#CCCCCC" transform="translate(343.025619, 194.105755) rotate(-25.718700) translate(-343.025619, -194.105755) " points="343.025619 187.811648 343.025619 187.811648 343.025619 200.399863 343.025619 200.399863"></polygon>
                <polygon id="Path" fill="#E6E6E6" points="384.477104 198.273973 373.909589 198.273973 372.344031 177.921722 386.042661 177.921722"></polygon>
                <rect id="Rectangle" fill="#F2F2F2" x="372.148172" y="186.141057" width="14.0900196" height="3.13111546"></rect>
                <polygon id="Path" fill="#CCCCCC" points="389.858708 179.382779 387.605871 178.719374 387.576908 177.894716 377.565166 174.945597 377.093542 175.622701 374.841096 174.959295 373.426614 176.990607 389.945988 181.856751"></polygon>
                <polygon id="Path" fill="#FBDDA2" points="58.4446184 172.586693 58.4344423 172.654795 58.4066536 172.852055 55.5389432 193.430528 37.9796477 199.87319 37.704501 199.741683 27.8735812 195.072798 22.7902153 175.567906 22.4418787 174.228963 22.5479452 174.18865 44.2958904 166.018004 58.4317025 172.579256"></polygon>
                <polygon id="Path" fill="#FBDDA2" points="37.704501 199.741683 27.8735812 195.072798 22.4418787 174.228963 22.5479452 174.18865 36.7166341 180.166341"></polygon>
                <polygon id="Path" fill="#000000" opacity="0.2" points="37.9510763 199.503327 30.4731898 185.172994 31.4336595 181.110763 26.9103718 175.783953 26.5252446 176.111155 30.8829746 181.243053 27.6277886 195.014481 28.1197652 195.130724 30.295499 185.925245 37.5029354 199.737378"></polygon>
                <polygon id="Path" fill="#3F3D56" points="58.4446184 172.83953 58.4066536 172.852055 36.7166341 180.418787 22.7902153 175.567906 22.4418787 174.228963 22.5479452 174.18865 44.2958904 166.018004 58.4317025 172.579256 58.4344423 172.654795"></polygon>
                <polygon id="Path" fill="#FBDDA2" points="37.095499 180.798043 32.6739726 177.387084 33.6845401 173.59726 46.3170254 169.049706 54.9072407 169.55499 58.3181996 172.460274 58.5706458 173.218395"></polygon>
                <polygon id="Path" fill="#FBDDA2" points="22.6943249 174.228963 32.6739726 173.850098 38.0802348 172.014873 46.5091977 169.049706 48.0857143 166.775734 44.1522505 166.072016"></polygon>
                <polygon id="Rectangle" fill="#CCCCCC" transform="translate(40.059170, 171.314858) rotate(-19.337590) translate(-40.059170, -171.314858) " points="37.3018427 171.062267 42.8164963 171.062267 42.8164963 171.567449 37.3018427 171.567449"></polygon>
                <polygon id="Path" fill="#FBDDA2" points="14.0900196 198.742074 3.52250489 198.742074 1.95694716 178.389824 15.6555773 178.389824"></polygon>
                <rect id="Rectangle" fill="#E6E6E6" x="1.76125245" y="186.608928" width="14.0900196" height="3.13111546"></rect>
                <polygon id="Path" fill="#3F3D56" points="16.4383562 177.215656 14.0900196 177.215656 13.8289628 176.432877 3.39217221 176.432877 3.13111546 177.215656 0.782778865 177.215656 0 179.563992 17.221135 179.563992"></polygon>
                <rect id="Rectangle" fill="#3F3D56" x="79.1556908" y="198.502114" width="237.219491" height="1"></rect>
            </g>
        </g>
    </g>
</svg>