<?xml version="1.0" encoding="UTF-8"?>
<svg width="335px" height="265px" viewBox="0 0 335 265" version="1.1" xmlns="http://www.w3.org/2000/svg" xmlns:xlink="http://www.w3.org/1999/xlink">
    <title>undraw_order_delivered_re_v4ab</title>
    <g id="Page-1" stroke="none" stroke-width="1" fill="none" fill-rule="evenodd">
        <g id="how-it-works" transform="translate(-954.000000, -1097.000000)" fill-rule="nonzero">
            <g id="undraw_order_delivered_re_v4ab" transform="translate(954.000000, 1097.750000)">
                <path d="M80.2074204,142.679054 C77.5411002,128.408852 81.738936,112.17407 93.4065108,103.536306 C92.7452569,119.30941 97.6844857,134.808034 107.350304,147.290022 C111.095453,152.090287 115.760804,157.039387 115.615868,163.126105 C115.525769,166.913406 113.477544,170.441642 110.778365,173.0997 C108.078986,175.757818 104.753936,177.674202 101.468646,179.5608 L100.957266,180.356317 C91.3267008,169.493483 82.8737352,156.949256 80.2074204,142.679054 Z" id="Path" fill="#F0F0F0"></path>
                <path d="M93.6190926,103.754461 C88.7171566,114.725207 87.3966012,126.961593 89.8449948,138.72559 C90.3271168,141.267466 91.2068937,143.71746 92.4519366,145.985377 C93.7361572,148.155427 95.5780564,149.941993 97.7862564,151.159446 C99.8223858,152.335966 102.041365,153.303624 103.756043,154.954609 C105.505909,156.690268 106.431841,159.090241 106.30116,161.551433 C106.21908,164.587631 105.050893,167.413257 103.812505,170.136785 C102.437503,173.160747 100.961402,176.279906 101.050578,179.679665 C101.061378,180.091593 100.421575,180.084271 100.410786,179.672963 C100.255639,173.757949 104.532012,169.007537 105.48488,163.331845 C105.929505,160.683469 105.578699,157.885049 103.716763,155.832174 C102.088577,154.03703 99.8012232,153.037215 97.729281,151.863779 C95.5577047,150.707697 93.7022373,149.037469 92.324961,146.998994 C90.9684695,144.801788 89.9957719,142.389765 89.4485214,139.866215 C88.1258661,134.204539 87.701635,128.370105 88.191369,122.576647 C88.7136296,115.961517 90.3636466,109.484473 93.0700314,103.425746 C93.2376906,103.050819 93.7856556,103.381969 93.6190872,103.75445 L93.6190926,103.754461 Z" id="Path" fill="#FFFFFF"></path>
                <path d="M88.8336666,134.984054 C84.6419999,135.279072 80.8537895,132.493964 79.8851808,128.405088 C79.7916636,128.004187 80.4102552,127.840032 80.5038966,128.241468 C81.3991673,132.052097 84.9373371,134.64225 88.8403626,134.344262 C89.2509138,134.313401 89.2418634,134.953382 88.8336666,134.984054 L88.8336666,134.984054 Z" id="Path" fill="#FFFFFF"></path>
                <path d="M96.6753036,150.698875 C99.4303928,147.583344 100.909984,143.543852 100.819048,139.385875 C100.809706,138.973919 101.449503,138.981118 101.45884,139.392571 C101.545401,143.719648 99.9971106,147.920243 97.1229636,151.156039 C96.8488056,151.464265 96.4026036,151.005454 96.6753036,150.698902 L96.6753036,150.698875 Z" id="Path" fill="#FFFFFF"></path>
                <path d="M89.4632526,116.358838 C91.081771,116.578948 92.7024934,115.970454 93.7762326,114.739546 C94.0463514,114.427998 94.4922726,114.88716 94.2238926,115.196683 C93.0317692,116.550533 91.246109,117.225469 89.4565242,116.99863 C89.2822728,116.991225 89.1437324,116.849754 89.1399762,116.675386 C89.1427068,116.49909 89.2869053,116.357878 89.4632202,116.358838 L89.4632526,116.358838 Z" id="Path" fill="#FFFFFF"></path>
                <path d="M141.120333,115.339374 C140.957199,115.539269 140.79407,115.738605 140.632324,115.943168 C138.452983,118.634447 136.495885,121.49833 134.780344,124.506558 C134.64401,124.73703 134.509318,124.972654 134.379896,125.206565 C130.324041,132.498118 127.657171,140.479303 126.514856,148.744399 C126.063321,152.03369 125.86269,155.352567 125.9147,158.672299 C125.986784,163.25698 126.429719,168.222199 125.024402,172.438826 C124.882722,172.880393 124.713827,173.31276 124.518686,173.733444 L101.96739,180.918484 C101.907947,180.909094 101.849881,180.904903 101.790184,180.895588 L100.902893,181.223638 C100.888254,181.052609 100.876747,180.874917 100.862107,180.703888 C100.853203,180.604717 100.84932,180.503942 100.840415,180.404771 C100.836068,180.338152 100.831964,180.271391 100.824215,180.211543 C100.822682,180.189376 100.821407,180.167123 100.821515,180.150075 C100.813783,180.0902 100.812962,180.03377 100.806871,179.979046 C100.739797,178.985954 100.67774,177.991231 100.626246,176.993176 C100.624626,176.988024 100.624626,176.988024 100.627985,176.981296 C100.240913,169.379872 100.485036,161.679353 101.890192,154.260693 C101.932544,154.037511 101.973001,153.809253 102.025651,153.582782 C102.677589,150.242311 103.601452,146.96071 104.788015,143.77075 C105.443361,142.026121 106.186607,140.315786 107.0149,138.646312 C109.163369,134.336753 111.976332,130.391953 115.350664,126.956533 C122.078356,120.109046 130.92111,115.489422 140.396263,115.343962 C140.638691,115.340377 140.876302,115.338314 141.120333,115.339374 Z" id="Path" fill="#F0F0F0"></path>
                <path d="M141.160828,115.642291 C130.641758,121.450513 122.220219,130.425516 117.092385,141.292512 C115.946946,143.612329 115.174333,146.098201 114.80299,148.658609 C114.521847,151.16446 114.916864,153.699882 115.946996,156.001437 C116.864386,158.166713 118.053536,160.275316 118.428588,162.625887 C118.780771,165.065255 118.075127,167.538975 116.488978,169.425421 C114.59542,171.800222 111.961489,173.353014 109.332947,174.782 C106.414457,176.368617 103.357922,177.970376 101.382224,180.738589 C101.142842,181.073999 100.636403,180.682969 100.875424,180.348044 C104.312794,175.531828 110.587324,174.313544 114.765304,170.355533 C116.714822,168.508642 118.119568,166.063073 117.868883,163.302934 C117.64967,160.889333 116.425285,158.713873 115.477461,156.529514 C114.439623,154.299009 113.963733,151.848307 114.091362,149.391486 C114.331144,146.820438 115.006702,144.308941 116.089108,141.964547 C118.441754,136.64769 121.615752,131.733806 125.494828,127.402907 C129.894587,122.435535 135.11166,118.257402 140.920328,115.049279 C141.27993,114.850861 141.518075,115.44518 141.160822,115.642296 L141.160828,115.642291 Z" id="Path" fill="#FFFFFF"></path>
                <path d="M118.53756,137.696193 C115.013126,135.408079 113.665278,130.903562 115.353682,127.055655 C115.520386,126.679275 116.113133,126.920617 115.946208,127.297521 C114.366766,130.879107 115.632338,135.077421 118.928088,137.189392 C119.274471,137.411932 118.88194,137.917463 118.537544,137.696193 L118.53756,137.696193 Z" id="Path" fill="#FFFFFF"></path>
                <path d="M115.33725,154.964821 C119.412808,154.135996 123.026239,151.801497 125.457023,148.426825 C125.697587,148.092273 126.204102,148.483228 125.963829,148.817369 C123.427745,152.324412 119.662475,154.746175 115.41946,155.599342 C115.015,155.680385 114.934972,155.045421 115.33725,154.964842 L115.33725,154.964821 Z" id="Path" fill="#FFFFFF"></path>
                <path d="M130.253886,123.204062 C131.413662,124.35428 133.074084,124.844225 134.672506,124.507876 C135.075757,124.421746 135.155336,125.056829 134.754716,125.142376 C132.987759,125.505606 131.155651,124.96941 129.863342,123.710836 C129.72867,123.600012 129.703229,123.403645 129.805211,123.26216 C129.913532,123.123039 130.113687,123.097107 130.253886,123.204029 L130.253886,123.204062 Z" id="Path" fill="#FFFFFF"></path>
                <path d="M176.543442,37.3052034 C176.618996,37.6373153 176.668244,37.9748679 176.690727,38.3147226 L203.1314,53.5682538 L209.558183,49.8684708 L216.409504,58.8378276 L205.668677,66.4932402 C203.886297,67.7636131 201.479308,67.7049737 199.760904,66.349314 L172.496023,44.8398612 C169.976668,45.7724431 167.143106,45.0487947 165.37943,43.0223926 C163.615755,40.9959905 163.289992,38.0896834 164.561265,35.7230988 C165.832538,33.3565143 168.43557,32.0234869 171.098874,32.375153 C173.762179,32.7268192 175.930003,34.6897968 176.543442,37.3052412 L176.543442,37.3052034 Z" id="Path" fill="#FFB6B6"></path>
                <path d="M203.498476,51.8841072 C203.668171,51.0967575 204.17253,50.4224347 204.879861,50.03721 L217.087031,43.3860624 C220.471713,40.8314917 225.28537,41.4979007 227.848735,44.8759269 C230.412101,48.2539532 229.758215,53.069327 226.386868,55.6414704 L216.603148,65.5806186 C216.038104,66.1545554 215.251226,66.4541213 214.447557,66.4012558 C213.643889,66.3483903 212.903032,65.9483296 212.41804,65.3053212 L203.994445,54.136836 C203.509049,53.4939387 203.327959,52.6714124 203.498476,51.8841072 L203.498476,51.8841072 Z" id="Path" fill="#3F3D56"></path>
                <path d="M225.307046,13.2168618 C227.063412,7.6193838 231.057446,2.4855822 236.581101,0.5933304 C242.10509,-1.298916 250.193594,1.5835986 254.346394,5.7223476 C261.94266,13.2929424 263.796442,39.3006924 258.577483,47.5194276 C257.539419,47.4644772 253.957442,47.4238476 252.906802,47.384487 L251.420544,42.4308402 L251.420544,47.3356602 C243.219964,47.082222 234.682407,47.2409064 226.140217,47.405007 C225.374578,41.5860588 223.550653,18.8143344 225.307046,13.2168618 Z" id="Path" fill="#2F2E41"></path>
                <polygon id="Path" fill="#FFB6B6" points="222.95682 248.16942 215.47728 248.16942 211.91922 219.31884 222.95844 219.31938"></polygon>
                <polygon id="Path" fill="#FFB6B6" points="288.43398 243.5184 281.19636 245.40462 270.47574 218.38464 281.15802 215.60094"></polygon>
                <polygon id="Path" fill="#FFB6B6" points="247.2147 70.97382 248.90976 75.38022 248.57064 79.78662 215.40168 91.27512 217.0476 71.99064 220.77576 67.5837"></polygon>
                <circle id="Oval" fill="#FFB7B7" cx="236.727419" cy="19.4730642" r="11.846709"></circle>
                <path d="M228.587303,4.0465602 C233.223579,1.22012755 239.031353,1.14356176 243.740528,3.84679028 C248.449703,6.55001879 251.312491,11.603785 251.209906,17.0327124 C244.752257,18.6832116 237.870583,19.3735692 230.578045,17.4302226 L228.911065,13.3503714 L227.928265,17.4332412 C225.697205,19.0026324 223.54384,18.9998064 221.46817,17.4247632 C221.289065,12.0156783 224.000866,6.91969008 228.587303,4.0465602 L228.587303,4.0465602 Z" id="Path" fill="#2F2E41"></path>
                <path d="M226.302914,262.371852 L220.995405,262.371852 L220.04804,257.360938 L217.621696,262.371852 L203.544927,262.371852 C202.159997,262.371852 200.935932,261.471392 200.523785,260.14921 C200.111637,258.827028 200.607182,257.390455 201.746851,256.603572 L212.988139,248.839933 L212.988139,243.774074 L224.812017,244.4798 L226.302914,262.371852 Z" id="Path" fill="#2F2E41"></path>
                <path d="M295.910042,256.246524 L290.774151,257.585265 L288.593485,252.975334 L287.509527,258.436235 L273.887919,261.986897 C272.547789,262.336304 271.136154,261.773635 270.403831,260.598163 C269.671507,259.422691 269.788675,257.907573 270.693014,256.858668 L279.612562,246.510605 L278.33477,241.608544 L289.954339,239.309046 L295.910042,256.246524 Z" id="Path" fill="#2F2E41"></path>
                <path d="M287.516234,225.375021 L265.591553,180.313333 L258.708973,125.467634 C263.454406,116.654661 254.641439,98.7220764 254.641439,98.7220764 L254.641439,91.1928672 L220.502412,97.6333338 L220.502412,97.6333716 C213.519847,116.67815 210.13382,136.853792 210.516462,157.134654 L211.892053,230.04 L211.460522,230.04 C209.969354,230.04 208.760522,231.248831 208.760522,232.74 C208.760522,234.231169 209.969354,235.44 211.460522,235.44 L224.960522,235.44 C226.451691,235.44 227.660522,234.231169 227.660522,232.74 C227.660522,231.248831 226.451691,230.04 224.960522,230.04 L224.612438,230.04 L234.303818,137.291441 L245.57249,183.060529 L272.804528,225.201789 C271.360926,225.314283 270.264645,226.548093 270.322752,227.994905 C270.380859,229.441717 271.572554,230.583637 273.020528,230.58 L286.520528,230.58 C287.815794,230.581355 288.929135,229.661785 289.172501,228.389586 C289.415867,227.117387 288.720533,225.851825 287.516218,225.375021 L287.516234,225.375021 Z" id="Path" fill="#2F2E41"></path>
                <path d="M257.727971,103.338088 L257.727933,103.338088 C257.49784,102.434233 256.7119,101.781339 255.781179,101.720885 C255.331192,96.5761542 252.35793,63.5813766 252.244811,62.613405 L252.240399,62.5724676 L251.379477,44.181288 C251.314745,42.798407 250.221563,41.68481 248.840116,41.5945044 L244.292895,41.2972776 C244.163236,41.2929105 244.060382,41.1865424 244.060371,41.0568102 C244.060377,40.042635 243.657502,39.0699957 242.940375,38.3528625 C242.223248,37.6357293 241.250612,37.2328434 240.236437,37.2328434 L226.773616,37.2328434 C224.969386,37.2328434 223.447607,38.5767443 223.222781,40.3669116 C223.210395,40.4904591 223.104995,40.5836531 222.980861,40.5808164 L222.979241,40.580784 C219.817987,40.5156553 217.083533,42.7702208 216.544887,45.8859276 C214.704362,56.5946676 211.015789,80.8994466 212.839472,94.4115048 C213.474328,99.1152828 213.185774,106.189763 212.945701,110.125397 C212.897564,110.893531 213.157067,111.649249 213.666941,112.22577 C212.551009,112.54753 211.890503,113.695434 212.173112,114.821917 L212.173144,114.821917 C212.46475,115.97865 213.638852,116.679981 214.795589,116.388392 L256.161458,105.960533 C257.318206,105.668945 258.019557,104.494837 257.727971,103.338088 Z" id="Path" fill="#3F3D56"></path>
                <path d="M189.360909,180.656881 C189.345054,178.163194 187.531806,176.045044 185.070382,175.644893 L111.730541,163.601618 C111.02729,163.485188 110.307458,163.517175 109.617305,163.695524 L92.4296454,168.139724 L82.5679008,170.692677 L64.3684806,175.397292 C62.1088975,175.984166 60.530517,178.023498 60.530517,180.358051 L60.530517,257.207762 C60.5417745,259.621195 62.2277948,261.702984 64.586214,262.215473 L139.287973,261.36959 C139.638698,261.444927 139.99654,261.482126 140.355261,261.480539 C140.877961,261.481514 141.39772,261.402337 141.896421,261.245768 L186.278562,262.350144 C188.429354,261.678969 189.885242,259.676464 189.860695,257.423519 L189.360909,180.656881 Z" id="Path" fill="#FFFFFF"></path>
                <path d="M189.360909,180.656881 C189.345054,178.163194 187.531806,176.045044 185.070382,175.644893 L111.730541,163.601618 C111.02729,163.485188 110.307458,163.517175 109.617305,163.695524 L92.4296454,168.139724 L82.5679008,170.692677 L64.3684806,175.397292 C62.1088975,175.984166 60.530517,178.023498 60.530517,180.358051 L60.530517,257.207762 C60.5417745,259.621195 62.2277948,261.702984 64.586214,262.215473 L139.287973,261.36959 C139.638698,261.444927 139.99654,261.482126 140.355261,261.480539 C140.877961,261.481514 141.39772,261.402337 141.896421,261.245768 L186.278562,262.350144 C188.429354,261.678969 189.885242,259.676464 189.860695,257.423519 L189.360909,180.656881 Z M185.894352,261.129134 L141.512184,262.184834 C140.879041,262.382053 140.206032,262.414376 139.556903,262.27874 L64.8509274,260.964677 C63.0826963,260.579134 61.8192361,259.017557 61.8112674,257.2078 L61.8112674,180.358056 C61.8112674,178.746695 62.8177666,177.306821 64.3300812,176.750591 C64.4473308,176.706588 64.5670686,176.669523 64.6886736,176.639589 L83.9425896,171.661788 L95.3284248,168.716056 L109.937466,164.937865 C110.25076,164.854247 110.573771,164.812609 110.898029,164.814007 C111.106852,164.814007 111.315327,164.831095 111.521335,164.865272 L184.861197,176.908574 C186.057748,177.104909 187.0921,177.852989 187.653245,178.927882 C187.930277,179.465398 188.076546,180.060706 188.080159,180.665402 L188.579902,257.432045 C188.598632,259.122005 187.507322,260.624504 185.894352,261.129134 L185.894352,261.129134 Z" id="Shape" fill="#CCCCCC"></path>
                <path d="M187.653245,178.927904 C187.603405,178.960621 187.548629,178.985113 187.491013,179.000442 L165.918953,184.832129 L159.203572,186.646529 L140.103373,191.807914 C140.04886,191.82132 139.993,191.828488 139.936869,191.829281 C139.898316,191.828561 139.859833,191.825707 139.821595,191.820733 L62.8060122,177.77947 L62.549847,177.73249 C62.2025127,177.66725 61.973144,177.333657 62.0365746,176.985987 C62.1000052,176.638318 62.4323998,176.407216 62.7803946,176.468836 L64.3301028,176.750564 L139.911251,190.531413 L156.373119,186.082985 L165.581696,183.594033 L186.820754,177.85204 L187.158006,177.7624 C187.458925,177.683054 187.773501,177.830445 187.905112,178.11245 C187.92163,178.145093 187.934518,178.17945 187.943544,178.214904 C188.015804,178.490663 187.897575,178.781045 187.653245,178.927904 Z" id="Path" fill="#CCCCCC"></path>
                <path d="M140.577239,261.63 C140.226201,261.63 139.940201,261.347337 139.936864,263.155468 L139.296494,193.354744 C139.293157,190.841206 139.577488,190.551868 139.931032,190.548536 L139.936864,190.548536 C140.287901,190.548536 140.573902,190.831199 140.577239,193.343069 L141.217614,263.143793 C141.220946,261.337331 140.936614,261.626668 140.583076,261.63 L140.577239,261.63 Z" id="Path" fill="#CCCCCC"></path>
                <path d="M166.100544,262.44 L159.203572,262.513035 L156.373119,186.083012 L84.1518126,171.713012 C84.0810486,171.700485 84.011173,171.683374 83.9426274,171.661788 C83.3878512,171.503801 82.9031638,171.162112 82.567944,170.692682 L92.4296886,168.13973 L95.3284626,168.716056 L163.856984,182.347502 C164.586226,182.491493 165.216202,182.946812 165.581712,183.59406 C165.795152,183.965477 166.096273,261.996044 166.100544,262.44 Z" id="Path" fill="#CCCCCC"></path>
                <path d="M221.343991,40.7643138 C221.332041,38.8849394 219.965481,37.2885896 218.110423,36.9870138 L162.837599,27.9105696 C162.30759,27.8228241 161.765086,27.8469331 161.24495,27.9813474 L148.29143,31.3307406 L140.859097,33.2547606 L127.143038,36.8004006 C125.440095,37.2427015 124.250544,38.7796517 124.250544,40.539096 L124.250544,85.8409812 C124.259038,87.6598658 125.52971,89.2288022 127.307133,89.6150412 L183.606313,101.593742 C183.870639,101.65052 184.140328,101.678556 184.41068,101.677398 C184.804628,101.677398 185.19636,101.618428 185.57222,101.500425 L219.020976,90.937485 C220.641929,90.4316516 221.739167,88.9224571 221.720672,87.2245152 L221.343991,40.7643138 Z" id="Path" fill="#FFFFFF"></path>
                <path d="M162.211761,31.2373419 C162.171412,31.2373419 162.131226,31.242468 162.092205,31.2527376 L127.99006,40.071861 C127.777422,40.1269371 127.628881,40.3187985 127.628881,40.5384534 L127.628881,85.839669 C127.628881,86.066927 127.788401,86.2630607 128.010483,86.3112942 L184.309679,98.2897524 C184.391249,98.3068923 184.475855,98.302781 184.555379,98.277813 L218.004761,87.7151646 C218.207158,87.6520168 218.34402,87.4633981 218.341313,87.2513964 L217.966426,40.7913894 C217.964757,40.5566864 217.79403,40.3574172 217.56236,40.3197696 L162.289683,31.2436224 C162.263912,31.2395044 162.237859,31.2373419 162.211761,31.2373419 L162.211761,31.2373419 Z" id="Path" fill="#FBDDA2"></path>
                <path d="M221.343991,40.7643138 C221.332041,38.8849394 219.965481,37.2885896 218.110423,36.9870138 L162.837599,27.9105696 C162.30759,27.8228241 161.765086,27.8469331 161.24495,27.9813474 L148.29143,31.3307406 L140.859097,33.2547606 L127.143038,36.8004006 C125.440095,37.2427015 124.250544,38.7796517 124.250544,40.539096 L124.250544,85.8409812 C124.259038,87.6598658 125.52971,89.2288022 127.307133,89.6150412 L183.606313,101.593742 C183.870639,101.65052 184.140328,101.678556 184.41068,101.677398 C184.804628,101.677398 185.19636,101.618428 185.57222,101.500425 L219.020976,90.937485 C220.641929,90.4316516 221.739167,88.9224571 221.720672,87.2245152 L221.343991,40.7643138 Z M218.731412,90.0172548 L185.282635,100.580195 C184.805466,100.728832 184.298251,100.753192 183.809034,100.650967 L127.506614,88.6723902 C126.17399,88.3818162 125.221789,87.2049312 125.215783,85.8410082 L125.215783,40.5391338 C125.215783,39.3247237 125.974329,38.2395539 127.114094,37.8203526 C127.202459,37.7871885 127.2927,37.7592546 127.384348,37.7366958 L141.89513,33.9851592 L150.476103,31.7651004 L161.48626,28.917648 C161.722375,28.8546311 161.965813,28.823251 162.21019,28.8243037 C162.36757,28.8243037 162.524688,28.8371846 162.679946,28.8629406 L217.95277,37.9394334 C218.854552,38.0874037 219.634092,38.6511947 220.057004,39.4612884 C220.265792,39.8663928 220.37603,40.3150529 220.378752,40.7707884 L220.755374,87.2309898 C220.769468,88.5046137 219.94701,89.6369508 218.731412,90.017271 L218.731412,90.0172548 Z" id="Shape" fill="#3F3D56"></path>
                <path d="M220.057004,39.4612938 C220.019441,39.4859521 219.978159,39.5044126 219.934737,39.5159688 L203.676881,43.9110288 L198.615812,45.2784546 L184.220876,49.1683338 C184.179792,49.1784364 184.137694,49.1838386 184.095391,49.1844366 C184.066336,49.1838939 184.037333,49.1817432 184.008515,49.1779944 L125.965454,38.5957602 L125.772394,38.560374 C125.510431,38.5113925 125.33734,38.2598709 125.385173,37.9976958 C125.433007,37.7355208 125.683767,37.5613298 125.946149,37.6080138 L127.114094,37.8203418 L184.076113,48.2063292 L196.482613,44.8537338 L203.422693,42.977925 L219.429578,38.6504514 L219.68375,38.5828974 C219.910538,38.5230975 220.147618,38.6341774 220.246808,38.846709 C220.259259,38.8713118 220.268973,38.8972069 220.275774,38.923929 C220.330246,39.1317559 220.241146,39.3506108 220.057004,39.4612938 Z" id="Path" fill="#3F3D56"></path>
                <path d="M184.57801,101.79 C184.313178,101.79 184.097811,101.576602 184.095391,101.311781 L183.612771,48.7062288 C183.610407,48.4397102 183.824478,48.221702 184.090995,48.2192082 L184.095391,48.2192082 C184.360226,48.2192082 184.575595,48.4326082 184.57801,48.6974322 L185.06063,101.302985 C185.062991,101.569499 184.848924,101.787503 184.582411,101.79 L184.57801,101.79 Z" id="Path" fill="#3F3D56"></path>
                <path d="M203.676881,95.39046 L198.615812,96.7578804 L196.482613,44.8537338 L142.052773,34.023753 C141.999432,34.0143135 141.946761,34.0014181 141.895093,33.9851484 C141.476983,33.8660812 141.111697,33.6085656 140.859059,33.2547768 L148.291393,31.3307568 L150.476065,31.7651058 L202.122821,42.038487 C202.672416,42.1470105 203.1472,42.4901635 203.422671,42.9779628 C203.58358,43.2578664 203.673658,95.0558706 203.676881,95.39046 Z" id="Path" fill="#3F3D56"></path>
                <path d="M201.409502,65.7968616 C201.668335,66.0182468 201.909306,66.2596984 202.130176,66.5189712 L232.449161,62.9780508 L235.397826,56.1738402 L246.248213,59.2817508 L242.198791,71.8345584 C241.526814,73.9176251 239.560494,75.3070901 237.372606,75.244896 L202.658679,74.2580622 C201.193769,76.509921 198.488293,77.6203748 195.863777,77.0470073 C193.239262,76.4736399 191.243363,74.3360954 190.851005,71.6784863 C190.458647,69.0208773 191.751702,66.3977653 194.09856,65.0904449 C196.445418,63.7831244 199.356362,64.0643931 201.409502,65.7968616 L201.409502,65.7968616 Z" id="Path" fill="#FFB6B6"></path>
                <path d="M231.738586,61.4076552 C231.404848,60.6746251 231.407094,59.8325548 231.744737,59.1013152 L237.570079,46.4791824 C238.761569,42.4097755 243.021467,40.0720046 247.094061,41.2525575 C251.166654,42.4331104 253.515862,46.6867118 252.346255,50.7624624 L250.427754,64.576494 C250.316906,65.3742353 249.864314,66.0842201 249.187914,66.52144 C248.511514,66.9586599 247.678303,67.0798088 246.905399,66.8533176 L233.480999,62.919207 C232.707837,62.6930468 232.07164,62.1411423 231.738586,61.4076552 L231.738586,61.4076552 Z" id="Path" fill="#3F3D56"></path>
                <path d="M333.441733,263.002183 L0.6429726,263.002183 C0.28859759,263.001156 0.00186334236,262.71359 0.00186334236,262.359213 C0.00186334236,262.004837 0.28859759,261.71727 0.6429726,261.716243 L333.441733,261.716243 C333.796835,261.716243 334.084702,262.004111 334.084702,262.359213 C334.084702,262.714316 333.796835,263.002183 333.441733,263.002183 L333.441733,263.002183 Z" id="Path" fill="#CACACA"></path>
                <circle id="Oval" fill="#FBDDA2" cx="64.8608472" cy="175.344836" r="19.3379508"></circle>
                <path d="M62.2227474,185.40934 C61.5456864,185.40934 60.9081602,185.090482 60.502059,184.548731 L55.226367,177.514367 C54.7652935,176.899561 54.6672394,176.085477 54.9691406,175.378772 C55.2710419,174.672068 55.9270325,174.180108 56.6900072,174.08821 C57.452982,173.996312 58.2070267,174.318437 58.6681002,174.933243 L62.1196344,179.534939 L70.9844526,166.237877 C71.4096398,165.59577 72.1456486,165.22995 72.9142229,165.278717 C73.6827972,165.327485 74.3666652,165.7834 74.7072831,166.474098 C75.0479011,167.164796 74.9932963,167.984889 74.5641126,168.624331 L64.012761,184.451402 C63.6254494,185.032232 62.9804487,185.38909 62.282601,185.408644 C62.2626642,185.408995 62.2427058,185.40934 62.2227474,185.40934 Z" id="Path" fill="#FFFFFF"></path>
                <path d="M147.201068,72.6302538 C147.140923,72.6301787 147.08097,72.6234582 147.022301,72.6102144 L130.282301,68.8302144 C129.846424,68.7312789 129.573042,68.2980031 129.671388,67.8619925 C129.769733,67.4259819 130.202639,67.1520143 130.638782,67.2497694 L147.378782,71.0297694 C147.781168,71.1206964 148.050986,71.4994512 148.005459,71.9094628 C147.959932,72.3194744 147.613599,72.6298133 147.201068,72.6302538 L147.201068,72.6302538 Z" id="Path" fill="#FFFFFF"></path>
                <path d="M82.7757198,224.767629 C82.7168204,224.779811 82.6567556,224.785451 82.596618,224.784445 L65.437578,224.495491 C64.9909106,224.487154 64.635307,224.118783 64.6426112,223.672099 C64.6501434,223.225416 65.0177829,222.869055 65.4644808,222.875555 L82.6235208,223.164515 C83.0359813,223.171543 83.3773102,223.487355 83.4163008,223.898028 C83.4552913,224.308702 83.1794936,224.683106 82.7757252,224.767629 L82.7757198,224.767629 Z" id="Path" fill="#E6E6E6"></path>
                <path d="M88.7157198,233.947629 C88.6568204,233.959811 88.5967556,233.965451 88.536618,233.964445 L71.377578,233.675491 C70.9309106,233.667154 70.575307,233.298783 70.5826112,232.852099 C70.5901434,232.405416 70.9577829,232.049055 71.4044808,232.055555 L88.5635208,232.344515 C88.9759813,232.351543 89.3173102,232.667355 89.3563008,233.078028 C89.3952913,233.488702 89.1194936,233.863106 88.7157252,233.947629 L88.7157198,233.947629 Z" id="Path" fill="#E6E6E6"></path>
            </g>
        </g>
    </g>
</svg>