<?xml version="1.0" encoding="UTF-8"?>
<svg width="91px" height="92px" viewBox="0 0 91 92" version="1.1" xmlns="http://www.w3.org/2000/svg" xmlns:xlink="http://www.w3.org/1999/xlink">
    <title>Group 11</title>
    <defs>
        <polygon id="path-1" points="6.26891011e-05 0.272021726 40.6203253 0.272021726 40.6203253 49 6.26891011e-05 49"></polygon>
    </defs>
    <g id="Page-1" stroke="none" stroke-width="1" fill="none" fill-rule="evenodd">
        <g id="how-it-works" transform="translate(-1198.000000, -1553.000000)">
            <g id="Group-11" transform="translate(1198.000000, 1553.500000)">
                <circle id="Oval" fill="#F7F7F7" cx="45.5" cy="45.5" r="45.5"></circle>
                <g id="Group-10" transform="translate(24.000000, 20.000000)">
                    <g id="Group-3" transform="translate(0.000000, 0.228250)">
                        <mask id="mask-2" fill="white">
                            <use xlink:href="#path-1"></use>
                        </mask>
                        <g id="Clip-2"></g>
                        <path d="M37.7953,26.39915 C39.8233,26.81465 40.8028,27.96415 40.5923,30.33815 C40.3533,33.03465 40.0963,35.81615 38.1673,38.01365 C37.8813,38.34015 37.9588,38.70615 37.9533,39.06415 C37.9328,40.46715 38.0283,41.86815 37.7873,43.26915 C37.2343,46.48215 34.8573,48.70565 31.6108,48.97115 C30.3823,49.07165 29.1683,48.89765 27.9748,48.65965 C26.5328,48.37065 25.6803,47.41315 25.2808,46.01315 C24.7713,44.22515 24.9123,42.34615 24.4863,40.41915 C22.3143,40.92465 20.1803,41.45765 18.0848,42.15415 C14.7318,43.26715 11.3553,44.11665 7.7573,43.50415 C1.7128,42.47465 -0.9057,38.81315 0.2778,32.75015 C2.0803,23.51615 5.1463,14.71165 9.5143,6.37365 C10.1468,5.16665 10.8833,4.00215 11.6808,2.89665 C12.8903,1.22065 14.4998,0.22615 16.6613,0.27365 C19.1673,0.32815 20.9063,1.92965 21.1178,4.44065 C21.2688,6.23515 21.0133,7.98515 20.5103,9.69965 C19.3553,13.63465 18.1553,17.55665 17.0213,21.49765 C16.5098,23.27565 16.1788,25.09615 16.2118,26.96265 C16.2493,29.04015 17.5613,30.45665 19.5223,30.53415 C21.1873,30.59915 22.6833,29.10665 22.7958,27.14865 C22.8723,25.82265 22.8473,24.48665 22.7978,23.15765 C22.6868,20.20215 22.5013,17.25015 22.4043,14.29565 C22.3093,11.39515 22.6423,8.53815 23.5228,5.76165 C24.2168,3.57415 25.6033,1.94665 27.6343,0.89565 C29.9048,-0.27935 32.1793,0.27915 33.7378,2.28615 C35.6303,4.72315 36.1683,7.60065 36.6543,10.54515 C37.4828,15.56465 37.5053,20.63015 37.7373,25.68565 C37.7473,25.90365 37.7723,26.12015 37.7953,26.39915" id="Fill-1" fill="#056B5C" mask="url(#mask-2)"></path>
                    </g>
                    <path d="M12.5106,29.9638 C11.8916,29.3703 11.7991,28.7043 11.7596,28.0158 C11.6496,26.1098 12.1501,24.2883 12.5641,22.4623 C13.5821,17.9703 15.2171,13.6713 16.7326,9.3348 C17.3141,7.6698 17.8826,5.9863 17.7626,4.1728 C17.6721,2.8048 16.7396,2.1488 15.4346,2.5403 C14.2521,2.8953 13.3991,3.6948 12.5926,4.5813 C11.1001,6.2208 10.5961,8.3533 9.7296,10.2973 C6.3916,17.7828 3.8456,25.5288 2.3386,33.5968 C1.4941,38.1148 3.6326,40.9723 8.1756,41.6378 C10.3391,41.9543 12.4501,41.8593 14.5461,41.2958 C17.7206,40.4418 20.8766,39.5178 24.0931,38.8258 C25.5656,38.5088 26.0631,38.8118 26.3441,40.2818 C26.4131,40.6428 26.4121,41.0168 26.4576,41.3833 C26.6336,42.8113 26.6506,44.2603 27.0211,45.6638 C27.1991,46.3403 27.4876,46.9598 28.2201,47.1278 C29.6721,47.4613 31.1356,47.5998 32.5996,47.1358 C34.3251,46.5878 35.2716,45.4633 35.5311,43.6328 C35.7421,42.1453 35.6656,40.6798 35.5511,39.2093 C35.4791,38.2853 35.6671,37.6403 36.6556,37.3763 C37.0836,37.2628 37.4706,37.0058 37.6306,36.5418 C38.3341,34.5048 38.8266,32.4123 38.7661,30.2553 C38.7181,28.5333 38.3336,28.2948 36.6666,28.5993 C35.9376,28.7333 35.4886,28.7128 35.4526,27.7518 C35.2391,22.1058 35.2876,16.4488 34.3901,10.8368 C33.9726,8.2258 33.6346,5.6428 32.0696,3.4118 C31.2551,2.2503 30.1166,1.8818 28.7821,2.3738 C28.1836,2.5943 27.6846,2.9723 27.2026,3.3823 C25.4296,4.8903 24.9831,6.9968 24.6616,9.1293 C24.1051,12.8133 24.5521,16.5078 24.6241,20.1998 C24.6751,22.8193 24.9471,25.4563 24.4391,28.0568 C23.8751,30.9438 21.4161,32.8388 18.7296,32.5508 C15.9071,32.2473 14.0111,30.0663 13.9486,27.0888 C13.9221,25.8233 14.0826,24.5768 14.3021,23.3418 C15.0431,19.1773 16.5651,15.2368 17.8371,11.2248 C18.3951,9.4648 19.0376,7.7253 19.1296,5.8538 C19.1916,4.5833 19.0011,3.9708 18.3466,3.3108 C18.6321,4.7003 18.4266,6.0363 18.0646,7.3658 C16.9631,11.4163 15.1711,15.2378 14.1046,19.3008 C13.3481,22.1813 12.4836,25.0353 12.3901,28.0498 C12.3711,28.6553 12.7861,29.2203 12.5106,29.9638" id="Fill-4" fill="#069A87"></path>
                    <path d="M35.45275,30.18795 C33.78625,30.20895 33.49525,29.93795 33.50525,28.37995 C33.53625,23.54495 33.57625,18.70945 33.27075,13.88045 C33.10725,11.30045 32.82875,8.74545 31.48825,6.44095 C31.30125,6.11945 31.01425,5.77595 31.20825,5.32745 C31.74375,5.27495 31.76525,5.74495 31.94025,6.02295 C33.49125,8.48345 33.78725,11.26045 33.94225,14.07045 C34.20775,18.90145 34.24775,23.73495 34.07525,28.56995 C34.05575,29.12595 34.22475,29.49095 34.80975,29.60245 C35.13275,29.66345 35.48775,29.71845 35.45275,30.18795" id="Fill-6" fill="#056B5C"></path>
                    <path d="M32.37585,46.8227 C32.49485,45.8072 33.16485,45.1857 33.28235,44.3572 C33.55635,42.4237 33.87985,40.4977 33.60235,38.5337 C33.55285,38.1847 33.40985,37.7072 33.97035,37.6837 C34.44535,37.6637 34.38335,38.1167 34.38335,38.4347 C34.38235,40.6412 34.55785,42.8652 33.92635,45.0222 C33.70885,45.7647 33.42985,46.5277 32.37585,46.8227" id="Fill-8" fill="#056B5C"></path>
                </g>
            </g>
        </g>
    </g>
</svg>