<?xml version="1.0" encoding="UTF-8"?>
<svg width="57px" height="33px" viewBox="0 0 57 33" version="1.1" xmlns="http://www.w3.org/2000/svg" xmlns:xlink="http://www.w3.org/1999/xlink">
    <title>free</title>
    <g id="Page-1" stroke="none" stroke-width="1" fill="none" fill-rule="evenodd">
        <g id="About-us" transform="translate(-135.000000, -336.000000)">
            <g id="free" transform="translate(135.000000, 336.875000)">
                <rect id="Rectangle" stroke="#105286" stroke-width="1.75941537" fill="#7D9EC7" fill-rule="nonzero" stroke-linecap="round" stroke-linejoin="round" x="20.9807156" y="24.6141341" width="12.9229653" height="3.22203714"></rect>
                <rect id="Rectangle" stroke="#105286" stroke-width="1.75941537" fill="#EE7581" fill-rule="nonzero" stroke-linecap="round" stroke-linejoin="round" x="0.8800572" y="0.986438886" width="34.6205912" height="21.4790934" rx="0.72864"></rect>
                <polygon id="Path" stroke="#496078" stroke-width="1.75941537" fill="#D2DCE9" fill-rule="nonzero" stroke-linecap="round" stroke-linejoin="round" points="38.2106779 3.63626578 48.8872123 3.63626578 55.4401794 13.0101258 55.4401794 22.4669173 38.2106779 22.4669173"></polygon>
                <polygon id="Path" fill="#8FB6D7" points="39.6464624 5.28312323 47.6700148 5.28312323 53.2864921 13.2930279 53.2864921 15.3071041 45.3896423 15.3071041 45.3896423 12.4344528 39.6464624 12.4344528"></polygon>
                <rect id="Rectangle" stroke="#105286" stroke-width="1.75941537" fill="#7D9EC7" fill-rule="nonzero" stroke-linecap="round" stroke-linejoin="round" x="0.8800572" y="22.4672636" width="54.5601672" height="2.86364827"></rect>
                <path d="M3.52931341,24.783633 C4.1347852,21.9776843 6.62356722,19.9750373 9.50136435,19.9781022 C12.3791348,19.9811664 14.8636078,21.989073 15.4630977,24.7962719" id="Path" stroke="#105286" stroke-width="1.75941537" fill="#7D9EC7" fill-rule="nonzero" stroke-linecap="round" stroke-linejoin="round"></path>
                <rect id="Rectangle" fill="#EE7581" fill-rule="nonzero" x="52.5684543" y="19.6036153" width="2.87177007" height="1.43182413"></rect>
                <polygon id="Path" stroke="#105286" stroke-width="1.75941537" stroke-linecap="round" stroke-linejoin="round" points="38.2106779 3.63626578 48.8872123 3.63626578 55.4401794 13.0101258 55.4401794 22.4669173 38.2106779 22.4669173"></polygon>
                <path d="M37.8075388,24.783633 C38.4130106,21.9776845 40.9017922,19.9750376 43.7795891,19.9781022 C46.6573598,19.9811661 49.1418332,21.9890728 49.7413231,24.7962719" id="Path" stroke="#105286" stroke-width="1.75941537" fill="#7D9EC7" fill-rule="nonzero" stroke-linecap="round" stroke-linejoin="round"></path>
                <path d="M7.38985332,2.99843747 C6.81143327,2.99843747 6.33503953,3.47351914 6.33503953,4.05023089 L6.33503953,6.00561442 C6.33333002,6.12611852 6.39680936,6.23820573 6.50116989,6.29895534 C6.60553043,6.35970495 6.73460343,6.35970495 6.83896396,6.29895534 C6.9433245,6.23820573 7.00680384,6.12611852 7.00509433,6.00561442 L7.00509433,4.05023089 C7.00509433,3.83208114 7.17102998,3.66656435 7.38985332,3.66656435 L8.01017644,3.66656435 C8.13190967,3.66970805 8.24576934,3.60673242 8.30756409,3.50207964 C8.36935885,3.39742687 8.36935885,3.26757495 8.30756409,3.16292218 C8.24576934,3.0582694 8.13190967,2.99529377 8.01017644,2.99843747 L7.38985332,2.99843747 L7.38985332,2.99843747 Z" id="Path" fill="#E9EDED" fill-rule="nonzero"></path>
                <path d="M6.67530167,4.33486437 C6.49021878,4.33486437 6.34017944,4.48450718 6.34017944,4.66910095 C6.34017944,4.85369471 6.49021878,5.00333753 6.67530167,5.00333753 L7.6751493,5.00333753 C7.8602322,5.00333753 8.01027153,4.85369471 8.01027153,4.66910095 C8.01027153,4.48450718 7.8602322,4.33486437 7.6751493,4.33486437 L6.67530167,4.33486437 L6.67530167,4.33486437 Z M9.35074919,2.99878374 C9.16627366,3.00166466 9.0188445,3.15274423 9.02095602,3.33674271 L9.02095602,6.00994279 C9.01923984,6.13045115 9.08271765,6.2425452 9.18708085,6.30329891 C9.29144404,6.36405262 9.42052227,6.36405262 9.52488547,6.30329891 C9.62924867,6.2425452 9.69272648,6.13045115 9.6910103,6.00994279 L9.6910103,3.33674271 C9.69204518,3.2465537 9.65648268,3.15977715 9.59240394,3.09613195 C9.52832519,3.03248675 9.44117213,2.997378 9.35074919,2.99878374 L9.35074919,2.99878374 Z" id="Shape" fill="#E9EDED"></path>
                <path d="M10.0208035,2.99878374 L10.0208035,3.66708376 C10.2122083,3.66708376 10.3558306,3.81078557 10.3558306,4.00123377 C10.3558306,4.19202823 10.2122023,4.33521064 10.0208035,4.33521064 L10.0208035,5.00351066 C10.5718243,5.00351066 11.0258868,4.55059023 11.0258868,4.00123377 C11.0258868,3.45153103 10.5718243,2.99878374 10.0208035,2.99878374 Z" id="Path" fill="#E9EDED" fill-rule="nonzero"></path>
                <path d="M9.3337356,2.99878374 C8.8868913,3.02129125 8.92093026,3.68993754 9.36776209,3.66708376 L10.0260388,3.66708376 C10.4791033,3.66708376 10.4791033,2.99220462 10.0260388,2.99878374 L9.36776209,2.99878374 C9.35645168,2.9980912 9.34506333,2.9980912 9.3337356,2.99878374 Z M9.35598316,4.33919274 C9.23530212,4.33770869 9.12314603,4.40107075 9.06237188,4.50506708 C9.00159773,4.6090634 9.00159773,4.7376221 9.06237188,4.84161842 C9.12314603,4.94561474 9.23530212,5.00897681 9.35598316,5.00749276 L10.0260395,5.00749276 C10.1467206,5.00897681 10.2588766,4.94561474 10.3196508,4.84161842 C10.3804249,4.7376221 10.3804249,4.6090634 10.3196508,4.50506708 C10.2588766,4.40107075 10.1467206,4.33770869 10.0260395,4.33919274 L9.35598316,4.33919274 Z" id="Shape" fill="#E9EDED"></path>
                <path d="M10.0221129,4.33659572 C9.90371412,4.33390111 9.79268401,4.39374417 9.7300689,4.49400175 C9.66745379,4.59425932 9.66255607,4.72003666 9.71718636,4.82483563 L10.3872406,6.16126253 C10.4397742,6.26975917 10.5467966,6.34165389 10.6673493,6.34943188 C10.787902,6.35720987 10.90332,6.29966687 10.9694316,6.19882515 C11.0355433,6.09798344 11.0421127,5.96945617 10.9866256,5.86243201 L10.3165695,4.52583197 C10.2617791,4.41273184 10.148026,4.33982764 10.0221129,4.33711512 L10.0221129,4.33659572 Z M12.0261965,2.99618672 C11.8412412,2.99906741 11.6936177,3.15088957 11.6964054,3.33535763 L11.6964054,6.00076665 C11.6946628,6.12129191 11.7581346,6.23341309 11.8625083,6.29418302 C11.9668821,6.35495296 12.095981,6.35495296 12.2003548,6.29418302 C12.3047285,6.23341309 12.3682003,6.12129191 12.3664576,6.00076665 L12.3664576,3.33535763 C12.3678238,3.24495985 12.3324075,3.15786726 12.268292,3.09395711 C12.2041764,3.03004695 12.1168331,2.99477331 12.0261965,2.99618672 L12.0261965,2.99618672 Z" id="Shape" fill="#E9EDED"></path>
                <path d="M12.0340496,2.99618672 C11.9133685,2.99470266 11.8012124,3.05806473 11.7404383,3.16206105 C11.6796641,3.26605738 11.6796641,3.39461607 11.7404383,3.4986124 C11.8012124,3.60260872 11.9133685,3.66597079 12.0340496,3.66448674 L13.366307,3.66448674 C13.486988,3.66597079 13.5991441,3.60260872 13.6599183,3.4986124 C13.7206924,3.39461607 13.7206924,3.26605738 13.6599183,3.16206105 C13.5991441,3.05806473 13.486988,2.99470266 13.366307,2.99618672 L12.0340496,2.99618672 L12.0340496,2.99618672 Z M12.0340496,5.66938679 C11.9123163,5.6662431 11.7984567,5.72921873 11.7366619,5.8338715 C11.6748672,5.93852428 11.6748672,6.06837619 11.7366619,6.17302897 C11.7984567,6.27768174 11.9123163,6.34065737 12.0340496,6.33751368 L13.366307,6.33751368 C13.4880402,6.34065737 13.6018999,6.27768174 13.6636947,6.17302897 C13.7254894,6.06837619 13.7254894,5.93852428 13.6636947,5.8338715 C13.6018999,5.72921873 13.4880402,5.6662431 13.366307,5.66938679 L12.0340496,5.66938679 L12.0340496,5.66938679 Z M12.0340496,4.33261362 C11.9133685,4.33112957 11.8012124,4.39449163 11.7404383,4.49848796 C11.6796641,4.60248428 11.6796641,4.73104298 11.7404383,4.8350393 C11.8012124,4.93903563 11.9133685,5.00239769 12.0340496,5.00091364 L12.6962527,5.00091364 C12.8169338,5.00239769 12.9290899,4.93903563 12.989864,4.8350393 C13.0506381,4.73104298 13.0506381,4.60248428 12.989864,4.49848796 C12.9290899,4.39449163 12.8169338,4.33112957 12.6962527,4.33261362 L12.0340496,4.33261362 L12.0340496,4.33261362 Z M14.7064156,2.99618672 C14.5214602,2.99906741 14.3738367,3.15088957 14.3766245,3.33535763 L14.3766245,6.00076665 C14.3749083,6.12127501 14.4383861,6.23336906 14.5427493,6.29412277 C14.6471125,6.35487648 14.7761907,6.35487648 14.8805539,6.29412277 C14.9849171,6.23336906 15.0483949,6.12127501 15.0466787,6.00076665 L15.0466787,3.33535763 C15.0480449,3.24495948 15.0126284,3.15786657 14.9485123,3.09395635 C14.8843963,3.03004614 14.7970525,2.99477274 14.7064156,2.99618672 L14.7064156,2.99618672 Z" id="Shape" fill="#E9EDED"></path>
                <path d="M14.7142686,2.99618672 C14.5935876,2.99470266 14.4814315,3.05806473 14.4206573,3.16206105 C14.3598832,3.26605738 14.3598832,3.39461607 14.4206573,3.4986124 C14.4814315,3.60260872 14.5935876,3.66597079 14.7142686,3.66448674 L16.046526,3.66448674 C16.1672071,3.66597079 16.2793632,3.60260872 16.3401373,3.4986124 C16.4009115,3.39461607 16.4009115,3.26605738 16.3401373,3.16206105 C16.2793632,3.05806473 16.1672071,2.99470266 16.046526,2.99618672 L14.7142686,2.99618672 L14.7142686,2.99618672 Z M14.7142686,5.66938679 C14.5925354,5.6662431 14.4786757,5.72921873 14.4168809,5.8338715 C14.3550862,5.93852428 14.3550862,6.06837619 14.4168809,6.17302897 C14.4786757,6.27768174 14.5925354,6.34065737 14.7142686,6.33751368 L16.046526,6.33751368 C16.1682593,6.34065737 16.2821189,6.27768174 16.3439137,6.17302897 C16.4057084,6.06837619 16.4057084,5.93852428 16.3439137,5.8338715 C16.2821189,5.72921873 16.1682593,5.6662431 16.046526,5.66938679 L14.7142686,5.66938679 L14.7142686,5.66938679 Z M14.7142686,4.33261362 C14.5935876,4.33112957 14.4814315,4.39449163 14.4206573,4.49848796 C14.3598832,4.60248428 14.3598832,4.73104298 14.4206573,4.8350393 C14.4814315,4.93903563 14.5935876,5.00239769 14.7142686,5.00091364 L15.3764717,5.00091364 C15.4971528,5.00239769 15.6093089,4.93903563 15.670083,4.8350393 C15.7308572,4.73104298 15.7308572,4.60248428 15.670083,4.49848796 C15.6093089,4.39449163 15.4971528,4.33112957 15.3764717,4.33261362 L14.7142686,4.33261362 L14.7142686,4.33261362 Z" id="Shape" fill="#E9EDED"></path>
                <polygon id="Path" fill="#2DBCA4" fill-rule="nonzero" points="39.6464624 13.8749337 43.9538387 13.8749337 43.9538387 15.3071041 39.6464624 15.3071041"></polygon>
                <path d="M6.62380484,11.3776385 C6.54639681,11.378842 6.4726423,11.4106814 6.41878263,11.4661455 C6.36492295,11.5216097 6.33537489,11.5961502 6.33664516,11.6733526 L6.33664516,14.0009758 C6.33515652,14.1059019 6.39042958,14.2034992 6.48129902,14.2563956 C6.57216846,14.3092919 6.68455572,14.3092919 6.77542516,14.2563956 C6.8662946,14.2034992 6.92156766,14.1059019 6.92007902,14.0009758 L6.92007902,11.6733526 C6.92137531,11.5945739 6.89058459,11.5186385 6.8347456,11.4629051 C6.77890661,11.4071716 6.70279321,11.3764051 6.62380484,11.3776385 Z" id="Path" fill="#E9EDED"></path>
                <path d="M6.6363393,11.3864684 C6.53024552,11.383574 6.43094492,11.438371 6.37704255,11.5295561 C6.32314017,11.6207413 6.32314017,11.7339282 6.37704255,11.8251133 C6.43094492,11.9162984 6.53024552,11.9710954 6.6363393,11.968201 L7.21977438,11.968201 C7.32586816,11.9710954 7.42516876,11.9162984 7.47907114,11.8251133 C7.53297352,11.7339282 7.53297352,11.6207413 7.47907114,11.5295561 C7.42516876,11.438371 7.32586816,11.383574 7.21977438,11.3864684 L6.6363393,11.3864684 L6.6363393,11.3864684 Z M6.63292072,13.7140916 C6.52682694,13.7111971 6.42752634,13.7659942 6.37362396,13.8571793 C6.31972158,13.9483644 6.31972158,14.0615513 6.37362396,14.1527365 C6.42752634,14.2439216 6.52682694,14.2987186 6.63292072,14.2958242 L7.2163558,14.2958242 C7.32244958,14.2987186 7.42175018,14.2439216 7.47565256,14.1527365 C7.52955493,14.0615513 7.52955493,13.9483644 7.47565256,13.8571793 C7.42175018,13.7659942 7.32244958,13.7111971 7.2163558,13.7140916 L6.63292072,13.7140916 L6.63292072,13.7140916 Z" id="Shape" fill="#E9EDED"></path>
                <path d="M7.17533244,11.3864684 C7.06923881,11.3835742 6.96993844,11.4383713 6.91603621,11.5295563 C6.86213398,11.6207413 6.86213398,11.7339281 6.91603621,11.8251131 C6.96993844,11.9162981 7.06923881,11.9710952 7.17533244,11.968201 C7.6958929,11.968201 8.0960635,12.3582736 8.0960635,12.8411463 C8.0960635,13.3238459 7.69587697,13.7140916 7.17533244,13.7140916 C7.06923881,13.7111974 6.96993844,13.7659945 6.91603621,13.8571795 C6.86213398,13.9483645 6.86213398,14.0615513 6.91603621,14.1527363 C6.96993844,14.2439213 7.06923881,14.2987184 7.17533244,14.2958242 C7.99743448,14.2958242 8.67949857,13.6481272 8.67949857,12.8411463 C8.67949857,12.0341654 7.99741871,11.3864684 7.17533244,11.3864684 Z" id="Path" fill="#E9EDED" fill-rule="nonzero"></path>
                <path d="M9.54285052,11.3759072 C9.46547317,11.3771111 9.39174549,11.4089267 9.33789096,11.4643532 C9.28403643,11.5197797 9.2544678,11.5942755 9.25569152,11.6714481 L9.25569152,13.9923191 C9.25421631,14.0972366 9.30949245,14.1948201 9.40035653,14.2477082 C9.4912206,14.3005963 9.60359735,14.3005963 9.69446143,14.2477082 C9.7853255,14.1948201 9.84060164,14.0972366 9.83912643,13.9923191 L9.83912643,11.6714481 C9.84037523,11.5926989 9.80956329,11.5168085 9.75372921,11.4611129 C9.69789513,11.4054173 9.62180858,11.3746745 9.54285052,11.3759072 L9.54285052,11.3759072 Z" id="Path" fill="#E9EDED"></path>
                <path d="M9.54968769,11.3759072 C9.3885251,11.3759072 9.25787701,11.50621 9.25787701,11.6669466 C9.25787701,11.8276833 9.3885251,11.9579861 9.54968769,11.9579861 L10.7097184,11.9579861 C10.870881,11.9579861 11.0015291,11.8276833 11.0015291,11.6669466 C11.0015291,11.50621 10.870881,11.3759072 10.7097184,11.3759072 L9.54968769,11.3759072 L9.54968769,11.3759072 Z M9.54968769,13.7035303 C9.44359391,13.7006359 9.34429331,13.755433 9.29039093,13.8466181 C9.23648855,13.9378032 9.23648855,14.0509901 9.29039093,14.1421752 C9.34429331,14.2333603 9.44359391,14.2881574 9.54968769,14.285263 L10.7097184,14.285263 C10.8158122,14.2881574 10.9151128,14.2333603 10.9690152,14.1421752 C11.0229176,14.0509901 11.0229176,13.9378032 10.9690152,13.8466181 C10.9151128,13.755433 10.8158122,13.7006359 10.7097184,13.7035303 L9.54968769,13.7035303 L9.54968769,13.7035303 Z M9.54968769,12.5397188 C9.38852511,12.5397188 9.25787703,12.6700216 9.25787703,12.8307582 C9.25787703,12.9914949 9.38852511,13.1217977 9.54968769,13.1217977 L10.1262835,13.1217977 C10.2874461,13.1217977 10.4180942,12.9914949 10.4180942,12.8307582 C10.4180942,12.6700216 10.2874461,12.5397188 10.1262835,12.5397188 L9.54968769,12.5397188 L9.54968769,12.5397188 Z M11.8746757,11.3759072 C11.7972983,11.3771111 11.7235707,11.4089267 11.6697161,11.4643532 C11.6158616,11.5197797 11.586293,11.5942755 11.5875167,11.6714481 L11.5875167,13.9923191 C11.5860169,14.0972522 11.6412875,14.194861 11.7321613,14.2477641 C11.8230352,14.3006673 11.9354312,14.3006673 12.026305,14.2477641 C12.1171789,14.194861 12.1724494,14.0972522 12.1709497,13.9923191 L12.1709497,11.6714481 C12.1721985,11.5926993 12.1413868,11.5168091 12.0855531,11.4611136 C12.0297195,11.4054181 11.9536334,11.374675 11.8746757,11.3759072 L11.8746757,11.3759072 Z" id="Shape" fill="#E9EDED"></path>
                <path d="M13.3387401,13.9916265 C13.3361593,13.8306112 13.2035833,13.7028378 13.0424721,13.7054348 L11.9988737,13.7054348 C11.6043775,13.68639 11.6043775,14.2928809 11.9988737,14.2873406 L13.0424721,14.2873406 C13.2071521,14.2873406 13.3413134,14.1557582 13.3387401,13.9916265 Z M14.2084828,11.3759072 C14.1311055,11.3771111 14.0573778,11.4089267 14.0035233,11.4643532 C13.9496688,11.5197797 13.9201001,11.5942755 13.9213239,11.6714481 L13.9213239,13.9923191 C13.9198486,14.0972366 13.9751248,14.1948201 14.0659889,14.2477082 C14.1568529,14.3005963 14.2692297,14.3005963 14.3600938,14.2477082 C14.4509578,14.1948201 14.506234,14.0972366 14.5047588,13.9923191 L14.5047588,11.6714481 C14.5060076,11.5926989 14.4751956,11.5168085 14.4193615,11.4611129 C14.3635275,11.4054173 14.2874409,11.3746745 14.2084828,11.3759072 L14.2084828,11.3759072 Z M15.3872811,11.3778116 C15.2896332,11.3753432 15.1972258,11.421777 15.141104,11.5015131 C15.0849822,11.5812492 15.0725936,11.6837064 15.1081002,11.7744633 L15.9832515,14.1020865 C16.0257161,14.2160934 16.1347944,14.2917333 16.2567362,14.2917333 C16.378678,14.2917333 16.4877563,14.2160934 16.530221,14.1020865 L17.4053704,11.7744633 C17.4588551,11.624571 17.3817758,11.4596177 17.2322921,11.4040678 C17.0828084,11.3485179 16.9162983,11.4229506 16.8584011,11.5712031 L16.2567342,13.1713142 L15.6550676,11.5712031 C15.6143478,11.4579209 15.5079088,11.3813275 15.3872811,11.3785042 L15.3872811,11.3778116 Z M18.2953369,11.3800624 C18.2179592,11.3812657 18.1442309,11.413081 18.0903758,11.4685076 C18.0365208,11.5239342 18.0069518,11.5984304 18.0081755,11.6756034 L18.0081755,13.9964743 C18.0067048,14.1013889 18.061982,14.1989679 18.1528443,14.2518532 C18.2437065,14.3047385 18.3560798,14.3047385 18.446942,14.2518532 C18.5378043,14.1989679 18.5930815,14.1013889 18.5916108,13.9964743 L18.5916108,11.6756034 C18.5928596,11.5968545 18.5620479,11.5209644 18.5062143,11.4652689 C18.4503807,11.4095734 18.3742946,11.3788303 18.2953369,11.3800624 L18.2953369,11.3800624 Z" id="Shape" fill="#E9EDED"></path>
                <path d="M18.3021717,11.3800624 C18.1410091,11.3800624 18.010361,11.5103652 18.010361,11.6711019 C18.010361,11.8318385 18.1410091,11.9621413 18.3021717,11.9621413 L19.4622022,11.9621413 C19.6233648,11.9621413 19.7540129,11.8318385 19.7540129,11.6711019 C19.7540129,11.5103652 19.6233648,11.3800624 19.4622022,11.3800624 L18.3021717,11.3800624 Z M18.3021717,13.7076856 C18.1960209,13.7047029 18.0966282,13.7594801 18.0426707,13.8507016 C17.9887132,13.9419231 17.9887132,14.0551807 18.0426707,14.1464022 C18.0966282,14.2376237 18.1960209,14.2924009 18.3021717,14.2894182 L19.4622022,14.2894182 C19.568353,14.2924009 19.6677457,14.2376237 19.7217032,14.1464022 C19.7756608,14.0551807 19.7756608,13.9419231 19.7217032,13.8507016 C19.6677457,13.7594801 19.568353,13.7047029 19.4622022,13.7076856 L18.3021717,13.7076856 Z M18.3021717,12.543874 C18.1960779,12.5409796 18.0967773,12.5957766 18.0428749,12.6869617 C17.9889725,12.7781469 17.9889725,12.8913338 18.0428749,12.9825189 C18.0967773,13.073704 18.1960779,13.1285011 18.3021717,13.1256066 L18.8787705,13.1256066 C18.9848642,13.1285011 19.0841648,13.073704 19.1380672,12.9825189 C19.1919696,12.8913338 19.1919696,12.7781469 19.1380672,12.6869617 C19.0841648,12.5957766 18.9848642,12.5409796 18.8787705,12.543874 L18.3021717,12.543874 L18.3021717,12.543874 Z M20.6324919,11.3734833 C20.4718406,11.3759916 20.3434605,11.5075769 20.3453322,11.6678123 L20.3453322,13.9952623 C20.3438391,14.1001913 20.3991111,14.1977932 20.4899823,14.2506923 C20.5808535,14.3035913 20.6932443,14.3035913 20.7841155,14.2506923 C20.8749867,14.1977932 20.9302588,14.1001913 20.9287657,13.9952623 L20.9287657,11.6678123 C20.929683,11.5892722 20.898725,11.5136982 20.8429282,11.4582677 C20.7871315,11.4028372 20.7112358,11.372259 20.6324919,11.3734833 L20.6324919,11.3734833 Z" id="Shape" fill="#E9EDED"></path>
                <path d="M21.2159236,11.3734833 L21.2159236,11.9553891 C21.3825833,11.9553891 21.5076404,12.0800461 21.5076404,12.2462554 C21.5076404,12.4124647 21.382585,12.5371217 21.2159236,12.5371217 L21.2159236,13.1192007 C21.6957119,13.1192007 22.0910756,12.7249729 22.0910756,12.2462554 C22.0910756,11.767711 21.6957119,11.3734833 21.2159236,11.3734833 L21.2159236,11.3734833 Z" id="Path" fill="#E9EDED" fill-rule="nonzero"></path>
                <path d="M20.6159662,11.3734833 C20.2268864,11.3942594 20.2565238,11.9749533 20.6455846,11.9553891 L21.2204738,11.9553891 C21.614968,11.9744339 21.614968,11.367943 21.2204738,11.3734833 L20.6455846,11.3734833 C20.6357118,11.3729639 20.6257524,11.3729639 20.6159662,11.3734833 Z M20.6307788,12.5405844 C20.2362828,12.5198083 20.2362828,13.1278574 20.6307788,13.1223171 L21.2204824,13.1223171 C21.6149784,13.1430933 21.6149784,12.5352172 21.2204824,12.5405844 L20.6307788,12.5405844 Z" id="Shape" fill="#E9EDED"></path>
                <path d="M21.2170633,12.5383337 C21.1139932,12.5360024 21.0173422,12.5880991 20.9628267,12.675372 C20.9083112,12.7626449 20.9040266,12.8721343 20.9515562,12.9633794 L21.5349898,14.127191 C21.581628,14.2201731 21.6744604,14.2812767 21.7785177,14.2874846 C21.8825751,14.2936925 21.9820488,14.2440615 22.0394678,14.1572872 C22.0968869,14.070513 22.1035281,13.9597785 22.0568898,13.8667964 L21.4734546,12.7029848 C21.4257914,12.6044443 21.3267346,12.5408982 21.2170633,12.5385068 L21.2170633,12.5383337 Z M22.9724908,11.3849102 C22.962999,11.3844473 22.9534901,11.3844473 22.9439983,11.3849102 C22.9243966,11.389285 22.9053002,11.3956671 22.8870132,11.403955 C22.8774893,11.4103376 22.8683512,11.4172751 22.8596465,11.4247312 C22.8501793,11.4305546 22.8410537,11.4369132 22.8323145,11.443776 C22.8235726,11.4502297 22.8151994,11.4571659 22.8072341,11.4645521 C22.7670473,11.4913067 22.7341522,11.5275971 22.7115027,11.5701643 C22.7068651,11.5791754 22.7027025,11.5884218 22.6990318,11.5978659 C22.684179,11.6341145 22.676815,11.6729802 22.6773809,11.7121348 C22.6777461,11.7214019 22.6785554,11.7306463 22.6798058,11.7398363 C22.6832269,11.7685125 22.6909091,11.7965211 22.7025999,11.822941 C22.7066661,11.8324099 22.7112337,11.8416568 22.7162832,11.8506426 C22.7214762,11.8601883 22.727201,11.8694367 22.7334307,11.8783441 L23.5481872,12.9614749 L23.5481872,14.0229639 C23.5485524,14.032231 23.5493616,14.0414754 23.5506121,14.0506655 C23.5516656,14.0599662 23.5531685,14.0692108 23.5551155,14.078367 C23.5613941,14.1062789 23.5717653,14.1331149 23.5858943,14.158009 C23.5956072,14.1752868 23.6070636,14.1915303 23.6200854,14.2064867 C23.6391134,14.2287359 23.6613957,14.2479971 23.6861811,14.2636212 C23.702735,14.2740081 23.7202941,14.2827086 23.7385935,14.2895914 C23.7472982,14.2970475 23.7564363,14.3039849 23.7659602,14.3103675 C23.7936863,14.3210802 23.8228914,14.3275027 23.8525636,14.3294124 C23.8818547,14.3273901 23.9106719,14.3209695 23.9380412,14.3103675 C23.9475592,14.3039844 23.9566915,14.2970469 23.9653906,14.2895914 C23.9741325,14.2831377 23.9825057,14.2762014 23.990471,14.2688152 C23.9991691,14.2629223 24.0075414,14.2565648 24.0155513,14.2497704 C24.0231213,14.2432205 24.0303478,14.2362859 24.0372022,14.2289942 C24.044376,14.2224145 24.0512147,14.2154804 24.0576925,14.208218 C24.064196,14.2004603 24.0702896,14.1923697 24.0759486,14.1839792 C24.081711,14.1756057 24.08703,14.1669371 24.0918836,14.158009 C24.1115901,14.1245175 24.1243757,14.0874307 24.1294868,14.0489341 C24.1309853,14.0374502 24.131795,14.0258873 24.1319117,14.0143072 L24.1319117,12.9528182 L24.9466665,11.8698605 C24.9638236,11.8460436 24.9772721,11.8197766 24.986556,11.7919499 C24.9993414,11.754687 25.004409,11.7152233 25.0014518,11.6759496 C24.9990985,11.6474452 24.9925443,11.6194425 24.9820007,11.592845 C24.9787262,11.5834248 24.9749684,11.5741788 24.9707422,11.5651434 C24.9661759,11.5568266 24.9612047,11.5487373 24.9558464,11.5409046 C24.9505475,11.5325394 24.9448243,11.5244493 24.9386989,11.5166657 C24.8770754,11.4389476 24.7800341,11.3978463 24.6811698,11.4075908 C24.6423723,11.4116463 24.6047843,11.4234208 24.5706291,11.4422178 C24.5619369,11.4481111 24.5535704,11.4544687 24.5455661,11.4612626 C24.5295872,11.4718933 24.5147,11.4840718 24.5011212,11.4976209 C24.4934062,11.5058522 24.486177,11.5145235 24.4794704,11.5235911 L23.840233,12.37299 L23.2009611,11.5228985 C23.1948659,11.5150705 23.1883738,11.5075582 23.18151,11.500391 C23.1681003,11.4856354 23.1532073,11.4722918 23.1370651,11.46057 C23.1132726,11.4441083 23.0871554,11.431271 23.0595723,11.4224804 C23.0319409,11.4111747 23.0027328,11.4041677 22.9729689,11.4017042 L22.9724908,11.3849102 Z" id="Shape" fill="#E9EDED"></path>
                <rect id="Rectangle" fill="#105286" fill-rule="nonzero" x="6.33434185" y="7.75946913" width="19.8408481" height="1.98758659"></rect>
                <polyline id="Path" stroke="#105286" stroke-width="1.75941537" stroke-linecap="round" stroke-linejoin="round" points="55.4401794 22.4670905 55.4401794 25.331085 0.880102424 25.331085 0.880102424 22.4670905"></polyline>
                <ellipse id="Oval" stroke="#105286" stroke-width="1.75941537" fill="#406B95" fill-rule="nonzero" stroke-linecap="round" stroke-linejoin="round" cx="9.49536741" cy="26.5844072" rx="4.12751995" ry="4.11714364"></ellipse>
                <ellipse id="Oval" stroke="#105286" stroke-width="1.75941537" fill="#406B95" fill-rule="nonzero" stroke-linecap="round" stroke-linejoin="round" cx="43.774741" cy="26.5844072" rx="4.12751995" ry="4.11714364"></ellipse>
            </g>
        </g>
    </g>
</svg>