<?xml version="1.0" encoding="UTF-8"?>
<svg width="24px" height="30px" viewBox="0 0 24 30" version="1.1" xmlns="http://www.w3.org/2000/svg" xmlns:xlink="http://www.w3.org/1999/xlink">
    <title>fridge</title>
    <g id="Page-1" stroke="none" stroke-width="1" fill="none" fill-rule="evenodd">
        <g id="Dashboard-shop" transform="translate(-36.000000, -286.000000)" fill-rule="nonzero">
            <g id="Group-4" transform="translate(0.000000, -1.000000)">
                <g id="fridge" transform="translate(36.375000, 287.332500)">
                    <rect id="Rectangle" fill="#3F6DB3" x="0.45" y="0.45" width="21.6" height="5.4" rx="0.9"></rect>
                    <rect id="Rectangle" fill="#7FBEE9" x="2.25" y="5.85" width="18" height="19.8"></rect>
                    <path d="M22.05,26.55 L22.05,27.9 C22.05,28.1485281 21.8485281,28.35 21.6,28.35 L0.9,28.35 C0.651471863,28.35 0.45,28.1485281 0.45,27.9 L0.45,26.55 C0.45,26.0529437 0.852943725,25.65 1.35,25.65 L21.15,25.65 C21.6470563,25.65 22.05,26.0529437 22.05,26.55 Z" id="Path" fill="#3F6DB3"></path>
                    <rect id="Rectangle" fill="#E0E2E4" x="4.05" y="7.65" width="14.4" height="16.2" rx="0.9"></rect>
                    <polygon id="Path" fill="#7ABA1E" points="15.75 14.85 13.05 14.85 13.05 13.05 13.95 10.35 14.85 10.35 15.75 13.05"></polygon>
                    <rect id="Rectangle" fill="#3A3C3E" x="13.95" y="9.45" width="1" height="1"></rect>
                    <polygon id="Path" fill="#B1161D" points="11.25 14.85 8.55 14.85 8.55 13.05 9.45 10.35 10.35 10.35 11.25 13.05"></polygon>
                    <rect id="Rectangle" fill="#3A3C3E" x="9.45" y="9.45" width="1" height="1"></rect>
                    <polygon id="Path" fill="#006195" points="15.75 22.05 13.05 22.05 13.05 20.25 13.95 17.55 14.85 17.55 15.75 20.25"></polygon>
                    <rect id="Rectangle" fill="#3A3C3E" x="13.95" y="16.65" width="1" height="1"></rect>
                    <polygon id="Path" fill="#E88504" points="11.25 22.05 8.55 22.05 8.55 20.25 9.45 17.55 10.35 17.55 11.25 20.25"></polygon>
                    <rect id="Rectangle" fill="#3A3C3E" x="9.45" y="16.65" width="1" height="1"></rect>
                    <path d="M5.85,18 C5.60147186,18 5.4,17.7985281 5.4,17.55 L5.4,13.95 C5.4,13.7014719 5.60147186,13.5 5.85,13.5 C6.09852814,13.5 6.3,13.7014719 6.3,13.95 L6.3,17.55 C6.3,17.7985281 6.09852814,18 5.85,18 Z" id="Path" fill="#3A3C3E"></path>
                    <rect id="Rectangle" fill="#E0E2E4" x="16.2" y="3.6" width="1" height="1" rx="0.45"></rect>
                    <rect id="Rectangle" fill="#E0E2E4" x="14.4" y="3.6" width="1" height="1" rx="0.45"></rect>
                    <rect id="Rectangle" fill="#E0E2E4" x="18" y="3.6" width="1" height="1" rx="0.45"></rect>
                    <rect id="Rectangle" fill="#E0E2E4" x="19.8" y="3.6" width="1" height="1" rx="0.45"></rect>
                    <path d="M2.7,27.45 L2.7,28.35 L1.8,28.35 L1.8,27.45 C1.8,27.2014719 2.00147186,27 2.25,27 C2.49852814,27 2.7,27.2014719 2.7,27.45 Z M4.5,27.45 L4.5,28.35 L3.6,28.35 L3.6,27.45 C3.6,27.2014719 3.80147186,27 4.05,27 C4.29852814,27 4.5,27.2014719 4.5,27.45 Z M6.3,27.45 L6.3,28.35 L5.4,28.35 L5.4,27.45 C5.4,27.2014719 5.60147186,27 5.85,27 C6.09852814,27 6.3,27.2014719 6.3,27.45 Z M8.1,27.45 L8.1,28.35 L7.2,28.35 L7.2,27.45 C7.2,27.2014719 7.40147186,27 7.65,27 C7.89852814,27 8.1,27.2014719 8.1,27.45 Z M9.9,27.45 L9.9,28.35 L9,28.35 L9,27.45 C9,27.2014719 9.20147186,27 9.45,27 C9.69852814,27 9.9,27.2014719 9.9,27.45 Z M11.7,27.45 L11.7,28.35 L10.8,28.35 L10.8,27.45 C10.8,27.2014719 11.0014719,27 11.25,27 C11.4985281,27 11.7,27.2014719 11.7,27.45 Z M13.5,27.45 L13.5,28.35 L12.6,28.35 L12.6,27.45 C12.6,27.2014719 12.8014719,27 13.05,27 C13.2985281,27 13.5,27.2014719 13.5,27.45 Z M15.3,27.45 L15.3,28.35 L14.4,28.35 L14.4,27.45 C14.4,27.2014719 14.6014719,27 14.85,27 C15.0985281,27 15.3,27.2014719 15.3,27.45 Z M17.1,27.45 L17.1,28.35 L16.2,28.35 L16.2,27.45 C16.2,27.2014719 16.4014719,27 16.65,27 C16.8985281,27 17.1,27.2014719 17.1,27.45 Z M18.9,27.45 L18.9,28.35 L18,28.35 L18,27.45 C18,27.2014719 18.2014719,27 18.45,27 C18.6985281,27 18.9,27.2014719 18.9,27.45 Z M20.7,27.45 L20.7,28.35 L19.8,28.35 L19.8,27.45 C19.8,27.2014719 20.0014719,27 20.25,27 C20.4985281,27 20.7,27.2014719 20.7,27.45 Z" id="Shape" fill="#1F53A3"></path>
                    <path d="M8.55,2.7 L2.25,2.7 C2.00147186,2.7 1.8,2.49852814 1.8,2.25 C1.8,2.00147186 2.00147186,1.8 2.25,1.8 L8.55,1.8 C8.79852814,1.8 9,2.00147186 9,2.25 C9,2.49852814 8.79852814,2.7 8.55,2.7 Z M12.15,4.5 L5.85,4.5 C5.60147186,4.5 5.4,4.29852814 5.4,4.05 C5.4,3.80147186 5.60147186,3.6 5.85,3.6 L12.15,3.6 C12.3985281,3.6 12.6,3.80147186 12.6,4.05 C12.6,4.29852814 12.3985281,4.5 12.15,4.5 Z" id="Shape" fill="#E0E2E4"></path>
                    <path d="M16.65,15.3 L7.65,15.3 C7.40147186,15.3 7.2,15.0985281 7.2,14.85 C7.2,14.6014719 7.40147186,14.4 7.65,14.4 L16.65,14.4 C16.8985281,14.4 17.1,14.6014719 17.1,14.85 C17.1,15.0985281 16.8985281,15.3 16.65,15.3 Z M16.65,22.5 L7.65,22.5 C7.40147186,22.5 7.2,22.2985281 7.2,22.05 C7.2,21.8014719 7.40147186,21.6 7.65,21.6 L16.65,21.6 C16.8985281,21.6 17.1,21.8014719 17.1,22.05 C17.1,22.2985281 16.8985281,22.5 16.65,22.5 Z" id="Shape" fill="#3A3C3E"></path>
                </g>
            </g>
        </g>
    </g>
</svg>