<?xml version="1.0" encoding="UTF-8"?>
<svg width="77px" height="77px" viewBox="0 0 77 77" version="1.1" xmlns="http://www.w3.org/2000/svg" xmlns:xlink="http://www.w3.org/1999/xlink">
    <!-- Generator: Sketch 58 (84663) - https://sketch.com -->
    <title>Group 15</title>
    <desc>Created with Sketch.</desc>
    <g id="Page-1" stroke="none" stroke-width="1" fill="none" fill-rule="evenodd">
        <g id="Dashboard-Fridge" transform="translate(-874.000000, -165.000000)">
            <g id="Group-15" transform="translate(874.109446, 165.293524)">
                <circle id="Oval" fill="#F8F8F8" cx="38" cy="38" r="38"></circle>
                <g id="food" transform="translate(28.500000, 18.000000)" fill-rule="nonzero" stroke-linecap="round" stroke-linejoin="round" stroke-width="1.32">
                    <path d="M5.82384,2.8535232 C2.524632,8.0483832 1.33716,16.1745672 1.33716,22.1488872 C1.33716,25.2061392 3.086952,24.1077672 3.435828,25.3399872 C3.913536,27.0272112 3.291024,30.6091632 3.291024,30.6091632 C3.159024,35.3962752 11.838684,39.5670792 12.553992,39.1434912 C12.553992,39.1434912 11.022132,36.2726232 11.251416,34.7649192 C11.7216,31.6732152 15.058956,28.9689312 16.46172,27.0468792 C17.156964,26.0943672 16.10664,23.9745792 16.244712,22.4456232 C16.379484,20.9520432 17.120796,19.5606312 17.257812,18.0670512 C17.406972,16.4400192 17.040672,13.1690592 17.040672,13.1690592 C16.978632,11.7645792 15.1866,11.2307712 14.43552,10.2005112 C13.862112,9.4143192 14.48568,8.2714632 13.928904,7.1579112 C13.471392,6.2422272 10.74942,3.9852912 8.646132,3.2245752 C7.736256,2.8954992 5.82384,2.8535232 5.82384,2.8535232 L5.82384,2.8535232 Z" id="Path" stroke="#383747" fill="#FAA41A"></path>
                    <path d="M6.294288,8.4193032 C6.356328,9.0650472 6.868884,9.2584272 7.36164,9.2172432 M5.3625,13.7693952 C5.42454,14.4151392 5.937228,14.6082552 6.429984,14.5672032 M12.65352,12.4706472 C12.59148,13.1163912 12.078792,13.3096392 11.586036,13.2684552 M14.77014,15.1052352 C14.83218,15.7508472 15.344868,15.9442272 15.837624,15.9030432 M5.79678,20.2868952 C5.85882,19.6410192 6.371376,19.4477712 6.864132,19.4890872 M12.309792,20.3239872 C12.371832,19.6782432 12.884388,19.4849952 13.377144,19.5261792 M8.510436,33.9420312 C8.572476,33.2962872 9.085164,33.1027752 9.57792,33.1440912 M6.122424,30.6022992 C6.184464,29.9565552 6.69702,29.7634392 7.189776,29.8046232 M8.727576,26.7432792 C8.789616,26.0976672 9.302172,25.9042872 9.79506,25.9456032" id="Shape" stroke="#FFFFFF" fill="#FFFFFF"></path>
                    <path d="M18.439476,17.2202712 C18.377436,17.8660152 17.86488,18.0592632 17.372124,18.0180792 M14.902404,6.5128272 C14.272764,6.5761872 14.084268,7.1020752 14.124528,7.6073712 M2.404644,12.0056112 C2.342604,11.3598672 1.830048,11.1664872 1.33716,11.2076712 M1.347984,20.1105432 C1.015872,19.5582552 0.47256,19.6152792 0.04752,19.8742632 M3.42672,27.6115752 C3.094608,28.1638632 2.551428,28.1068392 2.126256,27.8481192 M13.76892,32.6277072 C13.436808,32.0754192 12.893628,32.1324432 12.468456,32.3912952 M13.658964,38.0969952 C13.32672,37.5447072 12.78354,37.6017312 12.358368,37.8604512 M8.187432,1.3367112 C7.870104,2.0505672 7.56096,2.7703632 6.788364,2.7703632 C6.015636,2.7703632 5.686824,2.0703672 5.389164,1.3367112 C5.042532,0.4818792 5.891688,0.3723192 6.699924,0.4482192 C7.652172,0.5379792 8.494728,0.6452952 8.187432,1.3367112 Z" id="Shape" stroke="#383747" fill="#FAA41A"></path>
                </g>
            </g>
        </g>
    </g>
</svg>