<?xml version="1.0" encoding="UTF-8"?>
<svg width="77px" height="77px" viewBox="0 0 77 77" version="1.1" xmlns="http://www.w3.org/2000/svg" xmlns:xlink="http://www.w3.org/1999/xlink">
    <!-- Generator: Sketch 58 (84663) - https://sketch.com -->
    <title>Group 12</title>
    <desc>Created with Sketch.</desc>
    <g id="Page-1" stroke="none" stroke-width="1" fill="none" fill-rule="evenodd">
        <g id="Dashboard-Fridge" transform="translate(-506.000000, -165.000000)">
            <g id="Group-12" transform="translate(506.058346, 165.293524)">
                <circle id="Oval" fill="#F8F8F8" cx="38" cy="38" r="38"></circle>
                <g id="ice-cream" transform="translate(22.000000, 17.500000)" fill-rule="nonzero">
                    <path d="M31.059,15.624 C31.059,15.309 30.807,14.994 30.429,14.994 L29.043,14.994 C29.232,14.49 29.358,13.923 29.358,13.356 C29.358,11.025 27.594,9.135 25.326,8.82 C25.263,8.505 25.137,8.19 25.011,7.875 L30.492,3.087 C30.618,2.961 30.681,2.835 30.681,2.646 C30.681,2.457 30.618,2.331 30.492,2.205 L28.224,0.189 C27.972,8.18095591e-15 27.657,8.18095591e-15 27.405,0.189 L21.609,5.292 C21.168,5.229 20.727,5.229 20.286,5.292 C20.286,5.166 20.286,5.04 20.286,4.914 C20.286,2.394 18.27,0.378 15.75,0.378 C13.23,0.378 11.214,2.394 11.214,4.914 C11.214,5.04 11.214,5.166 11.214,5.292 C11.025,5.292 10.773,5.229 10.584,5.229 C8.379,5.229 6.552,6.804 6.111,8.883 C3.843,9.135 2.079,11.088 2.079,13.419 C2.079,13.986 2.205,14.553 2.394,15.057 L1.071,15.057 C0.756,15.057 0.441,15.309 0.441,15.687 C0.441,17.262 0.693,18.837 1.071,20.223 C1.071,20.223 1.071,20.286 1.071,20.286 C1.701,22.428 2.772,24.381 4.221,25.956 C4.221,26.019 4.284,26.019 4.284,26.082 C4.284,26.082 4.347,26.145 4.347,26.145 C5.796,27.72 7.623,28.98 9.639,29.799 C9.639,29.799 9.639,29.799 9.639,29.799 C10.647,30.177 11.718,30.492 12.789,30.681 L12.789,32.76 C12.789,34.209 11.592,35.406 10.143,35.406 C8.757,35.406 7.623,36.477 7.623,37.8 C7.623,38.493 7.875,39.123 8.316,39.564 C8.757,40.005 9.45,40.32 10.08,40.32 L21.42,40.32 C22.806,40.32 23.877,39.186 23.877,37.863 C23.877,36.54 22.743,35.406 21.42,35.406 L21.357,35.406 C19.908,35.406 18.711,34.209 18.711,32.76 L18.711,30.681 C25.893,29.421 31.059,23.373 31.059,15.624 Z M19.467,29.295 L29.358,19.404 C28.161,24.381 24.507,28.035 19.467,29.295 Z M27.846,1.449 L29.169,2.646 L19.278,11.34 C18.774,11.025 18.27,10.584 17.892,10.143 L27.846,1.449 Z M6.678,10.08 C6.993,10.08 7.245,9.828 7.308,9.513 C7.434,7.812 8.883,6.426 10.647,6.426 C11.025,6.426 11.466,6.489 11.844,6.678 C12.033,6.741 12.285,6.741 12.474,6.552 C12.663,6.363 12.726,6.111 12.663,5.922 C12.537,5.544 12.474,5.229 12.474,4.851 C12.474,3.024 13.986,1.512 15.813,1.512 C17.64,1.512 19.152,3.024 19.152,4.851 C19.152,5.229 19.089,5.544 18.963,5.859 C18.9,6.111 18.963,6.363 19.152,6.489 C19.341,6.678 19.593,6.678 19.782,6.615 C19.971,6.552 20.097,6.489 20.286,6.489 L17.388,9.072 C17.199,8.568 17.073,8.064 17.073,7.497 C17.073,7.182 16.821,6.867 16.443,6.867 C16.128,6.867 15.813,7.119 15.813,7.497 C15.813,8.568 16.128,9.576 16.695,10.458 C16.695,10.458 16.695,10.458 16.695,10.458 C16.695,10.458 16.695,10.458 16.695,10.458 C17.262,11.34 18.144,12.096 19.152,12.663 C19.152,12.663 19.152,12.663 19.152,12.663 C20.097,13.104 21.105,13.356 22.239,13.356 C22.554,13.356 22.869,13.104 22.869,12.726 C22.869,12.348 22.617,12.096 22.239,12.096 C21.672,12.096 21.042,12.033 20.538,11.844 L24.066,8.757 C24.129,9.009 24.192,9.261 24.192,9.513 C24.192,9.828 24.507,10.08 24.822,10.08 C26.649,10.08 28.161,11.592 28.161,13.419 C28.161,13.986 27.972,14.553 27.72,15.057 L3.78,15.057 C3.465,14.553 3.339,13.986 3.339,13.419 C3.339,11.529 4.851,10.08 6.678,10.08 Z M1.701,16.254 L4.599,16.254 L2.016,18.837 C1.827,18.018 1.701,17.136 1.701,16.254 Z M4.788,24.822 C3.717,23.499 2.898,21.987 2.331,20.223 L6.3,16.254 L13.293,16.254 L4.788,24.822 Z M5.607,25.704 L15.057,16.254 L22.05,16.254 L9.765,28.539 C8.19,27.846 6.804,26.901 5.607,25.704 Z M21.294,36.666 L21.42,36.666 C22.113,36.666 22.68,37.233 22.68,37.863 C22.68,38.556 22.113,39.123 21.42,39.123 L10.08,39.123 C9.765,39.123 9.45,38.997 9.198,38.745 C8.946,38.493 8.82,38.178 8.82,37.863 C8.82,37.233 9.45,36.666 10.143,36.666 C12.285,36.666 13.986,34.902 13.986,32.823 L13.986,30.933 C14.553,30.996 15.12,30.996 15.624,30.996 C16.191,30.996 16.758,30.996 17.325,30.933 L17.325,32.823 C17.451,34.902 19.215,36.666 21.294,36.666 Z M17.388,29.673 C16.821,29.736 16.317,29.736 15.75,29.736 C14.049,29.736 12.474,29.484 11.025,28.98 L23.814,16.191 L29.862,16.191 C29.862,16.569 29.799,16.884 29.799,17.262 L17.388,29.673 Z" id="Shape" fill="#143751"></path>
                    <path d="M28.161,13.419 C28.161,13.986 27.972,14.553 27.72,15.057 L3.78,15.057 C3.465,14.553 3.339,13.986 3.339,13.419 C3.339,11.592 4.851,10.08 6.678,10.08 C6.993,10.08 7.245,9.828 7.308,9.513 C7.434,7.812 8.883,6.426 10.647,6.426 C11.025,6.426 11.466,6.489 11.844,6.678 C12.033,6.741 12.285,6.741 12.474,6.552 C12.663,6.363 12.726,6.111 12.663,5.922 C12.537,5.544 12.474,5.229 12.474,4.851 C12.474,3.024 13.986,1.512 15.813,1.512 C17.64,1.512 19.152,3.024 19.152,4.851 C19.152,5.229 19.089,5.544 18.963,5.859 C18.9,6.111 18.963,6.363 19.152,6.489 C19.341,6.678 19.593,6.678 19.782,6.615 C19.971,6.552 20.097,6.489 20.286,6.489 L17.388,9.072 C17.199,8.568 17.073,8.064 17.073,7.497 C17.073,7.182 16.821,6.867 16.443,6.867 C16.128,6.867 15.813,7.119 15.813,7.497 C15.813,8.568 16.128,9.576 16.695,10.458 C16.695,10.458 16.695,10.458 16.695,10.458 C16.695,10.458 16.695,10.458 16.695,10.458 C17.262,11.34 18.144,12.096 19.152,12.663 C19.152,12.663 19.152,12.663 19.152,12.663 C20.097,13.104 21.105,13.356 22.239,13.356 C22.554,13.356 22.869,13.104 22.869,12.726 C22.869,12.348 22.617,12.096 22.239,12.096 C21.672,12.096 21.042,12.033 20.538,11.844 L24.066,8.757 C24.129,9.009 24.192,9.261 24.192,9.513 C24.192,9.828 24.507,10.08 24.822,10.08 C26.649,10.08 28.161,11.529 28.161,13.419 Z" id="Path" fill="#36C8E3"></path>
                    <path d="M18.648,3.276 C18.207,3.024 17.64,2.898 17.073,2.898 C15.246,2.898 13.734,4.41 13.734,6.237 C13.734,6.552 13.797,6.93 13.923,7.308 C13.986,7.56 13.923,7.749 13.734,7.938 C13.545,8.127 13.293,8.127 13.104,8.064 C12.726,7.938 12.285,7.812 11.907,7.812 C10.206,7.812 8.757,9.198 8.568,10.899 C8.568,11.214 8.253,11.466 7.938,11.466 C6.111,11.466 4.599,12.978 4.599,14.805 C4.599,14.931 4.599,14.994 4.599,15.12 L3.78,15.12 C3.465,14.616 3.339,14.049 3.339,13.482 C3.339,11.655 4.851,10.143 6.678,10.143 C6.993,10.143 7.245,9.891 7.308,9.576 C7.434,7.875 8.883,6.489 10.647,6.489 C11.025,6.489 11.466,6.552 11.844,6.741 C12.033,6.804 12.285,6.804 12.474,6.615 C12.663,6.426 12.726,6.174 12.663,5.985 C12.537,5.607 12.474,5.292 12.474,4.914 C12.474,3.087 13.986,1.575 15.813,1.575 C17.01,1.512 18.081,2.268 18.648,3.276 Z" id="Path" fill="#30A8C4"></path>
                    <path d="M29.169,2.646 L19.278,11.34 C18.774,11.025 18.27,10.584 17.892,10.143 L27.846,1.449 L29.169,2.646 Z" id="Path" fill="#EDC45F"></path>
                    <path d="M22.617,37.863 C22.617,38.556 22.05,39.123 21.357,39.123 L10.08,39.123 C9.765,39.123 9.45,38.997 9.198,38.745 C8.946,38.493 8.82,38.178 8.82,37.863 C8.82,37.233 9.45,36.666 10.143,36.666 C12.285,36.666 13.986,34.902 13.986,32.823 L13.986,30.933 C14.553,30.996 15.12,30.996 15.624,30.996 C16.191,30.996 16.758,30.996 17.325,30.933 L17.325,32.823 C17.325,34.965 19.089,36.666 21.168,36.666 L21.42,36.666 C22.05,36.666 22.617,37.17 22.617,37.863 Z" id="Path" fill="#FFDC7B"></path>
                    <path d="M29.862,16.254 C29.862,16.632 29.799,16.947 29.799,17.325 L17.388,29.673 C16.821,29.736 16.317,29.736 15.75,29.736 C14.049,29.736 12.474,29.484 11.025,28.98 L23.814,16.191 L29.862,16.191 L29.862,16.254 Z M13.356,16.254 L4.788,24.822 C3.717,23.499 2.898,21.987 2.331,20.223 L6.3,16.254 L13.356,16.254 Z" id="Shape" fill="#FFE5AB"></path>
                    <path d="M29.421,19.404 C28.161,24.381 24.507,28.098 19.53,29.295 L29.421,19.404 Z M22.05,16.254 L9.765,28.539 C8.19,27.846 6.741,26.901 5.607,25.704 L15.057,16.254 L22.05,16.254 Z" id="Shape" fill="#FFDC7B"></path>
                    <path d="M17.199,18.837 L14.616,21.42 C14.427,20.601 14.301,19.719 14.301,18.837 L17.199,18.837 Z" id="Path" fill="#FFDC7B"></path>
                </g>
            </g>
        </g>
    </g>
</svg>