<?xml version="1.0" encoding="UTF-8"?>
<svg width="77px" height="77px" viewBox="0 0 77 77" version="1.1" xmlns="http://www.w3.org/2000/svg" xmlns:xlink="http://www.w3.org/1999/xlink">
    <!-- Generator: Sketch 58 (84663) - https://sketch.com -->
    <title>Group 11</title>
    <desc>Created with Sketch.</desc>
    <g id="Page-1" stroke="none" stroke-width="1" fill="none" fill-rule="evenodd">
        <g id="Dashboard-Fridge" transform="translate(-324.000000, -165.000000)">
            <g id="Group-11" transform="translate(324.282797, 165.293524)">
                <circle id="Oval" fill="#F8F8F8" cx="38" cy="38" r="38"></circle>
                <g id="crab" transform="translate(18.500000, 23.000000)" fill-rule="nonzero">
                    <path d="M15.5304474,26.1780647 L22.8695526,26.1780647 C26.5635475,26.1780647 29.558123,23.1834893 29.558123,19.4894943 L29.558123,19.3543717 C29.558123,15.6603745 26.5635475,12.665799 22.8695526,12.665799 L15.5304474,12.665799 C11.8364513,12.665799 8.84187699,15.6603745 8.84187699,19.3543717 L8.84187699,19.4894943 C8.84187699,23.1834892 11.8364513,26.1780647 15.5304474,26.1780647 Z" id="Path" fill="#F04C42"></path>
                    <circle id="Oval" fill="#D2433A" cx="14.8608" cy="13.0422" r="3.6696"></circle>
                    <circle id="Oval" fill="#D2433A" cx="23.5392" cy="13.0422" r="3.6696"></circle>
                    <circle id="Oval" fill="#F04C42" cx="14.8608" cy="12.6657" r="3.6696"></circle>
                    <circle id="Oval" fill="#F04C42" cx="23.5392" cy="12.6657" r="3.6696"></circle>
                    <circle id="Oval" fill="#FDFFFA" cx="15.0462" cy="12.3309" r="3.4842"></circle>
                    <circle id="Oval" fill="#FDFFFA" cx="23.3538" cy="12.3309" r="3.4842"></circle>
                    <circle id="Oval" fill="#1F323A" cx="23.3538" cy="12.3309" r="1.5948"></circle>
                    <circle id="Oval" fill="#FDFFFA" cx="22.9515" cy="11.7318" r="1"></circle>
                    <circle id="Oval" fill="#1F323A" cx="15.0462" cy="12.3309" r="1.5948"></circle>
                    <circle id="Oval" fill="#FDFFFA" cx="14.6439" cy="11.7318" r="1"></circle>
                    <path d="M11.1598194,16.7352585 C6.01520805,16.1104706 2.3380806,11.4167129 2.96286849,6.27226638 L4.62471999,6.47399025 C4.37575263,8.524086 4.93891182,10.5470455 6.21055641,12.1703178 C7.482201,13.7934242 9.31144752,14.8244385 11.3615433,15.073407 L11.1598194,16.7352585 Z" id="Path" fill="#F04C42"></path>
                    <path d="M6.40645638,4.06942635 C6.11040975,2.09293386 4.89501972,0.57285348 3.49625589,0.24640104 L3.2364996,4.54424973 L1.17281514,0.93753777 C0.28287651,1.8174843 -0.18197508,3.35989953 0.06654255,5.0190525 C0.42554628,7.41587103 2.13580515,9.14629899 3.88652346,8.88407019 C5.63726235,8.62184142 6.76546098,6.46624488 6.40645638,4.06942635 Z M27.2401817,16.7352585 C32.3847908,16.1104706 36.0619171,11.4167129 35.4371292,6.27226638 L33.77528,6.47399025 C34.0242462,8.524086 33.461087,10.5470455 32.1894424,12.1703178 C30.9177979,13.7934242 29.0885536,14.8244385 27.0384567,15.073407 L27.2401817,16.7352585 Z" id="Shape" fill="#F04C42"></path>
                    <path d="M31.9935425,4.06942635 C32.2895897,2.09293386 33.5049797,0.57285348 34.9037453,0.24640104 L35.163501,4.54424973 L37.2271866,0.93753777 C38.117125,1.8174843 38.5819748,3.35989953 38.3334595,5.0190525 C37.9744538,7.41587103 36.2641937,9.14629899 34.5134766,8.88407019 C32.7627388,8.62184142 31.634539,6.46624488 31.9935425,4.06942635 Z M35.1317459,25.4162476 L36.9151794,25.4162476 C35.3795288,20.6680756 30.3464241,17.9152153 25.4869079,19.2495094 L25.9300598,20.8638519 C27.9215103,20.3170601 30.0051773,20.5776146 31.7973152,21.5975738 C33.3264908,22.4679771 34.4839691,23.8058281 35.1317459,25.4162476 Z" id="Shape" fill="#F04C42"></path>
                    <path d="M32.0372337,27.9947685 L33.820665,27.9947685 C32.2850143,23.2465965 27.2519119,20.4937386 22.3923958,21.8280327 L22.8355453,23.4423752 C24.8269958,22.8955834 26.9106651,23.1561356 28.702803,24.1760948 C30.2319763,25.0465004 31.3894569,26.3843513 32.0372337,27.9947685 Z" id="Path" fill="#F04C42"></path>
                    <path d="M27.7746895,29.7535996 L29.558123,29.7535996 C28.0224724,25.0054276 22.98937,22.2525673 18.1298538,23.5868614 L18.5730034,25.2012039 C20.5644538,24.6544121 22.6481231,24.9149666 24.440261,25.9349258 C25.9694344,26.8053291 27.126915,28.1431801 27.7746895,29.7535996 Z M3.26825409,25.4162476 L1.48482114,25.4162476 C3.02047176,20.6680756 8.05357476,17.9152153 12.9130903,19.2495094 L12.4699396,20.8638519 C10.4784903,20.3170601 8.39482101,20.5776146 6.60268311,21.5975738 C5.07351036,22.4679771 3.91603032,23.8058281 3.26825409,25.4162476 Z" id="Shape" fill="#F04C42"></path>
                    <path d="M6.36276741,27.9947685 L4.57933446,27.9947685 C6.11498508,23.2465965 11.1480881,20.4937386 16.0076037,21.8280327 L15.564453,23.4423752 C13.5730025,22.8955834 11.4893343,23.1561356 9.69719643,24.1760948 C8.16802368,25.0465004 7.01054307,26.3843513 6.36276741,27.9947685 Z" id="Path" fill="#F04C42"></path>
                    <path d="M10.6253094,29.7535996 L8.84187699,29.7535996 C10.3775276,25.0054276 15.41063,22.2525673 20.2701462,23.5868614 L19.8269966,25.2012039 C17.8355461,24.6544121 15.7518769,24.9149666 13.959739,25.9349258 C12.4305656,26.8053291 11.273085,28.1431801 10.6253094,29.7535996 Z" id="Path" fill="#F04C42"></path>
                    <path d="M21.7590843,17.7160858 C21.7590843,19.1294289 20.613343,20.2751701 19.2,20.2751701 C17.786657,20.2751701 16.6409157,19.1294289 16.6409157,17.7160858" id="Path" fill="#B43932"></path>
                </g>
            </g>
        </g>
    </g>
</svg>