<?xml version="1.0" encoding="UTF-8"?>
<svg width="23px" height="23px" viewBox="0 0 23 23" version="1.1" xmlns="http://www.w3.org/2000/svg" xmlns:xlink="http://www.w3.org/1999/xlink">
    <title>gift-box</title>
    <g id="Page-1" stroke="none" stroke-width="1" fill="none" fill-rule="evenodd">
        <g id="Dashboard-shop" transform="translate(-36.000000, -595.000000)" fill-rule="nonzero">
            <g id="Group-4" transform="translate(0.000000, -1.000000)">
                <g id="gift-box" transform="translate(36.875000, 596.171875)">
                    <path d="M10.839589,3.34462585 C10.839589,4.22125377 10.4913471,5.06197669 9.8714731,5.68184179 C9.25159911,6.30170689 8.4108712,6.64992417 7.53424327,6.64992417 C5.70878522,6.64992417 4.22896557,5.1700839 4.22896557,3.34462585 C4.22896557,1.51917061 5.70878804,0.0393347436 7.53424327,0.0393347436 C8.41086995,0.0393347436 9.25159676,0.387551032 9.87147055,1.00741457 C10.4913443,1.62727812 10.839589,2.46799918 10.839589,3.34462585" id="Path" fill="#A8D0FF"></path>
                    <path d="M17.4501444,3.34462585 C17.4501444,5.1700839 15.9703248,6.64992417 14.1448667,6.64992417 C12.3194087,6.64992417 10.839589,5.1700839 10.839589,3.34462585 C10.839589,1.51917061 12.3194115,0.0393347436 14.1448667,0.0393347436 C15.9703219,0.0393347436 17.4501444,1.51917061 17.4501444,3.34462585" id="Path" fill="#A8D0FF"></path>
                    <path d="M10.839589,2.05376813 C9.82912714,2.05376813 9.01568255,2.86721952 9.01568255,3.87765418 L9.01568255,4.40675032 L12.6634274,4.40675032 L12.6634274,3.87765418 C12.6634274,2.86721952 11.8499828,2.05376813 10.839589,2.05376813 Z M1.83965491,9.84994458 L1.83965491,19.8398435 C1.83965491,20.8370319 2.64241867,21.6398222 3.63961452,21.6398222 L18.0394955,21.6398222 C19.0366913,21.6398222 19.8394551,20.8370319 19.8394551,19.8398435 L19.8394551,9.84994458 L1.83965491,9.84994458 Z" id="Shape" fill="#0063FF"></path>
                    <path d="M1.83965491,4.14702904 L19.8394551,4.14702904 C20.8366502,4.14702904 21.639482,4.94982 21.639482,5.94700905 L21.639482,8.1848833 C21.639482,9.18207235 20.8366502,9.98486331 19.8394551,9.98486331 L1.83965491,9.98486331 C0.842459059,9.98486331 0.0396748977,9.18207235 0.0396748977,8.1848833 L0.0396748977,5.94700905 C0.0396748977,4.94982 0.842459059,4.14702904 1.83965491,4.14702904 Z" id="Path" fill="#00A1FF"></path>
                    <polygon id="Path" fill="#A8D0FF" points="9.01568255 5.00193842 9.01568255 21.6398222 12.6634274 21.6398222 12.6634274 5.00193842"></polygon>
                    <polygon id="Path" fill="#FFFFFF" points="9.01568255 4.1469474 9.01568255 9.98493815 12.6634274 9.98493815 12.6634274 4.1469474"></polygon>
                </g>
            </g>
        </g>
    </g>
</svg>