<?xml version="1.0" encoding="UTF-8"?>
<svg width="30px" height="19px" viewBox="0 0 30 19" version="1.1" xmlns="http://www.w3.org/2000/svg" xmlns:xlink="http://www.w3.org/1999/xlink">
    <title>fe:google-plus@2x</title>
    <g id="Page-1" stroke="none" stroke-width="1" fill="none" fill-rule="evenodd">
        <g id="login" transform="translate(-701.000000, -634.000000)" fill="#FFFFFF">
            <g id="Group-3" transform="translate(684.500000, 612.793750)">
                <g id="Group-6" transform="translate(0.000000, 0.000000)">
                    <g id="fe:google-plus" transform="translate(17.216100, 22.166100)">
                        <path d="M8.93505646,7.78976117 L17.3716925,7.78976117 C17.4475085,8.23623317 17.5120925,8.68270517 17.5120925,9.26957717 C17.5120925,14.3745212 14.0905445,17.9996509 8.93365246,17.9996509 C6.56384382,18.0011403 4.29066799,17.0603978 2.61495989,15.3846897 C0.939251803,13.7089816 -0.00149068918,11.4358058 -2.30571618e-06,9.06599717 C-0.00186400626,6.69570189 0.93890652,4.42195198 2.6149589,2.74589961 C4.29101128,1.06984723 6.56476119,0.129076699 8.93505646,0.1309384 C11.3471285,0.1309384 13.3632725,1.01124917 14.9203085,2.46719717 L12.4956005,4.80204917 C11.8315085,4.16463317 10.6704005,3.42332117 8.93505646,3.42332117 C5.88416446,3.42332117 3.39487246,5.95052117 3.39487246,9.06599717 C3.39487246,12.1800692 5.88416446,14.7072692 8.93505646,14.7072692 C12.4703285,14.7072692 13.7971085,12.1660292 14.0020925,10.8518852 L8.93365246,10.8518852 L8.93365246,7.78976117 L8.93505646,7.78976117 Z M28.0800005,7.78976117 L28.0800005,10.3422332 L25.5275285,10.3422332 L25.5275285,12.8947052 L22.9750565,12.8947052 L22.9750565,10.3422332 L20.4211805,10.3422332 L20.4211805,7.78976117 L22.9750565,7.78976117 L22.9750565,5.23588517 L25.5275285,5.23588517 L25.5275285,7.78976117 L28.0800005,7.78976117 L28.0800005,7.78976117 Z" id="Shape"></path>
                    </g>
                </g>
            </g>
        </g>
    </g>
</svg>