<?xml version="1.0" encoding="UTF-8"?>
<svg width="77px" height="77px" viewBox="0 0 77 77" version="1.1" xmlns="http://www.w3.org/2000/svg" xmlns:xlink="http://www.w3.org/1999/xlink">
    <title>Group 16</title>
    <g id="Page-1" stroke="none" stroke-width="1" fill="none" fill-rule="evenodd">
        <g id="Dashboard-products" transform="translate(-510.000000, -165.000000)">
            <g id="Group-16" transform="translate(510.750318, 165.533125)">
                <circle id="Oval" fill="#F8F8F8" cx="38" cy="38" r="38"></circle>
                <g id="healthcare" transform="translate(18.000000, 17.500000)" fill-rule="nonzero">
                    <path d="M19.44,1.9264 L19.44,1.9264 C18.2323834,0.718572252 16.5943771,0.040003936 14.8864,0.040003936 C13.1784229,0.040003936 11.5404166,0.718572252 10.3328,1.9264 L10.3328,1.9264 C9.12497225,3.13401659 8.44640394,4.77202292 8.44640394,6.48 C8.44640394,8.18797708 9.12497225,9.82598341 10.3328,11.0336 L18.7888,19.4904 C19.4135998,20.1150111 20.4264002,20.1150111 21.0512,19.4904 L29.508,11.0336 C30.7158277,9.82598341 31.3943961,8.18797708 31.3943961,6.48 C31.3943961,4.77202292 30.7158277,3.13401659 29.508,1.9264 L29.508,1.9264 C28.3003834,0.718572252 26.6623771,0.040003936 24.9544,0.040003936 C23.2464229,0.040003936 21.6084166,0.718572252 20.4008,1.9264 L20.4008,1.9264 C20.1353428,2.19138022 19.7054572,2.19138022 19.44,1.9264 Z" id="Path" fill="#E4222E"></path>
                    <path d="M29.508,1.9264 L29.508,1.9264 C28.0023124,0.418660748 25.8476519,-0.245533123 23.7544,0.1528 C25.0257082,0.39181591 26.1948622,1.01013998 27.108,1.9264 L27.108,1.9264 C28.3158277,3.13401659 28.9943961,4.77202292 28.9943961,6.48 C28.9943961,8.18797708 28.3158277,9.82598341 27.108,11.0336 L18.72,19.4224 L18.7888,19.4904 C19.4135998,20.1150111 20.4264002,20.1150111 21.0512,19.4904 L29.508,11.0336 C30.7158277,9.82598341 31.3943961,8.18797708 31.3943961,6.48 C31.3943961,4.77202292 30.7158277,3.13401659 29.508,1.9264 L29.508,1.9264 Z" id="Path" fill="#C0232C"></path>
                    <path d="M39.8,37.0064 L39.8,40.4 L25.9096,40.4 L25.9096,37.0056 C25.9098631,35.8966749 26.6345624,34.918071 27.6952,34.5944 L28.9216,34.22 L28.9424,34.2136 L29.488,34.048 L29.488,34.048 L30.272,33.808 C30.8029533,33.6470641 31.165714,33.1572072 31.1648,32.6024 L31.1648,32.028 L34.5104,32.028 L34.5104,32.5936 C34.5105315,33.1480626 34.8728812,33.6373645 35.4032,33.7992 L36.6904,34.1912 L36.7552,34.2112 L38.0136,34.5944 C39.0748371,34.9178693 39.8,35.8969602 39.8,37.0064 L39.8,37.0064 Z" id="Path" fill="#F69531"></path>
                    <path d="M38.0136,34.5952 L36.7552,34.212 L36.6904,34.192 L35.4032,33.8 C34.8728812,33.6381645 34.5105315,33.1488626 34.5104,32.5944 L34.5104,32.0288 L32.1104,32.0288 L32.1104,32.5944 C32.1105315,33.1488626 32.4728812,33.6381645 33.0032,33.8 L34.2904,34.192 L34.3552,34.212 L35.6136,34.5952 C36.6745543,34.918583 37.3996295,35.8972559 37.4,37.0064 L37.4,40.4 L39.8,40.4 L39.8,37.0064 C39.7996295,35.8972559 39.0745543,34.918583 38.0136,34.5952 L38.0136,34.5952 Z" id="Path" fill="#F48A31"></path>
                    <path d="M36.6904,34.192 L36.6904,34.212 C36.4728,34.4288 35.0344,35.812 32.8408,35.6704 C30.9288,35.544 29.76,34.3456 29.488,34.048 L29.488,34.048 L30.272,33.808 C30.8024771,33.6463887 31.1649291,33.1569486 31.1648,32.6024 L31.1648,32.028 L34.5104,32.028 L34.5104,32.5936 C34.5102294,32.7936949 34.5579593,32.9909237 34.6496,33.1688 C34.805002,33.4723667 35.076957,33.699862 35.4032,33.7992 L36.6904,34.192 Z" id="Path" fill="#FDD8AE"></path>
                    <path d="M35.5528,28.8536 L30.1552,28.8536 L29.656,26.7328 C29.502567,26.0876305 29.6528563,25.4077214 30.0639282,24.8873318 C30.4750001,24.3669423 31.1016368,24.0633149 31.7648,24.0632 L31.7976,24.0632 C32.3104,24.0696 32.6568,24.1568 33.2184,24.2704 C33.504,24.328 33.8352,24.3904 34.2088,24.4528 C34.8018371,24.5513441 35.3275778,24.8910998 35.6610463,25.3913025 C35.9945148,25.8915051 36.1059274,26.5074796 35.9688,27.0928 L35.5528,28.8536 Z" id="Path" fill="#57565C"></path>
                    <path d="M34.2088,24.4528 C33.8352,24.3904 33.504,24.328 33.2184,24.2704 C32.6584,24.1568 32.3104,24.0696 31.7976,24.0631673 L31.7648,24.0631673 C31.5932575,24.0622606 31.4222049,24.0815946 31.2552,24.1208 C31.4872,24.1584 31.7232,24.2104 32.0184,24.2704 C32.3136,24.3304 32.6352,24.3904 33.0088,24.4528 C33.6018371,24.5513441 34.1275778,24.8910998 34.4610463,25.3913025 C34.7945148,25.8915051 34.9059274,26.5074796 34.7688,27.0928 C34.6306667,27.6794667 34.4925333,28.2661333 34.3544,28.8528 L35.5544,28.8528 C35.6925333,28.2661333 35.8306667,27.6794667 35.9688,27.0928 C36.1059274,26.5074796 35.9945148,25.8915051 35.6610463,25.3913025 C35.3275778,24.8910998 34.8018371,24.5513441 34.2088,24.4528 L34.2088,24.4528 Z" id="Path" fill="#3C3B41"></path>
                    <path d="M34.6496,33.1696 C33.6202538,34.0911376 32.0603108,34.0835315 31.04,33.152 C31.1226965,32.980872 31.1656335,32.7932619 31.1656,32.6032 L31.1656,32.0288 L34.5112,32.0288 L34.5112,32.5944 C34.510782,32.7944292 34.5582367,32.9916544 34.6496,33.1696 L34.6496,33.1696 Z" id="Path" fill="#FBBF7D"></path>
                    <path d="M35.5472,29.9632 C35.5639721,30.9361636 35.0545034,31.8424831 34.2145764,32.3338711 C33.3746494,32.8252591 32.3349506,32.8252591 31.4950236,32.3338711 C30.6550966,31.8424831 30.1456279,30.9361636 30.1624,29.9632 L30.1624,28.8968 C30.1232,28.3296 30.2424,27.9688 30.4752,27.7608 C30.9264,27.3568 31.5384,27.7608 32.0896,27.3464 C32.6408,26.932 33.076,26.7992 33.6408,27.2176 C34.2416,27.6632 34.8,27.3304 35.2344,27.7608 C35.4056,27.9304 35.5864,28.248 35.5472,28.8968 L35.5472,29.9632 Z" id="Path" fill="#FDD8AE"></path>
                    <path d="M35.2344,27.76 C34.8,27.3296 34.2416,27.6624 33.6408,27.2168 C33.1736,26.8704 32.7872,26.9072 32.3608,27.1616 C32.3872,27.1792 32.4136,27.1968 32.4408,27.2168 C33.0416,27.6624 33.6,27.3296 34.0344,27.76 C34.2056,27.9296 34.3864,28.2472 34.3472,28.896 L34.3472,29.9624 C34.3471435,31.2180776 33.4792251,32.3070414 32.2552,32.5872 C33.0541308,32.7701763 33.8929002,32.5791004 34.5337477,32.0681355 C35.1745952,31.5571706 35.547663,30.7820161 35.5472,29.9624 L35.5472,28.8968 C35.5864,28.248 35.4056,27.9304 35.2344,27.76 Z" id="Path" fill="#FBBF7D"></path>
                    <circle id="Oval" fill="#57565C" cx="8.68" cy="20.892" r="1.8128"></circle>
                    <path d="M8.68,19.0791997 C8.47571023,19.0790923 8.27286537,19.1134407 8.08,19.1808 C8.80655484,19.435885 9.29281758,20.1219674 9.29281758,20.892 C9.29281758,21.6620326 8.80655484,22.348115 8.08,22.6032 C8.7602527,22.8410661 9.5167991,22.6534161 10.007043,22.1252259 C10.4972869,21.5970356 10.6281177,20.8286228 10.3402897,20.1679572 C10.0524616,19.5072916 9.4006411,19.0798516 8.68,19.0791997 L8.68,19.0791997 Z" id="Path" fill="#3C3B41"></path>
                    <path d="M12.036,26.64 C11.8184,28.5552 10.1248,29.9152 8.364,29.7544 C6.8096,29.6128 5.4968,28.3144 5.324,26.64 C5.25413333,26.3456 5.1848,26.0506667 5.116,25.7552 C4.86011919,24.670466 5.12107462,23.5283827 5.82267081,22.6624233 C6.524267,21.7964639 7.58738182,21.3042864 8.7016,21.3296 L8.82,21.3296 C9.90694286,21.3533717 10.9249243,21.867084 11.5897536,22.7273234 C12.2545829,23.5875628 12.4950414,24.7021777 12.244,25.76 L12.036,26.64 Z" id="Path" fill="#57565C"></path>
                    <path d="M8.8168,21.3312 L8.6984,21.3312 C8.48855237,21.3268887 8.27872057,21.3405384 8.0712,21.372 C9.06741092,21.5205201 9.95584347,22.0795897 10.5207786,22.9134619 C11.0857136,23.7473341 11.2754797,24.779739 11.044,25.76 L10.836,26.64 C10.6552,28.2304 9.4568,29.44 8.0472,29.7088 C8.15302423,29.7294175 8.25982898,29.7446372 8.3672,29.7544 C10.1272,29.9144 11.8216,28.5544 12.0392,26.64 L12.2472,25.76 C12.4978904,24.7013348 12.2563777,23.5860845 11.5901683,22.7259783 C10.9239589,21.8658722 9.90451991,21.3531774 8.8168,21.3312 L8.8168,21.3312 Z" id="Path" fill="#3C3B41"></path>
                    <path d="M17.32,36.3248 L17.32,40.4 L0.04,40.4 L0.04,36.324 C0.04,34.9442311 0.941863619,33.7265646 2.2616,33.324 L3.7864,32.8584 L3.7864,32.8584 L4.56,32.6232 L5.4696,32.3464 C6.12942278,32.1456208 6.58028312,31.5368944 6.58,30.8472 L6.58,30.132 L10.74,30.132 L10.74,30.836 C10.7402384,31.5255223 11.1908938,32.1339721 11.8504,32.3352 L13.5304,32.848 L13.6944,32.8976 L15.0952,33.3248 C16.4162035,33.7262117 17.3194301,34.9441548 17.32,36.3248 Z" id="Path" fill="#FECC30"></path>
                    <path d="M13.5328,32.848 C13.2624,33.1176 11.472,34.8424 8.7432,34.6624 C6.32,34.5024 4.8568,32.9544 4.56,32.6232 L5.4696,32.3464 C6.12942278,32.1456208 6.58028312,31.5368944 6.58,30.8472 L6.58,30.132 L10.74,30.132 L10.74,30.836 C10.7402384,31.5255223 11.1908938,32.1339721 11.8504,32.3352 L13.5328,32.848 Z" id="Path" fill="#FDD8AE"></path>
                    <path d="M13.3784,32.9952 C12.6086906,33.6907396 11.6867153,34.1962506 10.6864,34.4712 C11.0864468,33.9240636 11.6532275,33.5215062 12.3016,33.324 L13.3784,32.9952 Z M11.92,28.412 C11.6512,29.76 10.4632,32.1952 8.7632,32.2008155 C6.9416,32.208 5.7528,29.7072 5.5504,28.2736 C5.3104,26.5848 6.3936,25.3936 7.9872,24.4864 C7.9416,24.512 8.5584,25.1192 8.6272,25.176 C9.0216,25.5128 9.568,25.7096 10.1136,25.7944 C10.5744,25.8664 11.1536,25.8744 11.4408,26.24 C11.9336,26.8696 12.0704,27.6584 11.92,28.412 Z" id="Shape" fill="#FDD8AE"></path>
                    <path d="M11.44,26.24 C11.1512,25.872 10.5736,25.8664 10.1128,25.7944 C9.5672,25.7096 9.0208,25.5128 8.6264,25.176 C8.56,25.1192 7.9432,24.512 7.9864,24.4864 C7.72197001,24.6361355 7.46586016,24.8001099 7.2192,24.9776 C7.3184,25.0768 7.4024,25.1568 7.424,25.176 C7.8184,25.5128 8.3648,25.7096 8.9104,25.7944 C9.3712,25.8664 9.9504,25.8744 10.2376,26.24 C10.7328,26.8696 10.8696,27.6584 10.7176,28.412 C10.4776,29.6016 9.5272,31.6352 8.14,32.1024 C8.34038037,32.168019 8.54994944,32.2012368 8.7608,32.2008043 C10.4608,32.1952 11.6488,29.76 11.9176,28.412 C12.0704,27.6584 11.9336,26.8696 11.44,26.24 Z" id="Path" fill="#FBBF7D"></path>
                    <path d="M23.06,25.9472 L22.9704,26.28 L16.88,25.9472 L16.308,23.3072 C15.9392,21.616 17.12,19.9792 18.72,19.9879647 L18.7576,19.9879647 C19.344,19.996 19.7416,20.104 20.3848,20.2456 C20.712,20.3176 21.0912,20.3952 21.5184,20.4728 C22.9376,20.7304 23.8624,22.2328 23.5328,23.7528 C23.3754667,24.4856 23.2178667,25.2170667 23.06,25.9472 Z" id="Path" fill="#57565C"></path>
                    <path d="M21.52,20.4728 C21.0928,20.3928 20.7136,20.3176 20.3864,20.2456 C19.7464,20.104 19.3464,19.996 18.7592,19.9879907 L18.72,19.9879907 C18.5483512,19.9875142 18.3771759,20.0060268 18.2096,20.0432 C18.5088,20.0896 18.804,20.1616 19.1848,20.2456 C19.512,20.3176 19.8912,20.3952 20.3184,20.4728 C21.7376,20.7304 22.6624,22.2328 22.3328,23.7528 C22.1728,24.4829333 22.0146667,25.2130667 21.8584,25.9432 L21.7864,26.2112 L22.9688,26.276 L23.0584,25.9432 C23.2184,25.2136 23.3765333,24.4834667 23.5328,23.7528 C23.864,22.24 22.9392,20.7304 21.52,20.4728 Z" id="Path" fill="#3C3B41"></path>
                    <path d="M17.32,36.3248 L17.32,40.4 L10.08,40.4 L10.08,36.324 C10.080141,34.9442311 10.9818636,33.7265646 12.3016,33.324 L13.6968,32.8976 L15.0976,33.3248 C16.4176532,33.7270765 17.3197517,34.9448121 17.32,36.3248 Z" id="Path" fill="#F8BE32"></path>
                    <path d="M13.3784,32.9952 C12.6086906,33.6907396 11.6867153,34.1962506 10.6864,34.4712 C11.0864468,33.9240636 11.6532275,33.5215062 12.3016,33.324 L13.3784,32.9952 Z" id="Path" fill="#FBBF7D"></path>
                    <path d="M29.7600006,36.3248 L29.7600006,40.4 L25.9096,40.4 L25.9096,37.0056 C25.9098631,35.8966749 26.6345624,34.918071 27.6952,34.5944 L28.9216,34.22 L28.9424,34.2136 C29.4688472,34.7906436 29.7604796,35.5436946 29.7600006,36.3248 L29.7600006,36.3248 Z" id="Path" fill="#F48A31"></path>
                    <path d="M28.56,36.3248 L28.56,40.4 L11.28,40.4 L11.28,36.324 C11.28,34.9442311 12.1818636,33.7265646 13.5016,33.324 L14.9768,32.8736 L15.0264,32.8584 L15.0264,32.8584 L16.7064,32.3464 C16.9826498,32.2627788 17.2302497,32.1040822 17.4216,31.888 C17.4304,31.8784 17.4392,31.8688 17.4472,31.8584 C17.6860062,31.5755899 17.8169457,31.2173486 17.8168,30.8472 C17.8776,30.348 17.9389333,29.8485333 18.0008,29.3488 C18.20748,28.7119286 18.6157638,28.1595942 19.164,27.7752 C19.484,27.5568 20.284,27.0144 21.0232,27.3352 C21.668,27.6152 22.0632,28.4552 21.9408,29.3984 C21.9584,29.9872 21.9728,30.4616 21.9792,30.8384 C21.9786677,31.2097629 22.110565,31.5691476 22.3512,31.852 L22.3808,31.8864 C22.5716202,32.0984809 22.816686,32.2544821 23.0896,32.3376 L24.7696,32.8504 L24.8096,32.8624 L26.3344,33.3272 C27.6548722,33.7280648 28.5582673,34.944823 28.56,36.3248 Z" id="Path" fill="#1CABE1"></path>
                    <path d="M26.3376,33.3248 L24.8128,32.86 L24.7728,32.848 L23.0928,32.3352 C22.819886,32.2520821 22.5748202,32.0960809 22.384,31.884 L22.3544,31.8496 C22.113765,31.5667476 21.9818677,31.2073629 21.9824,30.836 C21.976,30.4616 21.9616,29.9872 21.944,29.396 C22.0632,28.456 21.6712,27.6128 21.0264,27.3328 C20.2864,27.0128 19.4904,27.5536 19.168,27.772 C19.472,28.172 19.6248,28.7632 19.544,29.396 C19.5616,29.9848 19.576,30.4592 19.5824,30.836 C19.5818677,31.2073629 19.713765,31.5667476 19.9544,31.8496 L19.984,31.884 C20.1748202,32.0960809 20.419886,32.2520821 20.6928,32.3352 L22.3728,32.848 L22.4128,32.86 L23.9376,33.3248 C25.2576532,33.7270765 26.1597517,34.9448121 26.16,36.3248 L26.16,40.4 L28.56,40.4 L28.56,36.3248 C28.5597517,34.9448121 27.6576532,33.7270765 26.3376,33.3248 Z" id="Path" fill="#199AD5"></path>
                    <path d="M23.0904,32.3352 L19.9944,33.736 L15.0272,32.856 L16.7072,32.344 C17.3670228,32.1432208 17.8178831,31.5344944 17.8176,30.8448 C17.8304,30.7424 17.8424,30.6408 17.8552,30.5384 C17.9032,30.1384 17.9528,29.744 18.0016,29.3464 C18.20828,28.7095286 18.6165638,28.1571942 19.1648,27.7728 C19.4848,27.5544 20.2848,27.012 21.024,27.3328 C21.6688,27.6128 22.064,28.4528 21.9416,29.396 C21.9552,29.8472 21.9664,30.2312 21.9744,30.5544 C21.9744,30.6536 21.9784,30.7464 21.98,30.8336 C21.9802384,31.5231223 22.4308938,32.1315721 23.0904,32.3328 L23.0904,32.3352 Z" id="Path" fill="#FDD8AE"></path>
                    <path d="M21.9744,30.56 C21.432,31.2656 20.712,31.7752 19.9208,31.7752 C19.1296,31.7752 18.4008,31.2576 17.8552,30.544 C17.9032,30.144 17.9528,29.7496 18.0016,29.352 C18.20828,28.7151286 18.6165638,28.1627942 19.1648,27.7784 C19.4848,27.56 20.2848,27.0176 21.024,27.3384 C21.6688,27.6184 22.064,28.4584 21.9416,29.4016 C21.9552,29.8496 21.9664,30.2336 21.9744,30.56 Z" id="Path" fill="#FBBF7D"></path>
                    <path d="M22.9648,26.6912 C22.9648,28.2696 21.6048,30.572 19.9208,30.572 C18.2368,30.572 16.8808,28.2696 16.8808,26.6912 L16.8808,25.5592 C16.8368,24.9576 16.9728,24.5744 17.2352,24.3536 C17.7448,23.9256 18.4352,24.3536 19.0592,23.9144 C19.6832,23.4752 20.1744,23.3336 20.812,23.7776 C21.492,24.2504 22.1232,23.8976 22.6136,24.3536 C22.8072,24.5344 23.0136,24.8712 22.968,25.5592 L22.9648,26.6912 Z" id="Path" fill="#FDD8AE"></path>
                    <path d="M22.6104,24.3536 C22.12,23.8976 21.4904,24.2504 20.8088,23.7776 C20.3112,23.4312 19.8944,23.4464 19.444,23.676 C19.5008144,23.7067161 19.5558365,23.7406375 19.6088,23.7776 C20.2888,24.2504 20.92,23.8976 21.4104,24.3536 C21.604,24.5344 21.8104,24.8712 21.7648,25.5592 L21.7648,26.6912 C21.7648,28.076 20.7144,30.0192 19.3208,30.4736 C19.5142744,30.5381802 19.7168328,30.5713998 19.9208,30.572 C21.6008,30.572 22.9648,28.2696 22.9648,26.6912 L22.9648,25.5592 C23.008,24.8712 22.804,24.5344 22.6104,24.3536 Z" id="Path" fill="#FBBF7D"></path>
                    <path d="M19.8656,33.3704 L17.6768,35.1304 C17.4426729,35.3187299 17.1016411,35.288722 16.904,35.0624 L14.9768,32.872 L15.0264,32.8568 L15.0264,32.8568 L16.7064,32.3448 C16.9826498,32.2611788 17.2302497,32.1024822 17.4216,31.8864 L19.8656,33.3704 Z M24.8128,32.86 L22.88,35.0648 C22.6822109,35.2903745 22.34179,35.320007 22.108,35.132 L19.9192,33.372 L22.3808,31.8856 C22.5716202,32.0976809 22.816686,32.2536821 23.0896,32.3368 L24.7696,32.8496 L24.8128,32.86 Z" id="Shape" fill="#1481C4"></path>
                    <path d="M20.5200089,33.9704 L20.5200089,40.32 C20.5201549,40.3467698 20.5182829,40.3735129 20.5144,40.4 L19.3256,40.4 C19.3217171,40.3735129 19.3198451,40.3467698 19.3199911,40.32 L19.3199911,33.9704 C19.3199911,33.6390292 19.5886292,33.3704 19.92,33.3704 C20.2513708,33.3704 20.5200089,33.6390292 20.5200089,33.9704 L20.5200089,33.9704 Z" id="Path" fill="#1481C4"></path>
                    <path d="M23.9584,8.5344 L21.7112,8.5344 C21.5312468,8.53395894 21.3855995,8.38795378 21.3856,8.208 L21.3856,5.9608 C21.3856,5.87444551 21.3512958,5.79162788 21.290234,5.73056603 C21.2291721,5.66950419 21.1463545,5.6352 21.06,5.6352 L18.78,5.6352 C18.6001761,5.6352 18.4544,5.78097609 18.4544,5.9608 L18.4544,8.208 C18.4544005,8.38795378 18.3087532,8.53395894 18.1288,8.5344 L15.8816,8.5344 C15.7017761,8.5344 15.556,8.68017609 15.556,8.86 L15.556,11.14 C15.556,11.3198239 15.7017761,11.4656 15.8816,11.4656 L18.1288,11.4656 C18.3086239,11.4656 18.4544,11.6113761 18.4544,11.7912 L18.4544,14.0384 C18.4544,14.2182239 18.6001761,14.364 18.78,14.364 L21.06,14.364 C21.2398239,14.364 21.3856,14.2182239 21.3856,14.0384 L21.3856,11.7912 C21.3856,11.6113761 21.5313761,11.4656 21.7112,11.4656 L23.9584,11.4656 C24.1382239,11.4656 24.284,11.3198239 24.284,11.14 L24.284,8.86 C24.284,8.68017609 24.1382239,8.5344 23.9584,8.5344 Z" id="Path" fill="#FFFFFF"></path>
                    <path d="M23.9584,8.5344 L21.7112,8.5344 C21.5312468,8.53395894 21.3855995,8.38795378 21.3856,8.208 L21.3856,5.9608 C21.3856,5.87444551 21.3512958,5.79162788 21.290234,5.73056603 C21.2291721,5.66950419 21.1463545,5.6352 21.06,5.6352 L18.78,5.6352 C18.6001761,5.6352 18.4544,5.78097609 18.4544,5.9608 L18.4544,6.8352 L19.86,6.8352 C20.0398239,6.8352 20.1856,6.98097609 20.1856,7.1608 L20.1856,9.408 C20.1855995,9.58795378 20.3312468,9.73395894 20.5112,9.7344 L22.7584,9.7344 C22.9382239,9.7344 23.084,9.88017609 23.084,10.06 L23.084,11.4656 L23.9584,11.4656 C24.1382239,11.4656 24.284,11.3198239 24.284,11.14 L24.284,8.86 C24.284,8.68017609 24.1382239,8.5344 23.9584,8.5344 Z" id="Path" fill="#E1E1E3"></path>
                </g>
            </g>
        </g>
    </g>
</svg>