<?xml version="1.0" encoding="UTF-8"?>
<svg width="33px" height="25px" viewBox="0 0 33 25" version="1.1" xmlns="http://www.w3.org/2000/svg" xmlns:xlink="http://www.w3.org/1999/xlink">
    <title>XMLID_1973_</title>
    <g id="Page-1" stroke="none" stroke-width="1" fill="none" fill-rule="evenodd">
        <g id="Dashboard-shop" transform="translate(-31.000000, -128.000000)">
            <g id="Group-4" transform="translate(0.000000, -1.000000)">
                <g id="XMLID_1973_" transform="translate(30.875000, 129.066250)">
                    <polygon id="XMLID_2430_" fill="#DEBB7E" fill-rule="nonzero" points="9.31 7.42 12.32 7.42 12.32 23.03 9.31 23.03"></polygon>
                    <path d="M9.31,18.27 C9.59,18.41 9.87,18.48 10.22,18.48 C11.06,18.48 11.83,17.92 12.18,17.22 C12.25,17.22 12.32,17.22 12.32,17.29 L12.32,7.42 L9.31,7.42 L9.31,18.27 Z" id="XMLID_2429_" fill="#B89558" fill-rule="nonzero"></path>
                    <polygon id="XMLID_2428_" stroke="#45413C" stroke-width="0.7" stroke-linecap="round" stroke-linejoin="round" points="9.31 7.42 12.32 7.42 12.32 23.03 9.31 23.03"></polygon>
                    <path d="M10.78,0.56 C6.93,0.56 3.78,3.57 3.5,7.35 C1.75,8.05 0.56,9.73 0.56,11.69 C0.56,14.28 2.66,16.31 5.18,16.31 C6.51,16.31 7.7,15.75 8.54,14.84 C9.24,15.05 10.01,15.19 10.78,15.19 C14.84,15.19 18.06,11.9 18.06,7.91 C18.06,3.92 14.84,0.56 10.78,0.56 Z" id="XMLID_2427_" fill="#6DD627" fill-rule="nonzero"></path>
                    <path d="M3.5,9.31 C3.78,5.53 6.93,2.52 10.78,2.52 C14.49,2.52 17.57,5.25 17.99,8.89 C18.06,8.54 18.06,8.26 18.06,7.91 C18.06,3.85 14.77,0.63 10.78,0.63 C6.93,0.63 3.78,3.64 3.5,7.42 C1.75,8.12 0.56,9.8 0.56,11.76 C0.56,12.11 0.63,12.46 0.7,12.74 C0.98,11.13 2.03,9.87 3.5,9.31 L3.5,9.31 Z" id="XMLID_2426_" fill="#9CEB60" fill-rule="nonzero"></path>
                    <path d="M10.78,0.56 C6.93,0.56 3.78,3.57 3.5,7.35 C1.75,8.05 0.56,9.73 0.56,11.69 C0.56,14.28 2.66,16.31 5.18,16.31 C6.51,16.31 7.7,15.75 8.54,14.84 C9.24,15.05 10.01,15.19 10.78,15.19 C14.84,15.19 18.06,11.9 18.06,7.91 C18.06,3.92 14.84,0.56 10.78,0.56 Z" id="XMLID_2425_" stroke="#45413C" stroke-width="0.7" stroke-linecap="round" stroke-linejoin="round"></path>
                    <path d="M10.78,11.13 L18.9,6.37 C19.25,6.16 19.74,6.16 20.09,6.37 L28.28,11.13 C28.77,11.41 28.91,11.97 28.7,12.46 C28.42,13.02 27.79,13.23 27.23,12.88 L19.53,8.4 L11.83,12.88 C11.27,13.16 10.64,12.95 10.36,12.46 C10.08,11.97 10.29,11.41 10.78,11.13 Z" id="XMLID_2424_" fill="#FF6242" fill-rule="nonzero"></path>
                    <path d="M10.43,12.6 C10.5,12.46 10.64,12.39 10.78,12.32 L18.9,7.56 C19.25,7.35 19.74,7.35 20.09,7.56 L28.28,12.32 C28.42,12.39 28.56,12.53 28.63,12.6 C28.63,12.53 28.7,12.53 28.7,12.46 C28.91,11.97 28.77,11.41 28.28,11.13 L20.09,6.37 C19.74,6.16 19.25,6.16 18.9,6.37 L10.71,11.13 C10.22,11.41 10.08,11.97 10.29,12.46 C10.36,12.53 10.36,12.6 10.43,12.6 Z" id="XMLID_2423_" fill="#FF866E" fill-rule="nonzero"></path>
                    <path d="M10.78,11.13 L18.9,6.37 C19.25,6.16 19.74,6.16 20.09,6.37 L28.28,11.13 C28.77,11.41 28.91,11.97 28.7,12.46 C28.42,13.02 27.79,13.23 27.23,12.88 L19.53,8.4 L11.83,12.88 C11.27,13.16 10.64,12.95 10.36,12.46 C10.08,11.97 10.29,11.41 10.78,11.13 Z" id="XMLID_2422_" stroke="#45413C" stroke-width="0.7" stroke-linecap="round" stroke-linejoin="round"></path>
                    <ellipse id="XMLID_2421_" fill="#45413C" fill-rule="nonzero" opacity="0.15" cx="18.34" cy="23.59" rx="14.7" ry="1.05"></ellipse>
                    <polygon id="XMLID_2420_" fill="#FFFACF" fill-rule="nonzero" points="26.74 23.03 12.32 23.03 12.32 12.6 19.53 8.4 26.74 12.6"></polygon>
                    <polygon id="XMLID_2419_" fill="#FFF48C" fill-rule="nonzero" points="19.53 8.4 12.32 12.6 12.32 14.28 19.53 10.08 26.74 14.28 26.74 12.6"></polygon>
                    <polygon id="XMLID_2418_" stroke="#45413C" stroke-width="0.7" stroke-linecap="round" stroke-linejoin="round" points="26.74 23.03 12.32 23.03 12.32 12.6 19.53 8.4 26.74 12.6"></polygon>
                    <path d="M20.44,23.03 L13.51,23.03 L13.51,22.12 C13.51,21.77 13.79,21.49 14.14,21.49 L19.88,21.49 C20.23,21.49 20.51,21.77 20.51,22.12 L20.51,23.03 L20.44,23.03 Z" id="XMLID_2417_" stroke="#45413C" stroke-width="0.7" fill="#E0E0E0" fill-rule="nonzero" stroke-linecap="round" stroke-linejoin="round"></path>
                    <path d="M18.97,14.28 L15.05,14.28 C14.7,14.28 14.42,14.56 14.42,14.91 L14.42,21.49 L19.53,21.49 L19.53,14.91 C19.53,14.56 19.25,14.28 18.97,14.28 Z" id="XMLID_1763_" fill="#BF8256" fill-rule="nonzero"></path>
                    <path d="M18.97,14.28 L15.05,14.28 C14.7,14.28 14.42,14.56 14.42,14.91 L14.42,16.1 C14.42,15.75 14.7,15.47 15.05,15.47 L18.97,15.47 C19.32,15.47 19.6,15.75 19.6,16.1 L19.6,14.91 C19.53,14.56 19.25,14.28 18.97,14.28 L18.97,14.28 Z" id="XMLID_722_" fill="#915E3A" fill-rule="nonzero"></path>
                    <path d="M18.97,14.28 L15.05,14.28 C14.7,14.28 14.42,14.56 14.42,14.91 L14.42,21.49 L19.53,21.49 L19.53,14.91 C19.53,14.56 19.25,14.28 18.97,14.28 Z" id="XMLID_721_" stroke="#45413C" stroke-width="0.7" stroke-linecap="round" stroke-linejoin="round"></path>
                    <path d="M24.36,17.92 L21.98,17.92 C21.63,17.92 21.35,17.64 21.35,17.29 L21.35,14.91 C21.35,14.56 21.63,14.28 21.98,14.28 L24.36,14.28 C24.71,14.28 24.99,14.56 24.99,14.91 L24.99,17.29 C24.92,17.64 24.71,17.92 24.36,17.92 Z" id="XMLID_720_" fill="#00B8F0" fill-rule="nonzero"></path>
                    <path d="M24.36,14.28 L21.98,14.28 C21.63,14.28 21.35,14.56 21.35,14.91 L21.35,17.29 C21.35,17.64 21.63,17.92 21.98,17.92 L22.4,17.92 L24.5,14.35 C24.43,14.35 24.36,14.28 24.36,14.28 L24.36,14.28 Z" id="XMLID_718_" fill="#4ACFFF" fill-rule="nonzero"></path>
                    <path d="M17.71,18.2 L16.24,18.2 C15.89,18.2 15.61,17.92 15.61,17.57 L15.61,16.1 C15.61,15.75 15.89,15.47 16.24,15.47 L17.71,15.47 C18.06,15.47 18.34,15.75 18.34,16.1 L18.34,17.57 C18.34,17.92 18.06,18.2 17.71,18.2 Z" id="XMLID_717_" fill="#00B8F0" fill-rule="nonzero"></path>
                    <path d="M17.71,15.47 L16.24,15.47 C15.89,15.47 15.61,15.75 15.61,16.1 L15.61,17.57 C15.61,17.92 15.89,18.2 16.24,18.2 L16.38,18.2 L17.92,15.54 C17.85,15.54 17.78,15.47 17.71,15.47 L17.71,15.47 Z" id="XMLID_716_" fill="#4ACFFF" fill-rule="nonzero"></path>
                    <path d="M24.36,17.92 L21.98,17.92 C21.63,17.92 21.35,17.64 21.35,17.29 L21.35,14.91 C21.35,14.56 21.63,14.28 21.98,14.28 L24.36,14.28 C24.71,14.28 24.99,14.56 24.99,14.91 L24.99,17.29 C24.92,17.64 24.71,17.92 24.36,17.92 Z" id="XMLID_713_" stroke="#45413C" stroke-width="0.7" stroke-linecap="round" stroke-linejoin="round"></path>
                    <path d="M17.71,18.2 L16.24,18.2 C15.89,18.2 15.61,17.92 15.61,17.57 L15.61,16.1 C15.61,15.75 15.89,15.47 16.24,15.47 L17.71,15.47 C18.06,15.47 18.34,15.75 18.34,16.1 L18.34,17.57 C18.34,17.92 18.06,18.2 17.71,18.2 Z" id="XMLID_712_" stroke="#45413C" stroke-width="0.7" stroke-linecap="round" stroke-linejoin="round"></path>
                    <path d="M31.85,23.03 C32.2,22.75 32.48,22.33 32.48,21.84 C32.48,21 31.78,20.37 31.01,20.37 C30.66,20.37 30.31,20.51 30.03,20.72 C29.75,19.46 28.7,18.55 27.37,18.55 C25.9,18.55 24.64,19.74 24.64,21.28 C24.64,21.98 24.92,22.61 25.34,23.1 L31.85,23.1 L31.85,23.03 Z" id="XMLID_709_" fill="#6DD627" fill-rule="nonzero"></path>
                    <path d="M27.37,19.74 C28.7,19.74 29.75,20.65 30.03,21.91 C30.31,21.7 30.59,21.56 31.01,21.56 C31.64,21.56 32.13,21.91 32.41,22.47 C32.48,22.26 32.55,22.12 32.55,21.84 C32.55,21 31.85,20.37 31.08,20.37 C30.73,20.37 30.38,20.51 30.1,20.72 C29.82,19.46 28.77,18.55 27.44,18.55 C25.97,18.55 24.71,19.74 24.71,21.28 C24.71,21.49 24.71,21.7 24.78,21.91 C24.99,20.65 26.04,19.74 27.37,19.74 L27.37,19.74 Z" id="XMLID_708_" fill="#9CEB60" fill-rule="nonzero"></path>
                    <path d="M31.85,23.03 C32.2,22.75 32.48,22.33 32.48,21.84 C32.48,21 31.78,20.37 31.01,20.37 C30.66,20.37 30.31,20.51 30.03,20.72 C29.75,19.46 28.7,18.55 27.37,18.55 C25.9,18.55 24.64,19.74 24.64,21.28 C24.64,21.98 24.92,22.61 25.34,23.1 L31.85,23.1 L31.85,23.03 Z" id="XMLID_707_" stroke="#45413C" stroke-width="0.7" stroke-linecap="round" stroke-linejoin="round"></path>
                </g>
            </g>
        </g>
    </g>
</svg>