<svg xmlns="http://www.w3.org/2000/svg" width="375" viewBox="0 0 375 375" height="375" version="1.0"><defs><clipPath id="a"><path d="M 120.28125 106.5 L 209 106.5 L 209 196 L 120.28125 196 Z M 120.28125 106.5"/></clipPath><clipPath id="b"><path d="M 195 137 L 254.53125 137 L 254.53125 196 L 195 196 Z M 195 137"/></clipPath><clipPath id="c"><path d="M 147 182 L 223 182 L 223 256.5 L 147 256.5 Z M 147 182"/></clipPath><clipPath id="d"><path d="M 203 106.5 L 233 106.5 L 233 138 L 203 138 Z M 203 106.5"/></clipPath></defs><g clip-path="url(#a)"><path fill="#7CB340" d="M 160.085938 165.300781 C 152.105469 162.996094 147.503906 154.644531 149.808594 146.652344 C 152.109375 138.664062 160.449219 134.054688 168.429688 136.359375 C 176.410156 138.667969 181.011719 147.015625 178.707031 155.007812 C 176.40625 163 168.066406 167.609375 160.085938 165.300781 Z M 194.535156 166.566406 C 195.550781 164.601562 196.390625 162.511719 197.027344 160.300781 C 197.847656 157.457031 198.28125 154.589844 198.359375 151.757812 L 208.25 148.019531 L 204.15625 131.445312 L 193 132.441406 C 190.261719 128.152344 186.570312 124.460938 182.113281 121.722656 L 183.824219 111.273438 L 167.441406 106.539062 L 162.730469 116.699219 C 157.523438 116.933594 152.5 118.367188 148.019531 120.800781 L 139.832031 114.085938 L 127.542969 125.925781 L 133.980469 135.09375 C 132.964844 137.0625 132.125 139.152344 131.488281 141.359375 C 130.667969 144.207031 130.234375 147.070312 130.15625 149.902344 L 120.265625 153.644531 L 124.359375 170.21875 L 135.519531 169.21875 C 138.253906 173.507812 141.949219 177.203125 146.402344 179.941406 L 144.691406 190.390625 L 161.074219 195.125 L 165.785156 184.960938 C 170.992188 184.726562 176.015625 183.292969 180.496094 180.863281 L 188.6875 187.578125 L 200.972656 175.738281 L 194.535156 166.566406"/></g><g clip-path="url(#b)"><path fill="#338B8C" d="M 227.8125 176.246094 C 222.511719 177.667969 217.0625 174.519531 215.640625 169.210938 C 214.222656 163.902344 217.367188 158.441406 222.667969 157.019531 C 227.972656 155.597656 233.421875 158.75 234.839844 164.054688 C 236.261719 169.367188 233.117188 174.824219 227.8125 176.246094 Z M 247.738281 165.1875 C 247.640625 163.726562 247.402344 162.257812 247.011719 160.792969 C 246.503906 158.898438 245.773438 157.128906 244.855469 155.5 L 249.175781 150.003906 L 241.207031 142.027344 L 235.234375 146.40625 C 232.226562 144.910156 228.875 144.085938 225.421875 144.058594 L 222.828125 137.5625 L 211.945312 140.484375 L 212.742188 147.84375 C 209.875 149.753906 207.523438 152.285156 205.816406 155.191406 L 198.894531 154.191406 L 195.976562 165.089844 L 202.746094 168.078125 C 202.839844 169.539062 203.078125 171.007812 203.472656 172.476562 C 203.976562 174.367188 204.710938 176.136719 205.628906 177.765625 L 201.308594 183.261719 L 209.273438 191.242188 L 215.25 186.863281 C 218.257812 188.355469 221.605469 189.179688 225.0625 189.207031 L 227.65625 195.703125 L 238.539062 192.785156 L 237.738281 185.421875 C 240.605469 183.511719 242.960938 180.984375 244.667969 178.074219 L 251.589844 179.074219 L 254.503906 168.175781 L 247.738281 165.1875"/></g><g clip-path="url(#c)"><path fill="#507A20" d="M 176.417969 228.691406 C 171.296875 223.878906 171.042969 215.816406 175.847656 210.6875 C 180.65625 205.558594 188.707031 205.304688 193.828125 210.117188 C 198.949219 214.929688 199.203125 222.992188 194.398438 228.121094 C 189.589844 233.25 181.542969 233.507812 176.417969 228.691406 Z M 201.867188 242.925781 C 203.390625 241.839844 204.828125 240.589844 206.152344 239.171875 C 207.867188 237.34375 209.292969 235.355469 210.441406 233.253906 L 219.328125 234.25 L 222.617188 220.191406 L 213.832031 216.640625 C 213.421875 212.355469 212.0625 208.152344 209.757812 204.371094 L 215.0625 197.164062 L 204.550781 187.28125 L 197.097656 193.121094 C 193.085938 191.289062 188.753906 190.429688 184.441406 190.53125 L 180.859375 182.320312 L 167.058594 186.496094 L 168.378906 195.882812 C 166.855469 196.972656 165.417969 198.222656 164.09375 199.640625 C 162.378906 201.464844 160.953125 203.457031 159.804688 205.558594 L 150.917969 204.558594 L 147.628906 218.617188 L 156.414062 222.167969 C 156.824219 226.453125 158.183594 230.660156 160.488281 234.4375 L 155.183594 241.644531 L 165.695312 251.527344 L 173.152344 245.691406 C 177.160156 247.523438 181.492188 248.378906 185.804688 248.277344 L 189.386719 256.492188 L 203.1875 252.316406 L 201.867188 242.925781"/></g><g clip-path="url(#d)"><path fill="#FAE352" d="M 217.832031 127.289062 C 214.914062 127.289062 212.550781 124.921875 212.550781 122 C 212.550781 119.078125 214.914062 116.710938 217.832031 116.710938 C 220.746094 116.710938 223.113281 119.078125 223.113281 122 C 223.113281 124.921875 220.746094 127.289062 217.832031 127.289062 Z M 229.578125 124.359375 C 229.726562 123.597656 229.808594 122.808594 229.808594 122 C 229.808594 120.960938 229.675781 119.949219 229.429688 118.988281 L 232.402344 116.761719 L 229.40625 111.570312 L 225.738281 112.992188 C 224.398438 111.8125 222.792969 110.925781 221.023438 110.4375 L 220.585938 106.746094 L 214.597656 106.746094 L 213.996094 110.632812 C 212.261719 111.21875 210.707031 112.195312 209.429688 113.449219 L 206.015625 111.984375 L 203.019531 117.175781 L 206.085938 119.644531 C 205.933594 120.40625 205.851562 121.195312 205.851562 122 C 205.851562 123.039062 205.984375 124.050781 206.234375 125.011719 L 203.261719 127.238281 L 206.253906 132.433594 L 209.921875 131.007812 C 211.261719 132.1875 212.867188 133.074219 214.636719 133.5625 L 215.078125 137.257812 L 221.066406 137.257812 L 221.664062 133.367188 C 223.398438 132.78125 224.953125 131.808594 226.230469 130.550781 L 229.648438 132.015625 L 232.640625 126.824219 L 229.578125 124.359375"/></g></svg>