<?xml version="1.0" encoding="UTF-8"?>
<svg width="26px" height="34px" viewBox="0 0 26 34" version="1.1" xmlns="http://www.w3.org/2000/svg" xmlns:xlink="http://www.w3.org/1999/xlink">
    <title>ice-cream</title>
    <g id="Page-1" stroke="none" stroke-width="1" fill="none" fill-rule="evenodd">
        <g id="Dashboard-products" transform="translate(-1128.000000, -374.000000)" fill-rule="nonzero">
            <g id="ice-cream" transform="translate(1128.846036, 374.366250)">
                <path d="M24.8472,12.4992 C24.8472,12.2472 24.6456,11.9952 24.3432,11.9952 L23.2344,11.9952 C23.3856,11.592 23.4864,11.1384 23.4864,10.6848 C23.4864,8.82 22.0752,7.308 20.2608,7.056 C20.2104,6.804 20.1096,6.552 20.0088,6.3 L24.3936,2.4696 C24.4944,2.3688 24.5448,2.268 24.5448,2.1168 C24.5448,1.9656 24.4944,1.8648 24.3936,1.764 L22.5792,0.1512 C22.3776,6.11108386e-14 22.1256,6.11108386e-14 21.924,0.1512 L17.2872,4.2336 C16.9344,4.1832 16.5816,4.1832 16.2288,4.2336 C16.2288,4.1328 16.2288,4.032 16.2288,3.9312 C16.2288,1.9152 14.616,0.3024 12.6,0.3024 C10.584,0.3024 8.9712,1.9152 8.9712,3.9312 C8.9712,4.032 8.9712,4.1328 8.9712,4.2336 C8.82,4.2336 8.6184,4.1832 8.4672,4.1832 C6.7032,4.1832 5.2416,5.4432 4.8888,7.1064 C3.0744,7.308 1.6632,8.8704 1.6632,10.7352 C1.6632,11.1888 1.764,11.6424 1.9152,12.0456 L0.8568,12.0456 C0.6048,12.0456 0.3528,12.2472 0.3528,12.5496 C0.3528,13.8096 0.5544,15.0696 0.8568,16.1784 C0.8568,16.1784 0.8568,16.2288 0.8568,16.2288 C1.3608,17.9424 2.2176,19.5048 3.3768,20.7648 C3.3768,20.8152 3.4272,20.8152 3.4272,20.8656 C3.4272,20.8656 3.4776,20.916 3.4776,20.916 C4.6368,22.176 6.0984,23.184 7.7112,23.8392 C7.7112,23.8392 7.7112,23.8392 7.7112,23.8392 C8.5176,24.1416 9.3744,24.3936 10.2312,24.5448 L10.2312,26.208 C10.2312,27.3672 9.2736,28.3248 8.1144,28.3248 C7.0056,28.3248 6.0984,29.1816 6.0984,30.24 C6.0984,30.7944 6.3,31.2984 6.6528,31.6512 C7.0056,32.004 7.56,32.256 8.064,32.256 L17.136,32.256 C18.2448,32.256 19.1016,31.3488 19.1016,30.2904 C19.1016,29.232 18.1944,28.3248 17.136,28.3248 L17.0856,28.3248 C15.9264,28.3248 14.9688,27.3672 14.9688,26.208 L14.9688,24.5448 C20.7144,23.5368 24.8472,18.6984 24.8472,12.4992 Z M15.5736,23.436 L23.4864,15.5232 C22.5288,19.5048 19.6056,22.428 15.5736,23.436 Z M22.2768,1.1592 L23.3352,2.1168 L15.4224,9.072 C15.0192,8.82 14.616,8.4672 14.3136,8.1144 L22.2768,1.1592 Z M5.3424,8.064 C5.5944,8.064 5.796,7.8624 5.8464,7.6104 C5.9472,6.2496 7.1064,5.1408 8.5176,5.1408 C8.82,5.1408 9.1728,5.1912 9.4752,5.3424 C9.6264,5.3928 9.828,5.3928 9.9792,5.2416 C10.1304,5.0904 10.1808,4.8888 10.1304,4.7376 C10.0296,4.4352 9.9792,4.1832 9.9792,3.8808 C9.9792,2.4192 11.1888,1.2096 12.6504,1.2096 C14.112,1.2096 15.3216,2.4192 15.3216,3.8808 C15.3216,4.1832 15.2712,4.4352 15.1704,4.6872 C15.12,4.8888 15.1704,5.0904 15.3216,5.1912 C15.4728,5.3424 15.6744,5.3424 15.8256,5.292 C15.9768,5.2416 16.0776,5.1912 16.2288,5.1912 L13.9104,7.2576 C13.7592,6.8544 13.6584,6.4512 13.6584,5.9976 C13.6584,5.7456 13.4568,5.4936 13.1544,5.4936 C12.9024,5.4936 12.6504,5.6952 12.6504,5.9976 C12.6504,6.8544 12.9024,7.6608 13.356,8.3664 C13.356,8.3664 13.356,8.3664 13.356,8.3664 C13.356,8.3664 13.356,8.3664 13.356,8.3664 C13.8096,9.072 14.5152,9.6768 15.3216,10.1304 C15.3216,10.1304 15.3216,10.1304 15.3216,10.1304 C16.0776,10.4832 16.884,10.6848 17.7912,10.6848 C18.0432,10.6848 18.2952,10.4832 18.2952,10.1808 C18.2952,9.8784 18.0936,9.6768 17.7912,9.6768 C17.3376,9.6768 16.8336,9.6264 16.4304,9.4752 L19.2528,7.0056 C19.3032,7.2072 19.3536,7.4088 19.3536,7.6104 C19.3536,7.8624 19.6056,8.064 19.8576,8.064 C21.3192,8.064 22.5288,9.2736 22.5288,10.7352 C22.5288,11.1888 22.3776,11.6424 22.176,12.0456 L3.024,12.0456 C2.772,11.6424 2.6712,11.1888 2.6712,10.7352 C2.6712,9.2232 3.8808,8.064 5.3424,8.064 Z M1.3608,13.0032 L3.6792,13.0032 L1.6128,15.0696 C1.4616,14.4144 1.3608,13.7088 1.3608,13.0032 Z M3.8304,19.8576 C2.9736,18.7992 2.3184,17.5896 1.8648,16.1784 L5.04,13.0032 L10.6344,13.0032 L3.8304,19.8576 Z M4.4856,20.5632 L12.0456,13.0032 L17.64,13.0032 L7.812,22.8312 C6.552,22.2768 5.4432,21.5208 4.4856,20.5632 Z M17.0352,29.3328 L17.136,29.3328 C17.6904,29.3328 18.144,29.7864 18.144,30.2904 C18.144,30.8448 17.6904,31.2984 17.136,31.2984 L8.064,31.2984 C7.812,31.2984 7.56,31.1976 7.3584,30.996 C7.1568,30.7944 7.056,30.5424 7.056,30.2904 C7.056,29.7864 7.56,29.3328 8.1144,29.3328 C9.828,29.3328 11.1888,27.9216 11.1888,26.2584 L11.1888,24.7464 C11.6424,24.7968 12.096,24.7968 12.4992,24.7968 C12.9528,24.7968 13.4064,24.7968 13.86,24.7464 L13.86,26.2584 C13.9608,27.9216 15.372,29.3328 17.0352,29.3328 Z M13.9104,23.7384 C13.4568,23.7888 13.0536,23.7888 12.6,23.7888 C11.2392,23.7888 9.9792,23.5872 8.82,23.184 L19.0512,12.9528 L23.8896,12.9528 C23.8896,13.2552 23.8392,13.5072 23.8392,13.8096 L13.9104,23.7384 Z" id="Shape" fill="#143751"></path>
                <path d="M22.5288,10.7352 C22.5288,11.1888 22.3776,11.6424 22.176,12.0456 L3.024,12.0456 C2.772,11.6424 2.6712,11.1888 2.6712,10.7352 C2.6712,9.2736 3.8808,8.064 5.3424,8.064 C5.5944,8.064 5.796,7.8624 5.8464,7.6104 C5.9472,6.2496 7.1064,5.1408 8.5176,5.1408 C8.82,5.1408 9.1728,5.1912 9.4752,5.3424 C9.6264,5.3928 9.828,5.3928 9.9792,5.2416 C10.1304,5.0904 10.1808,4.8888 10.1304,4.7376 C10.0296,4.4352 9.9792,4.1832 9.9792,3.8808 C9.9792,2.4192 11.1888,1.2096 12.6504,1.2096 C14.112,1.2096 15.3216,2.4192 15.3216,3.8808 C15.3216,4.1832 15.2712,4.4352 15.1704,4.6872 C15.12,4.8888 15.1704,5.0904 15.3216,5.1912 C15.4728,5.3424 15.6744,5.3424 15.8256,5.292 C15.9768,5.2416 16.0776,5.1912 16.2288,5.1912 L13.9104,7.2576 C13.7592,6.8544 13.6584,6.4512 13.6584,5.9976 C13.6584,5.7456 13.4568,5.4936 13.1544,5.4936 C12.9024,5.4936 12.6504,5.6952 12.6504,5.9976 C12.6504,6.8544 12.9024,7.6608 13.356,8.3664 C13.356,8.3664 13.356,8.3664 13.356,8.3664 C13.356,8.3664 13.356,8.3664 13.356,8.3664 C13.8096,9.072 14.5152,9.6768 15.3216,10.1304 C15.3216,10.1304 15.3216,10.1304 15.3216,10.1304 C16.0776,10.4832 16.884,10.6848 17.7912,10.6848 C18.0432,10.6848 18.2952,10.4832 18.2952,10.1808 C18.2952,9.8784 18.0936,9.6768 17.7912,9.6768 C17.3376,9.6768 16.8336,9.6264 16.4304,9.4752 L19.2528,7.0056 C19.3032,7.2072 19.3536,7.4088 19.3536,7.6104 C19.3536,7.8624 19.6056,8.064 19.8576,8.064 C21.3192,8.064 22.5288,9.2232 22.5288,10.7352 Z" id="Path" fill="#36C8E3"></path>
                <path d="M14.9184,2.6208 C14.5656,2.4192 14.112,2.3184 13.6584,2.3184 C12.1968,2.3184 10.9872,3.528 10.9872,4.9896 C10.9872,5.2416 11.0376,5.544 11.1384,5.8464 C11.1888,6.048 11.1384,6.1992 10.9872,6.3504 C10.836,6.5016 10.6344,6.5016 10.4832,6.4512 C10.1808,6.3504 9.828,6.2496 9.5256,6.2496 C8.1648,6.2496 7.0056,7.3584 6.8544,8.7192 C6.8544,8.9712 6.6024,9.1728 6.3504,9.1728 C4.8888,9.1728 3.6792,10.3824 3.6792,11.844 C3.6792,11.9448 3.6792,11.9952 3.6792,12.096 L3.024,12.096 C2.772,11.6928 2.6712,11.2392 2.6712,10.7856 C2.6712,9.324 3.8808,8.1144 5.3424,8.1144 C5.5944,8.1144 5.796,7.9128 5.8464,7.6608 C5.9472,6.3 7.1064,5.1912 8.5176,5.1912 C8.82,5.1912 9.1728,5.2416 9.4752,5.3928 C9.6264,5.4432 9.828,5.4432 9.9792,5.292 C10.1304,5.1408 10.1808,4.9392 10.1304,4.788 C10.0296,4.4856 9.9792,4.2336 9.9792,3.9312 C9.9792,2.4696 11.1888,1.26 12.6504,1.26 C13.608,1.2096 14.4648,1.8144 14.9184,2.6208 Z" id="Path" fill="#30A8C4"></path>
                <path d="M23.3352,2.1168 L15.4224,9.072 C15.0192,8.82 14.616,8.4672 14.3136,8.1144 L22.2768,1.1592 L23.3352,2.1168 Z" id="Path" fill="#EDC45F"></path>
                <path d="M18.0936,30.2904 C18.0936,30.8448 17.64,31.2984 17.0856,31.2984 L8.064,31.2984 C7.812,31.2984 7.56,31.1976 7.3584,30.996 C7.1568,30.7944 7.056,30.5424 7.056,30.2904 C7.056,29.7864 7.56,29.3328 8.1144,29.3328 C9.828,29.3328 11.1888,27.9216 11.1888,26.2584 L11.1888,24.7464 C11.6424,24.7968 12.096,24.7968 12.4992,24.7968 C12.9528,24.7968 13.4064,24.7968 13.86,24.7464 L13.86,26.2584 C13.86,27.972 15.2712,29.3328 16.9344,29.3328 L17.136,29.3328 C17.64,29.3328 18.0936,29.736 18.0936,30.2904 Z" id="Path" fill="#FFDC7B"></path>
                <path d="M23.8896,13.0032 C23.8896,13.3056 23.8392,13.5576 23.8392,13.86 L13.9104,23.7384 C13.4568,23.7888 13.0536,23.7888 12.6,23.7888 C11.2392,23.7888 9.9792,23.5872 8.82,23.184 L19.0512,12.9528 L23.8896,12.9528 L23.8896,13.0032 Z M10.6848,13.0032 L3.8304,19.8576 C2.9736,18.7992 2.3184,17.5896 1.8648,16.1784 L5.04,13.0032 L10.6848,13.0032 Z" id="Shape" fill="#FFE5AB"></path>
                <path d="M23.5368,15.5232 C22.5288,19.5048 19.6056,22.4784 15.624,23.436 L23.5368,15.5232 Z M17.64,13.0032 L7.812,22.8312 C6.552,22.2768 5.3928,21.5208 4.4856,20.5632 L12.0456,13.0032 L17.64,13.0032 Z" id="Shape" fill="#FFDC7B"></path>
                <path d="M13.7592,15.0696 L11.6928,17.136 C11.5416,16.4808 11.4408,15.7752 11.4408,15.0696 L13.7592,15.0696 Z" id="Path" fill="#FFDC7B"></path>
            </g>
        </g>
    </g>
</svg>