<?xml version="1.0" encoding="UTF-8"?>
<svg width="77px" height="77px" viewBox="0 0 77 77" version="1.1" xmlns="http://www.w3.org/2000/svg" xmlns:xlink="http://www.w3.org/1999/xlink">
    <title>Group 18</title>
    <g id="Page-1" stroke="none" stroke-width="1" fill="none" fill-rule="evenodd">
        <g id="Dashboard-products" transform="translate(-878.000000, -165.000000)">
            <g id="Group-18" transform="translate(878.801417, 165.533125)">
                <circle id="Oval" fill="#F8F8F8" cx="38" cy="38" r="38"></circle>
                <g id="oil-lamp" transform="translate(23.500000, 17.500000)" fill-rule="nonzero">
                    <rect id="Rectangle" fill="#E5E3E5" x="13.5296" y="8.79928" width="1.26272" height="3.58856"></rect>
                    <path d="M14.0432,10.08392 C12.22512,9.7964 10.96888,8.07568 11.0308,6.23544 C11.1572,2.62712 13.04496,0.90136 14.35288,0.13488 C14.86064,-0.16272 15.49632,0.20688 15.47856,0.7952 C15.4416,2.01632 15.60736,3.95112 16.75488,5.58528 C18.17576,7.60912 16.59792,10.54008 14.0432,10.08392 Z" id="Path" fill="#FFCE29"></path>
                    <path d="M14.09288,10.10416 C13.05088,9.93936 12.33088,8.9532 12.3664,7.89848 C12.43888,5.83048 13.5208,4.84136 14.2704,4.40208 C14.56144,4.23152 14.92576,4.44336 14.91552,4.78048 C14.89432,5.48032 14.98936,6.5892 15.64696,7.52576 C16.46136,8.68584 15.55704,10.3656 14.09288,10.10416 Z" id="Path" fill="#F96464"></path>
                    <path d="M28.24104,32.32176 C28.24104,34.6264 27.582,36.78768 26.4276,38.6584 C25.5516,40.09112 23.96336,40.93024 22.28504,40.93024 L6.03408,40.93024 C4.35576,40.93024 2.76752,40.09104 1.89152,38.6584 C0.7372,36.78768 0.07808,34.6264 0.07808,32.32176 C0.07808,28.04824 2.3336,24.25768 5.80888,21.90392 C8.54328,20.05368 10.20936,16.99176 10.20936,13.6884 L18.10968,13.6884 C18.10968,16.99184 19.77568,20.05368 22.51016,21.90392 C25.98552,24.25768 28.24104,28.04824 28.24104,32.32176 Z" id="Path" fill="#F2F0F0"></path>
                    <path d="M28.24184,32.32248 C28.24184,34.62752 27.58,36.78848 26.42752,38.6568 C25.5496,40.09296 23.96496,40.93032 22.28568,40.93032 L20.48936,40.93032 C22.16856,40.93032 23.75784,40.09296 24.6312,38.6568 C25.78824,36.78848 26.44552,34.62752 26.44552,32.32248 C26.44552,28.05008 24.19,24.25944 20.71448,21.90488 C17.98176,20.05456 16.316,16.9932 16.316,13.68872 L18.10784,13.68872 C18.10784,16.9932 19.7736,20.05456 22.5108,21.90488 C25.98632,24.25936 28.24184,28.05008 28.24184,32.32248 Z" id="Path" fill="#000000" opacity="0.08"></path>
                    <path d="M2.8792,26.73328 C1.86568,28.43168 1.306,30.3512 1.306,32.32176 C1.306,34.31672 1.87008,36.28488 2.93936,38.01776 C3.57456,39.05688 4.76064,39.70232 6.03424,39.70232 L22.28488,39.70232 C23.55848,39.70232 24.74456,39.05696 25.38256,38.01336 C26.44912,36.28488 27.01312,34.31664 27.01312,32.32176 C27.01312,30.3512 26.45344,28.4316 25.44,26.73328 L2.8792,26.73328 Z" id="Path" fill="#FFCE29"></path>
                    <path d="M3.1376,32.32248 L3.13744,32.32248 C2.74216,32.32248 2.42984,31.9844 2.46152,31.5904 C2.534,30.68968 2.73872,29.78664 3.0664,28.92328 C3.20624,28.55488 3.63008,28.38128 3.98728,28.54776 L3.98728,28.54776 C4.30336,28.69512 4.45944,29.06088 4.33504,29.38672 C4.04712,30.1408 3.86808,30.92888 3.80656,31.71328 C3.77944,32.0596 3.48488,32.32248 3.1376,32.32248 Z" id="Path" fill="#FFFFFF" opacity="0.4"></path>
                    <path d="M19.3264,12.46448 L19.3264,12.46448 C19.3264,13.14048 18.7784,13.6884 18.10248,13.6884 L10.2168,13.6884 C9.54088,13.6884 8.99288,13.1404 8.99288,12.46448 L8.99288,12.46448 C8.99288,11.78856 9.54088,11.24056 10.2168,11.24056 L18.10248,11.24056 C18.7784,11.24056 19.3264,11.78856 19.3264,12.46448 Z" id="Path" fill="#6D6D6D"></path>
                </g>
            </g>
        </g>
    </g>
</svg>