<?xml version="1.0" encoding="UTF-8"?>
<svg width="27px" height="38px" viewBox="0 0 27 38" version="1.1" xmlns="http://www.w3.org/2000/svg" xmlns:xlink="http://www.w3.org/1999/xlink">
    <title>oil-lamp</title>
    <g id="Page-1" stroke="none" stroke-width="1" fill="none" fill-rule="evenodd">
        <g id="Dashboard-products" transform="translate(-826.000000, -370.000000)" fill-rule="nonzero">
            <g id="oil-lamp" transform="translate(826.846036, 370.366250)">
                <rect id="Rectangle" fill="#E5E3E5" x="12.17664" y="7.919352" width="1.136448" height="3.229704"></rect>
                <path d="M12.63888,9.075528 C11.002608,8.81676 9.871992,7.268112 9.92772,5.611896 C10.04148,2.364408 11.740464,0.811224 12.917592,0.121392 C13.374576,-0.146448 13.946688,0.186192 13.930704,0.71568 C13.89744,1.814688 14.046624,3.556008 15.079392,5.026752 C16.358184,6.848208 14.938128,9.486072 12.63888,9.075528 Z" id="Path" fill="#FFCE29"></path>
                <path d="M12.683592,9.093744 C11.745792,8.945424 11.097792,8.05788 11.12976,7.108632 C11.194992,5.247432 12.16872,4.357224 12.84336,3.961872 C13.105296,3.808368 13.433184,3.999024 13.423968,4.302432 C13.404888,4.932288 13.490424,5.93028 14.082264,6.773184 C14.815224,7.817256 14.001336,9.32904 12.683592,9.093744 Z" id="Path" fill="#F96464"></path>
                <path d="M25.416936,29.089584 C25.416936,31.16376 24.8238,33.108912 23.78484,34.79256 C22.99644,36.082008 21.567024,36.837216 20.056536,36.837216 L5.430672,36.837216 C3.920184,36.837216 2.490768,36.081936 1.702368,34.79256 C0.66348,33.108912 0.070272,31.16376 0.070272,29.089584 C0.070272,25.243416 2.10024,21.831912 5.227992,19.713528 C7.688952,18.048312 9.188424,15.292584 9.188424,12.31956 L16.298712,12.31956 C16.298712,15.292656 17.798112,18.048312 20.259144,19.713528 C23.386968,21.831912 25.416936,25.243416 25.416936,29.089584 Z" id="Path" fill="#F2F0F0"></path>
                <path d="M25.417656,29.090232 C25.417656,31.164768 24.822,33.109632 23.784768,34.79112 C22.99464,36.083664 21.568464,36.837288 20.057112,36.837288 L18.440424,36.837288 C19.951704,36.837288 21.382056,36.083664 22.16808,34.79112 C23.209416,33.109632 23.800968,31.164768 23.800968,29.090232 C23.800968,25.245072 21.771,21.833496 18.643032,19.714392 C16.183584,18.049104 14.6844,15.29388 14.6844,12.319848 L16.297056,12.319848 C16.297056,15.29388 17.79624,18.049104 20.25972,19.714392 C23.387688,21.833424 25.417656,25.245072 25.417656,29.090232 Z" id="Path" fill="#000000" opacity="0.08"></path>
                <path d="M2.59128,24.059952 C1.679112,25.588512 1.1754,27.31608 1.1754,29.089584 C1.1754,30.885048 1.683072,32.656392 2.645424,34.215984 C3.217104,35.151192 4.284576,35.732088 5.430816,35.732088 L20.056392,35.732088 C21.202632,35.732088 22.270104,35.151264 22.844304,34.212024 C23.804208,32.656392 24.311808,30.884976 24.311808,29.089584 C24.311808,27.31608 23.808096,25.58844 22.896,24.059952 L2.59128,24.059952 Z" id="Path" fill="#FFCE29"></path>
                <path d="M2.82384,29.090232 L2.823696,29.090232 C2.467944,29.090232 2.186856,28.78596 2.215368,28.43136 C2.2806,27.620712 2.464848,26.807976 2.75976,26.030952 C2.885616,25.699392 3.267072,25.543152 3.588552,25.692984 L3.588552,25.692984 C3.873024,25.825608 4.013496,26.154792 3.901536,26.448048 C3.642408,27.12672 3.481272,27.835992 3.425904,28.541952 C3.401496,28.85364 3.136392,29.090232 2.82384,29.090232 Z" id="Path" fill="#FFFFFF" opacity="0.4"></path>
                <path d="M17.39376,11.218032 L17.39376,11.218032 C17.39376,11.826432 16.90056,12.31956 16.292232,12.31956 L9.19512,12.31956 C8.586792,12.31956 8.093592,11.82636 8.093592,11.218032 L8.093592,11.218032 C8.093592,10.609704 8.586792,10.116504 9.19512,10.116504 L16.292232,10.116504 C16.90056,10.116504 17.39376,10.609704 17.39376,11.218032 Z" id="Path" fill="#6D6D6D"></path>
            </g>
        </g>
    </g>
</svg>