<?xml version="1.0" encoding="UTF-8"?>
<svg width="27px" height="26px" viewBox="0 0 27 26" version="1.1" xmlns="http://www.w3.org/2000/svg" xmlns:xlink="http://www.w3.org/1999/xlink">
    <title>clarity:phone-handset-solid</title>
    <g id="Page-1" stroke="none" stroke-width="1" fill="none" fill-rule="evenodd">
        <g id="login" transform="translate(-869.000000, -631.000000)" fill="#FFFFFF" fill-rule="nonzero">
            <g id="Group-3" transform="translate(684.500000, 612.793750)">
                <g id="Group-4" transform="translate(166.824055, 0.229162)">
                    <g id="clarity:phone-handset-solid" transform="translate(18.116100, 18.566100)">
                        <path d="M11.022451,14.8453343 C12.5254403,16.3700373 14.3440163,17.5471966 16.350451,18.2941343 L19.064851,16.1341343 C19.2296077,16.0206769 19.4472944,16.0206769 19.612051,16.1341343 L24.652051,19.3813343 C25.0399727,19.6145598 25.29566,20.0166085 25.3423805,20.4668246 C25.3891011,20.9170408 25.2214171,21.3630242 24.889651,21.6709343 L22.528051,24.0037343 C21.8411125,24.6824805 20.8597149,24.9717629 19.914451,24.7741343 C15.2720426,23.8153237 10.993029,21.5697772 7.56645103,18.2941343 C4.21591911,14.9859129 1.89736819,10.776505 0.892051027,6.17653429 C0.690054819,5.24462036 0.990513321,4.27495883 1.68405103,3.62053429 L4.13205103,1.25893429 C4.43895347,0.943551673 4.87322014,0.785814476 5.31098648,0.830713589 C5.74875283,0.875612701 6.14195864,1.11821887 6.37845103,1.48933429 L9.73365103,6.46453429 C9.85246436,6.62492789 9.85246436,6.84414069 9.73365103,7.00453429 L7.52325103,9.66133429 C8.29046932,11.6276109 9.48577849,13.3984393 11.022451,14.8453343 L11.022451,14.8453343 Z" id="Path"></path>
                    </g>
                </g>
            </g>
        </g>
    </g>
</svg>