<?xml version="1.0" encoding="UTF-8"?>
<svg width="27px" height="27px" viewBox="0 0 27 27" version="1.1" xmlns="http://www.w3.org/2000/svg" xmlns:xlink="http://www.w3.org/1999/xlink">
    <title>project-launch</title>
    <g id="Page-1" stroke="none" stroke-width="1" fill="none" fill-rule="evenodd">
        <g id="Dashboard-shop" transform="translate(-34.000000, -694.000000)" fill-rule="nonzero">
            <g id="Group-4" transform="translate(0.000000, -1.000000)">
                <g id="project-launch" transform="translate(34.875000, 695.272500)">
                    <path d="M12.3328924,18.1561758 L6.923315,12.746606 C7.88538,10.16139 9.3929654,7.8422348 11.3063376,5.9288664 C14.7353626,2.4998452 19.4623536,0.379563 24.6972716,0.379563 C24.6972716,0.4386758 24.6945812,0.500479 24.6945812,0.5595918 C24.6246992,8.637685 19.4946118,15.4876524 12.3328924,18.1561758 Z" id="Path" fill="#FFFFFF"></path>
                    <path d="M12.3328924,18.1561758 L6.923315,12.746606 C17.0437562,18.4329602 23.7593936,2.8814412 24.6945774,0.5595918 C24.6246992,8.637685 19.4946118,15.4876524 12.3328924,18.1561758 Z" id="Path" fill="#DFE1E6"></path>
                    <line x1="8.09324" y1="16.986" x2="9.6273" y2="15.45194" id="Path" fill="#DFE1E6"></line>
                    <path d="M6.9233454,12.744402 L4.017588,9.8386522 C3.249323,9.0703872 3.7922366,7.7557886 4.8814496,7.7592048 L10.2866342,7.038721 C8.852556,8.711842 7.70868,10.6410298 6.9233454,12.744402 Z M15.2376846,21.0587184 L12.3353472,18.1563886 C14.4387004,17.3710312 16.367911,16.227178 18.0410092,14.793077 L17.320533,20.198254 C17.3205558,21.284066 16.0093696,21.8304034 15.2376846,21.0587184 Z" id="Shape" fill="#FAC41D"></path>
                    <path d="M17.7541814,16.9510514 C16.470321,17.9275982 15.0567248,18.7402738 13.5406616,19.3616992 L12.3353472,18.1563886 C14.4387004,17.3710312 16.367911,16.227178 18.0410092,14.793077 L17.7541814,16.9510514 Z" id="Path" fill="#F4A01E"></path>
                    <path d="M23.1221032,7.9307862 C24.1304522,5.6168636 24.6994186,3.0673372 24.6994186,0.3799506 L24.6994186,0.3799506 L24.6992932,0.3799506 C22.0119446,0.3799506 19.4624372,0.94886 17.1485108,1.957209 L23.1221032,7.9307862 Z" id="Path" fill="#F37D7F"></path>
                    <path d="M23.1221032,7.9307862 C24.1304522,5.6168636 24.6994186,3.0673372 24.6994186,0.3799506 L24.6994186,0.3799506 L24.6992932,0.3799506 C22.0119446,0.3799506 19.4624372,0.94886 17.1485108,1.957209 L23.1221032,7.9307862 Z" id="Path" fill="#F37D7F"></path>
                    <path d="M23.1212368,7.9501244 C24.1107112,5.68385 24.6718458,3.1874666 24.6945812,0.5595918 C24.3637494,1.380977 23.308649,3.8582654 21.6361436,6.4650312 L23.1212368,7.9501244 Z" id="Path" fill="#EF3F3E"></path>
                    <circle id="Oval" fill="#5EA7DC" cx="16.25298" cy="8.82626" r="2.41452"></circle>
                    <path d="M7.9029512,20.5850712 C7.899136,20.581256 7.8948838,20.5781134 7.8910534,20.5743134 C7.9607492,20.5185978 8.0285678,20.4594546 8.0931374,20.394885 C9.0344468,19.4535756 9.0344468,17.9274272 8.0931374,16.9861178 C7.1518432,16.0448274 5.6256758,16.0448122 4.6843626,16.9861216 C4.619793,17.0506912 4.5606498,17.118506 4.5049342,17.1882056 C4.5011342,17.1843714 4.4979916,17.180123 4.4941764,17.1763078 C3.5528632,16.2349984 2.0267148,16.2350022 1.0854016,17.1763116 C0.1440922,18.117621 0.1440922,19.6437732 1.0854016,20.5850788 C2.0267148,21.5263882 3.5528632,21.5263882 4.4941764,20.585075 C4.558746,20.5205016 4.558746,20.5205016 4.4941764,20.585075 C3.552867,21.5263844 3.5528822,23.0525518 4.4941764,23.993846 C5.4354896,24.9351554 6.961657,24.9351706 7.9029664,23.9938574 C8.8442796,23.0525442 8.8442644,21.5263806 7.9029512,20.5850712 Z" id="Path" fill="#FFFFFF"></path>
                    <path d="M7.9041862,23.9930214 C6.960935,24.9362726 5.4345358,24.9362536 4.493975,23.9956928 C3.9269542,23.428672 3.7012114,22.6493604 3.819456,21.9184038 C3.9108156,22.079634 4.0290602,22.2301254 4.1688052,22.3698704 C5.109366,23.3104312 6.6357804,23.3104312 7.576345,22.3698704 C7.9525602,21.9936552 8.1782878,21.5206844 8.2535392,21.031575 C8.825937,21.9587218 8.7076924,23.1895152 7.9041862,23.9930214 Z" id="Path" fill="#DFE1E6"></path>
                    <path d="M11.9321938,19.6345506 C11.7837544,19.4861112 11.5432866,19.4861112 11.394851,19.6345506 L10.3706332,20.6589546 C10.2221938,20.807394 10.2221938,21.048048 10.3706332,21.1962974 C10.5190726,21.3447368 10.7595404,21.3447368 10.907976,21.1962974 L11.9321938,20.1718934 C12.0806332,20.0234578 12.0806332,19.7828038 11.9321938,19.6345506 Z M5.444735,13.1470918 C5.2962956,12.9986524 5.0558278,12.9986524 4.9073922,13.1470918 L3.8829882,14.1713096 C3.7345488,14.3195628 3.7345488,14.5602168 3.8829882,14.7086524 C4.0314276,14.857088 4.2718954,14.8570918 4.420331,14.7086524 L5.444735,13.6844346 C5.5931706,13.5361814 5.5931706,13.2955274 5.444735,13.1470918 Z" id="Shape" fill="#010101"></path>
                    <path d="M25.0793046,0.379981 L25.0793046,-1.9e-05 L24.6993046,-1.9e-05 C20.1151404,-1.9e-05 16.5809732,1.8146786 16.3894038,1.8790126 L16.4034144,1.8930232 C14.007123,3.039449 11.8586752,4.6692918 10.1058834,6.6793664 L4.8552562,7.3793644 C4.2062124,7.387713 3.6506866,7.7634456 3.4018664,8.3644346 C3.1495236,8.9732136 3.2825616,9.640999 3.7488406,10.107278 L6.4816904,12.8402912 L6.4808316,12.8426092 L9.0900142,15.4518868 L8.072777,16.46901 C6.9916124,15.6460516 5.4725244,15.7205316 4.4771106,16.657642 C3.4016422,15.8376058 1.8308476,15.893367 0.8166428,16.9075718 C-0.2714036,17.9956182 -0.2712174,19.7659204 0.816829,20.8537844 C1.5455512,21.5825066 2.5721478,21.8229744 3.5003928,21.5802 C3.258253,22.5079358 3.5000204,23.5369758 4.2255088,24.2624642 C5.3144368,25.3517798 7.0812696,25.3532998 8.1717214,24.2624642 C9.1606904,23.2734952 9.2642822,21.713865 8.4197968,20.6038508 C9.3596432,19.6078214 9.4329452,18.086841 8.6101692,17.0063072 L9.6273608,15.9892334 L12.2364978,18.5984616 L12.2391654,18.597466 L14.9690474,21.3274886 C15.9768682,22.3353094 17.6770908,21.6215858 17.7002974,20.2251542 L18.400436,14.9729006 C20.4102788,13.2202266 22.0399392,11.0719384 23.18627,8.6758788 L23.2002806,8.6898894 C23.2893792,8.4223618 25.0793046,5.047464 25.0793046,0.379981 Z M7.634371,20.8537806 C8.4259148,21.6455106 8.4259148,22.9333914 7.634371,23.7251176 C6.8409842,24.5185044 5.5565006,24.5187704 4.7628478,23.7251176 C3.971304,22.9333876 3.971304,21.6455068 4.7628478,20.8537806 L4.811275,20.8053534 C4.8854928,20.7311356 4.9226036,20.6339088 4.9226036,20.536682 C4.9226036,20.4394552 4.8854928,20.3422284 4.811275,20.2680106 C4.6628356,20.1195712 4.4223678,20.1195712 4.2739322,20.2680106 L4.225505,20.3164378 C3.4321182,21.1098246 2.147798,21.1100678 1.354168,20.3164378 C0.562438,19.524894 0.562438,18.2366446 1.3539818,17.4449146 C2.166456,16.6324404 3.4563698,16.676946 4.209735,17.4280312 C4.2933426,17.5279978 4.4125524,17.5750874 4.5305462,17.567191 C4.7450372,17.552941 4.7965766,17.4111896 4.9530378,17.2547284 C5.7464018,16.4613606 7.0307182,16.4610718 7.8243748,17.2547284 C8.618229,18.0485826 8.6180314,19.332595 7.8243748,20.1262516 C7.6677236,20.2829028 7.5303422,20.3278454 7.5176654,20.5583914 C7.5115398,20.666376 7.5579264,20.777336 7.634371,20.8537806 Z M22.941968,7.3568912 L17.7223716,2.1372948 C19.8273778,1.2766822 22.0662504,0.8104336 24.3152234,0.7640622 C24.2703872,2.9386616 23.8297886,5.1852672 22.941968,7.3568912 Z M4.1039734,8.6553702 C4.2377524,8.332146 4.5268336,8.1391782 4.880302,8.1391782 L9.386494,7.542088 C8.3089204,8.9342522 7.393508,10.5614502 6.7808606,12.0646086 L4.2861834,9.5699314 C3.9937582,9.2773238 4.0002524,8.9056762 4.1039734,8.6553702 Z M17.5375662,15.693164 L16.9438162,20.1479572 L16.940476,20.1982388 C16.940476,20.9499244 16.038242,21.32199 15.5063826,20.7901344 L13.0152318,18.2987974 C14.5298852,17.6817838 16.1473932,16.7691682 17.5375662,15.693164 Z M12.4246586,17.7117506 L9.8963742,15.1833712 C9.8963742,15.1833712 9.896283,15.183185 9.896188,15.1830938 L9.8959106,15.1829076 L7.3679986,12.6549006 C9.1677736,8.0151006 12.6963016,4.4323694 16.9721832,2.461792 L22.617448,8.1070568 C20.636983,12.4042602 17.0436042,15.9206738 12.4246586,17.7117506 Z" id="Shape" fill="#010101"></path>
                    <path d="M14.2771358,6.8501878 C13.1877898,7.93972 13.1877898,9.7126176 14.2771358,10.8021498 C15.369518,11.8941406 17.1365066,11.8943496 18.2290978,10.8021498 C19.3184438,9.7126176 19.3184438,7.93972 18.2290978,6.8501878 C17.1367156,5.758197 15.3697042,5.757988 14.2771358,6.8501878 Z M17.691755,10.264807 C16.894971,11.0611958 15.6082492,11.0582052 14.8144786,10.264807 C14.0214528,9.471595 14.0214528,8.1807426 14.8144786,7.3875306 C15.6112398,6.5911418 16.897916,6.594064 17.691755,7.3875306 C18.4847846,8.1807426 18.4847846,9.4715912 17.691755,10.264807 Z" id="Shape" fill="#010101"></path>
                    <path d="M6.9458072,8.5423734 L5.9993336,8.629952 C5.8427318,8.6444262 5.727322,8.7832136 5.7419786,8.9400016 C5.7555218,9.0876962 5.8798388,9.1986524 6.0253104,9.1986524 C6.0342176,9.1986524 6.0429386,9.19828 6.0520282,9.1973528 L6.9985018,9.1097742 C7.1551036,9.0953 7.2705134,8.9565126 7.2558568,8.7997246 C7.2413826,8.6429404 7.1027814,8.5247452 6.9458072,8.5423734 Z" id="Path" fill="#FFFFFF"></path>
                </g>
            </g>
        </g>
    </g>
</svg>