<svg xmlns="http://www.w3.org/2000/svg" width="375" viewBox="0 0 375 375" height="375" version="1.0"><defs><clipPath id="a"><path d="M 104.574219 97.132812 L 254.574219 97.132812 L 254.574219 247.132812 L 104.574219 247.132812 Z M 104.574219 97.132812"/></clipPath></defs><path fill="#547E23" d="M 217.558594 191.253906 L 140.625 191.253906 L 140.625 153.007812 L 217.558594 153.007812 C 218.085938 153.007812 218.519531 153.4375 218.519531 153.972656 L 218.519531 190.296875 C 218.519531 190.824219 218.085938 191.253906 217.558594 191.253906"/><path fill="#7CB340" d="M 205.273438 184.480469 L 153.871094 184.480469 C 153.871094 181.148438 151.167969 178.449219 147.839844 178.449219 L 147.839844 165.808594 C 151.167969 165.808594 153.871094 163.109375 153.871094 159.777344 L 205.273438 159.777344 C 205.273438 163.109375 207.976562 165.808594 211.304688 165.808594 L 211.304688 178.449219 C 207.976562 178.449219 205.273438 181.148438 205.273438 184.480469"/><path fill="#547E23" d="M 186.941406 172.132812 C 186.941406 176.199219 183.640625 179.503906 179.574219 179.503906 C 175.5 179.503906 172.199219 176.199219 172.199219 172.132812 C 172.199219 168.0625 175.5 164.761719 179.574219 164.761719 C 183.640625 164.761719 186.941406 168.0625 186.941406 172.132812"/><path fill="#547E23" d="M 186.941406 172.132812 C 186.941406 176.199219 183.640625 179.503906 179.574219 179.503906 C 175.5 179.503906 172.199219 176.199219 172.199219 172.132812 C 172.199219 168.0625 175.5 164.761719 179.574219 164.761719 C 183.640625 164.761719 186.941406 168.0625 186.941406 172.132812"/><path fill="#547E23" d="M 179.574219 165.789062 C 176.074219 165.789062 173.230469 168.636719 173.230469 172.132812 C 173.230469 175.628906 176.074219 178.472656 179.574219 178.472656 C 183.070312 178.472656 185.917969 175.628906 185.917969 172.132812 C 185.917969 168.636719 183.070312 165.789062 179.574219 165.789062 Z M 179.574219 180.53125 C 174.941406 180.53125 171.175781 176.761719 171.175781 172.132812 C 171.175781 167.5 174.941406 163.734375 179.574219 163.734375 C 184.203125 163.734375 187.972656 167.5 187.972656 172.132812 C 187.972656 176.761719 184.203125 180.53125 179.574219 180.53125 Z M 154.820312 183.449219 L 204.320312 183.449219 C 204.773438 180.382812 207.207031 177.949219 210.277344 177.496094 L 210.277344 166.761719 C 207.207031 166.3125 204.773438 163.878906 204.320312 160.808594 L 154.820312 160.808594 C 154.371094 163.878906 151.9375 166.3125 148.863281 166.761719 L 148.863281 177.496094 C 151.9375 177.949219 154.371094 180.382812 154.820312 183.449219 Z M 205.273438 185.511719 L 153.871094 185.511719 C 153.300781 185.511719 152.839844 185.050781 152.839844 184.480469 C 152.839844 181.722656 150.59375 179.476562 147.835938 179.476562 C 147.269531 179.476562 146.808594 179.015625 146.808594 178.449219 L 146.808594 165.808594 C 146.808594 165.242188 147.269531 164.78125 147.835938 164.78125 C 150.59375 164.78125 152.839844 162.535156 152.839844 159.777344 C 152.839844 159.210938 153.300781 158.753906 153.871094 158.753906 L 205.273438 158.753906 C 205.84375 158.753906 206.300781 159.210938 206.300781 159.777344 C 206.300781 162.535156 208.542969 164.78125 211.304688 164.78125 C 211.871094 164.78125 212.332031 165.242188 212.332031 165.808594 L 212.332031 178.449219 C 212.332031 179.015625 211.871094 179.476562 211.304688 179.476562 C 208.542969 179.476562 206.300781 181.722656 206.300781 184.480469 C 206.300781 185.050781 205.84375 185.511719 205.273438 185.511719 Z M 141.652344 190.230469 L 217.492188 190.230469 L 217.492188 153.972656 L 141.652344 154.035156 Z M 217.554688 192.285156 L 140.625 192.285156 C 140.058594 192.285156 139.597656 191.824219 139.597656 191.253906 L 139.597656 153.007812 C 139.597656 152.441406 140.058594 151.980469 140.625 151.980469 L 217.554688 151.980469 C 218.652344 151.980469 219.542969 152.871094 219.542969 153.972656 L 219.542969 190.296875 C 219.542969 191.390625 218.652344 192.285156 217.554688 192.285156"/><path fill="#FAE352" d="M 230.578125 193.84375 C 230.578125 200.054688 225.539062 205.097656 219.324219 205.097656 C 213.105469 205.097656 208.0625 200.054688 208.0625 193.84375 C 208.0625 187.625 213.105469 182.585938 219.324219 182.585938 C 225.539062 182.585938 230.578125 187.625 230.578125 193.84375"/><path fill="#547E23" d="M 219.320312 183.613281 C 213.679688 183.613281 209.09375 188.199219 209.09375 193.84375 C 209.09375 199.484375 213.679688 204.070312 219.320312 204.070312 C 224.964844 204.070312 229.554688 199.484375 229.554688 193.84375 C 229.554688 188.199219 224.964844 183.613281 219.320312 183.613281 Z M 219.320312 206.128906 C 212.546875 206.128906 207.039062 200.613281 207.039062 193.84375 C 207.039062 187.066406 212.546875 181.554688 219.320312 181.554688 C 226.09375 181.554688 231.605469 187.066406 231.605469 193.84375 C 231.605469 200.613281 226.09375 206.128906 219.320312 206.128906"/><g clip-path="url(#a)"><path fill="#547E23" d="M 254.570312 172.132812 C 254.570312 213.488281 220.925781 247.132812 179.574219 247.132812 C 179.003906 247.132812 178.542969 246.671875 178.542969 246.105469 C 178.542969 245.535156 179.003906 245.074219 179.574219 245.074219 C 219.796875 245.074219 252.519531 212.351562 252.519531 172.132812 C 252.519531 131.914062 219.796875 99.191406 179.574219 99.191406 C 139.351562 99.191406 106.628906 131.914062 106.628906 172.132812 C 106.628906 200.84375 123.328125 226.675781 149.335938 238.523438 L 146.585938 228.816406 C 146.429688 228.269531 146.75 227.703125 147.292969 227.546875 C 147.839844 227.390625 148.410156 227.710938 148.5625 228.253906 L 151.894531 240.019531 C 151.972656 240.277344 151.9375 240.558594 151.804688 240.796875 C 151.671875 241.035156 151.453125 241.210938 151.1875 241.285156 L 139.429688 244.621094 C 139.335938 244.644531 139.242188 244.65625 139.148438 244.65625 C 138.699219 244.65625 138.289062 244.363281 138.160156 243.910156 C 138.003906 243.367188 138.320312 242.796875 138.867188 242.644531 L 147.828125 240.101562 C 121.460938 227.789062 104.574219 201.40625 104.574219 172.132812 C 104.574219 130.777344 138.214844 97.136719 179.574219 97.136719 C 220.925781 97.136719 254.570312 130.777344 254.570312 172.132812"/></g></svg>