<?xml version="1.0" encoding="UTF-8"?>
<svg width="91px" height="92px" viewBox="0 0 91 92" version="1.1" xmlns="http://www.w3.org/2000/svg" xmlns:xlink="http://www.w3.org/1999/xlink">
    <title>Group 5</title>
    <defs>
        <polygon id="path-1" points="4.30163174e-05 0.156492 32.769522 0.156492 32.769522 48.6 4.30163174e-05 48.6"></polygon>
    </defs>
    <g id="Page-1" stroke="none" stroke-width="1" fill="none" fill-rule="evenodd">
        <g id="how-it-works" transform="translate(-1198.000000, -833.000000)">
            <g id="Group-5" transform="translate(1198.000000, 833.500000)">
                <circle id="Oval" fill="#F7F7F7" cx="45.5" cy="45.5" r="45.5"></circle>
                <g id="Group-8" transform="translate(29.000000, 20.500000)">
                    <g id="Group-3" transform="translate(0.000000, 0.329557)">
                        <mask id="mask-2" fill="white">
                            <use xlink:href="#path-1"></use>
                        </mask>
                        <g id="Clip-2"></g>
                        <path d="M21.288258,35.1622944 C23.156928,34.9999704 24.952698,35.0475984 26.743608,35.0772444 C29.1357,35.1166104 31.16475,35.9398944 32.196042,38.2318704 C33.241914,40.5578664 32.805486,42.8012424 31.312008,44.8307784 C30.42117,46.0414044 29.08224,46.5021324 27.68256,46.7431884 C22.587336,47.6199324 17.46684,48.2658264 12.297258,48.5583984 C10.16712,48.6789264 8.081208,48.5141724 5.967594,48.3722604 C1.19799,48.0524724 -0.875772,43.0209144 0.341658,39.4556184 C1.63782,35.6594724 4.18689,32.9957064 7.55973,31.0871844 C12.423618,28.3349664 15.877134,24.3215784 18.442242,19.4518584 C18.99531,18.4011264 19.45215,17.3076264 19.716048,16.1441424 C19.988208,14.9446944 19.844352,13.7826684 19.326762,12.6755604 C18.780984,11.5091604 18.02331,11.2647024 16.867602,11.8726884 C16.193034,12.2274684 15.623928,12.7251324 15.131124,13.3044444 C14.548896,13.9887324 13.960836,14.6686464 13.40874,15.3762624 C11.322342,18.0478044 8.90352,18.2737944 6.019596,16.9586784 C3.558492,15.8360184 2.41056,12.8825964 3.106026,9.9631944 C3.602718,7.8806844 4.835214,6.2555004 6.374862,4.8713724 C10.699776,0.9824004 15.79257,-0.6131376 21.496266,0.5066064 C28.33866,1.8499104 34.315488,10.5342444 32.086206,18.6450984 C30.342924,24.9849684 26.584686,29.9368224 22.055652,34.4522484 C21.808764,34.6981644 21.54438,34.9260984 21.288258,35.1622944" id="Fill-1" fill="#D1AF42" mask="url(#mask-2)"></path>
                    </g>
                    <path d="M22.694742,32.1171156 C25.85763,28.6281216 28.577286,25.0390116 29.949264,20.6100936 C30.480948,18.8935416 30.94605,17.1317916 30.788586,15.3185256 C30.373056,10.5217056 28.15641,6.6905676 24.228558,3.9446676 C22.147992,2.4895836 19.747638,1.9472076 17.168436,2.1644496 C15.136956,2.3350356 13.23864,2.8832436 11.346156,3.6093276 C8.326638,4.7679516 6.466716,7.0278516 5.11272,9.8121456 C4.764258,10.5289956 4.694274,11.3338116 4.72392,12.1327956 C4.78953,13.8848256 5.82471,15.3292176 7.435314,15.9299136 C9.341406,16.6409316 10.479132,16.3760616 11.880756,14.8655736 C12.589344,14.1015816 13.267314,13.3089156 13.968612,12.5376336 C14.551812,11.8965996 15.19722,11.3226336 15.951492,10.8900936 C17.966448,9.7348716 19.893924,10.3112676 20.931048,12.3714216 C21.672198,13.8440016 21.928806,15.4278756 21.424824,16.9782156 C19.28205,23.5717776 15.389676,28.8458496 9.369108,32.4121176 C7.629228,33.4429236 5.887404,34.4572056 4.517856,35.9604036 C2.905308,37.7299296 1.822986,39.7750176 1.774386,42.2332056 C1.743768,43.7850036 2.19186,44.4051396 3.664926,44.9732736 C4.803138,45.4126176 6.0021,45.7625376 7.205922,45.7605936 C11.039004,45.7557336 14.88618,46.1284956 18.699336,45.3751956 C21.368448,44.8478856 24.043878,44.3652876 26.46513,43.0263576 C27.067284,42.6939336 27.630558,42.3211716 28.024704,41.7365136 C28.821258,40.5555336 28.672542,39.7453716 27.53433,38.8783476 C27.340416,38.7306036 26.9244,38.7417816 27.01188,38.3175036 C28.432944,38.2538376 29.637738,39.9344256 29.013714,41.4123516 C28.45044,42.7464216 27.384642,43.4909736 26.163324,44.0503596 C22.7934,45.5938956 19.181448,46.2864456 15.534018,46.3836456 C11.453076,46.4929956 7.311384,46.9644156 3.070062,45.4913496 C3.800034,46.3899636 4.539726,46.7301636 5.359122,46.8691596 C6.632442,47.0844576 7.91451,47.2793436 9.211158,47.2667076 C12.375504,47.2351176 15.526728,46.9624716 18.663372,46.5843636 C21.655188,46.2237516 24.685884,46.1712636 27.637362,45.4816296 C29.922048,44.9475156 31.387338,43.0307316 31.21092,40.7946456 C31.03839,38.6013276 29.430702,37.1826936 27.02889,36.9270576 C23.512194,36.5523516 20.09853,37.3163436 16.655706,37.7517996 C15.41349,37.9087776 14.194116,38.2455756 12.961134,38.4817716 C12.641346,38.5430076 12.260322,38.5566156 12.14028,38.1653856 C12.007602,37.7333316 12.306492,37.5034536 12.679254,37.3770936 C12.984948,37.2735756 13.30668,37.2137976 13.603626,37.0913256 C14.270904,36.8157636 15.047046,36.8483256 15.806178,36.3681576 C15.359544,36.0921096 15.0417,35.8646616 14.696154,35.6921316 C14.409414,35.5492476 14.172246,35.3898396 14.320476,35.0472096 C14.462874,34.7167296 14.797242,34.7497776 15.073776,34.8114996 C15.58116,34.9247376 15.976278,35.2464696 16.319394,35.6202036 C17.008542,36.3705876 17.947494,36.4187016 18.636642,35.6571396 C22.136328,31.7900376 25.077114,27.5530896 26.646894,22.5317376 C28.295406,17.2576656 28.846044,12.0010896 25.521318,7.0574976 C25.501392,7.0283376 25.571862,6.9384276 25.630668,6.8091516 C26.587116,7.3092456 27.003132,8.2156356 27.40311,9.1098756 C28.674486,11.9568636 28.804248,14.9773536 28.3824,17.9784036 C27.708318,22.7703636 25.875126,27.1433916 23.074794,31.1038056 C22.90518,31.3438896 22.60143,31.5514116 22.694742,32.1171156" id="Fill-4" fill="#F9DD7A"></path>
                    <path d="M16.3907388,9.1605168 C14.2834428,9.7908588 13.3357428,11.5710768 12.1610808,13.1369688 C11.4038928,14.1459048 10.4766048,14.9934888 9.2538288,15.4444968 C8.8144848,15.6068208 8.3848608,15.6840948 7.8978888,15.4362348 C8.2589868,14.8360248 8.8932168,15.0075828 9.3403368,14.7597228 C10.5995628,14.0608548 11.5380288,13.0626108 12.3122268,11.8689948 C12.9566628,10.8756108 13.6292868,9.8929188 14.7203568,9.3150648 C15.2185068,9.0516528 15.7083948,8.7289488 16.3907388,9.1605168" id="Fill-6" fill="#D1AF42"></path>
                </g>
            </g>
        </g>
    </g>
</svg>