<?xml version="1.0" encoding="UTF-8"?>
<svg width="49px" height="38px" viewBox="0 0 49 38" version="1.1" xmlns="http://www.w3.org/2000/svg" xmlns:xlink="http://www.w3.org/1999/xlink">
    <title>secure-payment</title>
    <g id="Page-1" stroke="none" stroke-width="1" fill="none" fill-rule="evenodd">
        <g id="About-us" transform="translate(-832.000000, -333.000000)" fill-rule="nonzero">
            <g id="secure-payment" transform="translate(832.200000, 333.875000)">
                <rect id="Rectangle" fill="#80DEEA" x="0" y="0" width="40" height="27.2" rx="0.8"></rect>
                <path d="M33.024,0 C30.3711467,12.588371 19.2648636,21.5988772 6.4,21.6 L0,21.6 L0,0.8 C0.00127423195,0.358701082 0.358701082,0.00127423195 0.8,0 L33.024,0 Z" id="Path" fill="#B2EBF2"></path>
                <rect id="Rectangle" fill="#37474F" x="0" y="4.8" width="40" height="4.8"></rect>
                <path d="M31.536,4.8 C30.8406283,6.48241064 29.977608,8.09052285 28.96,9.6 L0,9.6 L0,4.8 L31.536,4.8 Z" id="Path" fill="#455A64"></path>
                <path d="M43.2001831,17.6 L43.2001831,18.384 C43.2028026,19.0144205 43.1734311,19.6445734 43.112,20.272 C42.6358596,25.9432638 40.0323504,31.2245864 35.824,35.056 L34.136,36.592 C33.8324731,36.8693217 33.3675269,36.8693217 33.064,36.592 L31.376,35.056 C30.6013798,34.3525365 29.8794401,33.5931629 29.216,32.784 C25.8468439,28.7416773 24.0011775,23.6462794 24,18.384 L24,17.6 C24.0002288,17.2855538 24.1850229,17.0005325 24.472,16.872 L33.272,12.872 C33.4801303,12.7760012 33.7198697,12.7760012 33.928,12.872 L37.184,14.352 L42.728,16.872 C43.0149771,17.0005325 43.1997712,17.2855538 43.2001831,17.6 L43.2001831,17.6 Z" id="Path" fill="#388E3C"></path>
                <path d="M39.2,21.2 C39.2,27.456 34.768,32.544 29.216,32.784 C25.8468439,28.7416773 24.0011775,23.6462794 24,18.384 L24,17.6 C24.0002288,17.2855538 24.1850229,17.0005325 24.472,16.872 L33.272,12.872 C33.4801303,12.7760012 33.7198697,12.7760012 33.928,12.872 L37.184,14.352 C38.5138604,16.3871829 39.2150186,18.7688948 39.2,21.2 L39.2,21.2 Z" id="Path" fill="#43A047"></path>
                <path d="M26.65856,22.4 C26.2663869,22.3996796 25.9322676,22.1151209 25.86952,21.728 C25.7037158,20.7063641 25.6141619,19.6738067 25.6016,18.63888 C25.5979425,18.3219138 25.7817786,18.0326833 26.07032,17.90144 L27.66872,17.17488 C27.9299086,17.0494921 28.2384795,17.0751209 28.4754034,17.2418802 C28.7123273,17.4086396 28.8405735,17.6904652 28.8106718,17.9786449 C28.7807701,18.2668246 28.5973942,18.5163162 28.33128,18.63088 L27.21488,19.13864 C27.2453957,19.920287 27.3236482,20.6993389 27.4492,21.47144 C27.5194757,21.9075372 27.2234636,22.3182178 26.78752,22.38944 C26.7448839,22.3963946 26.7017595,22.3999259 26.65856,22.4 Z" id="Path" fill="#E8F5E9"></path>
                <path d="M43.2,17.76 L43.2,18.384 C43.2028026,19.0144205 43.1734311,19.6445734 43.112,20.272 L35,29.336 C34.8496521,29.4955774 34.6430318,29.5902784 34.424,29.6 L34.4,29.6 C34.1882105,29.596935 33.9853726,29.5140857 33.832,29.368 L30.632,26.168 C30.3204848,25.8539304 30.3215196,25.3471096 30.6343146,25.0343146 C30.9471096,24.7215196 31.4539304,24.7204848 31.768,25.032 L34.368,27.64 L43.2,17.76 Z" id="Path" fill="#1B5E20"></path>
                <path d="M33.6,28.8 C33.3878616,28.8 33.1844439,28.7155651 33.0344,28.5656 L29.8344,25.3656 C29.5312222,25.0516969 29.5355581,24.5527322 29.8441451,24.2441451 C30.1527322,23.9355581 30.6516969,23.9312222 30.9656,24.2344 L33.568,26.83672 L46.60392,12.2664 C46.8997211,11.9421099 47.401575,11.9167206 47.7285943,12.2095017 C48.0556137,12.5022828 48.0856558,13.0038796 47.79592,13.3336 L34.19592,28.5336 C34.0492751,28.697575 33.8415792,28.7939288 33.62168,28.8 L33.6,28.8 Z" id="Path" fill="#B2DFDB"></path>
                <path d="M19.2,19.2 L4,19.2 C3.5581722,19.2 3.2,18.8418278 3.2,18.4 C3.2,17.9581722 3.5581722,17.6 4,17.6 L19.2,17.6 C19.6418278,17.6 20,17.9581722 20,18.4 C20,18.8418278 19.6418278,19.2 19.2,19.2 Z M5.6,22.4 L4,22.4 C3.5581722,22.4 3.2,22.0418278 3.2,21.6 C3.2,21.1581722 3.5581722,20.8 4,20.8 L5.6,20.8 C6.0418278,20.8 6.4,21.1581722 6.4,21.6 C6.4,22.0418278 6.0418278,22.4 5.6,22.4 Z M10.4,22.4 L8.8,22.4 C8.3581722,22.4 8,22.0418278 8,21.6 C8,21.1581722 8.3581722,20.8 8.8,20.8 L10.4,20.8 C10.8418278,20.8 11.2,21.1581722 11.2,21.6 C11.2,22.0418278 10.8418278,22.4 10.4,22.4 Z M19.2,22.4 L13.6,22.4 C13.1581722,22.4 12.8,22.0418278 12.8,21.6 C12.8,21.1581722 13.1581722,20.8 13.6,20.8 L19.2,20.8 C19.6418278,20.8 20,21.1581722 20,21.6 C20,22.0418278 19.6418278,22.4 19.2,22.4 Z" id="Shape" fill="#00ACC1"></path>
            </g>
        </g>
    </g>
</svg>