<?xml version="1.0" encoding="UTF-8"?>
<svg width="24px" height="24px" viewBox="0 0 24 24" version="1.1" xmlns="http://www.w3.org/2000/svg" xmlns:xlink="http://www.w3.org/1999/xlink">
    <title>shopping-basket</title>
    <g id="Page-1" stroke="none" stroke-width="1" fill="none" fill-rule="evenodd">
        <g id="Dashboard-shop" transform="translate(-36.000000, -239.000000)" fill-rule="nonzero">
            <g id="Group-4" transform="translate(0.000000, -1.000000)">
                <g id="shopping-basket" transform="translate(36.375000, 240.942500)">
                    <path d="M4.6391825,4.98731 C4.46253,4.450845 4.444575,3.8250325 4.6105875,3.2896125 C4.6904825,3.019195 4.82619,2.7654025 5.00194,2.5559275 C5.1690925,2.3379025 5.386785,2.178445 5.6001075,2.036325 L5.7981825,2.2927775 C5.6460875,2.461165 5.5038725,2.631405 5.4209375,2.8276275 C5.152895,3.3763 5.2774875,4.128985 5.5668575,4.5503575 L4.6391825,4.98731 Z" id="Path" fill="#CC9F71"></path>
                    <path d="M0.9089125,10.827245 L2.3080725,21.481685 C2.4071575,22.235985 3.0500225,22.8 3.8107825,22.8 L18.9934925,22.8 C19.7542525,22.8 20.3971175,22.235985 20.496155,21.481685 L21.8953625,10.827245 L0.9089125,10.827245 Z" id="Path" fill="#EF4C4A"></path>
                    <path d="M5.97493,13.025165 C5.408445,13.025165 4.9492625,13.484395 4.9492625,14.05088 L4.9492625,19.576365 C4.9492625,20.14285 5.408445,20.6020325 5.97493,20.6020325 C6.541415,20.6020325 7.000645,20.14285 7.000645,19.576365 L7.000645,14.05088 C7.0005975,13.484395 6.541415,13.025165 5.97493,13.025165 Z M11.4021375,13.025165 C10.8356525,13.025165 10.3764225,13.484395 10.3764225,14.05088 L10.3764225,19.576365 C10.3764225,20.14285 10.8356525,20.6020325 11.4021375,20.6020325 C11.9686225,20.6020325 12.4278525,20.14285 12.4278525,19.576365 L12.4278525,14.05088 C12.427805,13.484395 11.9686225,13.025165 11.4021375,13.025165 Z M16.829345,13.025165 C16.26286,13.025165 15.80363,13.484395 15.80363,14.05088 L15.80363,19.576365 C15.80363,20.14285 16.26286,20.6020325 16.829345,20.6020325 C17.39583,20.6020325 17.85506,20.14285 17.85506,19.576365 L17.85506,14.05088 C17.85506,13.484395 17.39583,13.025165 16.829345,13.025165 Z" id="Shape" fill="#FFFFFF"></path>
                    <path d="M22.39492,7.6462175 L0.40508,7.6462175 C0.235315,7.6462175 0.09766,7.783825 0.09766,7.95359 L0.09766,10.519825 C0.09766,10.68959 0.2352675,10.827245 0.40508,10.827245 L22.3949675,10.827245 C22.5647325,10.827245 22.7023875,10.68959 22.7023875,10.519825 L22.7023875,7.95359 C22.7023875,7.783825 22.5647325,7.6462175 22.39492,7.6462175 Z" id="Path" fill="#F16768"></path>
                    <path d="M5.07243,4.4922175 C6.81435,4.4922175 8.22643,5.904345 8.22643,7.64617 L1.91843,7.64617 C1.91843,5.904345 3.3305575,4.4922175 5.07243,4.4922175 Z" id="Path" fill="#FDD97C"></path>
                    <path d="M21.429625,4.0735525 L16.3846975,4.0735525 C16.0637875,4.0735525 15.80363,4.3336625 15.80363,4.654525 L15.80363,7.64617 L22.010645,7.64617 L22.010645,4.654525 C22.010645,4.3336625 21.750535,4.0735525 21.429625,4.0735525 Z" id="Path" fill="#CC9F71"></path>
                    <path d="M14.498615,2.21692 L14.498615,7.6471675 L8.1987375,7.6471675 L8.1987375,2.21692 C8.1987375,1.977615 8.3927275,1.7835775 8.63208,1.7835775 L14.0652725,1.7835775 C14.3045775,1.7835775 14.498615,1.9775675 14.498615,2.21692 Z" id="Path" fill="#4A8BC9"></path>
                    <path d="M13.01234,0.24472 L13.01234,1.78353 L9.6850125,1.78353 L9.6850125,0.24472 C9.6850125,0.1095825 9.7945475,0 9.9297325,0 L12.7675725,0 C12.9027575,0 13.01234,0.1095825 13.01234,0.24472 Z" id="Path" fill="#72B0E0"></path>
                    <path d="M18.40169,2.2258025 L18.40169,2.2258025 C17.97476,1.7988725 17.28259,1.7988725 16.8557075,2.2258025 L10.763405,8.3182 L12.3093875,9.864135 L18.4017375,3.7717375 C18.82862,3.344855 18.82862,2.6527325 18.40169,2.2258025 Z" id="Path" fill="#EEEAE8"></path>
                    <circle id="Oval" fill="#FDD97C" cx="11.4" cy="9.23685" r="1.150925"></circle>
                    <path d="M5.0264025,3.41962 C4.0241525,3.9231675 2.8081525,3.51937 2.3094025,2.5171675 C2.8081525,2.2701675 3.3639025,2.24637 3.8531525,2.4079175 C4.3471525,2.57412 4.7747,2.92562 5.0264025,3.41962 Z" id="Path" fill="#439F47"></path>
                </g>
            </g>
        </g>
    </g>
</svg>