<?xml version="1.0" encoding="UTF-8"?>
<svg width="25px" height="22px" viewBox="0 0 25 22" version="1.1" xmlns="http://www.w3.org/2000/svg" xmlns:xlink="http://www.w3.org/1999/xlink">
    <title>shop</title>
    <g id="Page-1" stroke="none" stroke-width="1" fill="none" fill-rule="evenodd">
        <g id="Dashboard-shop" transform="translate(-35.000000, -193.000000)">
            <g id="Group-4" transform="translate(0.000000, -1.000000)">
                <g id="shop" transform="translate(35.375000, 193.974687)">
                    <polyline id="Path" fill="#4BBFEB" fill-rule="nonzero" points="3.00236 20.3948 3.00236 6.54584 22.20236 6.54584 22.20236 20.3948 22.20236 20.3948 14.373848 20.3948"></polyline>
                    <polyline id="Path" fill="#78C8F0" fill-rule="nonzero" points="2.994696 19.18216 2.994696 6.65536 14.210024 6.65536 14.210024 19.18216"></polyline>
                    <polygon id="Path" fill="#34485C" fill-rule="nonzero" points="0.60236 18.80736 14.202352 18.80736 14.20236 18.80736 14.20236 21.20736 14.202352 21.20736 0.60236 21.20736 0.60236 21.20736 0.60236 19.55736"></polygon>
                    <polyline id="Path" fill="#576D7E" fill-rule="nonzero" points="22.58528 21.20728 14.20708 21.20728 14.20708 21.20728 14.20708 19.60728 14.20708 19.60728 22.58528 19.60728"></polyline>
                    <path d="M18.20236,11.60736 C16.87276,11.60736 15.80236,12.67776 15.80236,14.00736 L15.80236,16.00736 L15.80236,17.20736 L15.80236,19.60736 L18.20236,19.60736 L20.60236,19.60736 L20.60236,17.20736 L20.60236,16.00736 L20.60236,14.00736 C20.60236,12.67776 19.53196,11.60736 18.20236,11.60736 Z" id="Path" fill="#34485C" fill-rule="nonzero"></path>
                    <path d="M16.6023624,16.00664 L16.6023624,17.60664 L17.4023624,17.60664 L17.4023624,16.00664 L16.6023624,16.00664 Z M6.24455,8.62856 L4.64455,11.82856 L5.36017504,12.18632 L6.96017504,8.98632 L6.24455,8.62856 Z M7.84455,10.22856 L5.84455,14.22856 L6.56017504,14.58632 L8.5601752,10.58632 L7.84455,10.22856 Z" id="Shape" fill="#E9EDED"></path>
                    <path d="M4.9962756,5.76464 C4.9962756,6.97256065 4.04967004,7.96167926 2.85936224,7.99744 C1.66906992,8.03319942 0.666383985,7.10266844 0.595921264,5.89688" id="Path" fill="#F23F4E" fill-rule="nonzero"></path>
                    <path d="M8.0700456,6.03264 C8.0700456,7.1165094 7.21633121,7.99780325 6.15720712,8.00728 C5.09809423,8.01675677 4.22945884,7.15089189 4.21091944,6.0672 L6.14033512,6.0328 L8.0700456,6.03264 Z" id="Path" fill="#FF9142" fill-rule="nonzero"></path>
                    <path d="M24.13388,5.80248 C24.133872,5.84248 24.607824,5.88272 24.6057588,5.92256 C24.567192,6.6636 24.173432,7.33816 23.553976,7.71192 C22.901208,8.10576 22.09696,8.10576 21.444184,7.71192 C20.791432,7.31808 20.389288,6.59016 20.389288,5.80248 L22.49908,5.80248 L24.13388,5.80248 Z M11.2750912,6.02416 C11.2925022,6.7235024 10.9383859,7.37792328 10.3490504,7.73552 C9.75965189,8.09301847 9.02696866,8.09791317 8.433032,7.74832 C7.83902984,7.39882255 7.47632965,6.74929277 7.48454888,6.04976 L9.3800576,6.07296 L11.2750912,6.02416 Z" id="Shape" fill="#F23F4E" fill-rule="nonzero"></path>
                    <path d="M14.227212,6.23632 C14.227212,6.86907916 13.8911667,7.45378048 13.3456144,7.77016 C12.8000801,8.08652901 12.1279543,8.08652901 11.58242,7.77016 C11.0368677,7.45378048 10.7008224,6.86907916 10.7008224,6.23632" id="Path" fill="#FF9142" fill-rule="nonzero"></path>
                    <path d="M17.3958384,6.19752 C17.3958384,6.84411391 17.0523859,7.44158312 16.4949056,7.76488 C15.9374067,8.08818767 15.2505397,8.08818767 14.6930408,7.76488 C14.1355605,7.44158312 13.792108,6.84411391 13.792108,6.19752" id="Path" fill="#F23F4E" fill-rule="nonzero"></path>
                    <path d="M20.6086328,6.23632 C20.6086328,6.86907916 20.2725875,7.45378048 19.7270352,7.77016 C19.1815009,8.08652901 18.5093751,8.08652901 17.9638408,7.77016 C17.4182885,7.45378048 17.0822432,6.86907916 17.0822432,6.23632" id="Path" fill="#FF9142" fill-rule="nonzero"></path>
                    <path d="M6.169168,2.40736 L11.354464,2.40736 L10.979528,6.276 L3.944992,6.276 M19.0226,2.40736 L13.837296,2.40736 L14.21224,6.276 L21.246696,6.276 M4.57267864,6.35848 C4.28883611,7.31614453 3.36858796,7.92927314 2.38940136,7.81312 C1.41020568,7.69696395 0.654252811,6.88498598 0.595919696,5.88672" id="Shape"></path>
                    <path d="M8.0700624,6.03264 C8.0700624,6.94911391 7.39509201,7.71826704 6.5046648,7.81648 C5.61423431,7.91469337 4.79460356,7.31038732 4.60375896,6.41496 M24.5951408,6.09472 C24.4840855,7.06945904 23.7264978,7.82454932 22.7895888,7.89432 C21.8526818,7.96409819 21.0002956,7.32890974 20.7581032,6.38048" id="Shape"></path>
                    <path d="M6.389032,6.2784 L22.940704,6.2784 M20.716528,2.40968 L8.845928,2.40968" id="Shape"></path>
                    <path d="M8.413696,2.40734553 L8.03868,6.276 L1.004224,6.276 C0.714136,6.276 0.497128,5.98816 0.642136,5.79232 L2.866232,2.56856 C2.939032,2.47024 3.082696,2.40624 3.22832,2.40734553 L8.413696,2.40734553 Z" id="Path"></path>
                    <path d="M5.555928,2.40734553 L4.72832,6.276 L1.004224,6.276 C0.714136,6.276 0.497128,5.98816 0.642136,5.79232 L2.866312,2.56856 C2.939112,2.47024 3.082696,2.40624 3.228248,2.40734553 L5.555848,2.40734553 L5.555928,2.40734553 Z M16.777984,2.40734553 L17.153,6.276 L24.187536,6.276 C24.477552,6.276 24.694632,5.98816 24.549624,5.79232 L22.325528,2.56856 C22.252728,2.47024 22.109064,2.40624 21.96336,2.40734553 L16.777984,2.40734553 Z" id="Shape"></path>
                    <path d="M19.635832,2.40734553 L20.463448,6.276 L24.187536,6.276 C24.477624,6.276 24.694632,5.98816 24.549624,5.79232 L22.325528,2.56856 C22.252728,2.47024 22.109064,2.40624 21.96344,2.40734553 L19.635832,2.40734553 L19.635832,2.40734553 Z M11.2476664,6.38456 C11.0950179,7.23744148 10.3557003,7.84942991 9.5062264,7.82608 C8.65677464,7.80272868 7.95084083,7.15104418 7.8434024,6.29104 M17.3185,6.23632 C17.3185,7.01401975 16.7586117,7.67766796 15.9948464,7.8052 C15.2310943,7.9327257 14.4875474,7.48674372 14.2370704,6.75088 M20.4086488,6.23632 C20.4086488,7.01401975 19.8487605,7.67766796 19.0849952,7.8052 C18.3212434,7.93272527 17.5776969,7.48674338 17.32722,6.75088" id="Shape"></path>
                    <path d="M14.227216,6.23632 C14.227216,7.07555396 13.578034,7.77036615 12.744204,7.82352 C11.9103725,7.87667079 11.178933,7.26986537 11.0733352,6.43736" id="Path"></path>
                    <polygon id="Path" fill="#F23F4E" fill-rule="nonzero" points="20.716448 0.80992 8.845856 0.80992 6.38896 6.2784 22.940624 6.2784"></polygon>
                    <polyline id="Path" fill="#FF5642" fill-rule="nonzero" points="6.169088 0.8076 11.354384 0.8076 10.979448 6.276 3.944992 6.276"></polyline>
                    <path d="M8.413624,0.807585533 L8.038608,6.276 L1.004152,6.276 C0.714056,6.276 0.497056,5.98816 0.642056,5.79232 L2.866152,0.9688 C2.938952,0.87048 3.082616,0.80648 3.228248,0.807585533 L8.413624,0.807585533 Z" id="Path" fill="#F23F4E" fill-rule="nonzero"></path>
                    <path d="M5.555848,0.807585533 L4.72824,6.276 L1.004152,6.276 C0.714056,6.276 0.497056,5.98816 0.642056,5.79232 L2.866232,0.9688 C2.939032,0.87048 3.082616,0.80648 3.228248,0.807585533 L5.555848,0.807585533 Z M19.02252,0.8076 L13.837216,0.8076 L14.21216,6.276 L21.246616,6.276" id="Shape" fill="#FF5642" fill-rule="nonzero"></path>
                    <path d="M16.777984,0.807585533 L17.153,6.276 L24.187456,6.276 C24.477552,6.276 24.694552,5.98816 24.549552,5.79232 L22.325448,0.9688 C22.252648,0.87048 22.108984,0.80648 21.96336,0.807585533 L16.777984,0.807585533 Z" id="Path" fill="#F23F4E" fill-rule="nonzero"></path>
                    <path d="M19.642352,0.807585533 L20.46996,6.276 L24.194056,6.276 C24.484144,6.276 24.701152,5.98816 24.556144,5.79232 L22.332048,0.9688 C22.259248,0.87048 22.115584,0.80648 21.96996,0.807585533 L19.642352,0.807585533 Z" id="Path" fill="#FF5642" fill-rule="nonzero"></path>
                    <path d="M22.20236,18.80728 L24.60236,18.80728 C24.60236,18.80728 24.60236,18.80728 24.60236,18.80728 L24.60236,21.20728 C24.60236,21.20728 24.60236,21.20728 24.60236,21.20728 L22.20236,21.20728 C22.20236,21.20728 22.20236,21.20728 22.20236,21.20728 L22.20236,18.80728 C22.20236,18.80728 22.20236,18.80728 22.20236,18.80728 Z" id="Path" fill="#34485C" fill-rule="nonzero"></path>
                </g>
            </g>
        </g>
    </g>
</svg>