<?xml version="1.0" encoding="UTF-8"?>
<svg width="362px" height="245px" viewBox="0 0 362 245" version="1.1" xmlns="http://www.w3.org/2000/svg" xmlns:xlink="http://www.w3.org/1999/xlink">
    <title>undraw_online_payments_re_y8f2(1)</title>
    <g id="Page-1" stroke="none" stroke-width="1" fill="none" fill-rule="evenodd">
        <g id="how-it-works" transform="translate(-250.000000, -776.000000)" fill-rule="nonzero">
            <g id="undraw_online_payments_re_y8f2(1)" transform="translate(250.000000, 776.000000)">
                <path d="M11.4630425,187.952872 C13.2554916,168.84833 24.0891574,149.777941 41.3267684,143.10739 C34.9571188,162.894498 35.49549,184.396473 42.8466285,203.808998 C45.7076449,211.284862 49.6352489,219.288766 47.3113358,226.965077 C45.865436,231.741495 42.1295057,235.467456 37.908948,237.848506 C33.6881262,240.229572 28.9680953,241.438166 24.3069311,242.623546 L23.4042736,243.44538 C15.5247254,226.102116 9.67058947,207.057414 11.4630425,187.952872 Z" id="Path" fill="#F0F0F0"></path>
                <path d="M41.5083518,143.462758 C31.7757281,155.458088 25.6500551,170.777814 24.5790241,186.483123 C24.3474607,189.878572 24.3955731,193.34403 25.187952,196.663048 C25.9841017,199.892017 27.593796,202.839459 29.8497841,205.199129 C31.9109468,207.443418 34.2681827,209.489842 35.7709934,212.218229 C37.3550314,215.094096 37.4958492,218.406845 36.5386523,221.53346 C35.3674931,225.358968 32.9497988,228.516921 30.4827122,231.519337 C27.7434846,234.852946 24.8477057,238.270212 23.7565739,242.620535 C23.6243668,243.147634 22.8488332,242.902608 22.9808404,242.376302 C24.8792327,234.807472 31.7562192,230.350378 34.9177081,223.493726 C36.3929153,220.294284 36.9536827,216.611236 35.4135819,213.318219 C34.0668304,210.438623 31.6377539,208.326162 29.5319743,206.072622 C27.3208713,203.706353 25.6055101,201.090776 24.6758888,197.903519 C23.7249429,194.64313 23.546987,191.172335 23.6943918,187.785597 C24.0835018,180.108344 25.6262099,172.542717 28.2660021,165.365867 C31.2352728,157.157537 35.527373,149.540076 40.9566029,142.843057 C41.2928018,142.428697 41.842379,143.051125 41.5083798,143.462775 L41.5083518,143.462758 Z" id="Path" fill="#FFFFFF"></path>
                <path d="M24.6692099,181.358995 C19.4673091,180.189272 15.8428874,175.256653 16.1076254,169.707194 C16.120476,169.479532 16.3037094,169.303405 16.5220513,169.308841 C16.7403932,169.314277 16.91538,169.499322 16.9178255,169.727365 C16.6620588,174.89646 20.0511829,179.489389 24.903105,180.548987 C25.4132964,180.661062 25.1764818,181.470443 24.6692099,181.359012 L24.6692099,181.358995 Z" id="Path" fill="#FFFFFF"></path>
                <path d="M28.6611437,204.204912 C33.1111255,201.263483 36.3358875,196.678739 37.6924101,191.36488 C37.826389,190.838269 38.6019746,191.083153 38.4681437,191.609113 C37.0466303,197.136088 33.681482,201.900097 29.0442833,204.950382 C28.6021011,205.240799 28.2213612,204.493755 28.6611437,204.204912 Z" id="Path" fill="#FFFFFF"></path>
                <path d="M32.0066876,157.938253 C33.8974349,158.814117 36.0832375,158.638512 37.8234215,157.470944 C38.2618602,157.174818 38.6421482,157.922213 38.206561,158.216413 C36.2790257,159.496488 33.8691936,159.695701 31.7727766,158.748273 C31.5634705,158.674665 31.4449,158.443964 31.5018553,158.221145 C31.5673835,157.998267 31.7925803,157.872069 32.0066716,157.938249 L32.0066876,157.938253 Z" id="Path" fill="#FFFFFF"></path>
                <path d="M95.1903619,175.676827 C94.9216283,175.869865 94.6528947,176.062902 94.3840092,176.263094 C90.7839495,178.877878 87.3932756,181.793739 84.2454456,184.981906 C83.9983206,185.22436 83.7513756,185.473959 83.5114375,185.72332 C76.0060201,193.488746 69.946519,202.641712 65.6409664,212.71693 C63.9312119,216.727738 62.5161618,220.868561 61.4080665,225.103551 C59.8780521,230.952335 58.6647916,237.42102 55.4678602,242.258059 C55.1397502,242.766617 54.7817879,243.253465 54.3960294,243.715806 L24.4344469,244.53151 C24.3654658,244.497683 24.2963287,244.470956 24.2270117,244.437129 L23.0321643,244.526812 C23.0747056,244.304224 23.1234059,244.074327 23.1659472,243.851743 C23.1901074,243.722521 23.2209465,243.593115 23.2451067,243.463889 C23.2633318,243.377685 23.2819009,243.291415 23.293611,243.212544 C23.2995741,243.183829 23.3058691,243.155101 23.3120081,243.133481 C23.3237303,243.054603 23.3426433,242.982635 23.3545454,242.910893 C23.6233803,241.625022 23.9013364,240.338889 24.1884138,239.052494 C24.1882378,239.045349 24.1882378,239.045349 24.1947328,239.038024 C26.4061037,229.242136 29.4200879,219.552961 33.746637,210.649484 C33.8768924,210.381656 34.0066359,210.106691 34.1505732,209.838478 C36.1221152,205.836525 38.4035977,202.009524 40.9722364,198.395694 C42.3848358,196.421591 43.8922352,194.523426 45.4886475,192.708485 C49.6221709,188.027232 54.4351292,184.05402 59.7510761,180.934512 C70.3492431,174.717435 82.7336002,172.108857 94.3083811,175.415154 C94.6044344,175.499951 94.8941247,175.584885 95.1903619,175.676827 Z" id="Path" fill="#F0F0F0"></path>
                <path d="M95.132919,176.075744 C80.4456374,179.534637 66.7214998,187.915483 56.8109002,199.781958 C54.6682544,202.347459 52.7085318,205.144672 51.427506,208.292878 C50.2014122,211.371552 49.7872139,214.736903 50.2279474,218.039262 C50.5796478,221.127009 51.281833,224.242912 50.9085919,227.366165 C50.515178,230.658235 48.7175418,233.391804 46.150511,235.286463 C43.0096748,237.604636 39.2584509,238.606128 35.5574751,239.452384 C31.4482478,240.391986 27.1657878,241.299961 23.7862453,244.087478 C23.3767659,244.425223 22.8988253,243.74202 23.3076848,243.404784 C29.1875087,238.554987 37.2482842,239.319662 43.7260097,235.832572 C46.7486326,234.205428 49.3199627,231.617263 49.9889771,228.019747 C50.5740047,224.873864 49.8525346,221.660081 49.4705549,218.536882 C49.0694662,215.257471 49.2079484,212.090669 50.3034234,208.961385 C51.4240465,205.760306 53.2831531,202.877197 55.3535903,200.265742 C60.0908593,194.380512 65.6848498,189.309652 71.9306375,185.238922 C79.0342377,180.551748 86.8533582,177.167988 95.0497001,175.234044 C95.557044,175.11456 95.6369714,175.957041 95.132939,176.075744 L95.132919,176.075744 Z" id="Path" fill="#FFFFFF"></path>
                <path d="M59.8374305,195.747347 C56.358452,191.543059 56.3086265,185.326042 59.719733,181.061545 C60.0552801,180.644959 60.6910037,181.16987 60.3550048,181.587012 C57.1703856,185.553452 57.2282013,191.351307 60.4912273,195.247643 C60.8339732,195.657873 60.1782087,196.155238 59.8374305,195.747355 L59.8374305,195.747347 Z" id="Path" fill="#FFFFFF"></path>
                <path d="M49.8521507,216.498171 C55.1011948,216.947221 60.3194804,215.313901 64.4664758,211.923899 C64.8770869,211.587682 65.3551355,212.270781 64.9450362,212.606593 C60.6232684,216.125899 55.1895304,217.814092 49.7282382,217.334259 C49.2077284,217.28815 49.3344644,216.452313 49.8521467,216.498171 L49.8521507,216.498171 Z" id="Path" fill="#FFFFFF"></path>
                <path d="M79.200022,181.660111 C80.2046722,183.548111 82.0511621,184.78207 84.1138024,184.943857 C84.6346122,184.983054 84.5073123,185.818887 83.9898899,185.779945 C81.7127963,185.590207 79.6738238,184.234259 78.5462252,182.159823 C78.4215486,181.969465 78.4598952,181.710722 78.6338434,181.56862 C78.8146705,181.43186 79.0672419,181.472674 79.200022,181.660111 L79.200022,181.660111 Z" id="Path" fill="#FFFFFF"></path>
                <path d="M271.03842,16.7620843 C270.591078,15.3827941 264.981244,10.6942333 268.418789,9.90618384 L271.2378,13.8311548 L284.198402,0.29796733 L285.501909,1.65909545 L271.03842,16.7620843 Z" id="Path" fill="#FBDDA2"></path>
                <path d="M271.03842,62.7806013 C270.591078,61.4013237 264.981244,56.7127503 268.418789,55.9247051 L271.2378,59.8496844 L284.198402,46.3164969 L285.501909,47.6776167 L271.03842,62.7806013 Z" id="Path" fill="#FBDDA2"></path>
                <path d="M271.03842,109.456505 C270.591078,108.077223 264.981244,103.388666 268.418789,102.600609 L271.2378,106.525588 L284.198402,92.9924005 L285.501909,94.3535202 L271.03842,109.456505 Z" id="Path" fill="#FBDDA2"></path>
                <ellipse id="Oval" fill="#3F3D56" cx="259.103804" cy="67.5441029" rx="3.99936869" ry="4.17613636"></ellipse>
                <ellipse id="Oval" fill="#3F3D56" cx="259.103804" cy="22.0242165" rx="3.99936869" ry="4.17613636"></ellipse>
                <rect id="Rectangle" fill="#3F3D56" x="297.297675" y="12.4190737" width="64.3898359" height="1"></rect>
                <ellipse id="Oval" fill="#3F3D56" cx="261.103488" cy="116.068293" rx="3.99936869" ry="4.17613636"></ellipse>
                <rect id="Rectangle" fill="#3F3D56" x="297.297675" y="58.4375197" width="64.3898359" height="1"></rect>
                <rect id="Rectangle" fill="#3F3D56" x="297.297675" y="105.11339" width="64.3898359" height="1"></rect>
                <polygon id="Path" fill="#3F3D56" points="281.139621 115.678977 261.142778 115.678977 261.142778 94.3806818 274.740631 94.3806818 274.740631 95.2159091 261.942652 95.2159091 261.942652 114.84375 280.339747 114.84375 280.339747 105.238636 281.139621 105.238636"></polygon>
                <polygon id="Path" fill="#3F3D56" points="281.139621 68.90625 261.142778 68.90625 261.142778 47.6079545 274.740631 47.6079545 274.740631 48.4431818 261.942652 48.4431818 261.942652 68.0710227 280.339747 68.0710227 280.339747 58.4659091 281.139621 58.4659091"></polygon>
                <polygon id="Path" fill="#3F3D56" points="281.139621 21.2982955 261.142778 21.2982955 261.142778 0 274.740631 0 274.740631 0.835227273 261.942652 0.835227273 261.942652 20.4630682 280.339747 20.4630682 280.339747 10.8579545 281.139621 10.8579545"></polygon>
                <path d="M150.578135,75.9103197 C150.578135,75.9103197 145.23381,99.4725822 151.765763,99.4725822 C158.297716,99.4725822 173.736879,72.8100104 173.736879,72.8100104 L168.392523,65.9893566 L158.800037,79.8958614 L158.297676,72.8100146 L150.578135,75.9103197 Z" id="Path" fill="#A0616A"></path>
                <ellipse id="Oval" fill="#A0616A" cx="172.312768" cy="68.4053475" rx="5.19917929" ry="5.42897727"></ellipse>
                <polygon id="Path" fill="#A0616A" points="146.046946 236.389364 152.967054 236.388946 156.259734 208.514906 146.045346 208.515324"></polygon>
                <path d="M145.803001,243.927958 L167.084801,243.927123 L167.084801,243.646069 C167.084481,238.869193 163.376013,234.996874 158.801333,234.996614 L158.800837,234.996614 L154.91345,231.917081 L147.660431,234.997082 L145.802673,234.997148 L145.803001,243.927958 Z" id="Path" fill="#2F2E41"></path>
                <polygon id="Path" fill="#A0616A" points="71.6038971 227.373503 77.7961196 230.599986 92.6625729 207.19483 83.5232156 202.432364"></polygon>
                <path d="M68.1616845,234.004919 L87.2039466,243.927958 L87.3241356,243.6765 C89.3667502,239.402237 87.7046467,234.2082 83.6115576,232.074776 L83.6110977,232.074538 L81.4498389,227.506421 L73.6429952,226.880138 L71.9807336,226.013916 L68.1616845,234.004919 Z" id="Path" fill="#2F2E41"></path>
                <rect id="Rectangle" fill="#CCCCCC" x="0" y="243.955203" width="227.903993" height="1"></rect>
                <path d="M101.303273,118.655677 C101.303273,118.655677 98.5375975,153.379625 97.9438033,160.82033 C97.536626,165.484603 96.5382156,170.071784 94.9747399,174.461646 C94.9747399,174.461646 93.7871114,176.941887 93.7871114,179.422132 L80.3273081,204.965007 C80.3273081,204.965007 76.2142613,208.121882 76.8080636,210.602123 C77.4018659,213.082363 74.328255,214.57012 74.328255,214.57012 L88.5026536,217.422781 C88.5026536,217.422781 87.9088393,215.562612 89.6902821,214.94254 C91.4717249,214.322467 92.8897771,208.944388 92.8897771,208.944388 L112.789152,175.081719 L127.04065,144.078738 C127.04065,144.078738 135.354046,171.981426 137.135481,175.081719 C137.135481,175.081719 143.667434,209.80504 144.855062,212.90537 C146.042691,216.005701 146.636509,216.005663 146.042691,217.245783 C145.448872,218.485904 145.448876,219.726028 146.042691,220.346076 C146.636505,220.966124 157.918968,220.346076 157.918968,220.346076 L154.949893,176.321839 L149.605584,123.616739 L122.290148,114.935901 L101.303273,118.655677 Z" id="Path" fill="#2F2E41"></path>
                <ellipse id="Oval" fill="#A0616A" cx="128.046583" cy="22.7397265" rx="12.4700876" ry="13.0212516"></ellipse>
                <path d="M150.793205,54.7901156 L135.948348,45.398578 C135.948348,45.398578 135.536877,39.566687 131.307197,39.2922731 C129.183724,39.1545066 125.997083,38.9438706 121.214986,38.621323 C120.204345,38.5538779 119.522345,44.3274533 118.36414,44.2491048 L102.694285,48.589522 L105.069546,90.7535738 C105.069546,90.7535738 101.506669,107.495195 102.694285,110.595483 C103.881902,113.695772 99.7252221,114.935901 100.912839,115.555961 C102.100455,116.176021 100.912839,120.516434 100.912839,120.516434 C100.912839,120.516434 124.071583,132.917626 149.605552,123.616727 L147.230291,115.555948 C147.887538,113.413676 147.438427,111.068872 146.042663,109.35535 C146.042663,109.35535 148.417924,105.634998 145.448848,102.534692 C145.448848,102.534692 146.636477,96.954159 143.667402,94.4739141 L143.073587,85.7930755 L144.855034,81.4526582 L150.793205,54.7901156 Z" id="Path" fill="#E6E6E6"></path>
                <path d="M117.22576,30.1784068 L116.877183,29.3329855 C116.83227,29.2236877 112.422222,18.3375902 116.331177,11.6227388 C118.140655,8.51408966 121.430956,6.75900989 126.110297,6.40664838 C133.431993,5.85384068 138.443114,7.66742395 141.008345,11.7932128 C141.884503,13.2175538 141.94547,15.0279107 141.167293,16.5129982 C140.389115,17.9980857 138.896133,18.9206122 137.274935,18.9181191 L137.176514,18.9181191 L135.831219,17.0941205 L135.752911,17.2715228 C135.265876,18.3718387 134.147304,18.9741962 132.837159,18.8422637 C132.614342,18.8255592 132.416914,19.0263979 132.258347,19.4562476 C132.149695,19.8392615 131.84946,20.129781 131.475462,20.2137988 C130.507451,20.4105741 129.127589,19.1373412 128.50993,18.5027647 C128.461722,18.7982735 128.293172,19.0574367 128.047891,19.2131965 C127.397018,19.6053357 126.384094,19.093095 126.09332,18.9299626 C123.777081,19.4438236 122.27771,19.306387 121.635427,18.5219332 C121.199948,21.7390658 120.265332,27.5297841 119.144621,27.8507453 C118.904119,27.9085007 118.655747,27.795138 118.533001,27.5715873 C118.26312,27.2057577 118.02195,27.0234694 117.871386,27.0746521 C117.506795,27.1957601 117.291593,28.4494362 117.260742,29.2585584 L117.22576,30.1784068 Z" id="Path" fill="#2F2E41"></path>
                <path d="M144.261252,55.4101925 L150.184841,54.4052554 C154.451919,58.6863567 157.358646,64.2312245 158.512786,70.2916289 C160.294229,80.2125754 160.888011,82.0727602 160.888011,82.0727602 L146.636489,85.7931005 L138.916908,70.2915997 L144.261252,55.4101925 Z" id="Path" fill="#E6E6E6"></path>
                <polygon id="Rectangle" fill="#FFFFFF" transform="translate(162.855519, 96.390474) rotate(-85.489660) translate(-162.855519, -96.390474) " points="138.720262 49.6035996 187.315477 49.4423026 186.990775 143.177348 138.39556 143.338645"></polygon>
                <path d="M127.956906,72.0685791 C125.670718,70.3638093 122.768125,70.2405464 121.659324,70.265052 C121.997594,71.3676272 123.048844,74.1954478 125.334975,75.9009652 C127.626726,77.6100281 130.52572,77.7295408 131.632845,77.7056784 C131.294723,76.6034957 130.243389,73.7745183 127.956906,72.0685791 Z" id="Path" fill="#FBDDA2"></path>
                <path d="M136.97571,102.903024 L121.975278,101.667438 C120.76947,101.568116 119.604513,102.148061 118.919234,103.188815 C118.233956,104.229569 118.132466,105.573016 118.652994,106.713092 C119.173523,107.853169 120.23699,108.61667 121.442798,108.715992 L121.442798,108.715992 L136.44323,109.951577 C138.307247,110.105117 139.937531,108.651712 140.084571,106.705308 C140.231611,104.758904 138.839727,103.056563 136.97571,102.903024 L136.97571,102.903024 Z" id="Path" fill="#FBDDA2"></path>
                <path d="M207.712676,71.2991344 L123.609952,64.3709033 C121.634346,64.208455 119.677858,64.872178 118.170916,66.2160531 C116.663973,67.5599282 115.730025,69.4738655 115.57454,71.5367983 L112.340067,114.321641 C112.016319,118.61853 115.088758,122.37634 119.203627,122.71626 L203.306351,129.644495 C205.281958,129.806947 207.238448,129.143225 208.745391,127.799349 C210.252334,126.455473 211.186281,124.541534 211.341763,122.4786 L214.415502,81.8133386 L214.477344,80.9825213 L214.575253,79.6896939 C214.730819,77.6267705 214.095188,75.5838118 212.808198,74.010267 C211.521207,72.4367223 209.688286,71.461495 207.712676,71.2991344 Z M205.2292,108.524304 L204.696292,115.573029 C204.493498,118.164757 202.323451,120.098377 199.840423,119.899848 L188.588815,118.974099 C186.10679,118.762344 184.255016,116.496384 184.445141,113.90361 L184.978065,106.854855 C185.181722,104.263586 187.351208,102.330465 189.833938,102.528027 L201.081647,103.454841 C203.56336,103.667471 205.415657,105.931492 205.2292,108.524304 L205.2292,108.524304 Z M117.58961,104.848827 C117.771354,102.473939 119.75983,100.700838 122.034596,100.885286 L137.034473,102.121677 C138.508634,102.240516 139.809942,103.171966 140.447748,104.564831 C141.085553,105.957695 140.96285,107.600128 140.125903,108.872862 C139.288956,110.145596 137.865059,110.855057 136.391082,110.733747 L136.383347,110.735802 L121.383471,109.49941 C120.28936,109.409125 119.27457,108.868128 118.56287,107.995713 C117.851171,107.123299 117.501013,105.991119 117.58961,104.848827 Z M120.800799,69.9857228 L120.698259,69.5475667 L121.129751,69.5062731 C121.298453,69.4873427 125.288579,69.1132987 128.394561,71.4300228 C131.500578,73.7467763 132.453016,77.8115184 132.494405,77.9815456 L132.593082,78.4206997 L132.162578,78.4660484 C131.55148,78.5134848 130.93771,78.5092461 130.327267,78.4533738 C128.385443,78.334683 126.509853,77.673239 124.896737,76.5382478 C121.790771,74.2214986 120.838301,70.1567397 120.800799,69.9857228 L120.800799,69.9857228 Z" id="Shape" fill="#FBDDA2"></path>
                <path d="M192.6109,113.199008 L187.735773,112.797443 C187.011699,112.739172 186.37917,113.304104 186.322062,114.060075 C186.264953,114.816047 186.804833,115.477549 187.528702,115.538542 L192.403824,115.940107 C193.127929,115.998433 193.760514,115.433492 193.817627,114.677484 C193.874739,113.921477 193.334807,113.259954 192.6109,113.199008 L192.6109,113.199008 Z" id="Path" fill="#FBDDA2"></path>
                <path d="M201.611175,113.94036 L196.736029,113.538795 C196.012254,113.481045 195.380259,114.045873 195.323175,114.801494 C195.266092,115.557114 195.805459,116.218428 196.528953,116.27989 L201.404104,116.681455 C202.127856,116.739165 202.759812,116.174344 202.816892,115.418749 C202.873972,114.663154 202.334642,114.001855 201.611175,113.94036 L201.611175,113.94036 Z" id="Path" fill="#FBDDA2"></path>
                <path d="M192.877138,109.674729 L188.002015,109.273168 C187.278241,109.215418 186.646245,109.780246 186.589162,110.535867 C186.532079,111.291488 187.071446,111.952801 187.79494,112.014263 L192.670062,112.415828 C193.394167,112.474154 194.026752,111.909213 194.083864,111.153205 C194.140977,110.397198 193.601045,109.735675 192.877138,109.674729 L192.877138,109.674729 Z" id="Path" fill="#FBDDA2"></path>
                <path d="M201.877417,110.416081 L197.002267,110.014516 C196.278192,109.956245 195.645664,110.521177 195.588555,111.277148 C195.531447,112.03312 196.071327,112.694621 196.795195,112.755615 L201.670342,113.15718 C202.394447,113.215506 203.027031,112.650564 203.084144,111.894557 C203.141256,111.13855 202.601324,110.477027 201.877417,110.416081 L201.877417,110.416081 Z" id="Path" fill="#FBDDA2"></path>
                <path d="M193.143376,106.150454 L188.268253,105.748889 C187.544148,105.690563 186.911563,106.255505 186.854451,107.011512 C186.797339,107.767519 187.337271,108.429042 188.061178,108.489988 L192.9363,108.891549 C193.660075,108.949299 194.29207,108.384471 194.349154,107.62885 C194.406237,106.873229 193.86687,106.211916 193.143376,106.150454 L193.143376,106.150454 Z" id="Path" fill="#FBDDA2"></path>
                <path d="M202.143655,106.891806 L197.268509,106.490241 C196.544734,106.432491 195.912739,106.997319 195.855655,107.75294 C195.798572,108.50856 196.337939,109.169874 197.061433,109.231336 L201.93658,109.632901 C202.660354,109.690651 203.29235,109.125823 203.349433,108.370202 C203.406516,107.614581 202.867149,106.953268 202.143655,106.891806 L202.143655,106.891806 Z" id="Path" fill="#FBDDA2"></path>
                <polygon id="Rectangle" fill="#FFFFFF" transform="translate(163.655828, 89.502176) rotate(-85.508370) translate(-163.655828, -89.502176) " points="163.409039 39.9753221 164.244342 39.972561 163.902617 139.029029 163.067314 139.03179"></polygon>
                <polygon id="Path" fill="#3F3D56" points="214.477344 80.9823835 214.415354 81.8134347 210.979496 81.5319631 174.372075 78.529321 174.438064 77.6974347 211.041486 80.7009119"></polygon>
                <path d="M93.7870994,72.151797 C93.7870994,72.151797 88.442775,95.7140595 94.9747279,95.7140595 C101.506681,95.7140595 116.945844,69.0514877 116.945844,69.0514877 L111.601487,62.2308338 L102.009002,76.1373387 L101.506641,69.0514918 L93.7870994,72.151797 Z" id="Path" fill="#A0616A"></path>
                <ellipse id="Oval" fill="#A0616A" cx="115.521733" cy="64.6468248" rx="5.19917929" ry="5.42897727"></ellipse>
                <path d="M107.020035,52.3098874 L103.457145,48.5895345 C103.457145,48.5895345 96.3313778,52.9299476 95.7375635,57.2703731 C95.1437493,61.6107987 92.1746859,75.2521022 92.1746859,75.2521022 L103.160244,76.1821862 L106.723121,70.6016528 L107.020035,52.3098874 Z" id="Path" fill="#E6E6E6"></path>
            </g>
        </g>
    </g>
</svg>