<?xml version="1.0" encoding="UTF-8"?>
<svg width="92px" height="91px" viewBox="0 0 92 91" version="1.1" xmlns="http://www.w3.org/2000/svg" xmlns:xlink="http://www.w3.org/1999/xlink">
    <title>Group 7</title>
    <defs>
        <polygon id="path-1" points="0 0.224612178 37.9729349 0.224612178 37.9729349 46.5160936 0 46.5160936"></polygon>
    </defs>
    <g id="Page-1" stroke="none" stroke-width="1" fill="none" fill-rule="evenodd">
        <g id="how-it-works" transform="translate(-249.000000, -1195.000000)">
            <g id="Group-7" transform="translate(249.600000, 1195.000000)">
                <circle id="Oval" fill="#F7F7F7" cx="45.5" cy="45.5" r="45.5"></circle>
                <g id="Group-10" transform="translate(26.500000, 21.500000)">
                    <g id="Group-3" transform="translate(0.000000, 0.222741)">
                        <mask id="mask-2" fill="white">
                            <use xlink:href="#path-1"></use>
                        </mask>
                        <g id="Clip-2"></g>
                        <path d="M13.8860921,11.8165651 C11.5244966,12.0835864 9.42410786,12.1189209 7.32148278,12.0589865 C5.9470163,12.0205211 4.63427335,11.7168235 3.39443571,11.1326864 C1.15494544,10.0775721 0.421419561,8.01207055 1.47608664,5.75871484 C2.08527094,4.45715369 3.09655264,3.51251549 4.27824494,2.74678604 C6.72661118,1.15941815 9.44110419,0.389215986 12.3380841,0.295288892 C16.7687593,0.15171462 21.19362,0.16602732 25.5871716,0.929073139 C27.2478921,1.21801077 28.6219113,2.70518975 28.7619074,4.49785543 C28.9068235,6.34911372 28.4349516,8.03577596 27.4844989,9.6048057 C26.2473449,11.6470491 24.7999731,13.5336418 23.2470452,15.3433039 C23.0404056,15.5834889 22.7443116,15.7753685 22.6821408,16.2038549 C25.6972005,16.3246183 28.4541843,17.3166674 31.0259976,18.7667228 C34.9682519,20.989664 37.5847924,24.2856105 37.9327699,28.8884853 C38.2136566,32.6003946 37.0239135,36.0332062 34.6582925,38.936448 C30.5608349,43.9646784 25.1591324,46.4112556 18.7233374,46.5118917 C14.0824444,46.5847971 9.63522019,45.7220096 5.79628568,42.9033022 C3.77461681,41.4188069 2.18680165,39.4816724 0.96753852,37.3021166 C-1.41642057,33.0391683 0.724669892,26.2911775 6.06822698,25.242325 C8.04159049,24.8545403 10.0288194,24.9261038 11.8420596,25.9910581 C12.8582613,26.5881661 13.5251437,27.4138299 13.6776634,28.6536676 C14.0171427,31.4155714 15.5526271,32.6303618 18.408458,32.4849985 C22.0429893,32.3002752 24.4819628,27.9903634 22.6942171,24.9117911 C21.777757,23.3329214 19.0695258,22.1785126 16.9592971,22.4468758 C15.8710847,22.5850828 14.8208903,22.8762568 13.7769577,23.1902416 C12.0218629,23.7180224 10.5964074,23.1544599 9.37132978,21.9065713 C8.41729887,20.933755 8.50764779,19.7274628 8.73620372,18.5448759 C9.08105033,16.7624975 10.0726521,15.3209403 11.3531915,14.0779717 C12.0853755,13.3672567 12.8743631,12.7151343 13.8860921,11.8165651" id="Fill-1" fill="#48A06E" mask="url(#mask-2)"></path>
                    </g>
                    <path d="M18.6392503,17.5539898 C18.7609083,17.0682526 19.1124639,16.9949 19.4295797,16.9832709 C21.0012931,16.9260201 21.7822298,15.912502 22.5251484,14.6838462 C23.7023679,12.7350826 25.1519761,10.9562824 26.1865159,8.91135538 C26.8583183,7.58340519 27.2170303,6.19686237 27.0958196,4.7047634 C26.9969726,3.48013301 26.0496507,2.35792787 25.0929362,2.35792787 C21.0598857,2.35837514 17.028177,2.10432472 12.994232,2.34406244 C10.3481716,2.50194941 7.82600545,3.05656654 5.54089344,4.46278931 C4.59804433,5.04245366 3.76701319,5.74377596 3.23610147,6.73493044 C2.53522644,8.0427534 2.86799672,9.11218046 4.17939785,9.79203371 C5.09898883,10.2683783 6.08209241,10.539425 7.11171227,10.6507957 C10.8902651,11.0604967 14.6321416,10.6615302 18.3695454,10.1520876 C19.5141141,9.99598968 20.657341,9.82871 21.8028043,9.68379391 C22.1002401,9.64622307 22.4424031,9.6569576 22.5063629,10.0487678 C22.5694283,10.4419197 22.2348689,10.5430032 21.9512985,10.6221703 C21.572012,10.7281737 21.1810964,10.7930282 20.7946535,10.8757735 C20.754399,11.2143583 21.3014125,11.3861107 20.9431477,11.8244371 C20.5625194,11.9671168 20.2749235,11.5954339 19.9260515,11.475565 C18.4795742,10.9777514 17.0022352,11.3002345 15.8800301,12.0404694 C14.4697819,12.9712422 13.3372895,14.3394469 12.1412845,15.5730227 C11.2310862,16.5118464 10.6312947,17.6443387 10.342357,18.942769 C9.91431784,20.8669326 11.1465519,21.8084399 12.4932875,22.3201189 C12.7835669,22.4305951 13.0461155,22.3983915 13.326555,22.1993555 C14.8267048,21.1344012 16.5397561,20.8043145 18.3252654,20.9724888 C20.7839189,21.2041756 22.9938893,21.9819814 24.3052904,24.299297 C25.7164332,26.7928377 25.2485868,29.150855 23.6518262,31.3541163 C22.0219675,33.6029992 19.773979,34.492623 17.0496461,34.0055439 C14.2501714,33.5050467 12.7178179,32.0415731 12.4847893,29.5457961 C12.3492659,28.093057 11.5759329,27.3537166 10.3284916,26.9073393 C9.27650814,26.5311836 8.2021611,26.4891401 7.106345,26.661787 C2.71055702,27.3550584 0.622244632,32.6677538 2.75573148,36.5715427 C3.99020185,38.8289238 5.6146933,40.8237564 7.85194722,42.1579684 C11.2476353,44.1827682 14.9667009,45.1296427 18.9237152,44.9681776 C24.7185696,44.7315708 29.7083347,42.6204475 33.4573675,38.1249179 C37.2779639,33.5435121 37.9676571,27.3546111 32.990863,22.1756501 C31.0461248,20.1521921 28.5628714,19.107365 26.0201308,18.1457305 C24.0159055,17.388052 21.9544294,17.3630047 19.869248,17.7096404 C19.4608887,17.7776258 19.0386641,17.9690581 18.6392503,17.5539898" id="Fill-4" fill="#5DD093"></path>
                    <path d="M18.225166,44.2072787 C23.020815,43.3726694 26.6083828,40.5910856 29.7187114,37.1309903 C31.9957725,34.5980897 33.5424386,31.6639862 33.4556679,28.1220402 C33.4167552,26.5319887 33.0853268,25.0005298 31.8374382,23.686445 C32.7409274,23.5612089 32.9855851,24.1538442 33.2463446,24.6149815 C34.2737281,26.435378 34.2562845,28.4235015 33.9785287,30.3982068 C33.5817986,33.213336 32.144714,35.5628551 30.2299431,37.5684222 C27.3190978,40.6161328 24.2105582,43.4258947 19.865312,44.3052312 C19.3156148,44.4166019 18.7905176,44.4711691 18.225166,44.2072787" id="Fill-6" fill="#48A06E"></path>
                    <path d="M22.7109898,11.9742285 C22.4072922,11.4603131 22.7150153,11.1776372 22.8715604,10.881096 C23.3470104,9.9825268 23.9132566,9.12555388 24.3207213,8.19835929 C24.892782,6.89590359 25.1808251,5.56124431 24.017471,4.36568659 C23.9749801,4.32230122 24.0250746,4.1890142 24.0322309,4.08971984 C24.8802584,4.3925229 25.3163485,5.22802677 25.2331559,6.36051915 C25.164276,7.29129192 24.897702,8.16436662 24.4379065,8.97437599 C23.8801585,9.95792684 23.3107814,10.9343213 22.7109898,11.9742285" id="Fill-8" fill="#48A06E"></path>
                </g>
            </g>
        </g>
    </g>
</svg>