<?xml version="1.0" encoding="UTF-8"?>
<svg width="48px" height="47px" viewBox="0 0 48 47" version="1.1" xmlns="http://www.w3.org/2000/svg" xmlns:xlink="http://www.w3.org/1999/xlink">
    <title>Group 25</title>
    <g id="Page-1" stroke="none" stroke-width="1" fill="none" fill-rule="evenodd">
        <g id="home" transform="translate(-1206.000000, -7021.000000)">
            <g id="Group-23" transform="translate(1144.000000, 7021.000000)">
                <g id="Group-25" transform="translate(62.698505, 0.000000)">
                    <path d="M11.7273634,1.77635684e-14 C14.8729843,1.77635684e-14 17.5757751,1.08417032 19.8357358,3.25251095 C21.0878761,3.03873088 22.2942065,2.93184085 23.4547268,2.93184085 C26.2338676,2.93184085 28.8908484,3.47392601 31.4256691,4.55809633 C33.9604899,5.64226664 36.1441005,7.10055207 37.976501,8.9329526 C39.8089016,10.7653531 41.267187,12.9489638 42.3513573,15.4837845 C43.4355276,18.0186052 43.9776128,20.675586 43.9776128,23.4547268 C43.9776128,24.6152472 43.8707228,25.8215775 43.6569427,27.0737179 C45.8252833,29.3336785 46.9094536,32.0364693 46.9094536,35.1820902 C46.9094536,38.4193312 45.7642033,41.183202 43.4737026,43.4737026 C41.183202,45.7642033 38.4193312,46.9094536 35.1820902,46.9094536 C32.0364693,46.9094536 29.3336785,45.8252833 27.0737179,43.6569427 C25.8215775,43.8707228 24.6152472,43.9776128 23.4547268,43.9776128 C20.675586,43.9776128 18.0186052,43.4355276 15.4837845,42.3513573 C12.9489638,41.267187 10.7653531,39.8089016 8.9329526,37.976501 C7.10055207,36.1441005 5.64226664,33.9604899 4.55809633,31.4256691 C3.47392601,28.8908484 2.93184085,26.2338676 2.93184085,23.4547268 C2.93184085,22.2942065 3.03873088,21.0878761 3.25251095,19.8357358 C1.08417032,17.5757751 2.13162821e-14,14.8729843 2.13162821e-14,11.7273634 C2.13162821e-14,8.49012247 1.14525033,5.72625167 3.435751,3.435751 C5.72625167,1.14525033 8.49012247,1.77635684e-14 11.7273634,1.77635684e-14 Z" id="Shape" fill="#F0B015" fill-rule="nonzero"></path>
                    <g id="entypo-social:twitter" transform="translate(13.558902, 15.205882)">
                        <rect id="ViewBox" x="0" y="0" width="18.4313725" height="18.4313725"></rect>
                        <path d="M15.9578824,5.75611765 C15.9652549,5.90541176 15.9680196,6.05654902 15.9680196,6.20584314 C15.9680196,10.8044706 12.4688235,16.1053333 6.07037255,16.1053333 C4.10466667,16.1053333 2.27719608,15.5293529 0.737254902,14.5414314 C2.57683112,14.7638888 4.42939597,14.2460459 5.88698039,13.1019412 C4.39899009,13.0738139 3.09331032,12.1032561 2.63752941,10.6865098 C3.15919406,10.7840629 3.6960807,10.7635951 4.20880392,10.6266078 C2.58545496,10.2974344 1.41856818,8.87042593 1.41829412,7.21403922 L1.41829412,7.17072549 C1.90137709,7.4394549 2.44166359,7.58890257 2.99417647,7.60662745 C1.46356316,6.58621962 0.991904731,4.55057738 1.91778431,2.961 C3.68423548,5.13500235 6.29082741,6.45655551 9.0885098,6.59658824 C9.02866089,6.33635366 8.99866993,6.07014522 8.99911765,5.80311765 C8.99911761,4.88077942 9.36557811,3.99623122 10.0178561,3.34412603 C10.6701342,2.69202083 11.5547794,2.32579476 12.4771176,2.32603459 C13.4391819,2.32447025 14.3588276,2.72189336 15.0169608,3.42362745 C15.7958085,3.26944745 16.5427812,2.98399606 17.2259608,2.57947059 C16.9661246,3.38510968 16.4224751,4.06892898 15.6961569,4.50370588 C16.3857287,4.42195698 17.0591782,4.23744175 17.6941176,3.95629412 C17.2276721,4.65524579 16.6396115,5.26484355 15.9578824,5.75611765 L15.9578824,5.75611765 Z" id="Path" fill="#FFFFFF" fill-rule="nonzero"></path>
                    </g>
                </g>
            </g>
        </g>
    </g>
</svg>