<?xml version="1.0" encoding="UTF-8"?>
<svg width="76px" height="76px" viewBox="0 0 76 76" version="1.1" xmlns="http://www.w3.org/2000/svg" xmlns:xlink="http://www.w3.org/1999/xlink">
    <!-- Generator: Sketch 58 (84663) - https://sketch.com -->
    <title>Group 10</title>
    <desc>Created with Sketch.</desc>
    <g id="Page-1" stroke="none" stroke-width="1" fill="none" fill-rule="evenodd">
        <g id="Referrals" transform="translate(-1149.000000, -560.000000)">
            <g id="Group-10" transform="translate(1149.315344, 560.912500)">
                <circle id="Oval" fill="#19B2F5" cx="37.44375" cy="37.44375" r="37.44375"></circle>
                <g id="entypo-social:twitter" transform="translate(22.443750, 22.443750)">
                    <rect id="ViewBox" x="0" y="0" width="30" height="30"></rect>
                    <path d="M25.974,9.369 C25.986,9.612 25.9905,9.858 25.9905,10.101 C25.9905,17.586 20.295,26.214 9.8805,26.214 C6.681,26.214 3.7065,25.2765 1.2,23.6685 C4.19420384,24.030585 7.20954877,23.187713 9.582,21.3255 C7.16005833,21.2797183 5.03485616,19.6999807 4.293,17.394 C5.14209245,17.5527832 6.01596114,17.5194686 6.8505,17.2965 C4.20824051,16.7607177 2.30894608,14.4380337 2.3085,11.742 L2.3085,11.6715 C3.09479463,12.1089 3.97419712,12.3521499 4.8735,12.381 C2.38218259,10.7201234 1.61448323,7.40679084 3.1215,4.8195 C5.99668116,8.35803573 10.2393255,10.5090744 14.793,10.737 C14.6955863,10.3134267 14.6467713,9.88012998 14.6475,9.4455 C14.6474999,7.94424735 15.2439729,6.50450401 16.3056595,5.44309875 C17.367346,4.38169349 18.8072474,3.78560211 20.3085,3.78599247 C21.874413,3.78344627 23.3712832,4.43031579 24.4425,5.5725 C25.7101989,5.32154744 26.9260162,4.85692976 28.038,4.1985 C27.6150751,5.50980618 26.7301989,6.6228312 25.548,7.3305 C26.6703881,7.19744061 27.7665347,6.89711264 28.8,6.4395 C28.0407854,7.57715539 27.083623,8.56937301 25.974,9.369 L25.974,9.369 Z" id="Path" fill="#000000" fill-rule="nonzero"></path>
                </g>
            </g>
        </g>
    </g>
</svg>