<?xml version="1.0" encoding="UTF-8"?>
<svg width="37px" height="36px" viewBox="0 0 37 36" version="1.1" xmlns="http://www.w3.org/2000/svg" xmlns:xlink="http://www.w3.org/1999/xlink">
    <title>ic:outline-cancel</title>
    <defs>
        <filter id="filter-1">
            <feColorMatrix in="SourceGraphic" type="matrix" values="0 0 0 0 1.000000 0 0 0 0 1.000000 0 0 0 0 1.000000 0 0 0 1.000000 0"></feColorMatrix>
        </filter>
    </defs>
    <g id="Page-1" stroke="none" stroke-width="1" fill="none" fill-rule="evenodd">
        <g id="home" transform="translate(-161.000000, -4276.000000)">
            <g id="ic:outline-cancel" transform="translate(137.500000, 4252.593796)" filter="url(#filter-1)">
                <g transform="translate(20.000000, 19.786667)">
                    <rect id="ViewBox" x="0" y="0" width="43.2" height="43.2"></rect>
                    <path d="M21.6,3.6 C11.646,3.6 3.6,11.646 3.6,21.6 C3.6,31.554 11.646,39.6 21.6,39.6 C31.554,39.6 39.6,31.554 39.6,21.6 C39.6,11.646 31.554,3.6 21.6,3.6 Z M21.6,36 C13.662,36 7.2,29.538 7.2,21.6 C7.2,13.662 13.662,7.2 21.6,7.2 C29.538,7.2 36,13.662 36,21.6 C36,29.538 29.538,36 21.6,36 Z M28.062,12.6 L21.6,19.062 L15.138,12.6 L12.6,15.138 L19.062,21.6 L12.6,28.062 L15.138,30.6 L21.6,24.138 L28.062,30.6 L30.6,28.062 L24.138,21.6 L30.6,15.138 L28.062,12.6 Z" id="Shape" fill="#000000" fill-rule="nonzero"></path>
                </g>
            </g>
        </g>
    </g>
</svg>