<?xml version="1.0" encoding="UTF-8"?>
<svg width="36px" height="33px" viewBox="0 0 36 33" version="1.1" xmlns="http://www.w3.org/2000/svg" xmlns:xlink="http://www.w3.org/1999/xlink">
    <title>carbon:fruit-bowl</title>
    <defs>
        <filter id="filter-1">
            <feColorMatrix in="SourceGraphic" type="matrix" values="0 0 0 0 1.000000 0 0 0 0 1.000000 0 0 0 0 1.000000 0 0 0 1.000000 0"></feColorMatrix>
        </filter>
    </defs>
    <g id="Page-1" stroke="none" stroke-width="1" fill="none" fill-rule="evenodd">
        <g id="home" transform="translate(-161.000000, -4157.000000)">
            <g id="carbon:fruit-bowl" transform="translate(137.500000, 4131.593796)" filter="url(#filter-1)">
                <g transform="translate(22.500000, 21.620000)">
                    <rect id="ViewBox" x="0" y="0" width="38.4" height="38.4"></rect>
                    <path d="M31.2,18 C31.1977052,15.3766601 29.769482,12.9619654 27.4716,11.6964 C28.3219639,10.8093989 28.7977383,9.6287736 28.8,8.4 L26.4,8.4 C26.398677,9.72493503 25.324935,10.798677 24,10.8 C20.0770018,10.805198 16.8791771,13.948081 16.806,17.8704 C15.267461,16.3033429 14.4037923,14.1960774 14.4,12 C14.3935064,9.81732513 12.9138001,7.91442282 10.8,7.3704 L10.8,4.8 L8.4,4.8 L8.4,7.3704 C6.28619989,7.91442282 4.80649358,9.81732513 4.8,12 L4.8,18 L2.4,18 L2.4,19.2 C2.4,28.4783838 9.9216162,36 19.2,36 C28.4783838,36 36,28.4783838 36,19.2 L36,18 L31.2,18 Z M24,13.2 C26.6495963,13.2033058 28.7966942,15.3504037 28.8,18 L19.2,18 C19.2033058,15.3504037 21.3504037,13.2033058 24,13.2 L24,13.2 Z M7.2,12 C7.2,10.6745166 8.2745166,9.6 9.6,9.6 C10.9254834,9.6 12,10.6745166 12,12 C12.0047875,14.1379724 12.6446581,16.2263232 13.8384,18 L7.2,18 L7.2,12 Z M19.2,33.6 C11.7157797,33.5907271 5.48258511,27.8573764 4.8492,20.4 L33.552,20.4 C32.9185752,27.8578348 26.6846812,33.5913494 19.2,33.6 Z" id="Shape" stroke="#76A713" stroke-width="1.2" fill="#76A713" fill-rule="nonzero"></path>
                </g>
            </g>
        </g>
    </g>
</svg>