<?xml version="1.0" encoding="UTF-8"?>
<svg width="48px" height="47px" viewBox="0 0 48 47" version="1.1" xmlns="http://www.w3.org/2000/svg" xmlns:xlink="http://www.w3.org/1999/xlink">
    <title>Group 27</title>
    <defs>
        <filter id="filter-1">
            <feColorMatrix in="SourceGraphic" type="matrix" values="0 0 0 0 1.000000 0 0 0 0 1.000000 0 0 0 0 1.000000 0 0 0 1.000000 0"></feColorMatrix>
        </filter>
    </defs>
    <g id="Page-1" stroke="none" stroke-width="1" fill="none" fill-rule="evenodd">
        <g id="home" transform="translate(-1269.000000, -7021.000000)">
            <g id="Group-27" transform="translate(1269.370745, 7021.000000)">
                <path d="M11.7273634,1.77635684e-14 C14.8729843,1.77635684e-14 17.5757751,1.08417032 19.8357358,3.25251095 C21.0878761,3.03873088 22.2942065,2.93184085 23.4547268,2.93184085 C26.2338676,2.93184085 28.8908484,3.47392601 31.4256691,4.55809633 C33.9604899,5.64226664 36.1441005,7.10055207 37.976501,8.9329526 C39.8089016,10.7653531 41.267187,12.9489638 42.3513573,15.4837845 C43.4355276,18.0186052 43.9776128,20.675586 43.9776128,23.4547268 C43.9776128,24.6152472 43.8707228,25.8215775 43.6569427,27.0737179 C45.8252833,29.3336785 46.9094536,32.0364693 46.9094536,35.1820902 C46.9094536,38.4193312 45.7642033,41.183202 43.4737026,43.4737026 C41.183202,45.7642033 38.4193312,46.9094536 35.1820902,46.9094536 C32.0364693,46.9094536 29.3336785,45.8252833 27.0737179,43.6569427 C25.8215775,43.8707228 24.6152472,43.9776128 23.4547268,43.9776128 C20.675586,43.9776128 18.0186052,43.4355276 15.4837845,42.3513573 C12.9489638,41.267187 10.7653531,39.8089016 8.9329526,37.976501 C7.10055207,36.1441005 5.64226664,33.9604899 4.55809633,31.4256691 C3.47392601,28.8908484 2.93184085,26.2338676 2.93184085,23.4547268 C2.93184085,22.2942065 3.03873088,21.0878761 3.25251095,19.8357358 C1.08417032,17.5757751 7.10542736e-15,14.8729843 7.10542736e-15,11.7273634 C7.10542736e-15,8.49012247 1.14525033,5.72625167 3.435751,3.435751 C5.72625167,1.14525033 8.49012247,1.77635684e-14 11.7273634,1.77635684e-14 Z" id="Shape" fill="#F0B015" fill-rule="nonzero"></path>
                <g filter="url(#filter-1)" id="fe:youtube">
                    <g transform="translate(10.419995, 13.362745)">
                        <rect id="ViewBox" x="0" y="0" width="22.1176471" height="22.1176471"></rect>
                        <path d="M10.9989216,12.5591373 L10.9989216,7.37992157 L15.9781569,9.9787451 L10.9989216,12.5591373 L10.9989216,12.5591373 Z M21.9333333,6.48323529 C21.9333333,6.48323529 21.7536275,5.21239216 21.2006863,4.653 C20.5002941,3.91943137 19.7141961,3.9157451 19.3538627,3.87243137 C16.7753137,3.68627451 12.9056471,3.68627451 12.9056471,3.68627451 L12.8982745,3.68627451 C12.8982745,3.68627451 9.02952941,3.68627451 6.45005882,3.87243137 C6.08972549,3.9157451 5.30454902,3.9185098 4.60323529,4.653 C4.05029412,5.21239216 3.87058824,6.48323529 3.87058824,6.48323529 C3.87058824,6.48323529 3.68627451,7.97433333 3.68627451,9.46635294 L3.68627451,10.8643725 C3.68627451,12.3554706 3.87058824,13.8474902 3.87058824,13.8474902 C3.87058824,13.8474902 4.05029412,15.1174118 4.60323529,15.6768039 C5.30362745,16.4112941 6.22519608,16.3873333 6.63529412,16.4647451 C8.10980392,16.6057451 12.9019608,16.6490588 12.9019608,16.6490588 C12.9019608,16.6490588 16.7753137,16.6435294 19.3538627,16.4573725 C19.7141961,16.4140588 20.5002941,16.4112941 21.2006863,15.6768039 C21.7536275,15.1174118 21.9333333,13.8474902 21.9333333,13.8474902 C21.9333333,13.8474902 22.1176471,12.3554706 22.1176471,10.8643725 L22.1176471,9.46635294 C22.1176471,7.97433333 21.9333333,6.48323529 21.9333333,6.48323529 Z" id="Shape" fill="#000000"></path>
                    </g>
                </g>
            </g>
        </g>
    </g>
</svg>