<?xml version="1.0" encoding="UTF-8"?>
<svg width="655px" height="113px" viewBox="0 0 655 113" version="1.1" xmlns="http://www.w3.org/2000/svg" xmlns:xlink="http://www.w3.org/1999/xlink">
    <title>Fill 7@2x</title>
    <g id="Page-1" stroke="none" stroke-width="1" fill="none" fill-rule="evenodd" fill-opacity="0.496394231">
        <g id="shipping-details" transform="translate(-397.000000, 0.000000)" fill="#7CB340">
            <g id="Group-9" transform="translate(387.905611, -110.150193)">
                <path d="M66.6752816,-93.6662958 C38.4372753,-35.0335699 19.8583874,28.6587601 12.0000595,93.7760749 C8.22279156,125.076043 7.69115573,159.614006 25.7457281,184.905336 C34.2628818,196.836597 46.3322046,205.645508 59.3302889,211.742073 C108.478694,234.795097 166.620072,219.31332 214.480107,193.472448 C262.340142,167.631576 305.311141,131.855951 355.483472,111.349932 C378.604598,101.900687 403.723247,95.8069889 428.259933,99.771333 C461.206714,105.096628 489.508773,127.802725 522.140781,134.928605 C571.469449,145.700572 620.419291,119.699139 669.698547,108.68824 C701.67539,101.543246 734.60936,100.721323 767.011695,96.1147321 C877.343972,80.4303417 986.958862,11.5407833 1024.78095,-97.8466336 L66.6752816,-93.6662958 Z" id="Fill-7"></path>
            </g>
        </g>
    </g>
</svg>