<?xml version="1.0" encoding="UTF-8"?>
<svg width="24px" height="24px" viewBox="0 0 24 24" version="1.1" xmlns="http://www.w3.org/2000/svg" xmlns:xlink="http://www.w3.org/1999/xlink">
    <title>bi:arrow-right-circle-fill</title>
    <defs>
        <filter id="filter-1">
            <feColorMatrix in="SourceGraphic" type="matrix" values="0 0 0 0 0.821558 0 0 0 0 0.821558 0 0 0 0 0.821558 0 0 0 1.000000 0"></feColorMatrix>
        </filter>
    </defs>
    <g id="Page-1" stroke="none" stroke-width="1" fill="none" fill-rule="evenodd">
        <g id="bi:arrow-right-circle-fill" transform="translate(-1099.000000, -470.000000)" filter="url(#filter-1)">
            <g transform="translate(1099.639630, 470.500000)">
                <rect id="ViewBox" x="0" y="0" width="23" height="23"></rect>
                <g id="Group" fill="#000000" fill-rule="nonzero">
                    <path d="M11.5,0 C17.8512746,0 23,5.14872538 23,11.5 C23,17.8512746 17.8512746,23 11.5,23 C5.14872538,23 0,17.8512746 0,11.5 C0,5.14872538 5.14872538,0 11.5,0 Z M6.46875,10.78125 C6.07179534,10.78125 5.75,11.1030453 5.75,11.5 C5.75,11.8969547 6.07179534,12.21875 6.46875,12.21875 L14.7961875,12.21875 L11.709875,15.303625 C11.5280715,15.4854285 11.4570691,15.7504129 11.5236138,15.9987612 C11.5901585,16.2471094 11.7841406,16.4410915 12.0324888,16.5076362 C12.2808371,16.5741809 12.5458215,16.5031785 12.727625,16.321375 L17.040125,12.008875 C17.1753099,11.8740314 17.2512848,11.6909392 17.2512848,11.5 C17.2512848,11.3090608 17.1753099,11.1259686 17.040125,10.991125 L12.727625,6.678625 C12.5458215,6.49682147 12.2808371,6.42581911 12.0324888,6.49236382 C11.7841406,6.55890853 11.5901585,6.75289059 11.5236138,7.00123882 C11.4570691,7.24958706 11.5280715,7.51457147 11.709875,7.696375 L14.7961875,10.78125 L6.46875,10.78125 Z" id="Shape"></path>
                </g>
            </g>
        </g>
    </g>
</svg>