<?xml version="1.0" encoding="UTF-8"?>
<svg width="779px" height="166px" viewBox="0 0 779 166" version="1.1" xmlns="http://www.w3.org/2000/svg" xmlns:xlink="http://www.w3.org/1999/xlink">
    <title>Group 12</title>
    <defs>
        <polygon id="path-1" points="0 1.13686838e-13 811.257354 1.13686838e-13 811.257354 215.162339 0 215.162339"></polygon>
    </defs>
    <g id="Page-1" stroke="none" stroke-width="1" fill="none" fill-rule="evenodd">
        <g id="shipping-details" transform="translate(-507.000000, -775.000000)">
            <g id="Group-12" transform="translate(484.116619, 775.695219)">
                <mask id="mask-2" fill="white">
                    <use xlink:href="#path-1"></use>
                </mask>
                <g id="Clip-11"></g>
                <path d="M0,236.941697 C11.7514077,150.020307 75.2183525,88.8361387 140.545568,68.6368767 C205.872784,48.4384859 274.049635,60.0589646 341.03024,65.4592591 C362.094682,67.1565442 383.940772,68.0696628 403.521168,57.7116924 C424.169343,46.7908646 440.20438,24.4072628 460.334515,11.9224581 C483.509489,-2.45044557 510.616058,-2.5846252 535.590407,4.9442461 C560.564755,12.4739887 583.904067,27.1605591 607.005631,41.7382174 C669.821898,81.3717433 732.638165,121.006141 795.453597,160.640538 C801.357247,164.365329 807.755579,168.761019 810.196455,176.754291 C812.368717,183.87104 810.785401,191.906134 809.182899,199.280786 C805.428989,216.556849 801.675912,233.833783 797.922836,251.109846 C655.373061,248.578691 548.46073,246.680325 477.185842,245.414747 C371.144544,243.531847 212.082596,240.707497 0,236.941697 Z" id="Fill-10" fill-opacity="0.5" fill="#7CB340" mask="url(#mask-2)"></path>
            </g>
        </g>
    </g>
</svg>