<?xml version="1.0" encoding="UTF-8"?>
<svg width="336px" height="700px" viewBox="0 0 336 700" version="1.1" xmlns="http://www.w3.org/2000/svg" xmlns:xlink="http://www.w3.org/1999/xlink">
    <title>Fill 4</title>
    <g id="Page-1" stroke="none" stroke-width="1" fill="none" fill-rule="evenodd">
        <g id="shipping-details" transform="translate(0.000000, -241.000000)" fill="#FBDDA2">
            <g id="Group-6" transform="translate(-40.950096, 221.002002)">
                <path d="M-41.3723462,1.60641142 C-13.36317,-4.75056635 34.3682169,8.30145216 52.8508029,31.1834355 C71.3333889,54.0654188 81.0701981,83.098754 89.8334932,111.603212 C98.5976225,140.106799 107.025568,169.356216 123.552784,193.816117 C142.063733,221.210544 169.664984,240.936692 187.501064,268.81556 C224.658936,326.895299 212.270198,407.452741 246.073743,467.726405 C258.799499,490.415832 277.333806,508.794085 293.765923,528.718888 C327.763003,569.939045 353.26123,618.768232 368.034953,670.940583 C380.151741,713.72733 383.100647,765.491914 353.413889,797.576529 L-41.3723462,792.572674 L-41.3723462,1.60641142 Z" id="Fill-4"></path>
            </g>
        </g>
    </g>
</svg>