<?xml version="1.0" encoding="UTF-8"?>
<svg width="31px" height="31px" viewBox="0 0 31 31" version="1.1" xmlns="http://www.w3.org/2000/svg" xmlns:xlink="http://www.w3.org/1999/xlink">
    <!-- Generator: Sketch 58 (84663) - https://sketch.com -->
    <title>ant-design:plus-circle-outlined</title>
    <desc>Created with Sketch.</desc>
    <g id="Page-1" stroke="none" stroke-width="1" fill="none" fill-rule="evenodd">
        <g id="upcoming_box" transform="translate(-771.000000, -348.000000)">
            <g id="ant-design:plus-circle-outlined" transform="translate(769.256794, 345.960773)">
                <rect id="ViewBox" x="0" y="0" width="34.203789" height="34.203789"></rect>
                <path d="M23.2478878,16.0330261 L18.1707629,16.0330261 L18.1707629,10.9559012 C18.1707629,10.8089318 18.0505152,10.6886841 17.9035458,10.6886841 L16.3002432,10.6886841 C16.1532738,10.6886841 16.0330261,10.8089318 16.0330261,10.9559012 L16.0330261,16.0330261 L10.9559012,16.0330261 C10.8089318,16.0330261 10.6886841,16.1532738 10.6886841,16.3002432 L10.6886841,17.9035458 C10.6886841,18.0505152 10.8089318,18.1707629 10.9559012,18.1707629 L16.0330261,18.1707629 L16.0330261,23.2478878 C16.0330261,23.3948573 16.1532738,23.5151049 16.3002432,23.5151049 L17.9035458,23.5151049 C18.0505152,23.5151049 18.1707629,23.3948573 18.1707629,23.2478878 L18.1707629,18.1707629 L23.2478878,18.1707629 C23.3948573,18.1707629 23.5151049,18.0505152 23.5151049,17.9035458 L23.5151049,16.3002432 C23.5151049,16.1532738 23.3948573,16.0330261 23.2478878,16.0330261 Z" id="Path" fill="#000000" fill-rule="nonzero"></path>
                <path d="M17.1018945,2.13773681 C8.83820564,2.13773681 2.13773681,8.83820564 2.13773681,17.1018945 C2.13773681,25.3655834 8.83820564,32.0660522 17.1018945,32.0660522 C25.3655834,32.0660522 32.0660522,25.3655834 32.0660522,17.1018945 C32.0660522,8.83820564 25.3655834,2.13773681 17.1018945,2.13773681 Z M17.1018945,29.5274897 C10.2410954,29.5274897 4.67629928,23.9626936 4.67629928,17.1018945 C4.67629928,10.2410954 10.2410954,4.67629928 17.1018945,4.67629928 C23.9626936,4.67629928 29.5274897,10.2410954 29.5274897,17.1018945 C29.5274897,23.9626936 23.9626936,29.5274897 17.1018945,29.5274897 Z" id="Shape" fill="#000000" fill-rule="nonzero"></path>
            </g>
        </g>
    </g>
</svg>