<?xml version="1.0" encoding="UTF-8"?>
<svg width="16px" height="17px" viewBox="0 0 16 17" version="1.1" xmlns="http://www.w3.org/2000/svg" xmlns:xlink="http://www.w3.org/1999/xlink">
    <!-- Generator: Sketch 58 (84663) - https://sketch.com -->
    <title>Group</title>
    <desc>Created with Sketch.</desc>
    <g id="Page-1" stroke="none" stroke-width="1" fill="none" fill-rule="evenodd">
        <g id="Go-club" transform="translate(-413.000000, -340.000000)" fill="#000000">
            <g id="Group-3" transform="translate(403.619300, 337.112500)">
                <g id="akar-icons:circle-check-fill" transform="translate(0.000000, 3.000000)">
                    <g id="Group" transform="translate(9.700000, 0.700000)">
                        <path d="M7.7,0 C3.4475,0 0,3.4475 0,7.7 C0,11.9525 3.4475,15.4 7.7,15.4 C11.9525,15.4 15.4,11.9525 15.4,7.7 C15.4,3.4475 11.9525,0 7.7,0 Z M11.0376,6.398 C11.2049036,6.20676133 11.2554396,5.93987918 11.169636,5.70071295 C11.0838324,5.46154672 10.8751646,5.28765685 10.6244463,5.24638823 C10.3737281,5.20511961 10.1203341,5.30295338 9.9624,5.502 L6.9524,9.1133 L5.3949,7.5551 C5.12023478,7.28981945 4.68364066,7.29361334 4.413627,7.563627 C4.14361334,7.83364066 4.13981945,8.27023478 4.4051,8.5449 L6.5051,10.6449 C6.64416903,10.7838848 6.8352774,10.857976 7.03168864,10.8490543 C7.22809987,10.8401326 7.41170409,10.7490205 7.5376,10.598 L11.0376,6.398 L11.0376,6.398 Z" id="Shape"></path>
                    </g>
                </g>
            </g>
        </g>
    </g>
</svg>