<?xml version="1.0" encoding="UTF-8"?>
<svg width="31px" height="36px" viewBox="0 0 31 36" version="1.1" xmlns="http://www.w3.org/2000/svg" xmlns:xlink="http://www.w3.org/1999/xlink">
    <title>cheers-in-love</title>
    <g id="Page-1" stroke="none" stroke-width="1" fill="none" fill-rule="evenodd">
        <g id="Dashboard-products" transform="translate(-1320.000000, -371.000000)" fill-rule="nonzero">
            <g id="cheers-in-love" transform="translate(1320.546036, 371.366250)">
                <path d="M25.848,19.512 C24.7596177,21.1664961 22.803171,22.0302575 20.8472703,21.719797 C18.8913696,21.4093366 17.2985574,19.9822008 16.776,18.072 L15.12,11.7864 C17.4096,11.1816 15.4368,11.7072 24.8544,9.18 L26.532,15.4368 C26.896939,16.8305254 26.6479795,18.3137998 25.848,19.512 Z" id="Path" fill="#DAD7E5"></path>
                <path d="M25.848,19.512 C24.4997183,20.3993085 22.8080264,20.5871881 21.2979119,20.0173335 C19.7877974,19.447479 18.6419635,18.188835 18.216,16.632 C17.7912,15.0264 18.0936,16.1568 16.776,11.3544 L24.804,9.1944 L26.4816,15.4512 C26.8569675,16.8333403 26.626581,18.3099084 25.848,19.512 Z" id="Path" fill="#EDEBF2"></path>
                <path d="M22.7448,20.88 C21.6283202,21.1891529 20.4344537,21.036922 19.4312781,20.4574899 C18.4281026,19.8780579 17.6996892,18.9199841 17.4096,17.7984 L16.6248,14.9184 C20.2968,16.2864 21.9312,16.7256 25.848,15.6384 C26.4309787,17.9416728 25.0445873,20.2834198 22.7448,20.88 Z" id="Path" fill="#DB5669"></path>
                <path d="M24.0912,20.2392 C21.4902258,20.7743281 18.9202223,19.199571 18.216,16.6392 L17.8776,15.3648 C20.4191354,16.3907899 23.2405634,16.4901898 25.848,15.6456 C26.2761919,17.393244 25.5763014,19.2232857 24.0912,20.2392 L24.0912,20.2392 Z" id="Path" fill="#F26674"></path>
                <path d="M29.0304,30.42 C29.34,31.572 28.0368,32.9184 26.1504,33.4368 C24.264,33.9552 22.4208,33.4368 22.1112,32.2776 C21.8016,31.1184 23.112,29.7792 25.0344,29.2608 C26.9568,28.7424 28.7208,29.268 29.0304,30.42 Z M15.12,11.7864 L13.4424,18.0504 C12.5857918,20.5636283 9.92626429,21.9812383 7.36226829,21.2912972 C4.79827229,20.6013561 3.20929663,18.040524 3.7296,15.4368 L5.4072,9.18 L15.12,11.7864 Z" id="Shape" fill="#DAD7E5"></path>
                <path d="M15.12,11.7864 L13.4424,18.0504 C13.1059684,19.3002063 12.3016132,20.3726799 11.196,21.0456 C9.55364773,21.196525 7.94136044,20.5343467 6.87918197,19.2726509 C5.8170035,18.0109551 5.4393374,16.3093915 5.868,14.7168 L7.2216,9.6768 L15.12,11.7864 Z" id="Path" fill="#EDEBF2"></path>
                <path d="M7.4952,20.88 C8.6116798,21.1891529 9.8055463,21.036922 10.8087219,20.4574899 C11.8118974,19.8780579 12.5403108,18.9199841 12.8304,17.7984 L13.6152,14.9184 C9.9432,16.2864 8.3088,16.7256 4.392,15.6384 C3.80902128,17.9416728 5.19541269,20.2834198 7.4952,20.88 L7.4952,20.88 Z" id="Path" fill="#DB5669"></path>
                <path d="M13.6152,14.868 L12.8304,17.748 C12.4141818,19.3329291 11.1370537,20.545922 9.5328,20.88 L9.4536,20.88 C7.22136417,20.2827813 5.68120371,18.2440718 5.7168,15.9336 C9.1656,16.6536 11.4192,15.6888 13.6152,14.868 Z" id="Path" fill="#F26674"></path>
                <path d="M1.2096,30.42 C0.9,31.572 2.2032,32.9184 4.1256,33.4368 C6.048,33.9552 7.8552,33.4368 8.1648,32.2776 C8.4744,31.1184 7.2,29.7792 5.2416,29.2608 C3.2832,28.7424 1.5192,29.268 1.2096,30.42 Z" id="Path" fill="#DAD7E5"></path>
                <path d="M18.72,2.88 C18.72,4.0752 18.1008,4.4136 15.12,7.3728 C12.06,4.32 12.1176,4.3848 12.0744,4.32 C11.5070592,3.68569718 11.365036,2.77738692 11.7116726,2.00017478 C12.0583092,1.22296263 12.8289931,0.721719746 13.68,0.72 C14.2108897,0.726462021 14.7218425,0.923178859 15.12,1.2744 C15.517819,0.922621237 16.0289874,0.725821421 16.56,0.72 C17.7529351,0.72 18.72,1.68706494 18.72,2.88 Z" id="Path" fill="#DB5669"></path>
                <path d="M18.72,2.88 C18.72,4.032 18.0936,4.3992 16.1208,6.3792 C13.68,3.924 12.9599466,3.5136 12.9599466,2.3256 C12.9556405,1.71127751 13.218382,1.125364 13.68,0.719967259 C14.2126571,0.71703909 14.7268505,0.915003568 15.12,1.2744 C15.5184931,0.923732647 16.0292327,0.727097911 16.56,0.719967259 C17.7529351,0.719967259 18.72,1.68706494 18.72,2.88 Z" id="Path" fill="#F26674"></path>
                <path d="M25.5168,28.4256 L23.8176,22.0752 C26.5034685,20.9803796 27.9563211,18.0592513 27.2088,15.2568 L25.5312,8.9928 C25.4822753,8.80712099 25.3612093,8.64867681 25.1949099,8.55268286 C25.0286105,8.4566889 24.8308564,8.43109875 24.6456,8.4816 L15.12,11.0376 L5.5944,8.4816 C5.40914356,8.43109875 5.21138949,8.4566889 5.0450901,8.55268286 C4.87879072,8.64867681 4.75772475,8.80712099 4.7088,8.9928 C3.024,15.2856 2.1024,17.0136 3.6,19.6272 C4.24083994,20.7329152 5.23121041,21.5941069 6.4152,22.0752 L4.7232,28.4184 C-0.3888,27.6264 -1.2528,32.7384 3.9384,34.128 C9.1296,35.5176 10.9368,30.6576 6.0984,28.7928 L7.7976,22.4496 C9.06540342,22.628367 10.3564607,22.3747212 11.4624,21.7296 C14.0328,20.2536 14.2128,17.9856 15.1056,14.6592 C15.9696,17.8704 16.1784,20.2464 18.7488,21.7296 C19.8549402,22.3741889 21.145812,22.6277983 22.4136,22.4496 L24.1272,28.8 C19.3248,30.6576 21.0888,35.532 26.2872,34.1352 C31.4856,32.7384 30.6288,27.6336 25.5168,28.4256 Z M24.3216,10.08 L25.632,14.9472 C21.6504,16.0128 20.0664,15.4008 16.4448,14.04 L15.9768,12.312 L24.3216,10.08 Z M5.9184,10.08 L14.2632,12.312 L13.7952,14.04 C10.08,15.408 8.64,16.0056 4.608,14.9328 L5.9184,10.08 Z M7.4664,32.1048 C7.0416,33.6888 1.9008,32.8248 1.9008,30.6144 C2.0664,29.9952 3.1176,29.8008 3.7728,29.8008 C6.0984,29.7864 7.6752,31.3128 7.4664,32.0904 L7.4664,32.1048 Z M12.7728,17.8776 C12.1500248,19.9980241 10.0273426,21.3065054 7.85317981,20.910193 C5.67901705,20.5138805 4.15454611,18.5405859 4.32,16.3368 C8.0208,17.3304 10.08,16.9776 13.3632,15.7392 L12.7728,17.8776 Z M19.4832,20.4984 C17.6328,19.4328 17.4672,17.8704 16.8984,15.7536 C20.1528,16.9704 22.1688,17.3592 25.9416,16.3512 C26.0868824,17.9570339 25.3257809,19.5101272 23.9676538,20.3792074 C22.6095267,21.2482876 20.8804398,21.2886929 19.4832,20.484 L19.4832,20.4984 Z M27.8928,31.68 C26.352,33.2784 23.076,33.2352 22.7736,32.112 C22.5432,31.2624 24.2856,29.8008 26.4672,29.8008 C28.0224,29.7864 28.98,30.5424 27.8928,31.68 Z M11.6424,4.9176 C14.904,8.172 14.7168,8.0928 15.12,8.0928 C15.5232,8.0928 15.372,8.136 18.5976,4.9176 C19.1336037,4.37439632 19.435933,3.64312097 19.44,2.88 C19.4389458,1.85160269 18.8896044,0.901803047 17.9987222,0.388060945 C17.1078399,-0.125681157 16.0106184,-0.125399467 15.12,0.3888 C14.2293816,-0.125399467 13.1321601,-0.125681157 12.2412778,0.388060945 C11.3503956,0.901803047 10.8010542,1.85160269 10.8,2.88 C10.8048294,3.64296727 11.1070447,4.37396678 11.6424,4.9176 Z M14.6304,1.8072 C14.9137843,2.04418363 15.3262157,2.04418363 15.6096,1.8072 C16.0332431,1.43500262 16.6351553,1.34434238 17.1496367,1.57523913 C17.664118,1.80613587 17.9964764,2.31609226 18,2.88 C18,3.672 17.6688,3.8088 15.12,6.3576 C12.7944,4.0464 12.24,3.7224 12.24,2.88 C12.2435236,2.31609226 12.575882,1.80613587 13.0903633,1.57523913 C13.6048447,1.34434238 14.2067569,1.43500262 14.6304,1.8072 Z" id="Shape" fill="#000000"></path>
            </g>
        </g>
    </g>
</svg>