<?xml version="1.0" encoding="UTF-8"?>
<svg width="29px" height="27px" viewBox="0 0 29 27" version="1.1" xmlns="http://www.w3.org/2000/svg" xmlns:xlink="http://www.w3.org/1999/xlink">
    <title>cherry</title>
    <g id="Page-1" stroke="none" stroke-width="1" fill="none" fill-rule="evenodd">
        <g id="Dashboard-products" transform="translate(-307.000000, -376.000000)" fill-rule="nonzero">
            <g id="cherry" transform="translate(307.974768, 376.533125)">
                <path d="M5.06275976,6.23453318 C6.10473959,4.8830156 6.53183277,3.15630698 6.24003587,1.47488606 C4.56002201,1.44707215 2.88509115,2.19582209 1.74487553,3.66346414 C0.702894269,5.01498126 0.275800252,6.74169038 0.567597312,8.42311178 C2.24761329,8.4509257 3.92254362,7.70217523 5.06275976,6.23453318 Z" id="Path" fill="#37B678"></path>
                <path d="M7.15153536,25.56864 L6.28570755,25.56864 C3.32808996,25.56864 0.930466921,23.0271967 0.930466921,19.892164 L0.930466921,19.8921544 C0.924107881,19.4788052 0.920297226,16.4032142 3.02849704,14.8772751 C3.03320556,14.873867 3.03791619,14.8704727 3.04262895,14.8670921 C3.66680249,14.4212316 4.49224182,14.3756746 5.16169,14.7501388 C5.59194896,14.9902078 6.08281165,15.0997728 6.57431735,15.0654502 C6.98643639,15.032923 7.38457509,14.9012057 7.73477962,14.6815311 C8.28314494,14.3400222 8.96476605,14.2913001 9.55613003,14.5513414 C9.76173813,14.641282 9.95971596,14.7477441 10.148118,14.8696813 C12.4317552,16.347528 12.5041237,19.5643613 12.5067739,19.8921523 L12.5067739,19.8921629 C12.5067739,23.0271967 10.1091519,25.56864 7.15153536,25.56864 Z M22.625238,22.7774984 L21.7813404,22.9711359 C18.8986366,23.6325905 15.9933634,21.6917336 15.2922316,18.6361105 L15.2922316,18.6361015 C15.1935923,18.2346436 14.5020377,15.2378077 16.2155711,13.2790342 C16.2193982,13.2746596 16.2232312,13.2702976 16.2270703,13.2659484 C16.7357203,12.6917887 17.5300634,12.4627815 18.2663016,12.678043 C18.7393525,12.8158062 19.2422856,12.8128175 19.7136657,12.6694418 C20.1080716,12.5455705 20.4666679,12.3281479 20.7588731,12.0357163 C21.2169716,11.5802198 21.8704301,11.3802912 22.5049711,11.5014897 C22.7254861,11.5431691 22.9422591,11.6026579 23.1531597,11.6793716 C25.7094641,12.6090633 26.4994286,15.7282317 26.57532,16.0471275 L26.57532,16.0471376 C27.2764545,19.1027581 25.5079414,22.1160443 22.625238,22.7774984 Z" id="Shape" fill="#E5303E"></path>
                <path d="M27.0189335,15.8861113 C26.9296908,15.5148568 26.0674839,12.2299739 23.3104511,11.2373055 C23.0772904,11.1534789 22.837806,11.088412 22.5942828,11.0427257 C21.8270387,10.8989699 21.0378729,11.1380987 20.4794674,11.6835458 C20.3826505,11.7785471 20.2776658,11.8648492 20.1657267,11.9414547 C19.6749678,9.99240892 18.6487247,7.34088637 16.50336,4.9205446 C14.4069965,2.55594459 11.6228111,0.875441088 8.44654485,0.0548154547 C8.39106172,0.0227434498 8.32861297,0.00464155998 8.2645788,0.0020693376 C7.78879102,-0.0167974742 7.31698143,0.0955802906 6.90078516,0.326903939 C6.571058,0.511090517 6.28415707,0.763132745 6.0590295,1.06638557 C4.24449598,1.10080017 2.56174456,1.94558008 1.4154921,3.40628867 C0.296306852,4.84251591 -0.164252088,6.68461946 0.147332068,8.47856473 C0.179680616,8.66688372 0.341455822,8.8055327 0.532507069,8.80867787 C0.565962685,8.809247 0.599375908,8.80952309 0.632746737,8.80950613 C2.49145174,8.80950613 4.221454,7.9598748 5.39214267,6.4680774 C6.47691783,5.07635064 6.94435013,3.30106192 6.68559843,1.55558546 C6.84512535,1.3362723 7.05028084,1.15413133 7.28694317,1.02170007 C7.45935754,0.925688651 7.6464582,0.858840641 7.84067777,0.823859735 C7.79366277,3.4784711 7.59588875,6.12826849 7.24831147,8.76044667 C6.98709694,10.7363594 6.63783939,12.7153758 6.2067039,14.6663378 C5.90079791,14.6386806 5.60390615,14.548114 5.33464847,14.4003179 C4.52504514,13.9536142 3.53136629,14.0088481 2.77625777,14.5425267 L2.75982707,14.5542221 C0.534240968,16.1490534 0.4654653,19.27584 0.474728832,19.8952873 C0.476306934,23.2430469 3.0805479,25.96608 6.2813373,25.96608 L7.15588653,25.96608 C10.3576849,25.96608 12.962521,23.2413373 12.962521,19.8889225 C12.9594162,19.5071628 12.8610413,16.1136563 10.3970664,14.5350225 C10.1886036,14.4015898 9.96977601,14.2850894 9.74268783,14.1866415 C9.02600787,13.8767529 8.20336632,13.9349374 7.537439,14.342616 C7.38161871,14.4385115 7.21488026,14.5154113 7.04078155,14.5716744 C7.45012408,12.6847274 7.78400866,10.7733139 8.03633537,8.86472327 C8.38397573,6.23269362 8.58352219,3.58321695 8.63403213,0.928808801 C11.5287233,1.74778479 13.9743152,3.26611688 15.908546,5.4478256 C17.9966746,7.80360192 18.9718291,10.3941037 19.426705,12.2630356 C19.069063,12.3410646 18.6976058,12.3286515 18.3459708,12.2269205 C17.4576403,11.9703206 16.5008237,12.2447367 15.8835248,12.9331528 L15.8705614,12.9477982 C14.0609158,14.9957525 14.700392,18.0593535 14.8492995,18.6608429 C15.5067315,21.4913608 17.9675216,23.4292952 20.6450409,23.4292952 C21.0600043,23.4292169 21.4736554,23.3826973 21.8782708,23.2906051 L22.7306709,23.0969564 C24.198298,22.7614835 25.4699337,21.8511297 26.2605385,20.5699523 C27.1286185,19.1848633 27.3982095,17.5225499 27.0189335,15.8861113 Z M4.76679626,5.97738367 C3.8012444,7.20779167 2.40055297,7.93612113 0.883270656,8.0086232 C0.716394988,6.53941846 1.13196568,5.06332628 2.04083903,3.89698187 C2.86849435,2.8263041 4.07753477,2.11647552 5.41581208,1.91553256 L3.0040105,5.031601 C2.86985333,5.20519467 2.90172593,5.45465919 3.07521919,5.58894619 C3.24871245,5.72323319 3.49820074,5.69154722 3.6326175,5.51815447 L5.95920688,2.51217797 C5.95896674,3.76784682 5.53928815,4.98745406 4.76679626,5.97738367 L4.76679626,5.97738367 Z M7.9525778,15.0204372 C8.39770516,14.7479208 8.94757523,14.7089657 9.4266764,14.9160059 C9.61462857,14.9974814 9.79573961,15.093908 9.96826577,15.2043571 C12.079873,16.5572057 12.1648981,19.5577225 12.167641,19.8921825 C12.167641,22.8030167 9.91938807,25.1712 7.15588653,25.1712 L6.2813373,25.1712 C3.5178612,25.1712 1.2696083,22.8030167 1.2696083,19.8921306 C1.2696083,19.8900607 1.26958234,19.8879909 1.26955531,19.8859205 C1.26109408,19.3432702 1.31550944,16.5670893 3.22614501,15.1979917 L3.23571855,15.1911605 C3.50604363,14.9988939 3.82964505,14.895809 4.16137061,14.8962891 C4.4395082,14.8970936 4.71307486,14.9670924 4.95741644,15.0999771 C5.28975571,15.2817962 5.65322448,15.399725 6.0290037,15.4476576 C5.95468737,15.7664247 5.87819218,16.0842645 5.79951814,16.4011771 C5.56665888,16.3518869 5.34128941,16.2721999 5.12920166,16.1641641 C4.93376657,16.0642601 4.69434695,16.1417033 4.59444296,16.3371384 C4.49453898,16.5325735 4.57198224,16.7719931 4.76741733,16.8718971 C5.25554362,17.1217247 5.79584512,17.2525398 6.34418793,17.2536568 C6.36395395,17.2536568 6.38377667,17.2535015 6.40354533,17.2531391 C6.93081489,17.2423901 7.44875728,17.1120307 7.91829357,16.8718966 C8.04486329,16.807333 8.12733917,16.6801131 8.13461799,16.5382139 C8.14189681,16.3963148 8.07287123,16.2613235 7.95357213,16.1841479 C7.83427302,16.1069722 7.68284936,16.099353 7.5564059,16.1641635 C7.26014645,16.3152308 6.93848405,16.4101566 6.60767316,16.4441441 C6.69039226,16.1077304 6.77071153,15.7702903 6.84863097,15.4318236 C7.24011505,15.3687364 7.6152794,15.2289313 7.9525778,15.0204377 L7.9525778,15.0204372 Z M25.5870113,20.1478271 C24.9082145,21.2494416 23.8157833,22.0326259 22.5545647,22.3218445 L21.7021646,22.5154932 C19.0080852,23.1277474 16.2807571,21.3164962 15.6229112,18.4782685 C15.6224454,18.4762501 15.6219796,18.4742835 15.6214878,18.4722656 C15.4906898,17.9452951 14.9167048,15.2276439 16.467264,13.4729049 L16.4767082,13.4622959 C16.7815569,13.1212656 17.2180826,12.9274341 17.675497,12.929995 C17.8303109,12.93017 17.984386,12.9513388 18.1335105,12.992923 C18.6096161,13.1297218 19.1122894,13.145835 19.5961788,13.0398087 C19.6575281,13.35703 19.7087703,13.6733906 19.7511804,13.9938847 C19.4513946,14.0189605 19.1495256,13.9941062 18.8578783,13.9203349 C18.7202205,13.8853173 18.5743389,13.9264262 18.475219,14.0281669 C18.3760992,14.1299076 18.3388106,14.2768121 18.377408,14.4135094 C18.4160055,14.5502067 18.5246209,14.6559142 18.6623151,14.6907888 C18.9440126,14.7622743 19.2335071,14.7984492 19.5241335,14.7984807 C19.7764938,14.79852 20.0280906,14.7707614 20.2743725,14.7157072 C20.2753687,14.7155 20.2763486,14.7152414 20.27734,14.7150215 C20.2991659,14.7101182 20.3210203,14.7053441 20.3427391,14.7000009 C20.8541167,14.5729444 21.3298258,14.3310502 21.7337531,13.9926817 C21.9014365,13.8515571 21.9232343,13.6013273 21.7824785,13.4333341 C21.6417227,13.265341 21.3915413,13.2429934 21.2232393,13.3833797 C21.0141235,13.5580201 20.7796378,13.6998051 20.5278422,13.8038612 C20.479611,13.4528734 20.4206394,13.1062321 20.3504399,12.7577154 C20.6013412,12.6219466 20.8319203,12.4515956 21.0354145,12.2516587 C21.4084746,11.8875191 21.9355455,11.7279591 22.4479305,11.8240483 C22.6496744,11.8618558 22.84807,11.915744 23.0412184,11.9851969 C25.406245,12.8367434 26.1670734,15.7432836 26.2453198,16.0687896 C26.5757726,17.4945531 26.341966,18.9431912 25.5870113,20.1478276 L25.5870113,20.1478271 Z" id="Shape" fill="#000000"></path>
            </g>
        </g>
    </g>
</svg>