<?xml version="1.0" encoding="UTF-8"?>
<svg width="47px" height="47px" viewBox="0 0 47 47" version="1.1" xmlns="http://www.w3.org/2000/svg" xmlns:xlink="http://www.w3.org/1999/xlink">
    <!-- Generator: Sketch 58 (84663) - https://sketch.com -->
    <title>Group 2</title>
    <desc>Created with Sketch.</desc>
    <g id="Page-1" stroke="none" stroke-width="1" fill="none" fill-rule="evenodd">
        <g id="add-money" transform="translate(-999.000000, -57.000000)">
            <g id="Group-2" transform="translate(999.500000, 57.815955)">
                <g id="whh:skypebusy" fill="#F0B015" fill-rule="nonzero">
                    <path d="M11.5035088,0 C14.5807312,0 17.2247524,1.06059607 19.4355724,3.18178821 C20.6604861,2.97265659 21.840586,2.86809078 22.9758719,2.86809078 C25.694583,2.86809078 28.2937902,3.39838882 30.7734937,4.45898489 C33.2531972,5.51958096 35.3893273,6.94615736 37.1818841,8.7387141 C38.9744408,10.5312708 40.4010172,12.6674009 41.4616133,15.1471044 C42.5222093,17.6268079 43.0525074,20.2260152 43.0525074,22.9447262 C43.0525074,24.0800122 42.9479416,25.260112 42.73881,26.4850258 C44.8600021,28.6958458 45.9205982,31.339867 45.9205982,34.4170894 C45.9205982,37.5839396 44.8002502,40.2877127 42.5595543,42.5284086 C40.3188584,44.7691045 37.6150853,45.8894525 34.448235,45.8894525 C31.3710126,45.8894525 28.7269915,44.8288564 26.5161715,42.7076643 C25.2912577,42.9167959 24.1111579,43.0213617 22.9758719,43.0213617 C20.2571609,43.0213617 17.6579536,42.4910637 15.1782501,41.4304676 C12.6985466,40.3698715 10.5624165,38.9432951 8.76985977,37.1507384 C6.97730303,35.3581817 5.55072663,33.2220515 4.49013056,30.7423481 C3.42953449,28.2626446 2.89923645,25.6634373 2.89923645,22.9447262 C2.89923645,21.8094403 3.00380226,20.6293405 3.21293388,19.4044267 C1.09174174,17.1936067 0.0311456733,14.5495855 0.0311456733,11.4723631 C0.0311456733,8.30551289 1.15149363,5.60173981 3.39218956,3.36104388 C5.63288548,1.12034796 8.33665856,0 11.5035088,0 Z" id="Shape"></path>
                </g>
                <g id="ic:outline-cancel" transform="translate(10.990080, 10.872852)">
                    <rect id="ViewBox" x="0" y="0" width="23.7385728" height="23.7385728"></rect>
                    <path d="M11.8692864,1.9782144 C6.39952358,1.9782144 1.9782144,6.39952358 1.9782144,11.8692864 C1.9782144,17.3390492 6.39952358,21.7603584 11.8692864,21.7603584 C17.3390492,21.7603584 21.7603584,17.3390492 21.7603584,11.8692864 C21.7603584,6.39952358 17.3390492,1.9782144 11.8692864,1.9782144 Z M11.8692864,19.782144 C7.50732365,19.782144 3.9564288,16.2312492 3.9564288,11.8692864 C3.9564288,7.50732365 7.50732365,3.9564288 11.8692864,3.9564288 C16.2312492,3.9564288 19.782144,7.50732365 19.782144,11.8692864 C19.782144,16.2312492 16.2312492,19.782144 11.8692864,19.782144 Z M15.4201812,6.9237504 L11.8692864,10.4746452 L8.31839155,6.9237504 L6.9237504,8.31839155 L10.4746452,11.8692864 L6.9237504,15.4201812 L8.31839155,16.8148224 L11.8692864,13.2639276 L15.4201812,16.8148224 L16.8148224,15.4201812 L13.2639276,11.8692864 L16.8148224,8.31839155 L15.4201812,6.9237504 Z" id="Shape" fill="#000000" fill-rule="nonzero"></path>
                </g>
            </g>
        </g>
    </g>
</svg>