<?xml version="1.0" encoding="UTF-8"?>
<svg width="76px" height="76px" viewBox="0 0 76 76" version="1.1" xmlns="http://www.w3.org/2000/svg" xmlns:xlink="http://www.w3.org/1999/xlink">
    <!-- Generator: Sketch 58 (84663) - https://sketch.com -->
    <title>Group 8</title>
    <desc>Created with Sketch.</desc>
    <g id="Page-1" stroke="none" stroke-width="1" fill="none" fill-rule="evenodd">
        <g id="Referrals" transform="translate(-1046.000000, -560.000000)">
            <g id="Group-8" transform="translate(1046.128221, 560.912500)">
                <circle id="Oval" fill="#358EF6" cx="37.44375" cy="37.44375" r="37.44375"></circle>
                <g id="bx:bxl-facebook" transform="translate(19.943750, 19.387500)">
                    <rect id="ViewBox" x="0" y="0" width="34.56" height="34.56"></rect>
                    <path d="M19.29168,30.23568 L19.29168,18.43344 L23.27328,18.43344 L23.86512,13.81248 L19.29168,13.81248 L19.29168,10.86912 C19.29168,9.53568 19.6632,8.62272 21.57696,8.62272 L24.00192,8.62272 L24.00192,4.50288 C22.8220402,4.376435 21.6360669,4.31538166 20.44944,4.3197564 C16.93008,4.3197564 14.51376,6.46848 14.51376,10.41264 L14.51376,13.80384 L10.55808,13.80384 L10.55808,18.4248 L14.5224,18.4248 L14.5224,30.23568 L19.29168,30.23568 Z" id="Path" fill="#000000" fill-rule="nonzero"></path>
                </g>
            </g>
        </g>
    </g>
</svg>