<?xml version="1.0" encoding="UTF-8"?>
<svg width="77px" height="77px" viewBox="0 0 77 77" version="1.1" xmlns="http://www.w3.org/2000/svg" xmlns:xlink="http://www.w3.org/1999/xlink">
    <!-- Generator: Sketch 58 (84663) - https://sketch.com -->
    <title>Group 13</title>
    <desc>Created with Sketch.</desc>
    <g id="Page-1" stroke="none" stroke-width="1" fill="none" fill-rule="evenodd">
        <g id="Dashboard-Fridge" transform="translate(-690.000000, -165.000000)">
            <g id="Group-13" transform="translate(690.833896, 165.293524)">
                <circle id="Oval" fill="#F8F8F8" cx="38" cy="38" r="38"></circle>
                <g id="spaghetti" transform="translate(17.000000, 20.000000)" fill-rule="nonzero">
                    <path d="M41.329592,30.823553 C41.329592,30.823553 36.849447,32.747775 35.508493,33.65335 C33.057465,35.308582 27.930745,35.52 20.72,35.52 C13.509255,35.52 8.382535,35.308582 5.931507,33.65335 C4.590553,32.747775 0.110408,30.823553 0.110408,30.823553 L41.329592,30.823553 Z" id="Path" fill="#B0C4CC"></path>
                    <path d="M30.788218,28.707597 C37.142006,29.055212 41.44,29.721619 41.44,30.486631 C41.44,31.610543 32.163323,32.521631 20.72,32.521631 C9.276677,32.521631 0,31.610543 0,30.486631 C0,29.864661 2.841045,29.307848 7.318119,28.934592 L30.788218,28.707597 Z" id="Path" fill="#DCE2E1"></path>
                    <path d="M17.573853,27.435167 C19.184167,26.339005 22.023917,24.899076 25.223862,25.505025 C28.375818,26.101946 31.453885,29.342517 32.678622,30.769496 L17.573853,27.435167 Z" id="Path" fill="#ED931B"></path>
                    <path d="M28.994199,29.187043 C27.746781,28.143162 26.305927,27.216349 24.948545,26.95931 C23.5764738,26.7204122 22.1651943,26.8613227 20.867445,27.366791 C23.068871,28.940475 25.835361,29.437533 28.994199,29.187043 Z" id="Path" fill="#FFBB24"></path>
                    <path d="M16.1283,27.377521 C17.3270493,26.8649829 18.6251665,26.6267459 19.927793,26.680219 C21.901521,26.774865 23.986693,27.866772 25.626829,28.982026 C21.311001,31.494141 18.000019,31.342959 16.1283,27.377521 Z" id="Path" fill="#FFBB24"></path>
                    <path d="M24.137098,29.7813 C22.765767,28.930522 21.225198,28.224414 19.857086,28.158813 C18.6679189,28.1130125 17.4852199,28.3543776 16.409093,28.862479 C18.761257,31.596187 21.344301,31.826068 24.137098,29.7813 Z" id="Path" fill="#ED931B"></path>
                    <path d="M22.099545,30.338002 C21.3816131,29.9553591 20.5956199,29.7171992 19.786046,29.637 C19.6713953,29.631302 19.5588537,29.629378 19.448421,29.631228 C18.6954984,29.6496574 17.952905,29.8107413 17.260019,30.105938 C19.19227,32.202765 20.8532,32.582533 22.099545,30.338002 Z" id="Path" fill="#FFBB24"></path>
                    <path d="M17.39,27.372859 C16.5945,27.542578 18.366578,27.255643 18.916953,26.298416 C19.1935752,25.7459244 19.3063734,25.12583 19.242035,24.511316 C18.6413459,24.6559923 18.0945829,24.9694939 17.666279,25.414819 C16.884395,26.327572 17.334574,28.339114 17.124636,26.936259 L17.39,27.372859 Z" id="Path" fill="#17AF54"></path>
                    <path d="M11.47,7.77 L11.47,8.88 L21.291132,9.581483 C21.6484897,9.60703905 22.0076647,9.58052905 22.357398,9.502784 L24.001049,9.13752 C24.6782013,8.98704569 25.1599908,8.38645074 25.16,7.692781 L25.16,7.215 L41.44,7.585 L41.44,4.255 L25.16,4.625 L25.16,4.147219 C25.1600081,3.4535354 24.6782148,2.85292031 24.001049,2.702443 L22.357398,2.337179 C22.0076593,2.2594708 21.6484897,2.2329612 21.291132,2.25848 L11.47,2.96 L11.47,4.07 L21.0641,3.727343 C21.3281395,3.71791136 21.5771537,3.85005954 21.7173415,4.07400861 C21.8575292,4.29795767 21.8675927,4.57968442 21.743741,4.81306512 C21.6198893,5.04644581 21.3809385,5.19602437 21.116899,5.205456 L11.47,5.55 L11.47,6.29 L21.116862,6.634544 C21.3818738,6.64260398 21.622292,6.7919184 21.7469954,7.02589552 C21.8716988,7.25987265 21.8616027,7.54270429 21.7205337,7.7671943 C21.5794646,7.9916843 21.329012,8.1234764 21.0641,8.11262 L11.47,7.77 Z" id="Path" fill="#B0C4CC"></path>
                    <polyline id="Path" fill="#FFBB24" points="14.43 10.05623 14.43 29.50269 15.91 29.22556 15.91 9.59114"></polyline>
                    <polygon id="Path" fill="#ED931B" points="15.91 29.22556 15.91 10.05623 17.39 9.69955 17.39 30.25046"></polygon>
                    <rect id="Rectangle" fill="#FFBB24" x="13.69" y="1.11" width="1.48" height="9.62" rx="0.74"></rect>
                    <rect id="Rectangle" fill="#ED931B" x="15.17" y="0" width="1.48" height="11.84" rx="0.74"></rect>
                    <rect id="Rectangle" fill="#FFBB24" x="16.65" y="0.74" width="1.48" height="10.36" rx="0.74"></rect>
                    <rect id="Rectangle" fill="#ED931B" x="18.13" y="1.11" width="1.48" height="9.62" rx="0.74"></rect>
                    <path d="M35.0723,31.9569 C34.3286,32.0272 33.5331,32.0901 32.6932,32.1456 C31.7978,32.2122 30.8543,32.2689333 29.8627,32.3158 C27.8499,32.412 25.6558,32.4786 23.3396,32.5082 C22.5737,32.5156 21.793,32.523 21.0012,32.523 L20.5017,32.523 C20.1879176,32.3149603 19.8864772,32.0888799 19.5989,31.8459 C20.9018888,30.4116375 22.5634189,29.3503528 24.4126,28.7712 C24.9686724,28.6093244 25.540515,28.5076084 26.1183,28.4678 C26.9557434,28.4246047 27.7947736,28.5132523 28.6047,28.7305 C31.4389,29.4372 34.1806,31.3094 35.0723,31.9569 Z" id="Path" fill="#ED931B"></path>
                    <path d="M32.6932,32.1456 C31.7978,32.2122 30.8543,32.2689333 29.8627,32.3158 C27.8499,32.412 25.6558,32.4786 23.3396,32.5082 C22.5737,32.5156 21.793,32.523 21.0012,32.523 C22.1778,31.3686 23.9649,30.0958 26.2219,29.9441 C28.2717,29.7998 30.8765,31.0467 32.6932,32.1456 Z" id="Path" fill="#FFBB24"></path>
                    <path d="M29.8627,32.3158 C27.8499,32.412 25.6558,32.4786 23.3396,32.5082 C24.1296824,31.9573869 25.0363131,31.5965073 25.9888,31.4537 C26.0998,31.4389 26.2108,31.4278 26.3255,31.4204 C27.3393,31.3501 28.6269,31.7534 29.8627,32.3158 Z" id="Path" fill="#ED931B"></path>
                    <g id="Group" transform="translate(4.070000, 27.380000)">
                        <path d="M17.3641,5.1393 C17.1273,5.143 16.8905,5.143 16.65,5.143 C16.1542,5.143 15.6584,5.143 15.17,5.1356 C14.3412,5.1319 13.5272,5.12203333 12.728,5.106 C9.4979,5.0468 6.5305,4.9099 4.0219,4.7212 C3.2856,4.6657 2.59,4.6028 1.9388,4.5436 C1.2802,4.477 0.6697,4.4067 0.1036,4.3327 C1.06863443,3.22543895 2.21005108,2.28530169 3.4817,1.5503 C5.0478985,0.611350178 6.85596523,0.154507695 8.6802,0.2368 C10.017598,0.376202652 11.3108626,0.794685946 12.4764,1.4652 C14.2606581,2.46880007 15.9041743,3.70423653 17.3641,5.1393 L17.3641,5.1393 Z" id="Path" fill="#ED931B"></path>
                        <path d="M15.17,5.1356 C14.3412,5.1319 13.5272,5.12203333 12.728,5.106 C9.4979,5.0468 6.5305,4.9099 4.0219,4.7212 C3.2856,4.6657 2.59,4.6028 1.9388,4.5436 C3.0895,3.441 5.5463,1.5207 8.5877,1.7168 C10.8373,1.8574 13.5309,3.7407 15.17,5.1356 Z" id="Path" fill="#FFBB24"></path>
                        <path d="M12.728,5.106 C9.4979,5.0468 6.5305,4.9099 4.0219,4.7212 C5.0579,3.9553 6.512,3.182 8.1548,3.182 C8.2658,3.182 8.3805,3.1857 8.4952,3.1931 C9.7643,3.2708 11.359,4.1403 12.728,5.106 Z" id="Path" fill="#ED931B"></path>
                    </g>
                </g>
            </g>
        </g>
    </g>
</svg>