<?xml version="1.0" encoding="UTF-8"?>
<svg width="77px" height="77px" viewBox="0 0 77 77" version="1.1" xmlns="http://www.w3.org/2000/svg" xmlns:xlink="http://www.w3.org/1999/xlink">
    <!-- Generator: Sketch 58 (84663) - https://sketch.com -->
    <title>Group 17</title>
    <desc>Created with Sketch.</desc>
    <g id="Page-1" stroke="none" stroke-width="1" fill="none" fill-rule="evenodd">
        <g id="Dashboard-Fridge" transform="translate(-1240.000000, -165.000000)">
            <g id="Group-17" transform="translate(1240.660545, 165.293524)">
                <circle id="Oval" fill="#F8F8F8" cx="38" cy="38" r="38"></circle>
                <g id="sushi" transform="translate(19.000000, 22.500000)" fill-rule="nonzero">
                    <path d="M10.382295,27.045711 L10.382295,28.672028 C10.382295,29.52257 9.692837,30.212028 8.842295,30.212028 L6.493641,30.212028 C5.643099,30.212028 4.953641,29.52257 4.953641,28.672028 L4.953641,27.045711 L10.382295,27.045711 Z" id="Path" fill="#F8CC00"></path>
                    <path d="M8.842295,30.366028 L6.493641,30.366028 C5.559554,30.366028 4.799641,29.606115 4.799641,28.672028 L4.799641,27.045711 C4.799641,26.960703 4.868633,26.891711 4.953641,26.891711 L10.382295,26.891711 C10.467303,26.891711 10.536295,26.960703 10.536295,27.045711 L10.536295,28.672028 C10.536295,29.606115 9.776382,30.366028 8.842295,30.366028 Z M5.107641,27.199711 L5.107641,28.672028 C5.107641,29.436253 5.729416,30.058028 6.493641,30.058028 L8.842295,30.058028 C9.60652,30.058028 10.228295,29.436253 10.228295,28.672028 L10.228295,27.199711 L5.107641,27.199711 Z M32.797072,27.045711 L32.797072,28.672028 C32.797072,29.52257 32.107614,30.212028 31.257072,30.212028 L28.908418,30.212028 C28.057876,30.212028 27.368418,29.52257 27.368418,28.672028 L27.368418,27.045711 L32.797072,27.045711 Z" id="Shape" fill="#F8CC00"></path>
                    <path d="M31.257072,30.366028 L28.908418,30.366028 C27.974331,30.366028 27.214418,29.606115 27.214418,28.672028 L27.214418,27.045711 C27.214418,26.960703 27.28341,26.891711 27.368418,26.891711 L32.797072,26.891711 C32.88208,26.891711 32.951072,26.960703 32.951072,27.045711 L32.951072,28.672028 C32.951072,29.606115 32.191159,30.366028 31.257072,30.366028 Z M27.522418,27.199711 L27.522418,28.672028 C27.522418,29.436253 28.144193,30.058028 28.908418,30.058028 L31.257072,30.058028 C32.021297,30.058028 32.643072,29.436253 32.643072,28.672028 L32.643072,27.199711 L27.522418,27.199711 Z" id="Shape" fill="#F8CC00"></path>
                    <path d="M37.524949,25.505711 C37.524949,26.356253 36.835491,27.045711 35.984949,27.045711 L1.719949,27.045711 C0.869407,27.045711 0.179949,26.356253 0.179949,25.505711 L0.179949,24.387594 C0.179949,23.537052 0.869407,22.847594 1.719949,22.847594 L35.984949,22.847594 C36.835491,22.847594 37.524949,23.537052 37.524949,24.387594 L37.524949,25.505711 Z" id="Path" fill="#FF0000"></path>
                    <path d="M35.984949,27.199711 L1.719949,27.199711 C0.785862,27.199711 0.025949,26.439798 0.025949,25.505711 L0.025949,24.387594 C0.025949,23.453507 0.785862,22.693594 1.719949,22.693594 L35.984949,22.693594 C36.919036,22.693594 37.678949,23.453507 37.678949,24.387594 L37.678949,25.505711 C37.678949,26.439798 36.919036,27.199711 35.984949,27.199711 Z M1.719949,23.001594 C0.955724,23.001594 0.333949,23.623369 0.333949,24.387594 L0.333949,25.505711 C0.333949,26.269936 0.955724,26.891711 1.719949,26.891711 L35.984949,26.891711 C36.749174,26.891711 37.370949,26.269936 37.370949,25.505711 L37.370949,24.387594 C37.370949,23.623369 36.749174,23.001594 35.984949,23.001594 L1.719949,23.001594 Z" id="Shape" fill="#AA0909"></path>
                    <path d="M36.046549,18.893644 C36.046549,21.019922 34.322827,22.743644 32.196549,22.743644 L28.63861,22.743644 C26.512332,22.743644 24.78861,21.019922 24.78861,18.893644 L24.78861,15.335705 C24.78861,13.209427 26.512332,11.485705 28.63861,11.485705 L32.196549,11.485705 C34.322827,11.485705 36.046549,13.209427 36.046549,15.335705 L36.046549,18.893644 Z" id="Path" fill="#F8CC00"></path>
                    <path d="M32.196549,22.897644 L28.63861,22.897644 C26.430789,22.897644 24.63461,21.101465 24.63461,18.893644 L24.63461,15.335705 C24.63461,13.127884 26.430789,11.331705 28.63861,11.331705 L32.196549,11.331705 C34.40437,11.331705 36.200549,13.127884 36.200549,15.335705 L36.200549,18.893644 C36.200549,21.101465 34.40437,22.897644 32.196549,22.897644 Z M28.63861,11.639705 C26.600651,11.639705 24.94261,13.297669 24.94261,15.335705 L24.94261,18.893644 C24.94261,20.93168 26.600651,22.589644 28.63861,22.589644 L32.196549,22.589644 C34.234508,22.589644 35.892549,20.93168 35.892549,18.893644 L35.892549,15.335705 C35.892549,13.297669 34.234508,11.639705 32.196549,11.639705 L28.63861,11.639705 Z" id="Shape" fill="#F8CC00"></path>
                    <path d="M35.224112,18.626454 C35.224112,20.442037 33.752257,21.913892 31.936674,21.913892 L28.898639,21.913892 C27.082979,21.913892 25.611201,20.442037 25.611201,18.626454 L25.611201,15.588419 C25.611201,13.772836 27.083056,12.300981 28.898639,12.300981 L31.936674,12.300981 C33.752334,12.300981 35.224112,13.772836 35.224112,15.588419 L35.224112,18.626454 Z" id="Path" fill="#FFFFFF"></path>
                    <path d="M31.936597,22.067969 L28.898562,22.067969 C27.000897,22.067969 25.457124,20.524119 25.457124,18.626531 L25.457124,15.588496 C25.457124,13.690831 27.000974,12.147058 28.898562,12.147058 L31.936597,12.147058 C33.834262,12.147058 35.378035,13.690908 35.378035,15.588496 L35.378035,18.626531 C35.378035,20.524119 33.834262,22.067969 31.936597,22.067969 Z M28.898562,12.454981 C27.170759,12.454981 25.765124,13.860693 25.765124,15.588419 L25.765124,18.626454 C25.765124,20.35418 27.170759,21.759892 28.898562,21.759892 L31.936597,21.759892 C33.6644,21.759892 35.070035,20.35418 35.070035,18.626454 L35.070035,15.588419 C35.070035,13.860693 33.6644,12.454981 31.936597,12.454981 L28.898562,12.454981 Z" id="Shape" fill="#AA0909"></path>
                    <circle id="Oval" fill="#FF0000" cx="28.914963" cy="17.107398" r="1"></circle>
                    <path d="M28.914963,18.012764 C28.415772,18.012764 28.009674,17.606666 28.009674,17.107398 C28.009674,16.608284 28.415772,16.202109 28.914963,16.202109 C29.414154,16.202109 29.820329,16.608207 29.820329,17.107398 C29.820329,17.606589 29.414154,18.012764 28.914963,18.012764 Z M28.914963,16.510109 C28.585634,16.510109 28.317674,16.777992 28.317674,17.107398 C28.317674,17.436804 28.585634,17.704764 28.914963,17.704764 C29.244369,17.704764 29.512329,17.436804 29.512329,17.107398 C29.512329,16.777992 29.244369,16.510109 28.914963,16.510109 Z" id="Shape" fill="#AA0909"></path>
                    <circle id="Oval" fill="#FF0000" cx="27.412308" cy="17.107398" r="1"></circle>
                    <path d="M27.412308,18.012764 C26.913117,18.012764 26.507019,17.606666 26.507019,17.107398 C26.507019,16.608284 26.913117,16.202109 27.412308,16.202109 C27.911499,16.202109 28.317674,16.608207 28.317674,17.107398 C28.317674,17.606589 27.911499,18.012764 27.412308,18.012764 Z M27.412308,16.510109 C27.082979,16.510109 26.815019,16.777992 26.815019,17.107398 C26.815019,17.436804 27.082979,17.704764 27.412308,17.704764 C27.741714,17.704764 28.009674,17.436804 28.009674,17.107398 C28.009674,16.777992 27.741714,16.510109 27.412308,16.510109 Z" id="Shape" fill="#AA0909"></path>
                    <circle id="Oval" fill="#FF0000" cx="30.417618" cy="17.107398" r="1"></circle>
                    <path d="M30.417618,18.012764 C29.918427,18.012764 29.512329,17.606666 29.512329,17.107398 C29.512329,16.608284 29.918427,16.202109 30.417618,16.202109 C30.916809,16.202109 31.322907,16.608207 31.322907,17.107398 C31.322907,17.606589 30.916809,18.012764 30.417618,18.012764 Z M30.417618,16.510109 C30.088289,16.510109 29.820329,16.777992 29.820329,17.107398 C29.820329,17.436804 30.088212,17.704764 30.417618,17.704764 C30.747024,17.704764 31.014907,17.436804 31.014907,17.107398 C31.014907,16.777992 30.746947,16.510109 30.417618,16.510109 Z" id="Shape" fill="#AA0909"></path>
                    <circle id="Oval" fill="#FF0000" cx="31.920196" cy="17.107398" r="1"></circle>
                    <path d="M31.920196,18.012764 C31.421005,18.012764 31.01483,17.606666 31.01483,17.107398 C31.01483,16.608284 31.420928,16.202109 31.920196,16.202109 C32.419387,16.202109 32.825485,16.608207 32.825485,17.107398 C32.825562,17.606589 32.419387,18.012764 31.920196,18.012764 Z M31.920196,16.510109 C31.59079,16.510109 31.32283,16.777992 31.32283,17.107398 C31.32283,17.436804 31.59079,17.704764 31.920196,17.704764 C32.249525,17.704764 32.517485,17.436804 32.517485,17.107398 C32.517485,16.777992 32.249602,16.510109 31.920196,16.510109 Z" id="Shape" fill="#AA0909"></path>
                    <circle id="Oval" fill="#FF0000" cx="33.422851" cy="17.107398" r="1"></circle>
                    <path d="M33.422851,18.012764 C32.92366,18.012764 32.517485,17.606666 32.517485,17.107398 C32.517485,16.608284 32.923583,16.202109 33.422851,16.202109 C33.922042,16.202109 34.32814,16.608207 34.32814,17.107398 C34.328217,17.606589 33.922042,18.012764 33.422851,18.012764 Z M33.422851,16.510109 C33.093445,16.510109 32.825485,16.777992 32.825485,17.107398 C32.825485,17.436804 33.093445,17.704764 33.422851,17.704764 C33.75218,17.704764 34.02014,17.436804 34.02014,17.107398 C34.02014,16.777992 33.752257,16.510109 33.422851,16.510109 Z" id="Shape" fill="#AA0909"></path>
                    <circle id="Oval" fill="#FF0000" cx="28.914963" cy="14.518966" r="1"></circle>
                    <path d="M28.914963,15.424178 C28.415772,15.424178 28.009674,15.01808 28.009674,14.518889 C28.009674,14.019698 28.415772,13.613523 28.914963,13.613523 C29.414154,13.613523 29.820329,14.019621 29.820329,14.518889 C29.820329,15.01808 29.414154,15.424178 28.914963,15.424178 Z M28.914963,13.9216 C28.585634,13.9216 28.317674,14.18956 28.317674,14.518966 C28.317674,14.848372 28.585634,15.116255 28.914963,15.116255 C29.244369,15.116255 29.512329,14.848372 29.512329,14.518966 C29.512329,14.18956 29.244369,13.9216 28.914963,13.9216 Z" id="Shape" fill="#AA0909"></path>
                    <circle id="Oval" fill="#FF0000" cx="30.417618" cy="14.518966" r="1"></circle>
                    <path d="M30.417618,15.424178 C29.918427,15.424178 29.512329,15.01808 29.512329,14.518889 C29.512329,14.019698 29.918427,13.613523 30.417618,13.613523 C30.916809,13.613523 31.322907,14.019621 31.322907,14.518889 C31.322907,15.01808 30.916809,15.424178 30.417618,15.424178 Z M30.417618,13.9216 C30.088289,13.9216 29.820329,14.18956 29.820329,14.518966 C29.820329,14.848372 30.088212,15.116255 30.417618,15.116255 C30.747024,15.116255 31.014907,14.848372 31.014907,14.518966 C31.014907,14.18956 30.746947,13.9216 30.417618,13.9216 Z" id="Shape" fill="#AA0909"></path>
                    <circle id="Oval" fill="#FF0000" cx="31.920196" cy="14.518966" r="1"></circle>
                    <path d="M31.920196,15.424178 C31.421005,15.424178 31.01483,15.01808 31.01483,14.518889 C31.01483,14.019698 31.420928,13.613523 31.920196,13.613523 C32.419387,13.613523 32.825485,14.019621 32.825485,14.518889 C32.825562,15.01808 32.419387,15.424178 31.920196,15.424178 Z M31.920196,13.9216 C31.59079,13.9216 31.32283,14.18956 31.32283,14.518966 C31.32283,14.848372 31.59079,15.116255 31.920196,15.116255 C32.249525,15.116255 32.517485,14.848372 32.517485,14.518966 C32.517485,14.18956 32.249602,13.9216 31.920196,13.9216 Z" id="Shape" fill="#AA0909"></path>
                    <circle id="Oval" fill="#FF0000" cx="28.914963" cy="19.710383" r="1"></circle>
                    <path d="M28.914963,20.615749 C28.415772,20.615749 28.009674,20.209651 28.009674,19.710383 C28.009674,19.211269 28.415772,18.805094 28.914963,18.805094 C29.414154,18.805094 29.820329,19.211192 29.820329,19.710383 C29.820329,20.209651 29.414154,20.615749 28.914963,20.615749 Z M28.914963,19.113171 C28.585634,19.113171 28.317674,19.381054 28.317674,19.71046 C28.317674,20.039866 28.585634,20.307826 28.914963,20.307826 C29.244369,20.307826 29.512329,20.039866 29.512329,19.71046 C29.512329,19.381054 29.244369,19.113171 28.914963,19.113171 Z" id="Shape" fill="#AA0909"></path>
                    <circle id="Oval" fill="#FF0000" cx="30.417618" cy="19.710383" r="1"></circle>
                    <path d="M30.417618,20.615749 C29.918427,20.615749 29.512329,20.209651 29.512329,19.710383 C29.512329,19.211269 29.918427,18.805094 30.417618,18.805094 C30.916809,18.805094 31.322907,19.211192 31.322907,19.710383 C31.322907,20.209651 30.916809,20.615749 30.417618,20.615749 Z M30.417618,19.113171 C30.088289,19.113171 29.820329,19.381054 29.820329,19.71046 C29.820329,20.039866 30.088212,20.307826 30.417618,20.307826 C30.747024,20.307826 31.014907,20.039866 31.014907,19.71046 C31.014907,19.381054 30.746947,19.113171 30.417618,19.113171 Z" id="Shape" fill="#AA0909"></path>
                    <circle id="Oval" fill="#FF0000" cx="31.920196" cy="19.710383" r="1"></circle>
                    <path d="M31.920196,20.615749 C31.421005,20.615749 31.01483,20.209651 31.01483,19.710383 C31.01483,19.211269 31.420928,18.805094 31.920196,18.805094 C32.419387,18.805094 32.825485,19.211192 32.825485,19.710383 C32.825562,20.209651 32.419387,20.615749 31.920196,20.615749 Z M31.920196,19.113171 C31.59079,19.113171 31.32283,19.381054 31.32283,19.71046 C31.32283,20.039866 31.59079,20.307826 31.920196,20.307826 C32.249525,20.307826 32.517485,20.039866 32.517485,19.71046 C32.517485,19.381054 32.249602,19.113171 31.920196,19.113171 Z" id="Shape" fill="#AA0909"></path>
                    <circle id="Oval" fill="#FF0000" cx="28.163674" cy="18.406773" r="1"></circle>
                    <path d="M28.163674,19.312062 C27.664483,19.312062 27.258385,18.905964 27.258385,18.406773 C27.258385,17.907582 27.664483,17.501407 28.163674,17.501407 C28.662865,17.501407 29.068963,17.907505 29.068963,18.406773 C29.068963,18.905887 28.662865,19.312062 28.163674,19.312062 Z M28.163674,17.809407 C27.834345,17.809407 27.566385,18.077367 27.566385,18.406773 C27.566385,18.736179 27.834345,19.004062 28.163674,19.004062 C28.493003,19.004062 28.760963,18.736179 28.760963,18.406773 C28.760963,18.077367 28.493003,17.809407 28.163674,17.809407 Z" id="Shape" fill="#AA0909"></path>
                    <circle id="Oval" fill="#FF0000" cx="32.671562" cy="18.406773" r="1"></circle>
                    <path d="M32.671562,19.312062 C32.172371,19.312062 31.766273,18.905964 31.766273,18.406773 C31.766273,17.907582 32.172371,17.501407 32.671562,17.501407 C33.170753,17.501407 33.576851,17.907505 33.576851,18.406773 C33.576851,18.905887 33.170753,19.312062 32.671562,19.312062 Z M32.671562,17.809407 C32.342233,17.809407 32.074273,18.077367 32.074273,18.406773 C32.074273,18.736179 32.342233,19.004062 32.671562,19.004062 C33.000891,19.004062 33.268851,18.736179 33.268851,18.406773 C33.268851,18.077367 33.000891,17.809407 32.671562,17.809407 Z" id="Shape" fill="#AA0909"></path>
                    <circle id="Oval" fill="#FF0000" cx="29.666252" cy="18.406773" r="1"></circle>
                    <path d="M29.666329,19.312062 C29.167138,19.312062 28.760963,18.905964 28.760963,18.406773 C28.760963,17.907582 29.167061,17.501407 29.666329,17.501407 C30.16552,17.501407 30.571618,17.907505 30.571618,18.406773 C30.571618,18.905887 30.16552,19.312062 29.666329,19.312062 Z M29.666329,17.809407 C29.336923,17.809407 29.068963,18.077367 29.068963,18.406773 C29.068963,18.736179 29.336923,19.004062 29.666329,19.004062 C29.995658,19.004062 30.263618,18.736179 30.263618,18.406773 C30.263618,18.077367 29.995658,17.809407 29.666329,17.809407 Z" id="Shape" fill="#AA0909"></path>
                    <circle id="Oval" fill="#FF0000" cx="31.168907" cy="18.406773" r="1"></circle>
                    <path d="M31.168907,19.312062 C30.669716,19.312062 30.263618,18.905964 30.263618,18.406773 C30.263618,17.907582 30.669716,17.501407 31.168907,17.501407 C31.668098,17.501407 32.074273,17.907505 32.074273,18.406773 C32.074196,18.905887 31.668098,19.312062 31.168907,19.312062 Z M31.168907,17.809407 C30.839578,17.809407 30.571618,18.077367 30.571618,18.406773 C30.571618,18.736179 30.839501,19.004062 31.168907,19.004062 C31.498313,19.004062 31.766273,18.736179 31.766273,18.406773 C31.766273,18.077367 31.498236,17.809407 31.168907,17.809407 Z" id="Shape" fill="#AA0909"></path>
                    <circle id="Oval" fill="#FF0000" cx="28.163674" cy="15.818187" r="1"></circle>
                    <path d="M28.163674,16.723476 C27.664483,16.723476 27.258385,16.317378 27.258385,15.81811 C27.258385,15.318996 27.664483,14.912821 28.163674,14.912821 C28.662865,14.912821 29.068963,15.318919 29.068963,15.81811 C29.068963,16.317378 28.662865,16.723476 28.163674,16.723476 Z M28.163674,15.220898 C27.834345,15.220898 27.566385,15.488781 27.566385,15.818187 C27.566385,16.147593 27.834345,16.415553 28.163674,16.415553 C28.493003,16.415553 28.760963,16.147593 28.760963,15.818187 C28.760963,15.488781 28.493003,15.220898 28.163674,15.220898 Z" id="Shape" fill="#AA0909"></path>
                    <circle id="Oval" fill="#FF0000" cx="32.671562" cy="15.818187" r="1"></circle>
                    <path d="M32.671562,16.723476 C32.172371,16.723476 31.766273,16.317378 31.766273,15.81811 C31.766273,15.318996 32.172371,14.912821 32.671562,14.912821 C33.170753,14.912821 33.576851,15.318919 33.576851,15.81811 C33.576851,16.317378 33.170753,16.723476 32.671562,16.723476 Z M32.671562,15.220898 C32.342233,15.220898 32.074273,15.488781 32.074273,15.818187 C32.074273,16.147593 32.342233,16.415553 32.671562,16.415553 C33.000891,16.415553 33.268851,16.147593 33.268851,15.818187 C33.268851,15.488781 33.000891,15.220898 32.671562,15.220898 Z" id="Shape" fill="#AA0909"></path>
                    <circle id="Oval" fill="#FF0000" cx="29.666252" cy="15.818187" r="1"></circle>
                    <path d="M29.666329,16.723476 C29.167138,16.723476 28.760963,16.317378 28.760963,15.81811 C28.760963,15.318996 29.167061,14.912821 29.666329,14.912821 C30.16552,14.912821 30.571618,15.318919 30.571618,15.81811 C30.571618,16.317378 30.16552,16.723476 29.666329,16.723476 Z M29.666329,15.220898 C29.336923,15.220898 29.068963,15.488781 29.068963,15.818187 C29.068963,16.147593 29.336923,16.415553 29.666329,16.415553 C29.995658,16.415553 30.263618,16.147593 30.263618,15.818187 C30.263618,15.488781 29.995658,15.220898 29.666329,15.220898 Z" id="Shape" fill="#AA0909"></path>
                    <g id="Group" transform="translate(30.261000, 14.861000)">
                        <circle id="Oval" fill="#FF0000" cx="0.907907" cy="0.957187" r="1"></circle>
                        <path d="M0.907907,1.862476 C0.408716,1.862476 0.002618,1.456378 0.002618,0.95711 C0.002618,0.457996 0.408716,0.051821 0.907907,0.051821 C1.407098,0.051821 1.813273,0.457919 1.813273,0.95711 C1.813196,1.456378 1.407098,1.862476 0.907907,1.862476 Z M0.907907,0.359898 C0.578578,0.359898 0.310618,0.627781 0.310618,0.957187 C0.310618,1.286593 0.578501,1.554553 0.907907,1.554553 C1.237313,1.554553 1.505273,1.286593 1.505273,0.957187 C1.505273,0.627781 1.237236,0.359898 0.907907,0.359898 Z" id="Shape" fill="#AA0909"></path>
                    </g>
                    <g id="Group" transform="translate(7.315000, 0.000000)">
                        <path d="M11.418176,7.607446 C11.418176,9.733724 9.694454,11.457446 7.568176,11.457446 L4.010237,11.457446 C1.883959,11.457446 0.160237,9.733724 0.160237,7.607446 L0.160237,4.049507 C0.160237,1.923229 1.883959,0.199507 4.010237,0.199507 L7.568176,0.199507 C9.694454,0.199507 11.418176,1.923229 11.418176,4.049507 L11.418176,7.607446 Z" id="Path" fill="#FF0000"></path>
                        <path d="M7.568176,11.611446 L4.010237,11.611446 C1.802416,11.611446 0.006237,9.815267 0.006237,7.607446 L0.006237,4.049507 C0.006237,1.841686 1.802416,0.045507 4.010237,0.045507 L7.568176,0.045507 C9.775997,0.045507 11.572176,1.841686 11.572176,4.049507 L11.572176,7.607446 C11.572176,9.815267 9.77592,11.611446 7.568176,11.611446 Z M4.010237,0.353507 C1.972278,0.353507 0.314237,2.011471 0.314237,4.049507 L0.314237,7.607446 C0.314237,9.645482 1.972278,11.303446 4.010237,11.303446 L7.568176,11.303446 C9.606135,11.303446 11.264176,9.645482 11.264176,7.607446 L11.264176,4.049507 C11.264176,2.011471 9.606135,0.353507 7.568176,0.353507 L4.010237,0.353507 Z" id="Shape" fill="#AA0909"></path>
                    </g>
                    <g id="Group" transform="translate(8.085000, 0.847000)">
                        <path d="M9.825662,6.493256 C9.825662,8.308839 8.353807,9.780694 6.538224,9.780694 L3.500189,9.780694 C1.684529,9.780694 0.212751,8.308839 0.212751,6.493256 L0.212751,3.455221 C0.212751,1.639638 1.684606,0.167783 3.500189,0.167783 L6.538224,0.167783 C8.353884,0.167783 9.825662,1.639638 9.825662,3.455221 L9.825662,6.493256 Z" id="Path" fill="#FFFFFF"></path>
                        <path d="M6.538224,9.934694 L3.500189,9.934694 C1.602524,9.934694 0.058751,8.390844 0.058751,6.493256 L0.058751,3.455221 C0.058751,1.557556 1.602601,0.013783 3.500189,0.013783 L6.538224,0.013783 C8.435889,0.013783 9.979662,1.557633 9.979662,3.455221 L9.979662,6.493256 C9.979662,8.390921 8.435812,9.934694 6.538224,9.934694 Z M3.500189,0.321783 C1.772386,0.321783 0.366751,1.727495 0.366751,3.455221 L0.366751,6.493256 C0.366751,8.220982 1.772386,9.626694 3.500189,9.626694 L6.538224,9.626694 C8.266027,9.626694 9.671662,8.220982 9.671662,6.493256 L9.671662,3.455221 C9.671662,1.727495 8.266027,0.321783 6.538224,0.321783 L3.500189,0.321783 L3.500189,0.321783 Z" id="Shape" fill="#AA0909"></path>
                    </g>
                    <g id="Group" transform="translate(9.163000, 2.310000)">
                        <circle id="Oval" fill="#F8CC00" cx="2.43859" cy="3.5112" r="1"></circle>
                        <path d="M2.438513,4.416489 C1.939322,4.416489 1.533224,4.010391 1.533224,3.511123 C1.533224,3.012009 1.939322,2.605834 2.438513,2.605834 C2.937704,2.605834 3.343879,3.011932 3.343879,3.511123 C3.343879,4.010391 2.937781,4.416489 2.438513,4.416489 Z M2.438513,2.913911 C2.109184,2.913911 1.841224,3.181794 1.841224,3.5112 C1.841224,3.840606 2.109184,4.108566 2.438513,4.108566 C2.767919,4.108566 3.035879,3.840606 3.035879,3.5112 C3.035879,3.181794 2.767919,2.913911 2.438513,2.913911 Z" id="Shape" fill="#AA0909"></path>
                        <circle id="Oval" fill="#F8CC00" cx="0.935935" cy="3.5112" r="1"></circle>
                        <path d="M0.935858,4.416489 C0.436667,4.416489 0.030569,4.010391 0.030569,3.511123 C0.030569,3.012009 0.436667,2.605834 0.935858,2.605834 C1.435049,2.605834 1.841224,3.011932 1.841224,3.511123 C1.841224,4.010391 1.435126,4.416489 0.935858,4.416489 Z M0.935858,2.913911 C0.606529,2.913911 0.338569,3.181794 0.338569,3.5112 C0.338569,3.840606 0.606529,4.108566 0.935858,4.108566 C1.265264,4.108566 1.533224,3.840606 1.533224,3.5112 C1.533224,3.181794 1.265264,2.913911 0.935858,2.913911 Z" id="Shape" fill="#AA0909"></path>
                        <circle id="Oval" fill="#F8CC00" cx="3.941168" cy="3.5112" r="1"></circle>
                        <path d="M3.941168,4.416489 C3.441977,4.416489 3.035879,4.010391 3.035879,3.511123 C3.035879,3.012009 3.441977,2.605834 3.941168,2.605834 C4.440359,2.605834 4.846457,3.011932 4.846457,3.511123 C4.846457,4.010391 4.440359,4.416489 3.941168,4.416489 Z M3.941168,2.913911 C3.611839,2.913911 3.343879,3.181794 3.343879,3.5112 C3.343879,3.840606 3.611762,4.108566 3.941168,4.108566 C4.270574,4.108566 4.538457,3.840606 4.538457,3.5112 C4.538457,3.181794 4.270497,2.913911 3.941168,2.913911 Z" id="Shape" fill="#AA0909"></path>
                        <circle id="Oval" fill="#F8CC00" cx="5.443746" cy="3.5112" r="1"></circle>
                        <path d="M5.443823,4.416489 C4.944632,4.416489 4.538457,4.010391 4.538457,3.511123 C4.538457,3.012009 4.944555,2.605834 5.443823,2.605834 C5.943014,2.605834 6.349112,3.011932 6.349112,3.511123 C6.349112,4.010391 5.943014,4.416489 5.443823,4.416489 Z M5.443823,2.913911 C5.114417,2.913911 4.846457,3.181794 4.846457,3.5112 C4.846457,3.840606 5.114417,4.108566 5.443823,4.108566 C5.773152,4.108566 6.041112,3.840606 6.041112,3.5112 C6.041112,3.181794 5.773152,2.913911 5.443823,2.913911 Z" id="Shape" fill="#AA0909"></path>
                        <circle id="Oval" fill="#F8CC00" cx="6.946478" cy="3.5112" r="1"></circle>
                        <path d="M6.946478,4.416489 C6.447287,4.416489 6.041112,4.010391 6.041112,3.511123 C6.041112,3.012009 6.44721,2.605834 6.946478,2.605834 C7.445669,2.605834 7.851767,3.011932 7.851767,3.511123 C7.851767,4.010391 7.445669,4.416489 6.946478,4.416489 Z M6.946478,2.913911 C6.617072,2.913911 6.349112,3.181794 6.349112,3.5112 C6.349112,3.840606 6.617072,4.108566 6.946478,4.108566 C7.275807,4.108566 7.543767,3.840606 7.543767,3.5112 C7.543767,3.181794 7.275807,2.913911 6.946478,2.913911 Z" id="Shape" fill="#AA0909"></path>
                        <circle id="Oval" fill="#F8CC00" cx="2.43859" cy="0.922691" r="1"></circle>
                        <path d="M2.438513,1.82798 C1.939322,1.82798 1.533224,1.421882 1.533224,0.922691 C1.533224,0.4235 1.939322,0.017325 2.438513,0.017325 C2.937704,0.017325 3.343879,0.423423 3.343879,0.922691 C3.343879,1.421882 2.937781,1.82798 2.438513,1.82798 Z M2.438513,0.325402 C2.109184,0.325402 1.841224,0.593362 1.841224,0.922768 C1.841224,1.252174 2.109184,1.520057 2.438513,1.520057 C2.767919,1.520057 3.035879,1.252174 3.035879,0.922768 C3.035879,0.593362 2.767919,0.325402 2.438513,0.325402 Z" id="Shape" fill="#AA0909"></path>
                        <circle id="Oval" fill="#F8CC00" cx="3.941168" cy="0.922691" r="1"></circle>
                        <path d="M3.941168,1.82798 C3.441977,1.82798 3.035879,1.421882 3.035879,0.922691 C3.035879,0.4235 3.441977,0.017325 3.941168,0.017325 C4.440359,0.017325 4.846457,0.423423 4.846457,0.922691 C4.846457,1.421882 4.440359,1.82798 3.941168,1.82798 Z M3.941168,0.325402 C3.611839,0.325402 3.343879,0.593362 3.343879,0.922768 C3.343879,1.252174 3.611762,1.520057 3.941168,1.520057 C4.270574,1.520057 4.538457,1.252174 4.538457,0.922768 C4.538457,0.593362 4.270497,0.325402 3.941168,0.325402 Z" id="Shape" fill="#AA0909"></path>
                        <circle id="Oval" fill="#F8CC00" cx="5.443746" cy="0.922691" r="1"></circle>
                        <path d="M5.443823,1.82798 C4.944632,1.82798 4.538457,1.421882 4.538457,0.922691 C4.538457,0.4235 4.944555,0.017325 5.443823,0.017325 C5.943014,0.017325 6.349112,0.423423 6.349112,0.922691 C6.349112,1.421882 5.943014,1.82798 5.443823,1.82798 Z M5.443823,0.325402 C5.114417,0.325402 4.846457,0.593362 4.846457,0.922768 C4.846457,1.252174 5.114417,1.520057 5.443823,1.520057 C5.773152,1.520057 6.041112,1.252174 6.041112,0.922768 C6.041112,0.593362 5.773152,0.325402 5.443823,0.325402 Z" id="Shape" fill="#AA0909"></path>
                        <circle id="Oval" fill="#F8CC00" cx="2.43859" cy="6.114185" r="1"></circle>
                        <path d="M2.438513,7.019551 C1.939322,7.019551 1.533224,6.613453 1.533224,6.114185 C1.533224,5.615071 1.939322,5.208896 2.438513,5.208896 C2.937704,5.208896 3.343879,5.614994 3.343879,6.114185 C3.343879,6.613453 2.937781,7.019551 2.438513,7.019551 Z M2.438513,5.516896 C2.109184,5.516896 1.841224,5.784779 1.841224,6.114185 C1.841224,6.443591 2.109184,6.711551 2.438513,6.711551 C2.767919,6.711551 3.035879,6.443591 3.035879,6.114185 C3.035879,5.784779 2.767919,5.516896 2.438513,5.516896 Z" id="Shape" fill="#AA0909"></path>
                        <circle id="Oval" fill="#F8CC00" cx="3.941168" cy="6.114185" r="1"></circle>
                        <path d="M3.941168,7.019551 C3.441977,7.019551 3.035879,6.613453 3.035879,6.114185 C3.035879,5.615071 3.441977,5.208896 3.941168,5.208896 C4.440359,5.208896 4.846457,5.614994 4.846457,6.114185 C4.846457,6.613453 4.440359,7.019551 3.941168,7.019551 Z M3.941168,5.516896 C3.611839,5.516896 3.343879,5.784779 3.343879,6.114185 C3.343879,6.443591 3.611762,6.711551 3.941168,6.711551 C4.270574,6.711551 4.538457,6.443591 4.538457,6.114185 C4.538457,5.784779 4.270497,5.516896 3.941168,5.516896 Z" id="Shape" fill="#AA0909"></path>
                        <circle id="Oval" fill="#F8CC00" cx="5.443746" cy="6.114185" r="1"></circle>
                        <path d="M5.443823,7.019551 C4.944632,7.019551 4.538457,6.613453 4.538457,6.114185 C4.538457,5.615071 4.944555,5.208896 5.443823,5.208896 C5.943014,5.208896 6.349112,5.614994 6.349112,6.114185 C6.349112,6.613453 5.943014,7.019551 5.443823,7.019551 Z M5.443823,5.516896 C5.114417,5.516896 4.846457,5.784779 4.846457,6.114185 C4.846457,6.443591 5.114417,6.711551 5.443823,6.711551 C5.773152,6.711551 6.041112,6.443591 6.041112,6.114185 C6.041112,5.784779 5.773152,5.516896 5.443823,5.516896 Z" id="Shape" fill="#AA0909"></path>
                        <circle id="Oval" fill="#F8CC00" cx="1.687224" cy="4.810575" r="1"></circle>
                        <path d="M1.687224,5.715787 C1.188033,5.715787 0.781935,5.309689 0.781935,4.810498 C0.781935,4.311307 1.188033,3.905132 1.687224,3.905132 C2.186415,3.905132 2.592513,4.31123 2.592513,4.810498 C2.592513,5.309689 2.186415,5.715787 1.687224,5.715787 Z M1.687224,4.213209 C1.357895,4.213209 1.089935,4.481169 1.089935,4.810575 C1.089935,5.139981 1.357895,5.407864 1.687224,5.407864 C2.016553,5.407864 2.284513,5.139981 2.284513,4.810575 C2.284513,4.481169 2.016553,4.213209 1.687224,4.213209 Z" id="Shape" fill="#AA0909"></path>
                        <circle id="Oval" fill="#F8CC00" cx="6.195112" cy="4.810575" r="1"></circle>
                        <path d="M6.195112,5.715787 C5.695921,5.715787 5.289823,5.309689 5.289823,4.810498 C5.289823,4.311307 5.695921,3.905132 6.195112,3.905132 C6.694303,3.905132 7.100401,4.31123 7.100401,4.810498 C7.100401,5.309689 6.694303,5.715787 6.195112,5.715787 Z M6.195112,4.213209 C5.865783,4.213209 5.597823,4.481169 5.597823,4.810575 C5.597823,5.139981 5.865783,5.407864 6.195112,5.407864 C6.524441,5.407864 6.792401,5.139981 6.792401,4.810575 C6.792401,4.481169 6.524441,4.213209 6.195112,4.213209 Z" id="Shape" fill="#AA0909"></path>
                        <circle id="Oval" fill="#F8CC00" cx="3.189879" cy="4.810575" r="1"></circle>
                        <path d="M3.189879,5.715787 C2.690688,5.715787 2.284513,5.309689 2.284513,4.810498 C2.284513,4.311307 2.690611,3.905132 3.189879,3.905132 C3.68907,3.905132 4.095168,4.31123 4.095168,4.810498 C4.095168,5.309689 3.68907,5.715787 3.189879,5.715787 Z M3.189879,4.213209 C2.860473,4.213209 2.592513,4.481169 2.592513,4.810575 C2.592513,5.139981 2.860473,5.407864 3.189879,5.407864 C3.519208,5.407864 3.787168,5.139981 3.787168,4.810575 C3.787168,4.481169 3.519285,4.213209 3.189879,4.213209 Z" id="Shape" fill="#AA0909"></path>
                        <circle id="Oval" fill="#F8CC00" cx="4.692457" cy="4.810575" r="1"></circle>
                        <path d="M4.692457,5.715787 C4.193266,5.715787 3.787168,5.309689 3.787168,4.810498 C3.787168,4.311307 4.193266,3.905132 4.692457,3.905132 C5.191648,3.905132 5.597823,4.31123 5.597823,4.810498 C5.597823,5.309689 5.191648,5.715787 4.692457,5.715787 Z M4.692457,4.213209 C4.363128,4.213209 4.095168,4.481169 4.095168,4.810575 C4.095168,5.139981 4.363051,5.407864 4.692457,5.407864 C5.021863,5.407864 5.289823,5.139981 5.289823,4.810575 C5.289823,4.481169 5.021863,4.213209 4.692457,4.213209 Z" id="Shape" fill="#AA0909"></path>
                        <g transform="translate(0.770000, 1.309000)">
                            <circle id="Oval" fill="#F8CC00" cx="0.917224" cy="0.912912" r="1"></circle>
                            <path d="M0.917224,1.818278 C0.418033,1.818278 0.011935,1.41218 0.011935,0.912912 C0.011935,0.413798 0.418033,0.007623 0.917224,0.007623 C1.416415,0.007623 1.822513,0.413721 1.822513,0.912912 C1.822513,1.41218 1.416415,1.818278 0.917224,1.818278 Z M0.917224,0.3157 C0.587895,0.3157 0.319935,0.583583 0.319935,0.912989 C0.319935,1.242395 0.587895,1.510355 0.917224,1.510355 C1.246553,1.510355 1.514513,1.242395 1.514513,0.912989 C1.514513,0.583583 1.246553,0.3157 0.917224,0.3157 Z" id="Shape" fill="#AA0909"></path>
                        </g>
                        <g transform="translate(5.236000, 1.309000)">
                            <circle id="Oval" fill="#F8CC00" cx="0.959112" cy="0.912912" r="1"></circle>
                            <path d="M0.959112,1.818278 C0.459921,1.818278 0.053823,1.41218 0.053823,0.912912 C0.053823,0.413798 0.459921,0.007623 0.959112,0.007623 C1.458303,0.007623 1.864401,0.413721 1.864401,0.912912 C1.864401,1.41218 1.458303,1.818278 0.959112,1.818278 Z M0.959112,0.3157 C0.629783,0.3157 0.361823,0.583583 0.361823,0.912989 C0.361823,1.242395 0.629783,1.510355 0.959112,1.510355 C1.288441,1.510355 1.556401,1.242395 1.556401,0.912989 C1.556401,0.583583 1.288441,0.3157 0.959112,0.3157 Z" id="Shape" fill="#AA0909"></path>
                        </g>
                        <g transform="translate(2.233000, 1.309000)">
                            <circle id="Oval" fill="#F8CC00" cx="0.956879" cy="0.912912" r="1"></circle>
                            <path d="M0.956879,1.818278 C0.457688,1.818278 0.051513,1.41218 0.051513,0.912912 C0.051513,0.413798 0.457611,0.007623 0.956879,0.007623 C1.45607,0.007623 1.862168,0.413721 1.862168,0.912912 C1.862168,1.41218 1.45607,1.818278 0.956879,1.818278 Z M0.956879,0.3157 C0.627473,0.3157 0.359513,0.583583 0.359513,0.912989 C0.359513,1.242395 0.627473,1.510355 0.956879,1.510355 C1.286208,1.510355 1.554168,1.242395 1.554168,0.912989 C1.554168,0.583583 1.286285,0.3157 0.956879,0.3157 Z" id="Shape" fill="#AA0909"></path>
                        </g>
                        <g transform="translate(3.773000, 1.309000)">
                            <circle id="Oval" fill="#F8CC00" cx="0.919457" cy="0.912912" r="1"></circle>
                            <path d="M0.919457,1.818278 C0.420266,1.818278 0.014168,1.41218 0.014168,0.912912 C0.014168,0.413798 0.420266,0.007623 0.919457,0.007623 C1.418648,0.007623 1.824823,0.413721 1.824823,0.912912 C1.824823,1.41218 1.418648,1.818278 0.919457,1.818278 Z M0.919457,0.3157 C0.590128,0.3157 0.322168,0.583583 0.322168,0.912989 C0.322168,1.242395 0.590051,1.510355 0.919457,1.510355 C1.248863,1.510355 1.516823,1.242395 1.516823,0.912989 C1.516823,0.583583 1.248863,0.3157 0.919457,0.3157 Z" id="Shape" fill="#AA0909"></path>
                        </g>
                    </g>
                    <g id="Group" transform="translate(1.463000, 11.319000)">
                        <path d="M11.453365,7.567329 C11.453365,9.693607 9.729643,11.417329 7.603365,11.417329 L4.045426,11.417329 C1.919148,11.417329 0.195426,9.693607 0.195426,7.567329 L0.195426,4.00939 C0.195426,1.883112 1.919148,0.15939 4.045426,0.15939 L7.603365,0.15939 C9.729643,0.15939 11.453365,1.883112 11.453365,4.00939 L11.453365,7.567329 Z" id="Path" fill="#F8CC00"></path>
                        <path d="M7.603365,11.571329 L4.045426,11.571329 C1.837605,11.571329 0.041426,9.77515 0.041426,7.567329 L0.041426,4.00939 C0.041426,1.801569 1.837605,0.00539 4.045426,0.00539 L7.603365,0.00539 C9.811186,0.00539 11.607365,1.801569 11.607365,4.00939 L11.607365,7.567329 C11.607365,9.77515 9.811109,11.571329 7.603365,11.571329 Z M4.045426,0.31339 C2.007467,0.31339 0.349426,1.971354 0.349426,4.00939 L0.349426,7.567329 C0.349426,9.605365 2.007467,11.263329 4.045426,11.263329 L7.603365,11.263329 C9.641324,11.263329 11.299365,9.605365 11.299365,7.567329 L11.299365,4.00939 C11.299365,1.971354 9.641324,0.31339 7.603365,0.31339 L4.045426,0.31339 Z" id="Shape" fill="#F8CC00"></path>
                        <path d="M10.630851,7.307454 C10.630851,9.123037 9.158996,10.594892 7.343413,10.594892 L4.305378,10.594892 C2.489718,10.594892 1.01794,9.123037 1.01794,7.307454 L1.01794,4.269419 C1.01794,2.453836 2.489795,0.981981 4.305378,0.981981 L7.343413,0.981981 C9.159073,0.981981 10.630851,2.453836 10.630851,4.269419 L10.630851,7.307454 Z" id="Path" fill="#FFFFFF"></path>
                        <path d="M7.343413,10.748969 L4.305378,10.748969 C2.407713,10.748969 0.86394,9.205119 0.86394,7.307531 L0.86394,4.269496 C0.86394,2.371831 2.40779,0.828058 4.305378,0.828058 L7.343413,0.828058 C9.241078,0.828058 10.784851,2.371908 10.784851,4.269496 L10.784851,7.307531 C10.784851,9.205119 9.241001,10.748969 7.343413,10.748969 Z M4.305378,1.135981 C2.577575,1.135981 1.17194,2.541693 1.17194,4.269419 L1.17194,7.307454 C1.17194,9.03518 2.577575,10.440892 4.305378,10.440892 L7.343413,10.440892 C9.071216,10.440892 10.476851,9.03518 10.476851,7.307454 L10.476851,4.269419 C10.476851,2.541693 9.071216,1.135981 7.343413,1.135981 L4.305378,1.135981 Z" id="Shape" fill="#AA0909"></path>
                        <path d="M8.786624,6.724564 C8.786624,7.843528 7.879564,8.750588 6.7606,8.750588 L4.888191,8.750588 C3.769227,8.750588 2.862167,7.843528 2.862167,6.724564 L2.862167,4.852232 C2.862167,3.733268 3.769227,2.826208 4.888191,2.826208 L6.760523,2.826208 C7.879487,2.826208 8.786547,3.733268 8.786547,4.852232 L8.786547,6.724564 L8.786624,6.724564 Z" id="Path" fill="#FF0000"></path>
                        <path d="M6.760523,8.904665 L4.888191,8.904665 C3.686144,8.904665 2.708167,7.926688 2.708167,6.724641 L2.708167,4.852309 C2.708167,3.650262 3.686144,2.672285 4.888191,2.672285 L6.760523,2.672285 C7.96257,2.672285 8.940547,3.650262 8.940547,4.852309 L8.940547,6.724641 C8.940624,7.926611 7.962647,8.904665 6.760523,8.904665 Z M4.888191,2.980131 C3.855929,2.980131 3.016167,3.819893 3.016167,4.852155 L3.016167,6.724487 C3.016167,7.756749 3.856006,8.596511 4.888191,8.596511 L6.760523,8.596511 C7.792785,8.596511 8.632547,7.756749 8.632547,6.724487 L8.632547,4.852155 C8.632547,3.819893 7.792708,2.980131 6.760523,2.980131 L4.888191,2.980131 L4.888191,2.980131 Z" id="Shape" fill="#AA0909"></path>
                        <path d="M3.518669,8.297058 C3.508505,8.297058 3.49811,8.295133 3.488177,8.290975 C3.447598,8.274035 3.428425,8.227527 3.445288,8.186871 C3.461612,8.147601 5.11511,4.252248 8.227065,3.411562 C8.269723,3.400166 8.313228,3.425191 8.324624,3.467618 C8.33602,3.510045 8.310995,3.553704 8.268568,3.565177 C5.232612,4.385304 3.60822,8.209509 3.592204,8.248086 C3.579422,8.278655 3.549854,8.297058 3.518669,8.297058 Z M5.824357,8.844528 C5.814732,8.844528 5.804876,8.842834 5.795328,8.839061 C5.754441,8.822968 5.734344,8.776768 5.750437,8.735881 C5.760293,8.710702 5.998146,8.111719 6.481629,7.443821 C6.930231,6.824125 7.681982,6.031949 8.716092,5.777156 C8.758673,5.766607 8.80187,5.79271 8.812342,5.835368 C8.822891,5.878026 8.796788,5.921069 8.75413,5.931618 C6.859468,6.398392 5.907979,8.770146 5.898585,8.794093 C5.886111,8.825432 5.856081,8.844528 5.824357,8.844528 Z M2.862167,5.603829 C2.855622,5.603829 2.848846,5.602982 2.842147,5.601288 C2.799643,5.5902 2.774079,5.546849 2.78509,5.504345 C2.79048,5.483478 3.349269,3.417568 5.526983,2.750055 C5.568794,2.737042 5.613454,2.760835 5.62639,2.8028 C5.639249,2.844842 5.61561,2.889271 5.573645,2.90213 C3.479938,3.543925 2.944249,5.524288 2.93909,5.544154 C2.92985,5.580113 2.89751,5.603829 2.862167,5.603829 Z M2.894969,7.167237 C2.884882,7.167237 2.874641,7.165312 2.864785,7.161231 C2.824129,7.144522 2.804725,7.098091 2.821434,7.057435 C2.83591,7.022323 4.298063,3.538997 7.260869,2.816198 C7.303219,2.805957 7.34657,2.831983 7.356965,2.874641 C7.36736,2.917376 7.341257,2.960342 7.298522,2.970814 C4.41518,3.674132 2.982749,7.083538 2.968581,7.11788 C2.955953,7.14868 2.926231,7.167237 2.894969,7.167237 Z M4.554396,8.802332 C4.546234,8.802332 4.537918,8.801023 4.529679,8.798405 C4.487945,8.784699 4.465153,8.739808 4.478782,8.697997 C4.490794,8.661268 5.713246,5.024096 8.774227,4.540844 C8.817424,4.534068 8.858388,4.563636 8.865241,4.606987 C8.872094,4.650338 8.842449,4.691148 8.799098,4.698001 C5.833212,5.166238 4.641791,8.711703 4.630087,8.747508 C4.618999,8.78108 4.587891,8.802332 4.554396,8.802332 Z M7.096012,8.802332 C7.087311,8.802332 7.078456,8.800869 7.069755,8.797866 C7.028252,8.78339 7.006384,8.738037 7.020937,8.696534 C7.040341,8.640863 7.510811,7.328706 8.726795,6.886803 C8.768144,6.871557 8.813728,6.89304 8.828743,6.934389 C8.843758,6.975661 8.822429,7.021322 8.781157,7.03626 C7.635474,7.452676 7.17563,8.736035 7.171087,8.748971 C7.159614,8.78185 7.128891,8.802332 7.096012,8.802332 Z" id="Shape" fill="#000000"></path>
                    </g>
                    <g id="Group" transform="translate(18.788000, 0.077000)">
                        <path d="M11.475618,7.600131 C11.475618,9.726409 9.751896,11.450131 7.625618,11.450131 L4.067679,11.450131 C1.941401,11.450131 0.217679,9.726409 0.217679,7.600131 L0.217679,4.042192 C0.217679,1.915914 1.941401,0.192192 4.067679,0.192192 L7.625618,0.192192 C9.751896,0.192192 11.475618,1.915914 11.475618,4.042192 L11.475618,7.600131 Z" id="Path" fill="#F8CC00"></path>
                        <path d="M7.625618,11.604131 L4.067679,11.604131 C1.859858,11.604131 0.063679,9.807952 0.063679,7.600131 L0.063679,4.042192 C0.063679,1.834371 1.859858,0.038192 4.067679,0.038192 L7.625618,0.038192 C9.833439,0.038192 11.629618,1.834371 11.629618,4.042192 L11.629618,7.600131 C11.629618,9.807952 9.833439,11.604131 7.625618,11.604131 Z M4.067679,0.346192 C2.02972,0.346192 0.371679,2.004156 0.371679,4.042192 L0.371679,7.600131 C0.371679,9.638167 2.02972,11.296131 4.067679,11.296131 L7.625618,11.296131 C9.663577,11.296131 11.321618,9.638167 11.321618,7.600131 L11.321618,4.042192 C11.321618,2.004156 9.663577,0.346192 7.625618,0.346192 L4.067679,0.346192 Z" id="Shape" fill="#F8CC00"></path>
                        <path d="M10.653104,7.340256 C10.653104,9.155839 9.181249,10.627694 7.365666,10.627694 L4.327631,10.627694 C2.511971,10.627694 1.040193,9.155839 1.040193,7.340256 L1.040193,4.302221 C1.040193,2.486638 2.512048,1.014783 4.327631,1.014783 L7.365666,1.014783 C9.181326,1.014783 10.653104,2.486638 10.653104,4.302221 L10.653104,7.340256 Z" id="Path" fill="#FFFFFF"></path>
                        <path d="M7.365666,10.781694 L4.327631,10.781694 C2.429966,10.781694 0.886193,9.237844 0.886193,7.340256 L0.886193,4.302221 C0.886193,2.404556 2.430043,0.860783 4.327631,0.860783 L7.365666,0.860783 C9.263331,0.860783 10.807104,2.404633 10.807104,4.302221 L10.807104,7.340256 C10.807104,9.237921 9.263254,10.781694 7.365666,10.781694 Z M4.327631,1.168783 C2.599828,1.168783 1.194193,2.574495 1.194193,4.302221 L1.194193,7.340256 C1.194193,9.067982 2.599828,10.473694 4.327631,10.473694 L7.365666,10.473694 C9.093469,10.473694 10.499104,9.067982 10.499104,7.340256 L10.499104,4.302221 C10.499104,2.574495 9.093469,1.168783 7.365666,1.168783 L4.327631,1.168783 L4.327631,1.168783 Z" id="Shape" fill="#AA0909"></path>
                        <path d="M8.808877,6.757366 C8.808877,7.87633 7.901817,8.78339 6.782853,8.78339 L4.910521,8.78339 C3.791557,8.78339 2.884497,7.87633 2.884497,6.757366 L2.884497,4.885034 C2.884497,3.76607 3.791557,2.85901 4.910521,2.85901 L6.782853,2.85901 C7.901817,2.85901 8.808877,3.76607 8.808877,4.885034 L8.808877,6.757366 Z" id="Path" fill="#F8CC00"></path>
                        <path d="M6.782776,8.93739 L4.910444,8.93739 C3.708397,8.93739 2.73042,7.959413 2.73042,6.757366 L2.73042,4.885034 C2.73042,3.682987 3.708397,2.70501 4.910444,2.70501 L6.782776,2.70501 C7.984823,2.70501 8.9628,3.682987 8.9628,4.885034 L8.9628,6.757366 C8.962877,7.959413 7.9849,8.93739 6.782776,8.93739 Z M4.910444,3.012933 C3.878182,3.012933 3.03842,3.852695 3.03842,4.884957 L3.03842,6.757289 C3.03842,7.789551 3.878259,8.629313 4.910444,8.629313 L6.782776,8.629313 C7.815038,8.629313 8.6548,7.789551 8.6548,6.757289 L8.6548,4.884957 C8.6548,3.852695 7.814961,3.012933 6.782776,3.012933 L4.910444,3.012933 Z" id="Shape" fill="#F8CC00"></path>
                        <path d="M3.540922,8.32986 C3.530758,8.32986 3.520363,8.327935 3.51043,8.323777 C3.469851,8.306837 3.450678,8.260329 3.467541,8.219673 C3.483865,8.180403 5.137363,4.28505 8.249318,3.444364 C8.291822,3.432814 8.335404,3.457993 8.346877,3.50042 C8.358273,3.542847 8.333248,3.586506 8.290821,3.597979 C5.254865,4.418106 3.630473,8.242311 3.614457,8.280888 C3.601675,8.31138 3.572107,8.32986 3.540922,8.32986 Z M5.84661,8.87733 C5.836985,8.87733 5.827129,8.875636 5.817581,8.871863 C5.776694,8.85577 5.756597,8.80957 5.77269,8.768683 C5.782546,8.743504 6.020399,8.144521 6.503882,7.476623 C6.952484,6.856927 7.704235,6.064751 8.738345,5.809958 C8.780772,5.799255 8.824123,5.825512 8.834595,5.86817 C8.845144,5.910828 8.819041,5.953871 8.776383,5.96442 C6.881721,6.431194 5.930232,8.802948 5.920838,8.826895 C5.908364,8.858234 5.878334,8.87733 5.84661,8.87733 Z M2.88442,5.636631 C2.877875,5.636631 2.871099,5.635784 2.8644,5.63409 C2.821896,5.623002 2.796332,5.579651 2.807343,5.537147 C2.812733,5.51628 3.371522,3.45037 5.549236,2.782857 C5.59097,2.769767 5.635707,2.793637 5.648643,2.835602 C5.661502,2.877644 5.637863,2.922073 5.595898,2.934932 C3.502191,3.576727 2.966502,5.55709 2.961343,5.576956 C2.952103,5.612915 2.919763,5.636631 2.88442,5.636631 Z M2.917222,7.200039 C2.907135,7.200039 2.896894,7.198114 2.887038,7.194033 C2.846382,7.177324 2.826978,7.130893 2.843687,7.090237 C2.858163,7.055125 4.320316,3.571799 7.283122,2.849 C7.325626,2.838759 7.368823,2.864708 7.379218,2.907443 C7.389613,2.950178 7.36351,2.993144 7.320775,3.003616 C4.437433,3.706934 3.005002,7.11634 2.990834,7.150682 C2.978206,7.181482 2.948484,7.200039 2.917222,7.200039 Z M4.576649,8.835134 C4.568487,8.835134 4.560171,8.833825 4.551932,8.831207 C4.510198,8.817501 4.487406,8.77261 4.501035,8.730799 C4.513047,8.69407 5.735499,5.056898 8.79648,4.573646 C8.839908,4.566562 8.880564,4.596438 8.887494,4.639789 C8.894347,4.68314 8.864702,4.72395 8.821351,4.730803 C5.855465,5.19904 4.664044,8.744505 4.65234,8.78031 C4.641252,8.813882 4.610144,8.835134 4.576649,8.835134 Z M7.118265,8.835134 C7.109564,8.835134 7.100709,8.833671 7.092008,8.830668 C7.050505,8.816192 7.028637,8.770839 7.04319,8.729336 C7.062594,8.673665 7.533064,7.361508 8.749048,6.919605 C8.79032,6.904359 8.835981,6.925842 8.850996,6.967191 C8.866011,7.008463 8.844682,7.054124 8.80341,7.069062 C7.657727,7.485478 7.197883,8.768837 7.19334,8.781773 C7.181867,8.814652 7.151144,8.835134 7.118265,8.835134 Z" id="Shape" fill="#000000"></path>
                    </g>
                    <g id="Group" transform="translate(13.090000, 11.319000)">
                        <path d="M11.426107,7.567329 C11.426107,9.693607 9.702385,11.417329 7.576107,11.417329 L4.018168,11.417329 C1.89189,11.417329 0.168168,9.693607 0.168168,7.567329 L0.168168,4.00939 C0.168168,1.883112 1.89189,0.15939 4.018168,0.15939 L7.576107,0.15939 C9.702385,0.15939 11.426107,1.883112 11.426107,4.00939 L11.426107,7.567329 Z" id="Path" fill="#000000"></path>
                        <path d="M7.576107,11.571329 L4.018168,11.571329 C1.810347,11.571329 0.014168,9.77515 0.014168,7.567329 L0.014168,4.00939 C0.014168,1.801569 1.810347,0.00539 4.018168,0.00539 L7.576107,0.00539 C9.783928,0.00539 11.580107,1.801569 11.580107,4.00939 L11.580107,7.567329 C11.580107,9.77515 9.783928,11.571329 7.576107,11.571329 Z M4.018168,0.31339 C1.980209,0.31339 0.322168,1.971354 0.322168,4.00939 L0.322168,7.567329 C0.322168,9.605365 1.980209,11.263329 4.018168,11.263329 L7.576107,11.263329 C9.614066,11.263329 11.272107,9.605365 11.272107,7.567329 L11.272107,4.00939 C11.272107,1.971354 9.614066,0.31339 7.576107,0.31339 L4.018168,0.31339 Z" id="Shape" fill="#000000"></path>
                        <path d="M10.603593,7.307454 C10.603593,9.123037 9.131738,10.594892 7.316155,10.594892 L4.27812,10.594892 C2.46246,10.594892 0.990682,9.123037 0.990682,7.307454 L0.990682,4.269419 C0.990682,2.453836 2.462537,0.981981 4.27812,0.981981 L7.316155,0.981981 C9.131815,0.981981 10.603593,2.453836 10.603593,4.269419 L10.603593,7.307454 Z" id="Path" fill="#FFFFFF"></path>
                        <path d="M7.316155,10.748969 L4.27812,10.748969 C2.380455,10.748969 0.836682,9.205119 0.836682,7.307531 L0.836682,4.269496 C0.836682,2.371831 2.380532,0.828058 4.27812,0.828058 L7.316155,0.828058 C9.21382,0.828058 10.757593,2.371908 10.757593,4.269496 L10.757593,7.307531 C10.757593,9.205119 9.21382,10.748969 7.316155,10.748969 Z M4.27812,1.135981 C2.550317,1.135981 1.144682,2.541693 1.144682,4.269419 L1.144682,7.307454 C1.144682,9.03518 2.550317,10.440892 4.27812,10.440892 L7.316155,10.440892 C9.043958,10.440892 10.449593,9.03518 10.449593,7.307454 L10.449593,4.269419 C10.449593,2.541693 9.043958,1.135981 7.316155,1.135981 L4.27812,1.135981 Z" id="Shape" fill="#AA0909"></path>
                        <path d="M8.759366,6.724564 C8.759366,7.843528 7.852306,8.750588 6.733342,8.750588 L4.86101,8.750588 C3.742046,8.750588 2.834986,7.843528 2.834986,6.724564 L2.834986,4.852232 C2.834986,3.733268 3.742046,2.826208 4.86101,2.826208 L6.733342,2.826208 C7.852306,2.826208 8.759366,3.733268 8.759366,4.852232 L8.759366,6.724564 Z" id="Path" fill="#F8CC00"></path>
                        <path d="M6.733342,8.904665 L4.86101,8.904665 C3.658963,8.904665 2.680986,7.926688 2.680986,6.724641 L2.680986,4.852309 C2.680986,3.650262 3.658963,2.672285 4.86101,2.672285 L6.733342,2.672285 C7.935389,2.672285 8.913366,3.650262 8.913366,4.852309 L8.913366,6.724641 C8.913366,7.926611 7.935389,8.904665 6.733342,8.904665 Z M4.860933,2.980131 C3.828671,2.980131 2.988909,3.819893 2.988909,4.852155 L2.988909,6.724487 C2.988909,7.756749 3.828748,8.596511 4.860933,8.596511 L6.733265,8.596511 C7.765527,8.596511 8.605289,7.756749 8.605289,6.724487 L8.605289,4.852155 C8.605289,3.819893 7.76545,2.980131 6.733265,2.980131 L4.860933,2.980131 L4.860933,2.980131 Z" id="Shape" fill="#F8CC00"></path>
                        <path d="M3.491488,8.297058 C3.481324,8.297058 3.470929,8.295133 3.460996,8.290975 C3.420417,8.274035 3.401244,8.227527 3.418107,8.186871 C3.434431,8.147601 5.087929,4.252248 8.199884,3.411562 C8.242542,3.400166 8.286047,3.425191 8.297443,3.467618 C8.308839,3.510045 8.283814,3.553704 8.241387,3.565177 C5.205431,4.385304 3.581039,8.209509 3.565023,8.248086 C3.552241,8.278655 3.522673,8.297058 3.491488,8.297058 Z M5.797099,8.844528 C5.787474,8.844528 5.777618,8.842834 5.76807,8.839061 C5.727183,8.822968 5.707086,8.776768 5.723179,8.735881 C5.733035,8.710702 5.970888,8.111719 6.454371,7.443821 C6.902973,6.824125 7.654724,6.031949 8.688834,5.777156 C8.731415,5.766607 8.774612,5.79271 8.785084,5.835368 C8.795633,5.878026 8.76953,5.921069 8.726872,5.931618 C6.83221,6.398392 5.880721,8.770146 5.871327,8.794093 C5.858853,8.825432 5.8289,8.844528 5.797099,8.844528 Z M2.834909,5.603829 C2.828364,5.603829 2.821588,5.602982 2.814889,5.601288 C2.772385,5.5902 2.746821,5.546849 2.757832,5.504345 C2.763222,5.483478 3.322011,3.417568 5.499725,2.750055 C5.541536,2.737042 5.586196,2.760835 5.599132,2.8028 C5.611991,2.844842 5.588352,2.889271 5.546387,2.90213 C3.45268,3.543925 2.916991,5.524288 2.911832,5.544154 C2.902592,5.580113 2.870329,5.603829 2.834909,5.603829 Z M2.867711,7.167237 C2.857624,7.167237 2.847383,7.165312 2.837527,7.161231 C2.796871,7.144522 2.777467,7.098091 2.794176,7.057435 C2.808652,7.022323 4.270805,3.538997 7.233611,2.816198 C7.276038,2.805957 7.319312,2.831983 7.329707,2.874641 C7.340102,2.917376 7.313999,2.960342 7.271264,2.970814 C4.387922,3.674132 2.955491,7.083538 2.941323,7.11788 C2.928695,7.14868 2.898973,7.167237 2.867711,7.167237 Z M4.527138,8.802332 C4.518976,8.802332 4.51066,8.801023 4.502421,8.798405 C4.460687,8.784699 4.437895,8.739808 4.451524,8.697997 C4.463536,8.661268 5.685988,5.024096 8.746969,4.540844 C8.790243,4.534068 8.831053,4.563636 8.837983,4.606987 C8.844836,4.650338 8.815191,4.691148 8.77184,4.698001 C5.805954,5.166238 4.614533,8.711703 4.602829,8.747508 C4.591818,8.78108 4.560633,8.802332 4.527138,8.802332 Z M7.068754,8.802332 C7.060053,8.802332 7.051198,8.800869 7.042497,8.797866 C7.000994,8.78339 6.979126,8.738037 6.993679,8.696534 C7.013083,8.640863 7.483553,7.328706 8.699537,6.886803 C8.740809,6.871557 8.78647,6.89304 8.801485,6.934389 C8.8165,6.975661 8.795171,7.021322 8.753899,7.03626 C7.608216,7.452676 7.148372,8.736035 7.143829,8.748971 C7.132433,8.78185 7.101633,8.802332 7.068754,8.802332 Z" id="Shape" fill="#000000"></path>
                        <path d="M5.797176,8.750665 L4.86101,8.750665 C3.742046,8.750665 2.834986,7.843605 2.834986,6.724641 L2.834986,4.852309 C2.834986,3.733345 3.742046,2.826285 4.86101,2.826285 L5.8212,2.826285" id="Path" fill="#FF0000"></path>
                        <path d="M5.797176,8.904665 L4.86101,8.904665 C3.658963,8.904665 2.680986,7.926688 2.680986,6.724641 L2.680986,4.852309 C2.680986,3.650262 3.658963,2.672285 4.86101,2.672285 L5.8212,2.672285 C5.906208,2.672285 5.9752,2.741277 5.9752,2.826285 C5.9752,2.911293 5.906208,2.980285 5.8212,2.980285 L4.860933,2.980285 C3.828671,2.980285 2.988909,3.820047 2.988909,4.852309 L2.988909,6.724641 C2.988909,7.756903 3.828748,8.596665 4.860933,8.596665 L5.797099,8.596665 C5.882107,8.596665 5.951099,8.665657 5.951099,8.750665 C5.951099,8.835673 5.882184,8.904665 5.797176,8.904665 Z" id="Path" fill="#AA0909"></path>
                    </g>
                    <path d="M16.779224,19.790001 C16.77445,19.790001 16.769522,19.789539 16.764594,19.788615 C16.721397,19.780607 16.692907,19.739027 16.700992,19.69583 C17.07783,17.674041 16.704072,14.559853 16.700222,14.528591 C16.694909,14.485086 16.725863,14.445354 16.769522,14.440041 C16.813181,14.435113 16.852836,14.465682 16.858149,14.509341 C16.861999,14.540757 17.238683,17.679354 16.857379,19.725013 C16.850218,19.763282 16.8168,19.790001 16.779224,19.790001 Z M17.787693,20.126568 C17.783381,20.126568 17.778992,20.126183 17.77468,20.12549 C17.731329,20.118329 17.701992,20.077365 17.709076,20.034014 C18.086376,17.747576 17.71231,14.226135 17.708537,14.190869 C17.703763,14.14721 17.73541,14.10794 17.779069,14.103166 C17.822805,14.098392 17.861998,14.130039 17.866695,14.173698 C17.870545,14.209195 18.246921,17.751888 17.866156,20.059809 C17.859611,20.098848 17.825885,20.126568 17.787693,20.126568 Z M18.716852,20.126568 C18.71254,20.126568 18.708151,20.126183 18.703839,20.12549 C18.660488,20.118329 18.631151,20.077365 18.638235,20.034014 C19.015535,17.747576 18.641469,14.226135 18.637696,14.190869 C18.632922,14.14721 18.664569,14.10794 18.708228,14.103166 C18.752118,14.098392 18.791157,14.130039 18.795854,14.173698 C18.799704,14.209195 19.17608,17.751888 18.795315,20.059809 C18.78877,20.098848 18.755044,20.126568 18.716852,20.126568 Z" id="Shape" fill="#000000"></path>
                </g>
            </g>
        </g>
    </g>
</svg>