<?xml version="1.0" encoding="UTF-8"?>
<svg width="77px" height="77px" viewBox="0 0 77 77" version="1.1" xmlns="http://www.w3.org/2000/svg" xmlns:xlink="http://www.w3.org/1999/xlink">
    <!-- Generator: Sketch 58 (84663) - https://sketch.com -->
    <title>Group 16</title>
    <desc>Created with Sketch.</desc>
    <g id="Page-1" stroke="none" stroke-width="1" fill="none" fill-rule="evenodd">
        <g id="Dashboard-Fridge" transform="translate(-1057.000000, -165.000000)">
            <g id="Group-16" transform="translate(1057.384996, 165.293524)">
                <circle id="Oval" fill="#F8F8F8" cx="38" cy="38" r="38"></circle>
                <g id="milk-bottle" transform="translate(26.500000, 19.500000)" fill-rule="nonzero">
                    <path d="M20.1903,31.2 L20.1903,22.0974 L19.3973,22.88 C18.6862,23.5807 17.7359,23.9369 16.7817,23.9369 C15.9445,23.9369 15.1073,23.6626 14.4287,23.1062 L12.4878,21.5098 C12.0445,21.1497 11.2411,21.1523 10.8056,21.5228 L8.9661,23.0724 C8.0535,23.8407 6.838,24.0851 5.7278,23.8316 L5.7499,29.8493 C5.512,32.5442 6.682,33.4789 7.5998,33.8 L17.5916,33.8 C19.0242,33.8 20.1903,32.6339 20.1903,31.2 Z" id="Path" fill="#ED8178"></path>
                    <path d="M11.7,21.2498 C11.3698,21.2407 11.037,21.3265 10.8056,21.5228 L8.9661,23.0724 C8.0535,23.8407 6.838,24.0851 5.7278,23.8316 L5.7499,29.8493 C5.512,32.5442 6.682,33.4789 7.5998,33.8 L11.7,33.8 L11.7,21.2498 Z" id="Path" fill="#FAFAFC" opacity="0.3"></path>
                    <path d="M22.7682,12.4865 C22.7604,12.3994 22.7422,12.3162 22.7162,12.2317 C22.6902,12.1459 22.6603,12.0666 22.6187,11.9886 C22.5992,11.9535 22.5966,11.9145 22.5758,11.882 L19.565,7.332 C20.6856,6.6742 21.45,5.382 21.45,3.9 C21.45,1.7498 19.8419,0 17.8633,0 L5.6069,0 C3.6296,0 2.0215,1.7498 2.0215,3.9 C2.0215,5.2871 2.691,6.5078 3.7154,7.1994 L0.8047,11.9171 C0.7865,11.9444 0.7865,11.9782 0.7722,12.0068 C0.7306,12.0861 0.7046,12.168 0.6812,12.2551 C0.6565,12.3383 0.637,12.4189 0.6305,12.5034 C0.6279,12.5372 0.611,12.5671 0.611,12.6009 L0.6474,31.2013 C0.6513,34.0678 2.9874,36.4 5.8539,36.4 L17.5903,36.4 C20.4581,36.4 22.7903,34.0678 22.7903,31.2 L22.7903,12.5996 C22.7903,12.5593 22.7721,12.5268 22.7682,12.4865 Z M5.6069,2.6 L17.8633,2.6 C18.3976,2.6 18.85,3.1954 18.85,3.9 C18.85,4.498 18.5185,4.9933 18.0947,5.1363 C17.9868,5.109 17.8828,5.07 17.7658,5.07 L5.2,5.07 C4.8633,4.8607 4.6215,4.4122 4.6215,3.9 C4.6215,3.1954 5.0726,2.6 5.6069,2.6 Z M20.1903,31.2 C20.1903,32.6339 19.0242,33.8 17.5903,33.8 L5.8539,33.8 C4.4187,33.8 3.2487,32.6326 3.2461,31.1974 L3.2279,22.1637 L3.9975,22.906 C5.3469,24.2073 7.5309,24.2801 8.9661,23.0724 L10.8056,21.5228 C11.2411,21.1523 12.0445,21.1497 12.4878,21.5098 L14.4287,23.1062 C15.106,23.6626 15.9445,23.9369 16.7817,23.9369 C17.7346,23.9369 18.6862,23.582 19.3973,22.88 L20.1903,22.0974 L20.1903,31.2 L20.1903,31.2 Z M20.1903,18.4457 L17.5708,21.0262 C17.1899,21.4006 16.4944,21.4331 16.0784,21.0951 L14.1362,19.4974 C12.7244,18.3404 10.5248,18.356 9.1299,19.5325 L7.2917,21.0821 C6.8822,21.4253 6.1841,21.4019 5.8019,21.0314 L3.2214,18.5406 L3.211,12.9675 L6.4779,7.67 L16.6686,7.67 L20.1903,12.9909 L20.1903,18.4457 L20.1903,18.4457 Z" id="Shape" fill="#5C3837"></path>
                </g>
            </g>
        </g>
    </g>
</svg>