<svg width="48" height="50" viewBox="0 0 48 50" fill="none" xmlns="http://www.w3.org/2000/svg">
<path d="M47.2188 22.4863H25.0117V31.2461H37.2285C36.9062 36.9297 32.0723 40.3867 25.334 40.3867C16.1055 40.3867 9.71875 33.6484 9.71875 25.4453C9.71875 16.627 17.1309 10.416 24.4551 10.416C28.6738 10.416 32.8926 12.4668 36.584 16.0703L41.8574 8.18945C37.2285 3.67773 30.6953 0.865234 24.5723 0.806641C11.0664 0.806641 0.0507812 11.9395 0.0507812 25.4453C0.0507812 38.9219 11.0078 49.9375 24.9238 49.9375C37.2285 49.9375 47.4531 41.2949 47.4531 26.4707C47.4531 25.1816 47.3652 23.8633 47.2188 22.4863Z" fill="#629926"/>
</svg>
