<?xml version="1.0" encoding="UTF-8"?>
<svg width="77px" height="77px" viewBox="0 0 77 77" version="1.1" xmlns="http://www.w3.org/2000/svg" xmlns:xlink="http://www.w3.org/1999/xlink">
    <title>Group 15</title>
    <g id="Page-1" stroke="none" stroke-width="1" fill="none" fill-rule="evenodd">
        <g id="Dashboard-products" transform="translate(-328.000000, -165.000000)">
            <g id="Group-15" transform="translate(328.974768, 165.533125)">
                <circle id="Oval" fill="#F8F8F8" cx="38" cy="38" r="38"></circle>
                <g id="grocery-basket(1)" transform="translate(18.000000, 18.000000)" fill-rule="nonzero">
                    <polygon id="Path" fill="#EA9D5E" points="39.06 20.16 19.53 13.86 0 20.16 19.53 25.2"></polygon>
                    <path d="M34.32114,7.70868 C32.9328247,7.23064174 31.4178614,7.95557972 30.91914,9.3366 L26.6742,22.0563 L23.94,30.24 L28.32543,29.8746 C31.12578,22.365 37.06857,15.35877 34.32114,7.70868 Z" id="Path" fill="#EFC3B1"></path>
                    <path d="M36.1242,8.3853 L34.4484,7.7427 C34.40619,7.72695 34.36335,7.72254 34.3224,7.70868 C37.06857,15.35877 31.12578,22.365 28.32543,29.8746 L31.5,29.61 L34.7949,19.9584 L37.6614,11.5605 C38.0987709,10.2601151 37.4155079,8.84878488 36.1242,8.3853 Z" id="Path" fill="#EFB297"></path>
                    <path d="M34.02,14.4900094 C33.7800799,14.4913096 33.5602423,14.3562317 33.453,14.14161 L32.193,11.62161 C32.0374711,11.3102042 32.1638342,10.9316789 32.47524,10.77615 C32.7866458,10.6206211 33.1651711,10.7469842 33.3207,11.05839 L34.5807,13.57839 C34.6780637,13.7732281 34.6678791,14.0045369 34.553768,14.1900637 C34.4396568,14.3755905 34.2378086,14.4890136 34.02,14.4900094 L34.02,14.4900094 Z M32.76,18.2700094 C32.5200799,18.2713096 32.3002423,18.1362317 32.193,17.92161 L30.933,15.40161 C30.7774711,15.0902042 30.9038342,14.7116789 31.21524,14.55615 C31.5266458,14.4006211 31.9051711,14.5269842 32.0607,14.83839 L33.3207,17.35839 C33.4180637,17.5532281 33.4078791,17.7845369 33.293768,17.9700637 C33.1796568,18.1555905 32.9778086,18.2690136 32.76,18.2700094 L32.76,18.2700094 Z" id="Shape" fill="#FCE4DB"></path>
                    <path d="M26.6742,22.0563 L23.94,30.24 L28.32543,29.8746 C29.51298,26.68932 31.26312,23.59539 32.67999,20.50461 L26.6742,22.0563 Z" id="Path" fill="#EFB297"></path>
                    <path d="M28.32543,29.8746 L31.5,29.61 L34.7949,19.9584 L32.67999,20.50461 C31.26312,23.59539 29.51298,26.68932 28.32543,29.8746 Z" id="Path" fill="#EFB297"></path>
                    <polygon id="Path" fill="#AD5B56" points="12.6 8.82 10.6974 9.4122 2.52 11.97 1.89 8.82 9.6957 6.741 11.34 6.3"></polygon>
                    <polygon id="Path" fill="#9B4846" points="12.6 8.82 10.6974 9.4122 9.6957 6.741 11.34 6.3"></polygon>
                    <path d="M2.52,13.86 L1.26,15.12 L1.26,21.25305 C1.512,18.96426 2.56725,16.67547 3.04668,14.38605 L2.52,13.86 Z" id="Path" fill="#FF8680"></path>
                    <path d="M5.3865,23.1525 L4.662,19.53 L3.78,15.12 L3.04668,14.38668 C2.56725,16.67547 1.512,18.963 1.26,21.25305 L1.26,22.05 L5.3865,23.1525 Z" id="Path" fill="#E77973"></path>
                    <polygon id="Path" fill="#AD5B56" points="5.3865 23.1525 1.26 22.05 1.26 18.4779 4.41 19.53 4.662 19.53"></polygon>
                    <polygon id="Path" fill="#FF8680" points="20.16 27.09 5.3865 23.1525 4.6116 19.2843 3.78 15.12 2.52 13.86 2.52 11.97 10.71 9.4122 12.6 8.82 12.6 11.34 13.86 11.97"></polygon>
                    <polygon id="Path" fill="#E77973" points="3.78 15.12 13.86 11.97 12.6 11.34 2.52 13.86"></polygon>
                    <polygon id="Path" fill="#E77973" points="20.16 27.09 5.3865 23.1525 4.6116 19.2843 15.12 22.05 12.6 13.23 10.71 12.6 10.71 9.4122 12.6 8.82 12.6 11.34 13.86 11.97"></polygon>
                    <path d="M20.79,2.52 L20.79,7.07364 C21.0815019,5.56957031 21.278448,4.04870896 21.37968,2.52 L20.79,2.52 Z M20.69802,7.56 L20.16,7.56 C18.7682424,7.56 17.64,8.68824243 17.64,10.08 L17.64,23.94 C17.64,24.6358788 18.2041212,25.2 18.9,25.2 L20.04975,25.2 C20.34081,24.85476 20.64825,24.50196 20.95884,24.14223 C17.93169,18.9882 19.59741,13.34025 20.69802,7.56 Z" id="Shape" fill="#C3DCE6"></path>
                    <path d="M23.94,14.49 C22.19742,10.56951 22.56282,6.64902 22.32972,2.52 L21.37968,2.52 C21.278448,4.04870896 21.0815019,5.56957031 20.79,7.07364 L20.79,7.56 L20.69802,7.56 C19.59741,13.34025 17.93169,18.9882 20.95884,24.14223 C23.36607,21.357 26.0253,18.13896 23.94,14.49 Z" id="Path" fill="#B4D3E0"></path>
                    <path d="M23.94,7.56 L23.31,7.56 L23.31,2.52 L22.32972,2.52 C22.56282,6.64902 22.19742,10.56951 23.94,14.49 C26.29431,18.60957 22.60062,22.17978 20.04975,25.2 L25.2,25.2 C25.8958788,25.2 26.46,24.6358788 26.46,23.94 L26.46,10.08 C26.46,8.68824243 25.3317576,7.56 23.94,7.56 Z" id="Path" fill="#99C6D6"></path>
                    <path d="M20.79,0 L23.31,0 C23.6579394,0 23.94,0.282060608 23.94,0.63 L23.94,2.52 L20.16,2.52 L20.16,0.63 C20.16,0.282060608 20.4420606,0 20.79,0 Z" id="Path" fill="#5D99AF"></path>
                    <path d="M29.6100631,22.5666 L29.6100631,28.98 L10.71,25.83 L10.4391,22.5351 C10.3106616,22.1948989 10.217767,21.8423217 10.1619,21.483 C10.1056977,21.1775406 10.0782776,20.867482 10.0799058,20.5569 C10.0731337,19.3827051 10.441772,18.2370569 11.1321,17.2872 C12.0463077,15.9884966 13.5318218,15.2117111 15.12,15.2019 C16.1587962,15.2027167 17.1692101,15.5409954 17.9991,16.1658 C18.5952523,14.7984141 19.9288331,13.8995364 21.42,13.86 C23.0564077,13.8895764 24.4902563,14.9630595 24.9795,16.5249 C25.0561177,16.7591408 25.1130159,16.9993776 25.1496,17.2431 C27.3111436,17.5523325 29.0429183,19.1907024 29.4714,21.3318 C29.5655054,21.7366021 29.6120204,22.1510083 29.6100631,22.5666 Z" id="Path" fill="#00C8C8"></path>
                    <path d="M29.547,21.7476 C28.7859837,20.3198354 27.3833875,19.3464617 25.7796,19.1331 C25.7430159,18.8893776 25.6861177,18.6491408 25.6095,18.4149 C25.1202563,16.8530595 23.6864077,15.7795764 22.05,15.75 C20.5588331,15.7895364 19.2252523,16.6884141 18.6291,18.0558 C17.7992101,17.4309954 16.7887962,17.0927167 15.75,17.0919 C14.1618218,17.1017111 12.6763077,17.8784966 11.7621,19.1772 C10.6692241,20.7010111 10.4092355,22.6698346 11.0691,24.4251 L11.1888,25.9119 L10.71,25.83 L10.4391,22.5351 C9.77923545,20.7798346 10.0392241,18.8110111 11.1321,17.2872 C12.0463077,15.9884966 13.5318218,15.2117111 15.12,15.2019 C16.1587962,15.2027167 17.1692101,15.5409954 17.9991,16.1658 C18.5952523,14.7984141 19.9288331,13.8995364 21.42,13.86 C23.0564077,13.8895764 24.4902563,14.9630595 24.9795,16.5249 C25.0561177,16.7591408 25.1130159,16.9993776 25.1496,17.2431 C27.4639927,17.5801456 29.2657335,19.4257683 29.547,21.7476 L29.547,21.7476 Z" id="Path" fill="#64E1DC"></path>
                    <path d="M29.6100631,22.5666 L29.6100631,28.98 L10.71,25.83 L10.4391,22.5351 C10.3106616,22.1948989 10.217767,21.8423217 10.1619,21.483 L19.53,23.8959 L29.4714,21.3318 C29.5655054,21.7366021 29.6120204,22.1510083 29.6100631,22.5666 L29.6100631,22.5666 Z" id="Path" fill="#1CADB5"></path>
                    <polygon id="Path" fill="#FEBD73" points="39.06 20.16 39.06 34.02 35.28 34.9965 20.16 38.8962 19.53 39.06 18.9 38.8962 0 34.02 0 20.16 18.9 25.0362 19.53 25.2 20.16 25.0362 35.28 21.1365"></polygon>
                    <path d="M39.06,20.16 L39.06,34.02 L19.53,39.06 L33.7176,25.326 L36.6975,24.5511 C37.0350012,24.4641152 37.2380848,24.1200012 37.1511,23.7825 C37.0641152,23.4449988 36.7200012,23.2419152 36.3825,23.3289 L35.5635,23.5431 L39.06,20.16 Z" id="Path" fill="#EA9D5E"></path>
                    <polygon id="Path" fill="#EA9D5E" points="39.06 32.13 39.06 34.02 20.16 38.8962 19.53 39.06 18.9 38.8962 0 34.02 0 32.13 18.9 37.0062 19.53 37.17 20.16 37.0062"></polygon>
                    <polygon id="Path" fill="#EA9D5E" points="20.16 25.0362 20.16 38.8962 19.53 39.06 18.9 38.8962 18.9 25.0362 19.53 25.2"></polygon>
                    <path d="M17.01,35.91 C16.9564563,35.9097735 16.903141,35.9030033 16.85124,35.88984 L2.36124,32.10984 C2.03148841,32.0169574 1.8363969,31.6775991 1.92206311,31.3458996 C2.00772932,31.0142 2.34275038,30.811751 2.67624,30.89016 L17.16624,34.67016 C17.4728841,34.7496507 17.6728146,35.044476 17.6332084,35.35877 C17.5936023,35.673064 17.3267783,35.9090707 17.01,35.91 Z M35.5635,23.5431 L33.7176,25.326 L22.2075,28.3311 C22.1559289,28.3435884 22.1030616,28.3499324 22.05,28.35 C21.7632125,28.3478733 21.5131415,28.1545195 21.4389,27.8775 C21.396831,27.7154129 21.421024,27.5432461 21.5061349,27.3990304 C21.5912458,27.2548147 21.7302708,27.1504177 21.8925,27.1089 L35.5635,23.5431 Z" id="Shape" fill="#EAEFF5"></path>
                    <path d="M36.6975,24.5511 L33.7176,25.326 L35.5635,23.5431 L36.3825,23.3289 C36.7200012,23.2419152 37.0641152,23.4449988 37.1511,23.7825 C37.2380848,24.1200012 37.0350012,24.4641152 36.6975,24.5511 L36.6975,24.5511 Z" id="Path" fill="#B4D3E0"></path>
                </g>
            </g>
        </g>
    </g>
</svg>