<?xml version="1.0" encoding="UTF-8"?>
<svg width="20px" height="24px" viewBox="0 0 20 24" version="1.1" xmlns="http://www.w3.org/2000/svg" xmlns:xlink="http://www.w3.org/1999/xlink">
    <title>kitchen-book</title>
    <g id="Page-1" stroke="none" stroke-width="1" fill="none" fill-rule="evenodd">
        <g id="Dashboard-shop" transform="translate(-38.000000, -342.000000)" fill-rule="nonzero">
            <g id="Group-4" transform="translate(0.000000, -1.000000)">
                <g id="kitchen-book" transform="translate(38.375000, 343.027500)">
                    <g id="Group" transform="translate(0.480000, 0.480000)">
                        <path d="M17.9304,0.8352 L17.9304,17.93376 C17.9304,18.39504 17.53632,18.76896 17.0496,18.76896 L1.6656,18.76896 C1.23384318,18.7666887 0.817691926,18.9302626 0.50304,19.22592 C0.197254279,19.511233 0.0230157295,19.9102619 0.0216,20.32848 L0.0216,0.83568 C0.0216,0.37392 0.41616,0 0.9024,0 L17.0496,0 C17.53632,0 17.9304,0.37392 17.9304,0.8352 Z M14.29632,5.27232 L14.20464,2.2968 C14.2010605,2.20064565 14.1586243,2.11005741 14.08704,2.04576 C14.0133883,1.97882376 13.9172824,1.94199173 13.81776,1.94244175 C13.618411,1.93782285 13.4495896,2.08858631 13.43184,2.2872 L13.27008,4.88832 L12.5328,4.88832 L12.37152,2.2872 C12.3535549,2.08850039 12.1845729,1.93778104 11.98512,1.94244175 L11.97552,1.94244175 C11.7760057,1.93761366 11.6069259,2.08842025 11.58912,2.2872 L11.42736,4.88832 L10.69008,4.88832 L10.52832,2.2872 C10.5050628,2.0895698 10.3363367,1.94140028 10.1373581,1.94387053 C9.93837948,1.94634078 9.77338377,2.09865334 9.75504,2.2968 L9.66336,5.27232 C9.66336,6.58896 10.38768,7.86768 11.3736,8.2512 L11.37408,8.2512 L11.03328,15.18672 C11.0328,15.20112 11.03232,15.21552 11.03232,15.22992 C11.03232,15.72432 11.45472,16.12944 11.97984,16.12944 C12.5208,16.12944 12.95232,15.70032 12.92688,15.18672 L12.58608,8.2512 C13.572,7.86768 14.29632,6.58896 14.29632,5.27232 L14.29632,5.27232 Z M8.21856,13.08096 C8.21856,11.67408 7.50528,10.48992 6.53568,10.13856 L6.53616,10.13712 L6.88416,3.0528 C6.88464,3.0384 6.88512,3.02448 6.88512,3.01056 C6.88512,2.51616 6.4632,2.11008 5.93712,2.11008 C5.39616,2.11008 4.96512,2.53968 4.99008,3.0528 L5.33808,10.13712 L5.33856,10.13856 C4.36896,10.48992 3.65568,11.67408 3.65568,13.08096 C3.65568,14.7648 4.67712,16.12944 5.93712,16.12944 C7.19712,16.12944 8.21856,14.7648 8.21856,13.08096 Z" id="Shape" fill="#FDC75B"></path>
                        <path d="M16.75632,18.7689367 L16.75632,21.0528 C16.75632,21.51408 16.36176,21.888 15.87552,21.888 L1.6656,21.888 C0.75744,21.888 0.0216,21.1896 0.0216,20.32848 C0.0230157295,19.9102619 0.197254279,19.511233 0.50304,19.22592 C0.817691926,18.9302626 1.23384318,18.7666887 1.6656,18.7689367 L16.75632,18.7689367 Z" id="Path" fill="#ED664C"></path>
                        <path d="M12.58608,8.2512 C12.1967707,8.40527847 11.7633893,8.40527847 11.37408,8.2512 L11.3736,8.2512 C10.38768,7.86768 9.66336,6.58896 9.66336,5.27232 L9.75504,2.2968 C9.77338377,2.09865334 9.93837948,1.94634078 10.1373581,1.94387053 C10.3363367,1.94140028 10.5050628,2.0895698 10.52832,2.2872 L10.69008,4.88832 L11.42736,4.88832 L11.58912,2.2872 C11.6069259,2.08842025 11.7760057,1.93761366 11.97552,1.94256 L11.98512,1.94256 C12.1845729,1.93778104 12.3535549,2.08850039 12.37152,2.2872 L12.5328,4.88832 L13.27008,4.88832 L13.43184,2.2872 C13.4495896,2.08858631 13.618411,1.93782285 13.81776,1.94256 C13.9172824,1.94199173 14.0133883,1.97882376 14.08704,2.04576 C14.1586243,2.11005741 14.2010605,2.20064565 14.20464,2.2968 L14.29632,5.27232 C14.29632,6.58896 13.572,7.86768 12.58608,8.2512 Z" id="Path" fill="#FDC75B"></path>
                        <path d="M12.92688,15.18672 C12.95232,15.70032 12.5208,16.12944 11.97984,16.12944 C11.45472,16.12944 11.03232,15.72432 11.03232,15.22992 C11.03232,15.21552 11.0328,15.20112 11.03328,15.18672 L11.37408,8.2512 C11.7633893,8.40527847 12.1967707,8.40527847 12.58608,8.2512 L12.92688,15.18672 Z" id="Path" fill="#FDC75B"></path>
                        <path d="M6.53568,10.13856 C7.50528,10.48992 8.21856,11.67408 8.21856,13.08096 C8.21856,14.7648 7.19712,16.12944 5.93712,16.12944 C4.67712,16.12944 3.65568,14.7648 3.65568,13.08096 C3.65568,11.67408 4.36896,10.48992 5.33856,10.13856 C5.72506648,9.99711917 6.14917352,9.99711917 6.53568,10.13856 L6.53568,10.13856 Z" id="Path" fill="#FDC75B"></path>
                        <path d="M6.88512,3.01056 C6.88512,3.02448 6.88464,3.0384 6.88416,3.0528 L6.53616,10.13712 L6.53568,10.13856 C6.14917352,9.99711917 5.72506648,9.99711917 5.33856,10.13856 L5.33808,10.13712 L4.99008,3.0528 C4.96512,2.53968 5.39616,2.11008 5.93712,2.11008 C6.4632,2.11008 6.88512,2.51616 6.88512,3.01056 Z" id="Path" fill="#FDC75B"></path>
                    </g>
                    <g id="Group" fill="#000000">
                        <path d="M17.5296,0 L1.3824,0 C0.632064,0 0,0.5904 0,1.31568 L0,20.80848 C0,21.933024 0.9744,22.848 2.1456,22.848 L16.35552,22.848 C17.105856,22.848 17.712,22.257984 17.712,21.5328 L17.712,19.716624 C18.384,19.6284 18.912,19.077744 18.912,18.41376 L18.912,1.3152 C18.912,0.590016 18.279936,0 17.5296,0 Z M16.752,21.5328 C16.752,21.728688 16.576512,21.888 16.35552,21.888 L2.1456,21.888 C1.503792,21.888 0.9816,21.403728 0.9816,20.80848 C0.982888678,20.5218139 1.10300655,20.2485201 1.313328,20.053728 C1.53857762,19.842221 1.83662312,19.7255743 2.1456,19.728 L16.752,19.728 L16.752,21.5328 Z M17.952,18.41376 C17.952,18.6096 17.7504,18.768 17.5296,18.768 L2.1456,18.768 C1.726176,18.768 1.344,18.885216 0.96,19.101792 L0.96,1.31568 C0.96,1.119552 1.1616,0.96 1.3824,0.96 L17.5296,0.96 C17.7504,0.96 17.952,1.119312 17.952,1.3152 L17.952,18.41376 Z" id="Shape"></path>
                        <path d="M7.511376,10.318368 L7.843584,3.55632 C7.843584,3.553968 7.843824,3.55152 7.843872,3.549168 C7.844544,3.5292 7.84512,3.509856 7.84512,3.49056 C7.84512,2.729328 7.204512,2.11007734 6.41712,2.11007734 C6.02093702,2.10932264 5.64158065,2.27017293 5.366688,2.555472 C5.10843052,2.82279472 4.97231655,3.18507611 4.990656,3.55632 L5.322864,10.318416 C4.326096,10.866672 3.65568,12.141936 3.65568,13.56096 C3.65568,14.478288 3.926976,15.346032 4.4196,16.00416 C4.943328,16.704 5.652768,17.08944 6.41712,17.08944 C7.181472,17.08944 7.89072,16.704048 8.41464,16.004256 C8.907264,15.346032 9.17856,14.478288 9.17856,13.561056 C9.17856,12.141936 8.508144,10.866672 7.511376,10.318368 Z M6.061776,3.217584 C6.15517498,3.12213556 6.28343831,3.06887162 6.416976,3.07005988 C6.675024,3.07005988 6.884976,3.25872 6.884976,3.49056 C6.884976,3.497808 6.884688,3.50496 6.884448,3.512592 L6.564,10.03848 C6.4661872,10.0320001 6.3680528,10.0320001 6.27024,10.03848 L5.949504,3.509424 C5.94503578,3.40080725 5.98568875,3.29517903 6.061824,3.217584 L6.061776,3.217584 Z M7.645776,15.428784 C7.307712,15.880464 6.871296,16.1292 6.416976,16.1292 C5.962656,16.1292 5.526096,15.880464 5.188176,15.428784 C4.819008,14.935488 4.61568,14.271984 4.61568,13.56072 C4.61568,12.385536 5.177568,11.36112 5.982192,11.06952 C6.12205101,11.0214689 6.26926518,10.9983657 6.41712,11.001264 C6.56582624,11.006252 6.71272651,11.0354343 6.852048,11.087664 L6.852048,11.087664 C7.656576,11.375664 8.21846403,12.39456 8.21846403,13.569696 C8.21856,14.281392 8.015232,14.935728 7.646064,15.429024 L7.645776,15.428784 Z M15.164352,2.760432 C15.1570993,2.53543579 15.0586432,2.32306722 14.891616,2.172144 C14.730977,2.02511024 14.521289,1.94325112 14.30352,1.94256 L14.288544,1.94256 C13.844554,1.94362985 13.4742792,2.28234148 13.43376,2.72448 C13.433376,2.7288 13.43304,2.733072 13.4328,2.737392 L13.381632,3.560064 L13.330608,2.737488 C13.33032,2.732688 13.329984,2.727888 13.329504,2.723088 C13.2888754,2.27923147 12.9199052,1.93755406 12.47424,1.931088 C12.469728,1.931088 12.465072,1.919904 12.46056,1.919904 L12.460128,1.919904 C12.009695,1.92184152 11.6339876,2.26472357 11.590992,2.713104 C11.590656,2.717424 11.59032,2.727504 11.590032,2.73168 L11.53872,3.55992 L11.48736,2.736 C11.48736,2.731728 11.486784,2.728128 11.4864,2.723856 C11.4458372,2.28157013 11.0752774,1.94285044 10.631136,1.94208 C10.626336,1.94208 10.621248,1.94232 10.616304,1.942368 C10.1556058,1.93956206 9.77520116,2.30164418 9.75528,2.76192 L9.6636,5.737488 C9.6636,5.742288 9.6636,5.747376 9.6636,5.752272 C9.6636,7.139184 10.3596,8.452272 11.359248,9.024912 L11.033856,15.6432 C11.033856,15.645888 11.033568,15.65064 11.033472,15.653232 C11.032848,15.672432 11.03232,15.691104 11.03232,15.710016 C11.03232,16.47072 11.672688,17.0895391 12.45984,17.0895391 C12.856356,17.0903548 13.2360311,16.9293136 13.51104,16.643664 C13.7691015,16.376416 13.9049842,16.0142415 13.8864,15.6432 L13.561152,9.024768 C14.560608,8.452032 15.256416,7.139136 15.256416,5.752416 C15.256416,5.747616 15.256416,5.742576 15.256416,5.737632 L15.164352,2.760432 Z M12.815664,15.981792 C12.7221037,16.0773986 12.5936029,16.1307196 12.45984,16.1294625 C12.202032,16.1294625 11.99232,15.941232 11.99232,15.70992 C11.99232,15.702576 11.992608,15.695232 11.992896,15.686544 L12.305664,9.321168 C12.357408,9.32496 12.409152,9.327408 12.460992,9.327408 C12.512832,9.327408 12.563424,9.32496 12.614592,9.321264 L12.927456,15.690432 C12.9320454,15.7988258 12.8915807,15.9042876 12.815664,15.981792 L12.815664,15.981792 Z M12.88944,8.2848 C12.613613,8.39433756 12.306355,8.39433756 12.030528,8.2848 C12.026304,8.28312 12.02208,8.281488 12.017856,8.28 C11.236752,7.96896 10.625856,6.865632 10.62336,5.759376 L10.653216,4.7904 L10.690992,5.40192 C10.7063891,5.65573437 10.9158053,5.85421922 11.17008,5.856 L11.90736,5.856 C12.1616173,5.85422087 12.3710267,5.65576346 12.386448,5.401968 L12.460176,4.213968 L12.533712,5.402832 C12.5491318,5.6564912 12.7586759,5.85469838 13.0128,5.856 L13.75008,5.856 C14.0043373,5.85422087 14.2137467,5.65576346 14.229168,5.401968 L14.266608,4.797648 L14.29632,5.760384 C14.29368,6.871248 13.677792,7.978224 12.88944,8.2848 Z" id="Shape"></path>
                    </g>
                </g>
            </g>
        </g>
    </g>
</svg>