<?xml version="1.0" encoding="UTF-8"?>
<svg width="27px" height="33px" viewBox="0 0 27 33" version="1.1" xmlns="http://www.w3.org/2000/svg" xmlns:xlink="http://www.w3.org/1999/xlink">
    <title>new-items</title>
    <g id="Page-1" stroke="none" stroke-width="1" fill="none" fill-rule="evenodd">
        <g id="Dashboard-shop" transform="translate(-34.000000, -465.000000)" fill-rule="nonzero">
            <g id="Group-4" transform="translate(0.000000, -1.000000)">
                <g id="new-items" transform="translate(34.875000, 466.300000)">
                    <polygon id="Path" fill="#F5AA42" points="15.2172 29.3166 15.2172 31.2498 15.1362 31.2498 10.7028 31.2498 10.7028 23.0796 13.7538 25.6662 15.2172 24.057 15.2172 28.7928"></polygon>
                    <polygon id="Path" fill="#F7D44F" points="22.7556 12.7818 24.8562 16.4484 21.2598 18.6624 20.8008 22.8636 16.5888 22.5396 15.2172 24.057 13.7538 25.6662 10.7028 23.0796 10.5354 22.9338 6.4044 23.7924 5.4054 19.6884 1.5552 17.955 3.1644 14.0508 1.0638 10.3842 4.6602 8.1702 5.1192 3.9744 9.3312 4.293 12.1662 1.1718 15.3846 3.9042 19.5156 3.0402 20.5146 7.1442 24.3648 8.8776"></polygon>
                    <path d="M23.3577,12.744 L25.06032,8.59842 L20.97954,6.75918 L19.91844,2.40624 L15.5331,3.32046 L12.11652,0.42066 L9.10764,3.73464 L4.644,3.39714 L4.15422,7.84782 L0.33696,10.19844 L2.5623,14.08644 L0.85968,18.23472 L4.94046,20.07342 L6.00156,24.42528 L10.16388,23.56128 L10.16388,31.25088 C10.16388,31.5491138 10.4056462,31.79088 10.70388,31.79088 L15.21612,31.79088 C15.5143538,31.79088 15.75612,31.5491138 15.75612,31.25088 L15.75612,24.26382 L16.81236,23.0985 L21.2787,23.4414 L21.76848,18.98532 L25.58304,16.63524 L23.3577,12.744 Z M14.15448,26.028 L14.67612,25.45398 L14.67612,30.70872 L11.24388,30.70872 L11.24388,24.246 L13.40388,26.082 L13.40388,26.082 L13.80078,26.41896 L14.1507,26.0334 L14.15448,26.028 Z M20.75274,18.34326 L20.32074,22.28526 L16.36848,21.98232 L13.70682,24.91884 L10.68282,22.3533 L6.804,23.15682 L5.86548,19.30554 L2.25612,17.67852 L3.76272,14.0103 L1.79388,10.56942 L5.1678,8.49042 L5.5998,4.55328 L9.55206,4.85136 L12.21372,1.92078 L15.23772,4.48632 L19.116,3.6774 L20.05452,7.52706 L23.66388,9.15462 L22.15728,12.8223 L24.12612,16.26372 L20.75274,18.34326 Z" id="Shape" fill="#700900"></path>
                    <path d="M8.70642,10.96686 L8.70156,10.96686 C8.40374621,10.9695331 8.16432322,11.2128216 8.16642,11.51064 L8.18748,14.15664 L6.54858,11.28276 C6.42709281,11.0693879 6.17695057,10.9648357 5.93975795,11.0282901 C5.70256534,11.0917445 5.53804034,11.3072296 5.53931259,11.55276 L5.57712,16.20378 C5.57949244,16.5003253 5.82056519,16.7394695 6.11712,16.73946 L6.12144,16.73946 C6.26465835,16.7383188 6.40155699,16.6803288 6.50201746,16.578248 C6.60247794,16.4761672 6.65827033,16.3383583 6.65712,16.19514 L6.6366,13.61448 L8.2755,16.48836 C8.37215194,16.6557669 8.55091574,16.7587415 8.74422,16.7583611 C8.79179695,16.7583611 8.83917362,16.7521992 8.88516,16.74 C9.12234509,16.6758818 9.28634556,16.4597296 9.28424042,16.21404 L9.24642,11.49876 C9.24199352,11.2036943 9.00151894,10.96686 8.70642,10.96686 L8.70642,10.96686 Z M13.38606,15.58332 L13.3812,15.58332 L11.78982,15.59682 L11.7801,14.40882 L13.22136,14.39694 C13.4142834,14.3953002 13.5916772,14.2908615 13.6867187,14.1229649 C13.7817603,13.9550684 13.7800106,13.7492216 13.6821287,13.5829649 C13.5842469,13.4167083 13.4051034,13.3153001 13.21218,13.31694 L11.77146,13.32882 L11.76066,12.04308 L13.20192,12.0312 C13.3451383,12.0300588 13.482037,11.9720688 13.5824975,11.869988 C13.6829579,11.7679072 13.7387503,11.6300983 13.7376,11.48688 C13.7267873,11.1922873 13.488008,10.9572981 13.19328,10.9512 L11.21256,10.96686 C11.0692477,10.9678586 10.9322105,11.0257859 10.8316334,11.1278822 C10.7310564,11.2299786 10.67519,11.3678689 10.6763226,11.51118 L10.71414,16.1433 C10.7162173,16.4400565 10.9573762,16.67952 11.25414,16.67952 L11.25846,16.67952 L13.39038,16.6617 C13.6886138,16.6605071 13.9294129,16.4177738 13.9282244,16.11954 C13.9270271,15.8213062 13.6842938,15.5805071 13.38606,15.5817 L13.38606,15.58332 Z M20.22192,11.09592 C19.9362193,11.0106958 19.6355099,11.1731369 19.55016,11.4588 L18.74016,14.16312 L18.0792,11.47338 C18.0200151,11.2318495 17.8035361,11.0619659 17.55486,11.0619 L17.55,11.0619 C17.2996641,11.0645318 17.0839631,11.2388807 17.0289,11.4831 L16.4808,13.90176 L15.7788,11.27844 C15.7020048,10.9901971 15.4060829,10.8187848 15.11784,10.89558 C14.8295971,10.9723752 14.6581848,11.2682971 14.73498,11.55654 L15.99966,16.2972 C16.0657108,16.5358385 16.2839606,16.700246 16.53156,16.69788 C16.7799089,16.693082 16.992951,16.5194839 17.0478,16.27722 L17.5743,13.95198 L18.16344,16.34688 C18.2213624,16.5835966 18.4306581,16.7521837 18.67428,16.75836 L18.68778,16.75836 C18.9264836,16.75836 19.1368308,16.6015329 19.2051,16.3728 L20.58156,11.76768 C20.6670363,11.4829379 20.5062786,11.1826637 20.22192,11.09592 L20.22192,11.09592 Z" id="Shape" fill="#700900"></path>
                </g>
            </g>
        </g>
    </g>
</svg>