<?xml version="1.0" encoding="UTF-8"?>
<svg width="25px" height="30px" viewBox="0 0 25 30" version="1.1" xmlns="http://www.w3.org/2000/svg" xmlns:xlink="http://www.w3.org/1999/xlink">
    <title>offers</title>
    <g id="Page-1" stroke="none" stroke-width="1" fill="none" fill-rule="evenodd">
        <g id="Dashboard-shop" transform="translate(-35.000000, -415.000000)">
            <g id="Group-4" transform="translate(0.000000, -1.000000)">
                <g id="offers" transform="translate(35.875000, 416.581250)">
                    <path d="M14.7336,28.1008 L12.5384,26.852 C12.1968,26.656 11.7712,26.656 11.4296,26.852 L9.2344,28.1008 C8.6968,28.4088 8.0136,28.2184 7.7056,27.6808 C7.6104,27.5128 7.56,27.3224 7.56,27.1264 L7.56,15.8984 L16.408,15.8984 L16.408,27.132 C16.408,27.748 15.904,28.252 15.288,28.252 C15.092,28.252 14.9016,28.2016 14.7336,28.1008 Z" id="Path" fill="#2370B5" fill-rule="nonzero"></path>
                    <path d="M13.888,15.8984 L13.888,27.132 C13.888,27.2832 13.86,27.4344 13.7984,27.5744 L14.7336,28.1064 C15.2712,28.4144 15.9544,28.224 16.2624,27.6864 C16.3576,27.5184 16.408,27.328 16.408,27.132 L16.408,15.8984 L13.888,15.8984 Z" id="Path" fill="#1067AE" fill-rule="nonzero"></path>
                    <path d="M23.5368,11.5528 C23.5368,12.74 22.2544,13.7088 21.9072,14.7784 C21.5488,15.8872 22.0024,17.4216 21.3304,18.3456 C20.6528,19.2752 19.0456,19.32 18.116,19.9976 C17.192,20.6696 16.6656,22.1872 15.5568,22.5456 C14.4872,22.8928 13.1712,21.9856 11.984,21.9856 C10.7968,21.9856 9.4808,22.8928 8.4112,22.5456 C7.3024,22.1872 6.7704,20.6696 5.852,19.9976 C4.9224,19.32 3.3152,19.2808 2.6376,18.3456 C1.9656,17.4216 2.4192,15.8872 2.0608,14.7784 C1.7136,13.7088 0.4312,12.74 0.4312,11.5528 C0.4312,10.3656 1.7136,9.3968 2.0608,8.3272 C2.4192,7.2184 1.9656,5.684 2.6376,4.76 C3.3152,3.8304 4.9224,3.7856 5.852,3.108 C6.776,2.436 7.3024,0.9184 8.4112,0.56 C9.4808,0.2128 10.7968,1.12 11.984,1.12 C13.1712,1.12 14.4872,0.2128 15.5568,0.56 C16.6656,0.9184 17.1976,2.436 18.116,3.108 C19.0456,3.7856 20.6528,3.8248 21.3304,4.76 C22.0024,5.684 21.5488,7.2184 21.9072,8.3272 C22.2544,9.3968 23.5368,10.3656 23.5368,11.5528 Z" id="Path" fill="#FDDD5A" fill-rule="nonzero"></path>
                    <path d="M23.5368,11.5528 C23.5368,12.74 22.2544,13.7088 21.9072,14.7784 C21.5488,15.8872 22.0024,17.4216 21.3304,18.3456 C20.6528,19.2752 19.0456,19.32 18.116,19.9976 C17.192,20.6696 16.6656,22.1872 15.5568,22.5456 C14.4872,22.8928 13.1712,21.9856 11.984,21.9856 C10.7968,21.9856 9.4808,22.8928 8.4112,22.5456 C7.3024,22.1872 6.7704,20.6696 5.852,19.9976 C4.9224,19.32 3.3152,19.2808 2.6376,18.3456 C1.9656,17.4216 2.4192,15.8872 2.0608,14.7784 C1.7136,13.7088 0.4312,12.74 0.4312,11.5528 C0.4312,10.3656 1.7136,9.3968 2.0608,8.3272 C2.4192,7.2184 1.9656,5.684 2.6376,4.76 C3.3152,3.8304 4.9224,3.7856 5.852,3.108 C6.776,2.436 7.3024,0.9184 8.4112,0.56 C9.4808,0.2128 10.7968,1.12 11.984,1.12 C13.1712,1.12 14.4872,0.2128 15.5568,0.56 C16.6656,0.9184 17.1976,2.436 18.116,3.108 C19.0456,3.7856 20.6528,3.8248 21.3304,4.76 C22.0024,5.684 21.5488,7.2184 21.9072,8.3272 C22.2544,9.3968 23.5368,10.3656 23.5368,11.5528 Z" id="Path" fill="#FDDD5A" fill-rule="nonzero"></path>
                    <path d="M9.464,1.12 C9.8728,1.12 10.2984,1.0136 10.724,0.8848 C9.9176,0.644 9.1112,0.336 8.4112,0.56 C8.2432,0.616 8.0808,0.7 7.9352,0.8008 C8.4504,0.9632 8.9712,1.12 9.464,1.12 Z M21.9072,8.3272 C21.5488,7.2184 22.0024,5.684 21.3304,4.76 C20.6528,3.8304 19.0456,3.7856 18.116,3.108 C17.192,2.436 16.6656,0.9184 15.5568,0.56 C14.9352,0.3584 14.2296,0.5824 13.5128,0.8008 C14.3192,1.3664 14.8176,2.5424 15.6016,3.108 C16.5312,3.7856 18.1384,3.8248 18.816,4.76 C19.488,5.684 19.0344,7.2184 19.3928,8.3272 C19.74,9.3968 21.0224,10.3656 21.0224,11.5528 C21.0224,12.74 19.74,13.7088 19.3928,14.7784 C19.0344,15.8872 19.488,17.4216 18.816,18.3456 C18.1384,19.2752 16.5312,19.32 15.6016,19.9976 C14.8232,20.5688 14.3192,21.7392 13.5128,22.3048 C14.2296,22.5232 14.9352,22.7472 15.5568,22.5456 C16.6656,22.1872 17.1976,20.6696 18.116,19.9976 C19.0456,19.32 20.6528,19.2808 21.3304,18.3456 C22.0024,17.4216 21.5488,15.8872 21.9072,14.7784 C22.2544,13.7088 23.5368,12.74 23.5368,11.5528 C23.5368,10.3656 22.2544,9.3968 21.9072,8.3272 Z M9.464,21.9856 C8.9712,21.9856 8.4504,22.1424 7.9408,22.2992 C8.0864,22.4056 8.2432,22.484 8.4168,22.54 C9.1168,22.7696 9.9232,22.456 10.7296,22.2152 C10.2984,22.092 9.8728,21.9856 9.464,21.9856 Z" id="Shape" fill="#FED947" fill-rule="nonzero"></path>
                    <circle id="Oval" fill="#EB304A" fill-rule="nonzero" cx="11.984" cy="11.5528" r="8.3048"></circle>
                    <circle id="Oval" fill="#EB304A" fill-rule="nonzero" cx="11.984" cy="11.5528" r="8.3048"></circle>
                    <path d="M11.984,3.248 C11.564,3.248 11.1384,3.2816 10.724,3.3432 C14.7056,3.9536 17.7688,7.4032 17.7688,11.5528 C17.7688,15.7024 14.7056,19.152 10.724,19.7624 C11.1384,19.824 11.564,19.8576 11.984,19.8576 C16.5648,19.8576 20.2888,16.1336 20.2888,11.5528 C20.2888,6.972 16.5648,3.248 11.984,3.248 Z" id="Path" fill="#E4222E" fill-rule="nonzero"></path>
                    <path d="M23.5368,11.5528 C23.5368,12.74 22.2544,13.7088 21.9072,14.7784 C21.5488,15.8872 22.0024,17.4216 21.3304,18.3456 C20.6528,19.2752 19.0456,19.32 18.116,19.9976 C17.192,20.6696 16.6656,22.1872 15.5568,22.5456 C14.4872,22.8928 13.1712,21.9856 11.984,21.9856 C10.7968,21.9856 9.4808,22.8928 8.4112,22.5456 C7.3024,22.1872 6.7704,20.6696 5.852,19.9976 C4.9224,19.32 3.3152,19.2808 2.6376,18.3456 C1.9656,17.4216 2.4192,15.8872 2.0608,14.7784 C1.7136,13.7088 0.4312,12.74 0.4312,11.5528 C0.4312,10.3656 1.7136,9.3968 2.0608,8.3272 C2.4192,7.2184 1.9656,5.684 2.6376,4.76 C3.3152,3.8304 4.9224,3.7856 5.852,3.108 C6.776,2.436 7.3024,0.9184 8.4112,0.56 C9.4808,0.2128 10.7968,1.12 11.984,1.12 C13.1712,1.12 14.4872,0.2128 15.5568,0.56 C16.6656,0.9184 17.1976,2.436 18.116,3.108 C19.0456,3.7856 20.6528,3.8248 21.3304,4.76 C22.0024,5.684 21.5488,7.2184 21.9072,8.3272 C22.2544,9.3968 23.5368,10.3656 23.5368,11.5528 Z" id="Path"></path>
                    <circle id="Oval" cx="11.984" cy="11.5528" r="8.3048"></circle>
                    <path d="M8.99062528,0.0252623908 C8.75384888,0.0223671874 8.519,0.05184375 8.288,0.128843747 C7.5096,0.380843747 7.01675632,1.04724374 6.53515632,1.69684374 C6.22715632,2.10564374 5.94155632,2.4976219 5.61115632,2.7384219 C5.27515632,2.9848219 4.81037816,3.1415781 4.31757816,3.3095781 C3.56157816,3.5671781 2.7775781,3.8304 2.3015781,4.48 C1.8311781,5.124 1.82004374,5.94722184 1.80884374,6.74242184 C1.80324374,7.26322184 1.79195626,7.75604368 1.66315626,8.16484368 C1.53995626,8.54564368 1.26564374,8.93202184 0.968843736,9.34642184 C0.498443736,10.0072218 0.011156264,10.6903563 0.011156264,11.5191563 C0.011156264,12.3479563 0.498443736,13.0312 0.968843736,13.692 C1.26004374,14.1008 1.53995626,14.4927782 1.66315626,14.8735782 C1.79195626,15.2767782 1.80324374,15.7696 1.80884374,16.296 C1.82004374,17.0912 1.8311781,17.9144218 2.3015781,18.5584218 C2.7775781,19.2080218 3.55597816,19.4768437 4.31757816,19.7288437 C4.81037816,19.8968437 5.26955632,20.0536 5.61115632,20.3 C5.94155632,20.5408 6.23275632,20.9271782 6.53515632,21.3415782 C6.73115632,21.6047782 6.92717816,21.8680437 7.14557816,22.1088437 L7.14557816,27.0984218 C7.14557816,27.6528218 7.43124368,28.1511563 7.91284368,28.4311563 C8.39444368,28.7111563 8.96555632,28.7112437 9.44715632,28.4368437 L11.6424218,27.188 C11.8552218,27.0648 12.1240437,27.0648 12.3368437,27.188 L14.532,28.4368437 C14.7728,28.5712437 15.0303782,28.6384218 15.2935782,28.6384218 C15.5623782,28.6384218 15.8256218,28.5655782 16.0664218,28.4255782 C16.5480218,28.1455782 16.8335782,27.6472437 16.8335782,27.0928437 L16.8335782,22.1031563 C17.0519782,21.8623563 17.248,21.5992 17.444,21.336 C17.752,20.9272 18.0376,20.5352218 18.368,20.2944218 C18.704,20.0480218 19.1687782,19.8911563 19.6615782,19.7231563 C20.4175782,19.4655563 21.2015782,19.2024437 21.6775782,18.5528437 C22.1479782,17.9088437 22.1592218,17.0856218 22.1704218,16.2904218 C22.1760218,15.7696218 22.1872,15.2768 22.316,14.868 C22.4392,14.4872 22.7136218,14.1008218 23.0104218,13.6864218 C23.4808218,13.0256218 23.968,12.3423782 23.968,11.5135782 C23.9568,10.6903782 23.4695563,10.0072218 22.9991563,9.34642184 C22.7079563,8.93762184 22.4280437,8.54564368 22.3048437,8.16484368 C22.1760437,7.76164368 22.1647563,7.26882184 22.1591563,6.74242184 C22.1479563,5.94722184 22.1368218,5.124 21.6664218,4.48 C21.1904218,3.8304 20.4120218,3.5615781 19.6504218,3.3095781 C19.1576218,3.1415781 18.6984437,2.9848219 18.3568437,2.7384219 C18.0264437,2.4976219 17.7352437,2.11124374 17.4328437,1.69684374 C16.9512437,1.05284374 16.4584,0.380843747 15.68,0.128843747 C14.9352,-0.111956247 14.1568218,0.128821874 13.4064218,0.358421874 C12.9024218,0.515221874 12.4208,0.660843736 11.984,0.660843736 C11.5472,0.660843736 11.0655782,0.515221874 10.5615782,0.358421874 C10.0418282,0.196721874 9.5115328,0.0323421874 8.99062528,0.0252623908 Z M8.94315632,0.862421896 C9.35195632,0.862421896 9.8168,1.00795626 10.304,1.15915626 C10.8472,1.32715626 11.4128218,1.50084374 11.9784218,1.50084374 C12.5440218,1.50084374 13.1040437,1.32715626 13.6528437,1.15915626 C14.3080437,0.957556264 14.9296218,0.7616 15.4224218,0.924 C15.9432218,1.092 16.3408437,1.62955626 16.7608437,2.19515626 C17.0912437,2.63755626 17.4328,3.0968 17.864,3.416 C18.3064,3.7352 18.8495782,3.91995626 19.3815782,4.09915626 C20.0423782,4.32315626 20.6696437,4.53604374 20.9888437,4.97284374 C21.3024437,5.39844374 21.3079563,6.05917816 21.3191563,6.75357816 C21.3247563,7.31357816 21.336,7.89602184 21.504,8.42242184 C21.6664,8.92642184 21.9968218,9.3856 22.3104218,9.828 C22.7248218,10.4048 23.1112165,10.9535563 23.1112165,11.5191563 C23.1167563,12.0847563 22.7304,12.6336218 22.316,13.2104218 C21.9968,13.6528218 21.6719782,14.1176 21.5095782,14.616 C21.3415782,15.1424 21.3304437,15.7248437 21.3248437,16.2848437 C21.3136437,16.9792437 21.3080218,17.6399782 20.9944218,18.0655782 C20.6752218,18.5023782 20.0535563,18.7151563 19.3871563,18.9391563 C18.8607563,19.1183563 18.3119782,19.3032218 17.8695782,19.6224218 C17.4327782,19.9416218 17.0912218,20.4007563 16.7664218,20.8431563 C16.3464218,21.4087563 15.9488,21.9408218 15.428,22.1144218 C14.9352,22.2712218 14.3192218,22.0807563 13.6584218,21.8791563 C13.1152218,21.7111563 12.5496,21.5375782 11.984,21.5375782 C11.4184,21.5375782 10.8583782,21.7111563 10.3095782,21.8791563 C9.65437816,22.0807563 9.0328,22.2768218 8.54,22.1144218 C8.0192,21.9464218 7.62157816,21.4087563 7.20157816,20.8431563 C6.87117816,20.4007563 6.52962184,19.9416218 6.09842184,19.6224218 C5.65602184,19.3032218 5.11284368,19.1183563 4.58084368,18.9391563 C3.92004368,18.7151563 3.29277816,18.5023782 2.9735781,18.0655782 C2.6599781,17.6399782 2.65435626,16.9792437 2.64315626,16.2848437 C2.63755626,15.7248437 2.6264219,15.1424 2.4584219,14.616 C2.2960219,14.112 1.9656,13.6528218 1.652,13.2104218 C1.2376,12.6336218 0.851156264,12.0847563 0.851156264,11.5191563 C0.851156264,10.9535563 1.2376,10.4104 1.652,9.828 C1.9712,9.3856 2.2960219,8.92082184 2.4584219,8.42242184 C2.6264219,7.89602184 2.63755626,7.31357816 2.64315626,6.75357816 C2.65435626,6.05917816 2.6599781,5.39844374 2.9735781,4.97284374 C3.29277816,4.53604374 3.91444368,4.32315626 4.58084368,4.09915626 C5.10724368,3.91995626 5.65602184,3.7352 6.09842184,3.416 C6.53522184,3.0968 6.87677816,2.63755626 7.20157816,2.19515626 C7.62157816,1.62955626 8.0192,1.0976 8.54,0.924 C8.6688,0.8848 8.80315632,0.862421896 8.94315632,0.862421896 Z M11.984,2.7944219 C7.1736,2.7944219 3.25915632,6.70875632 3.25915632,11.5191563 C3.25915632,16.3295563 7.1736,20.244 11.984,20.244 C16.7944,20.244 20.7088437,16.3295563 20.7088437,11.5191563 C20.7088437,6.70875632 16.7944,2.7944219 11.984,2.7944219 Z M11.984,3.6344219 C16.3296,3.6344219 19.8688437,7.17355632 19.8688437,11.5191563 C19.8688437,15.8647563 16.3296,19.404 11.984,19.404 C7.6384,19.404 4.09915632,15.8647563 4.09915632,11.5191563 C4.09915632,7.17355632 7.6384,3.6344219 11.984,3.6344219 Z M15.1010782,7.98284368 C14.9939782,7.98284368 14.8876218,8.02484368 14.8064218,8.10884368 L8.904,14.0055782 C8.7416,14.1679782 8.7416,14.4367563 8.904,14.5991563 C8.988,14.6831563 9.09444368,14.7224218 9.20084368,14.7224218 C9.30724368,14.7224218 9.41357816,14.6831563 9.49757816,14.5991563 L15.4,8.70242184 C15.5624,8.54002184 15.5624,8.27124368 15.4,8.10884368 C15.316,8.02484368 15.2081782,7.98284368 15.1010782,7.98284368 Z M10.0408437,7.98557816 C9.60964368,7.98557816 9.21197816,8.15362184 8.90957816,8.45042184 C8.28797816,9.07202184 8.28797816,10.0855563 8.90957816,10.7071563 C9.21757816,11.0095563 9.61524368,11.1775782 10.0408437,11.1775782 C10.4664437,11.1775782 10.8696,11.0096437 11.172,10.7128437 C11.4744,10.4104437 11.6368437,10.0127782 11.6368437,9.58157816 C11.6368437,9.15037816 11.4688,8.75282184 11.172,8.45042184 C10.8696,8.14802184 10.4720437,7.98557816 10.0408437,7.98557816 Z M10.0408437,8.82 C10.2424437,8.82 10.4328437,8.8984 10.5728437,9.044 C10.7184437,9.1896 10.7968437,9.3744 10.7968437,9.576 C10.7968437,9.7776 10.7184437,9.968 10.5728437,10.108 C10.4272437,10.2536 10.2424437,10.332 10.0408437,10.332 C9.83924368,10.332 9.64884368,10.2536 9.50884368,10.108 C9.21204368,9.8224 9.21204368,9.3408 9.50884368,9.044 C9.65444368,8.8984 9.83924368,8.82 10.0408437,8.82 Z M13.9250782,11.865 C13.5155782,11.865 13.1068,12.0203563 12.796,12.3311563 C12.4936,12.6335563 12.3311563,13.0312218 12.3311563,13.4624218 C12.3311563,13.8936218 12.4992,14.2911782 12.796,14.5935782 C13.0984,14.8959782 13.4959563,15.0584218 13.9271563,15.0584218 C14.3583563,15.0584218 14.7560218,14.8903782 15.0584218,14.5935782 C15.3608218,14.2911782 15.5231563,13.8936218 15.5231563,13.4624218 C15.5231563,13.0312218 15.3552218,12.6335563 15.0584218,12.3311563 C14.7448218,12.0203563 14.3345782,11.865 13.9250782,11.865 Z M13.9271563,12.712 C14.1175563,12.712 14.3135563,12.7848218 14.4591563,12.9304218 C14.6047563,13.0760218 14.6831563,13.2608218 14.6831563,13.4624218 C14.6831563,13.6640218 14.6047563,13.8544218 14.4591563,13.9944218 C14.3135563,14.1400218 14.1287563,14.2184218 13.9271563,14.2184218 C13.7255563,14.2184218 13.5351563,14.1400218 13.3951563,13.9944218 C13.2551563,13.8488218 13.1711563,13.6640218 13.1711563,13.4624218 C13.1711563,13.2608218 13.2495563,13.0704218 13.3951563,12.9304218 C13.5407563,12.7848218 13.7367563,12.712 13.9271563,12.712 Z M11.984,22.3831563 C12.4208,22.3831563 12.9024218,22.5287782 13.4064218,22.6855782 C14.1624218,22.9207782 14.9408,23.1615563 15.68,22.9151563 C15.7864,22.8815563 15.8872218,22.8368218 15.9824218,22.7864218 L15.9824218,27.0984218 L15.988,27.0984218 C15.988,27.3504218 15.8592437,27.5743563 15.6408437,27.7031563 C15.4224437,27.8319563 15.1592437,27.8320437 14.9408437,27.7088437 L12.7455782,26.46 C12.2751782,26.1912 11.6928218,26.1912 11.2224218,26.46 L9.02715632,27.7088437 C8.80875632,27.8320437 8.54555632,27.8319563 8.32715632,27.7031563 C8.10875632,27.5743563 7.98,27.3504218 7.98,27.0984218 L7.98,22.7864218 C8.0752,22.8368218 8.17602184,22.8759563 8.28242184,22.9151563 C8.50082184,22.9879563 8.72484368,23.016 8.94884368,23.016 C9.48644368,23.016 10.0295782,22.8479782 10.5615782,22.6855782 C11.0655782,22.5287782 11.5472,22.3831563 11.984,22.3831563 Z" id="Shape" fill="#3C3B41" fill-rule="nonzero"></path>
                </g>
            </g>
        </g>
    </g>
</svg>