<?xml version="1.0" encoding="UTF-8"?>
<svg width="34px" height="30px" viewBox="0 0 34 30" version="1.1" xmlns="http://www.w3.org/2000/svg" xmlns:xlink="http://www.w3.org/1999/xlink">
    <title>spaghetti</title>
    <g id="Page-1" stroke="none" stroke-width="1" fill="none" fill-rule="evenodd">
        <g id="Dashboard-products" transform="translate(-655.000000, -375.000000)" fill-rule="nonzero">
            <g id="spaghetti" transform="translate(655.101470, 375.033125)">
                <path d="M32.7330369,24.412254 C32.7330369,24.412254 29.184762,25.9362378 28.1227265,26.6534532 C26.1815123,27.9643969 22.12115,28.13184 16.41024,28.13184 C10.69933,28.13184 6.63896772,27.9643969 4.69775354,26.6534532 C3.63571798,25.9362378 0.087443136,24.412254 0.087443136,24.412254 L32.7330369,24.412254 Z" id="Path" fill="#B0C4CC"></path>
                <path d="M24.3842687,22.7364168 C29.4164688,23.0117279 32.82048,23.5395222 32.82048,24.1454118 C32.82048,25.0355501 25.4733518,25.7571318 16.41024,25.7571318 C7.34712818,25.7571318 0,25.0355501 0,24.1454118 C0,23.6528115 2.25010764,23.2118156 5.79595025,22.9161969 L24.3842687,22.7364168 Z" id="Path" fill="#DCE2E1"></path>
                <path d="M13.9184916,21.7286523 C15.1938603,20.860492 17.4429423,19.7200682 19.9772987,20.1999798 C22.4736479,20.6727412 24.9114769,23.2392735 25.8814686,24.3694408 L13.9184916,21.7286523 Z" id="Path" fill="#ED931B"></path>
                <path d="M22.9634056,23.1161381 C21.9754506,22.2893843 20.8342942,21.5553484 19.7592476,21.3517735 C18.6725673,21.1625665 17.5548339,21.2741675 16.5270164,21.6744985 C18.2705458,22.9208562 20.4616059,23.3145261 22.9634056,23.1161381 Z" id="Path" fill="#FFBB24"></path>
                <path d="M12.7736136,21.6829966 C13.723023,21.2770664 14.7511319,21.0883827 15.7828121,21.1307334 C17.3460046,21.2056931 18.9974609,22.0704834 20.2964486,22.9537646 C16.8783128,24.9433597 14.256015,24.8236235 12.7736136,21.6829966 Z" id="Path" fill="#FFBB24"></path>
                <path d="M19.1165816,23.5867896 C18.0304875,22.9129734 16.8103568,22.3537359 15.7268121,22.3017799 C14.7849918,22.2655059 13.8482941,22.4566671 12.9960017,22.8590834 C14.8589155,25.0241801 16.9046864,25.2062459 19.1165816,23.5867896 Z" id="Path" fill="#ED931B"></path>
                <path d="M17.5028396,24.0276976 C16.9342376,23.7246444 16.3117309,23.5360218 15.6705484,23.472504 C15.5797451,23.4679912 15.4906121,23.4664674 15.4031494,23.4679326 C14.8068347,23.4825286 14.2187008,23.6101071 13.669935,23.8439029 C15.2002778,25.5045899 16.5157344,25.8053661 17.5028396,24.0276976 Z" id="Path" fill="#FFBB24"></path>
                <path d="M13.77288,21.6793043 C13.142844,21.8137218 14.5463298,21.5864693 14.9822268,20.8283455 C15.2013116,20.3907721 15.2906477,19.8996573 15.2396917,19.4129623 C14.7639459,19.5275459 14.3309096,19.7758392 13.991693,20.1285366 C13.3724408,20.851437 13.7289826,22.4445783 13.5627117,21.3335171 L13.77288,21.6793043 Z" id="Path" fill="#17AF54"></path>
                <path d="M9.08424,6.15384 L9.08424,7.03296 L16.8625765,7.58853454 C17.1456039,7.60877493 17.4300705,7.58777901 17.7070592,7.52620493 L19.0088308,7.23691584 C19.5451354,7.11774019 19.9267127,6.64206899 19.92672,6.09268255 L19.92672,5.71428 L32.82048,6.00732 L32.82048,3.36996 L19.92672,3.663 L19.92672,3.28459745 C19.9267264,2.73520004 19.5451461,2.25951289 19.0088308,2.14033486 L17.7070592,1.85104577 C17.4300662,1.78950087 17.1456038,1.76850527 16.8625765,1.78871616 L9.08424,2.34432 L9.08424,3.22344 L16.6827672,2.95205566 C16.8918865,2.9445858 17.0891057,3.04924716 17.2001344,3.22661482 C17.3111632,3.40398247 17.3191334,3.62711006 17.2210428,3.81194757 C17.1229523,3.99678508 16.9337033,4.1152513 16.724584,4.12272115 L9.08424,4.3956 L9.08424,4.98168 L16.7245547,5.25455885 C16.9344441,5.26094235 17.1248552,5.37919937 17.2236203,5.56450925 C17.3223855,5.74981914 17.3143894,5.9738218 17.2026627,6.15161788 C17.090936,6.32941397 16.8925775,6.43379331 16.6827672,6.42519504 L9.08424,6.15384 Z" id="Path" fill="#B0C4CC"></path>
                <polyline id="Path" fill="#FFBB24" points="11.42856 7.96453416 11.42856 23.3661305 12.60072 23.1466435 12.60072 7.59618288"></polyline>
                <polygon id="Path" fill="#ED931B" points="12.60072 23.1466435 12.60072 7.96453416 13.77288 7.6820436 13.77288 23.9583643"></polygon>
                <rect id="Rectangle" fill="#FFBB24" x="10.84248" y="0.87912" width="1.17216" height="7.61904" rx="0.58608"></rect>
                <rect id="Rectangle" fill="#ED931B" x="12.01464" y="0" width="1.17216" height="9.37728" rx="0.58608"></rect>
                <rect id="Rectangle" fill="#FFBB24" x="13.1868" y="0.58608" width="1.17216" height="8.20512" rx="0.58608"></rect>
                <rect id="Rectangle" fill="#ED931B" x="14.35896" y="0.87912" width="1.17216" height="7.61904" rx="0.58608"></rect>
                <path d="M27.7772616,25.3098648 C27.1882512,25.3655424 26.5582152,25.4153592 25.8930144,25.4593152 C25.1838576,25.5120624 24.4366056,25.5569952 23.6512584,25.5941136 C22.0571208,25.670304 20.3193936,25.7230512 18.4849632,25.7464944 C17.8783704,25.7523552 17.260056,25.758216 16.6329504,25.758216 L16.2373464,25.758216 C15.9888308,25.5934485 15.7500899,25.4143929 15.5223288,25.2219528 C16.5542959,24.0860169 17.8702278,23.2454794 19.3347792,22.7867904 C19.7751886,22.6585849 20.2280879,22.5780258 20.6856936,22.5464976 C21.3489488,22.512287 22.0134607,22.5824958 22.6549224,22.754556 C24.8996088,23.3142624 27.0710352,24.7970448 27.7772616,25.3098648 Z" id="Path" fill="#ED931B"></path>
                <path d="M25.8930144,25.4593152 C25.1838576,25.5120624 24.4366056,25.5569952 23.6512584,25.5941136 C22.0571208,25.670304 20.3193936,25.7230512 18.4849632,25.7464944 C17.8783704,25.7523552 17.260056,25.758216 16.6329504,25.758216 C17.5648176,24.8439312 18.9802008,23.8358736 20.7677448,23.7157272 C22.3911864,23.6014416 24.454188,24.5889864 25.8930144,25.4593152 Z" id="Path" fill="#FFBB24"></path>
                <path d="M23.6512584,25.5941136 C22.0571208,25.670304 20.3193936,25.7230512 18.4849632,25.7464944 C19.1107084,25.3102504 19.8287599,25.0244338 20.5831296,24.9113304 C20.6710416,24.8996088 20.7589536,24.8908176 20.849796,24.8849568 C21.6527256,24.8292792 22.6725048,25.1486928 23.6512584,25.5941136 Z" id="Path" fill="#ED931B"></path>
                <g id="Group" transform="translate(3.223440, 21.684960)">
                    <path d="M13.7523672,4.0703256 C13.5648216,4.073256 13.377276,4.073256 13.1868,4.073256 C12.7941264,4.073256 12.4014528,4.073256 12.01464,4.0673952 C11.3582304,4.0644648 10.7135424,4.0566504 10.080576,4.043952 C7.5223368,3.9970656 5.172156,3.8886408 3.1853448,3.7391904 C2.6021952,3.6952344 2.05128,3.6454176 1.5355296,3.5985312 C1.0139184,3.545784 0.5304024,3.4901064 0.0820512,3.4314984 C0.846358466,2.55454765 1.75036045,1.80995894 2.7575064,1.2278376 C3.99793561,0.484189341 5.42992446,0.122370094 6.8747184,0.1875456 C7.9339376,0.2979525 8.9582032,0.629391269 9.8813088,1.1604384 C11.2944412,1.95528966 12.5961061,2.93375533 13.7523672,4.0703256 L13.7523672,4.0703256 Z" id="Path" fill="#ED931B"></path>
                    <path d="M12.01464,4.0673952 C11.3582304,4.0644648 10.7135424,4.0566504 10.080576,4.043952 C7.5223368,3.9970656 5.172156,3.8886408 3.1853448,3.7391904 C2.6021952,3.6952344 2.05128,3.6454176 1.5355296,3.5985312 C2.446884,2.725272 4.3926696,1.2043944 6.8014584,1.3597056 C8.5831416,1.4710608 10.7164728,2.9626344 12.01464,4.0673952 Z" id="Path" fill="#FFBB24"></path>
                    <path d="M10.080576,4.043952 C7.5223368,3.9970656 5.172156,3.8886408 3.1853448,3.7391904 C4.0058568,3.1325976 5.157504,2.520144 6.4586016,2.520144 C6.5465136,2.520144 6.637356,2.5230744 6.7281984,2.5289352 C7.7333256,2.5904736 8.996328,3.2791176 10.080576,4.043952 Z" id="Path" fill="#ED931B"></path>
                </g>
            </g>
        </g>
    </g>
</svg>