<?xml version="1.0" encoding="UTF-8"?>
<svg width="28px" height="28px" viewBox="0 0 28 28" version="1.1" xmlns="http://www.w3.org/2000/svg" xmlns:xlink="http://www.w3.org/1999/xlink">
    <title>sale(1)</title>
    <g id="Page-1" stroke="none" stroke-width="1" fill="none" fill-rule="evenodd">
        <g id="Dashboard-shop" transform="translate(-34.000000, -517.000000)">
            <g id="Group-4" transform="translate(0.000000, -1.000000)">
                <g id="sale(1)" transform="translate(34.375000, 518.240000)">
                    <path d="M19.7999991,24.41295 C18.8291988,24.97347 17.1956583,22.96233 16.1128701,23.2524 C15.0300828,23.54256 14.6209833,26.10108 13.4999991,26.10108 C12.3790149,26.10108 11.9699163,23.54256 10.887129,23.2524 C9.8043408,22.96233 8.1708003,24.97347 7.19999946,24.41295 C6.22919853,23.85252 7.15415976,21.43224 6.36150384,20.63952 C5.56884819,19.84689 3.1485717,20.77182 2.5880796,19.80108 C2.0275875,18.83025 4.03876539,17.19675 3.74863329,16.11396 C3.45850128,15.03117 0.9,14.62203 0.9,13.50108 C0.9,12.38004 3.45850146,11.97099 3.74863365,10.8882 C4.03876575,9.80541 2.02758804,8.17182 2.58808023,7.20108 C3.14857251,6.23025 5.568849,7.15518 6.36150465,6.36255 C7.1541603,5.56992 6.22919961,3.14964 7.20000054,2.58912 C8.1708012,2.02869 9.8043417,4.03983 10.8871299,3.74967 C11.9699172,3.4596 12.3790167,0.90108 13.5000009,0.90108 C14.6209851,0.90108 15.0300837,3.4596 16.112871,3.74967 C17.1956592,4.03983 18.8291997,2.02869 19.8000009,2.58912 C20.7708012,3.14964 19.8458379,5.56992 20.6384958,6.36255 C21.4311519,7.15518 23.8514283,6.23025 24.4119204,7.20108 C24.9724125,8.17191 22.9612347,9.80541 23.2513668,10.8882 C23.5414989,11.97099 26.1,12.38004 26.1,13.50108 C26.1,14.62203 23.5414989,15.03117 23.2513668,16.11396 C22.9612338,17.19675 24.9724116,18.83025 24.4119195,19.80108 C23.8514274,20.77191 21.431151,19.84698 20.6384949,20.63952 C19.8458397,21.43224 20.7708003,23.85252 19.7999991,24.41295 Z" id="Path" fill="#F6A119" fill-rule="nonzero"></path>
                    <path d="M19.7999991,24.41295 C18.8869536,24.94035 17.2532736,23.42655 16.2347886,23.69943 C15.2152668,23.97267 14.5554858,26.10108 13.4999991,26.10108 C12.4455852,26.10108 11.7876816,23.97339 10.7691957,23.70051 C9.7496748,23.42736 8.1141804,24.94053 7.19999946,24.41295 C6.28674723,23.886 6.78090375,21.71421 6.03532053,20.96865 C5.28897888,20.22228 3.11600142,20.71503 2.5880796,19.80108 C2.06069427,18.88803 3.57450219,17.25435 3.30159987,16.23582 C3.0284199,15.2163 0.9,14.55651 0.9,13.50108 C0.9,12.44664 3.0276297,11.78874 3.3005322,10.7703 C3.57371226,9.75078 2.06051553,8.11521 2.58808023,7.20108 C3.1151088,6.28785 5.28682041,6.78195 6.03240372,6.03639 C6.77874546,5.29002 6.28602543,3.11706 7.20000054,2.58912 C8.1130464,2.06172 9.7467264,3.57561 10.7652114,3.30264 C11.7847332,3.02949 12.4445142,0.90108 13.5000009,0.90108 C14.5544148,0.90108 15.2123184,3.02868 16.2308043,3.30156 C17.2503252,3.5748 18.8858196,2.06154 19.8000009,2.58912 C20.7132525,3.11616 20.2190967,5.28786 20.9646792,6.03351 C21.7110213,6.77979 23.8839984,6.28713 24.4119204,7.20108 C24.939306,8.11413 23.4254979,9.74781 23.6984004,10.76625 C23.9715801,11.78577 26.1,12.44556 26.1,13.50108 C26.1,14.55552 23.9723703,15.21342 23.6994678,16.23186 C23.4262881,17.25138 24.9394842,18.88686 24.4119195,19.80108 C23.8848912,20.71431 21.7131795,20.22012 20.9675961,20.96577 C20.2212549,21.71205 20.7139743,23.8851 19.7999991,24.41295 Z" id="Path" fill="#622797" fill-rule="nonzero"></path>
                    <circle id="Oval" fill="#F6A119" fill-rule="nonzero" cx="13.5" cy="13.5009" r="7.821"></circle>
                    <circle id="Oval" fill="#FFCC00" fill-rule="nonzero" cx="13.5" cy="13.5009" r="7.821"></circle>
                    <path d="M6.4862388,10.21068 L19.6678566,10.21068 C21.0340323,10.21068 22.1339043,10.28538 22.1339043,10.38105 L22.9798431,12.09123 L21.5854623,14.43069 L22.1339043,16.62138 C22.1578083,16.71399 21.0340323,16.79166 19.6678566,16.79166 L6.4862388,16.79166 C5.1200325,16.79166 4.0201902,16.71696 4.0201902,16.62138 L4.0201902,10.38105 C4.0201902,10.28538 5.1200325,10.21068 6.4862388,10.21068 Z" id="Path" fill="#622797" fill-rule="nonzero"></path>
                    <path d="M9.6205077,10.9907442 C8.8700517,10.9907442 8.4849606,11.4392079 8.4849606,12.2247279 C8.4849606,13.6274679 9.9931644,13.8163104 9.9931644,14.8262904 C9.9931644,15.1769304 9.8378586,15.3044154 9.5923827,15.3044154 C9.3469059,15.3044154 9.1933596,15.1769304 9.1933596,14.8262904 L9.1933596,14.4764856 L8.4638673,14.4764856 L8.4638673,14.7770721 C8.4638673,15.5625921 8.8560081,16.0128144 9.6134769,16.0128144 C10.3709466,16.0128144 10.7648442,15.5625921 10.7648442,14.7770721 C10.7648442,13.3743321 9.2566404,13.1853996 9.2566404,12.1755096 C9.2566404,11.8247796 9.396126,11.6921106 9.6416019,11.6921106 C9.8870787,11.6921106 10.0283202,11.8247796 10.0283202,12.1755096 L10.0283202,12.3794154 L10.7578125,12.3794154 L10.7578125,12.2247279 C10.7578125,11.4392079 10.3709637,10.9907442 9.6205077,10.9907442 L9.6205077,10.9907442 Z M11.7808596,11.0469942 L10.9951173,15.9565644 L11.7035154,15.9565644 L11.8371096,15.0653529 L12.7845702,15.0653529 L12.9181644,15.9565644 L13.696875,15.9565644 L12.9111327,11.0469942 L11.7808596,11.0469942 L11.7808596,11.0469942 Z M14.0484375,11.0469942 L14.0484375,15.9565644 L16.0892577,15.9565644 L16.0892577,15.2551971 L14.8201173,15.2551971 L14.8201173,11.0469942 L14.0484375,11.0469942 L14.0484375,11.0469942 Z M16.4320308,11.0469942 L16.4320308,15.9565644 L18.5361327,15.9565644 L18.5361327,15.2551971 L17.2037106,15.2551971 L17.2037106,13.8173058 L18.2619144,13.8173058 L18.2619144,13.1159394 L17.2037106,13.1159394 L17.2037106,11.7483606 L18.5361327,11.7483606 L18.5361327,11.0469942 L16.4320308,11.0469942 L16.4320308,11.0469942 Z M12.3082029,11.9171106 L12.6791019,14.3991423 L11.9355471,14.3991423 L12.3082029,11.9171106 L12.3082029,11.9171106 Z" id="Shape" fill="#FFCC00" fill-rule="nonzero"></path>
                    <path d="M13.5,22.6944 C18.5774298,22.6944 22.6935,18.5783298 22.6935,13.5009 C22.6935,8.42347015 18.5774298,4.3074 13.5,4.3074 C8.42257015,4.3074 4.3065,8.42347015 4.3065,13.5009 C4.3065,18.5783298 8.42257015,22.6944 13.5,22.6944 Z" id="Oval" stroke="#FFCC00" stroke-width="0.5" stroke-linecap="round" stroke-linejoin="round" stroke-dasharray="0.4140000075101852"></path>
                    <path d="M13.5,0.0009 C13.3359381,0.0009 13.1905494,0.02655 13.0710942,0.05715 C12.1073931,0.30789 11.7113697,1.04192442 11.3150394,1.57238442 C10.9187082,2.10284433 10.5245172,2.43366471 10.5310548,2.43195471 C10.5398748,2.43195471 9.9656001,2.30885442 9.2970702,2.02238442 C8.9628057,1.87910433 8.6016987,1.72440567 8.1861327,1.63566558 C7.77056661,1.54656558 7.24039074,1.52636904 6.75,1.80968904 C6.25961511,2.09291904 6.01283925,2.56195971 5.88164058,2.96632971 C5.75044218,3.37069971 5.70349962,3.76162029 5.66015625,4.12297029 C5.57346915,4.8456702 5.39078643,5.4049023 5.39648442,5.3991423 C5.40297342,5.3901423 4.84458453,5.5745667 4.12207029,5.6610558 C3.76081317,5.7042558 3.36971682,5.7515004 2.96542971,5.8825404 C2.56114251,6.0135804 2.09189034,6.26031 1.80878904,6.7509 C1.52568783,7.24149 1.54605816,7.7729904 1.63476558,8.1887904 C1.72347318,8.6045904 1.87821477,8.9651979 2.02148442,9.2997279 C2.30802336,9.9688779 2.428911,10.5434802 2.43105471,10.5354702 C2.43314271,10.5264702 2.1037851,10.9219671 1.57324221,11.3176971 C1.04269923,11.7134271 0.30694977,12.1079133 0.05625,13.0719942 C0.0252378,13.1912433 -3.07768834e-08,13.33611 -3.07768834e-08,13.5009 C-3.07768834e-08,13.66497 0.0251739,13.8102867 0.05625,13.9298058 C0.30695013,14.8934358 1.04101731,15.2895906 1.57148442,15.6858606 C2.10195126,16.0822206 2.43280629,16.4764152 2.43105471,16.4698452 C2.42868771,16.4608452 2.30797764,17.0353098 2.02148442,17.7038298 C1.87823772,18.0380898 1.72349451,18.3992373 1.63476558,18.8147673 C1.54603638,19.2302973 1.52553411,19.76049 1.80878904,20.2509 C2.09204064,20.74131 2.56104621,20.9881296 2.96542971,21.1192596 C3.36981321,21.2504796 3.76070022,21.2974542 4.12207029,21.3407442 C4.84481043,21.4271442 5.40393966,21.6100854 5.39824221,21.6044154 C5.39175321,21.5954154 5.57372943,22.1563098 5.66015625,22.8788298 C5.70336975,23.2400898 5.7506013,23.6311902 5.88164058,24.0354702 C6.01267995,24.4397502 6.25943277,24.9090606 6.75,25.1921106 C7.24056705,25.4752506 7.77208959,25.4548746 8.1878904,25.3661346 C8.6036922,25.2770346 8.9642664,25.1226954 9.2988279,24.9794154 C9.9679518,24.6928554 10.5425703,24.5720052 10.5345702,24.5698452 C10.5267402,24.5698452 10.9210896,24.8971077 11.3167971,25.4276577 C11.7125046,25.9581177 12.107016,26.69391 13.0710942,26.94465 C13.190355,26.97525 13.3352181,26.999145 13.5,26.999145 C13.6640583,26.999145 13.8094452,26.97525 13.9289058,26.94465 C14.8926069,26.69391 15.2886303,25.9598754 15.6849606,25.4294154 C16.0812918,24.8989554 16.4754828,24.5681352 16.4689452,24.5698452 C16.4601252,24.5698452 17.0343999,24.6929454 17.7029298,24.9794154 C18.0371943,25.1226954 18.3983004,25.2773946 18.8138673,25.3661346 C19.2294333,25.4552346 19.7596089,25.4754306 20.25,25.1921106 C20.7403848,24.9088806 20.9871612,24.4398402 21.1183596,24.0354702 C21.249558,23.6311002 21.2965002,23.2401798 21.3398442,22.8788298 C21.4265322,22.1561298 21.6092133,21.5968977 21.6035154,21.6026577 C21.5970354,21.6116577 22.1554152,21.4272333 22.8779298,21.3407442 C23.2391871,21.2975442 23.630283,21.2502996 24.0345702,21.1192596 C24.4388574,20.9882196 24.9081102,20.74149 25.1912106,20.2509 C25.4743119,19.76031 25.4539422,19.2288096 25.3652346,18.8130096 C25.2765306,18.3972096 25.1217855,18.0366021 24.9785154,17.7020721 C24.691977,17.0329221 24.571089,16.4583198 24.5689452,16.4663298 C24.5668752,16.4753298 24.8962149,16.0798329 25.4267577,15.6841029 C25.9573005,15.2883729 26.6930496,14.8938867 26.94375,13.9298058 C26.974764,13.8105567 27,13.66569 27,13.5009 C27,13.33683 26.974827,13.1915133 26.94375,13.0719942 C26.6930496,12.1083642 25.9589826,11.7122094 25.4285154,11.3159394 C24.8980491,10.9195794 24.5671938,10.5253848 24.5689452,10.5319548 C24.5712852,10.5409548 24.692022,9.9664902 24.9785154,9.2979702 C25.1217621,8.9637102 25.2765054,8.6025627 25.3652346,8.1870327 C25.4539656,7.7715027 25.4744658,7.24131 25.1912106,6.7509 C24.907959,6.26049 24.4389537,6.0136704 24.0345702,5.8825404 C23.6301867,5.7513204 23.2392996,5.7043458 22.8779298,5.6610558 C22.1551893,5.5746558 21.5960598,5.3917146 21.6017577,5.3973846 C21.6082377,5.4063846 21.4262694,4.8454902 21.3398442,4.12297029 C21.2966352,3.76171029 21.2493987,3.37060971 21.1183596,2.96632971 C20.9873196,2.56204971 20.7405675,2.09273904 20.25,1.80968904 C19.7594334,1.52654904 19.2279105,1.54692558 18.8121096,1.63566558 C18.3963078,1.72476558 18.0357336,1.87910433 17.7011721,2.02238442 C17.0320482,2.30894433 16.4574288,2.42979471 16.4654298,2.43195471 C16.4732598,2.43195471 16.0789104,2.10469221 15.6832029,1.57414221 C15.2874954,1.04368221 14.892984,0.30789 13.9289058,0.05715 C13.8096477,0.02655 13.6647819,0.0009 13.5,0.0009 Z M13.5,0.900899988 C13.569075,0.900899988 13.6362618,0.9118917 13.7021481,0.929025 C14.6419722,1.17341784 15.2798787,3.04704783 16.2316404,3.30207192 C17.2511622,3.57525189 18.8858187,2.0608353 19.8,2.5884 C20.7132525,3.11542857 20.2198464,5.2881291 20.9654298,6.0337125 C21.711771,6.7800546 23.884578,6.2869248 24.4125,7.2009 C24.9398856,8.1139464 23.4259254,9.7472583 23.6988279,10.7657442 C23.9541111,11.7184743 25.8271011,12.3578334 26.071875,13.2987519 C26.089038,13.3647129 26.1,13.4317521 26.1,13.5009 C26.1,13.569975 26.089011,13.6371618 26.071875,13.7030481 C25.8274818,14.6428722 23.9538519,15.2807787 23.6988279,16.2325404 C23.4256482,17.2520622 24.9400647,18.8867187 24.4125,19.8009 C23.8854717,20.7141525 21.7127709,20.2207464 20.9671875,20.9663298 C20.2208454,21.712671 20.7139752,23.885478 19.8,24.4134 C18.8869536,24.9407856 17.2536417,23.4268254 16.2351558,23.6997279 C15.2824257,23.9550111 14.6430666,25.8280011 13.7021481,26.072775 C13.6361853,26.0899353 13.5691479,26.1009 13.5,26.1009 C13.430925,26.1009 13.3637382,26.089911 13.2978519,26.072775 C12.3580278,25.8283818 11.7201213,23.9547519 10.7683596,23.6997279 C9.7488378,23.4265482 8.1141813,24.9409647 7.2,24.4134 C6.28674777,23.8863717 6.78015351,21.7136709 6.03457029,20.9680875 C5.28822864,20.2217454 3.11542182,20.7148752 2.5875,19.8009 C2.06011467,18.8878536 3.57407424,17.2545417 3.30117192,16.2360558 C3.04588854,15.2833257 1.17289863,14.6439666 0.928125,13.7030481 C0.91096506,13.6370853 0.899999988,13.5700479 0.899999988,13.5009 C0.899999988,13.4318223 0.91099179,13.3646382 0.928125,13.2987519 C1.17251784,12.3589278 3.04614783,11.7210213 3.30117192,10.7692596 C3.57435189,9.7497378 2.0599353,8.1150813 2.5875,7.2009 C3.11452857,6.2876475 5.28722928,6.7810536 6.0328125,6.0354702 C6.77915424,5.289129 6.28602498,3.11632182 7.2,2.5884 C8.1130464,2.06101467 9.7463583,3.57497415 10.7648442,3.30207192 C11.7175734,3.04678854 12.3569334,1.17379863 13.2978519,0.929025 C13.3638147,0.91186506 13.4308521,0.900899988 13.5,0.900899988 Z" id="Shape" fill="#E9EDED" fill-rule="nonzero"></path>
                </g>
            </g>
        </g>
    </g>
</svg>