<?xml version="1.0" encoding="UTF-8"?>
<svg width="28px" height="18px" viewBox="0 0 28 18" version="1.1" xmlns="http://www.w3.org/2000/svg" xmlns:xlink="http://www.w3.org/1999/xlink">
    <title>transfer</title>
    <g id="Page-1" stroke="none" stroke-width="1" fill="none" fill-rule="evenodd">
        <g id="Dashboard-shop" transform="translate(-34.000000, -647.000000)" fill-rule="nonzero">
            <g id="Group-4" transform="translate(0.000000, -1.000000)">
                <g id="transfer" transform="translate(34.375000, 648.800000)">
                    <path d="M16.867725,16.308175 L16.867725,9.658175 C16.867725,8.60883398 17.718384,7.758175 18.767725,7.758175 L24.467725,7.758175 C25.517066,7.758175 26.367725,8.60883398 26.367725,9.658175 L26.367725,16.308175 L16.867725,16.308175 Z" id="Path" fill="#92CA62"></path>
                    <path d="M24.467725,7.758175 L18.767725,7.758175 C17.718384,7.758175 16.867725,8.60883398 16.867725,9.658175 L16.867725,16.308175 L18.525,16.308175 L18.525,12.033175 C18.525,10.4591635 19.8009885,9.183175 21.375,9.183175 L24.467725,9.183175 C25.517066,9.183175 26.367725,10.033834 26.367725,11.083175 L26.367725,9.658175 C26.367725,8.60883398 25.517066,7.758175 24.467725,7.758175 Z" id="Path" fill="#71BC58"></path>
                    <path d="M12.32625,4.433175 L15.00905,4.433175 L14.14075,5.301475 C14.0172706,5.42073537 13.967749,5.597342 14.0112189,5.76341598 C14.0546887,5.92948996 14.184385,6.05918632 14.350459,6.10265615 C14.516533,6.14612598 14.6931396,6.09660438 14.8124,5.973125 L16.492,4.293525 C16.5811653,4.20451122 16.6312706,4.08369166 16.6312706,3.9577 C16.6312706,3.83170834 16.5811653,3.71088878 16.492,3.621875 L14.8124,1.942275 C14.6924213,1.82229628 14.5175485,1.77543925 14.3536545,1.8193545 C14.1897605,1.86326976 14.0617448,1.99128553 14.0178295,2.15517951 C13.9739142,2.31907349 14.0207713,2.49394628 14.14075,2.613925 L15.00905,3.482225 L12.32625,3.482225" id="Path" fill="#617E95"></path>
                    <circle id="Oval" fill="#F0CAAF" cx="5.467725" cy="3.245675" r="2.6125"></circle>
                    <circle id="Oval" fill="#F0CAAF" cx="21.617725" cy="3.245675" r="2.6125"></circle>
                    <path d="M4.5125,3.245675 C4.51307966,2.12273111 5.23119856,1.12577937 6.296125,0.7695 C5.21710173,0.40655603 4.02728074,0.784125751 3.35496619,1.70282738 C2.68265164,2.621529 2.68265164,3.869821 3.35496619,4.78852262 C4.02728074,5.70722425 5.21710173,6.08479397 6.296125,5.72185 C5.23119856,5.36557063 4.51307966,4.36861889 4.5125,3.245675 L4.5125,3.245675 Z M20.6625,3.245675 C20.6630797,2.12273111 21.3811986,1.12577937 22.446125,0.7695 C21.3671017,0.40655603 20.1772807,0.784125751 19.5049662,1.70282738 C18.8326516,2.621529 18.8326516,3.869821 19.5049662,4.78852262 C20.1772807,5.70722425 21.3671017,6.08479397 22.446125,5.72185 C21.3811986,5.36557063 20.6630797,4.36861889 20.6625,3.245675 L20.6625,3.245675 Z" id="Shape" fill="#E2B698"></path>
                    <path d="M0.717725,16.308175 L0.717725,9.658175 C0.717725,8.60883398 1.56838398,7.758175 2.617725,7.758175 L8.317725,7.758175 C9.36706602,7.758175 10.217725,8.60883398 10.217725,9.658175 L10.217725,16.308175 L0.717725,16.308175 Z" id="Path" fill="#617E95"></path>
                    <path d="M8.317725,7.758175 L2.617725,7.758175 C1.56838398,7.758175 0.717725,8.60883398 0.717725,9.658175 L0.717725,16.308175 L2.375,16.308175 L2.375,12.033175 C2.375,10.4591635 3.65098846,9.183175 5.225,9.183175 L8.317725,9.183175 C9.36706602,9.183175 10.217725,10.033834 10.217725,11.083175 L10.217725,9.658175 C10.217725,8.60883398 9.36706602,7.758175 8.317725,7.758175 Z" id="Path" fill="#4C6D86"></path>
                    <path d="M14.476575,6.34980197 C14.1882616,6.35047654 13.9280365,6.17710538 13.8176122,5.91077561 C13.7071878,5.64444583 13.7683927,5.33780498 13.9726,5.134275 L14.435725,4.670675 L12.32625,4.670675 C12.1950824,4.670675 12.08875,4.56434263 12.08875,4.433175 C12.08875,4.30200737 12.1950824,4.195675 12.32625,4.195675 L15.00905,4.195675 C15.1052417,4.1955029 15.1920383,4.25336986 15.2288725,4.34222994 C15.2657068,4.43109001 15.245304,4.53339326 15.1772,4.601325 L14.3089,5.4701 C14.2160333,5.56283551 14.215927,5.71329582 14.3086625,5.8061625 C14.401398,5.89902918 14.5518583,5.89913551 14.644725,5.8064 L16.32385,4.1268 C16.3686085,4.08238677 16.3937828,4.0219419 16.3937828,3.9588875 C16.3937828,3.8958331 16.3686085,3.83538823 16.32385,3.790975 L14.644725,2.11185 C14.5518583,2.01911449 14.401398,2.01922082 14.3086625,2.1120875 C14.215927,2.20495418 14.2160333,2.35541449 14.3089,2.44815 L15.1772,3.31645 C15.2457986,3.38420939 15.2665137,3.48677089 15.2295915,3.57584307 C15.1926693,3.66491526 15.1054693,3.72274383 15.00905,3.7221 L12.32625,3.7221 C12.1950824,3.7221 12.08875,3.61576763 12.08875,3.4846 C12.08875,3.35343237 12.1950824,3.2471 12.32625,3.2471 L14.435725,3.2471 L13.9726,2.783975 C13.6947148,2.50563545 13.6947148,2.05483955 13.9726,1.7765 C14.2511553,1.49913679 14.7015197,1.49913679 14.980075,1.7765 L16.6592,3.455625 C16.793625,3.59005 16.867725,3.7696 16.867725,3.960075 C16.867725,4.15055 16.793625,4.32915 16.6592,4.463575 L14.980075,6.143175 C14.8460209,6.2756985 14.6650769,6.34995383 14.476575,6.34980197 L14.476575,6.34980197 Z M11.40475,4.6797 C11.2735824,4.6797 11.16725,4.57336763 11.16725,4.4422 L11.16725,3.4922 C11.16725,3.36103237 11.2735824,3.2547 11.40475,3.2547 C11.5359176,3.2547 11.64225,3.36103237 11.64225,3.4922 L11.64225,4.4422 C11.64225,4.57336763 11.5359176,4.6797 11.40475,4.6797 Z M10.45475,4.6797 C10.3235824,4.6797 10.21725,4.57336763 10.21725,4.4422 L10.21725,3.4922 C10.21725,3.36103237 10.3235824,3.2547 10.45475,3.2547 C10.5859176,3.2547 10.69225,3.36103237 10.69225,3.4922 L10.69225,4.4422 C10.69225,4.57336763 10.5859176,4.6797 10.45475,4.6797 Z M5.467725,6.333175 C3.765325,6.333175 2.380225,4.948075 2.380225,3.245675 C2.380225,1.543275 3.765325,0.158175 5.467725,0.158175 C7.170125,0.158175 8.555225,1.543275 8.555225,3.245675 C8.555225,4.948075 7.170125,6.333175 5.467725,6.333175 Z M5.467725,1.108175 C4.28925,1.108175 3.330225,2.0672 3.330225,3.245675 C3.330225,4.42415 4.28925,5.383175 5.467725,5.383175 C6.6462,5.383175 7.605225,4.42415 7.605225,3.245675 C7.605225,2.0672 6.6462,1.108175 5.467725,1.108175 Z M10.217725,16.783175 L0.717725,16.783175 C0.455389744,16.783175 0.242725,16.5705103 0.242725,16.308175 L0.242725,9.658175 C0.242725,8.3486 1.30815,7.283175 2.617725,7.283175 L8.317725,7.283175 C9.6273,7.283175 10.692725,8.3486 10.692725,9.658175 L10.692725,16.308175 C10.692725,16.5705103 10.4800603,16.783175 10.217725,16.783175 Z M1.192725,15.833175 L9.742725,15.833175 L9.742725,9.658175 C9.742725,8.872525 9.103375,8.233175 8.317725,8.233175 L2.617725,8.233175 C1.832075,8.233175 1.192725,8.872525 1.192725,9.658175 L1.192725,15.833175 Z" id="Shape" fill="#024665"></path>
                    <path d="M8.555225,16.545675 L2.380225,16.545675 C2.24905737,16.545675 2.142725,16.4393426 2.142725,16.308175 L2.142725,10.608175 C2.142725,10.4770074 2.24905737,10.370675 2.380225,10.370675 C2.51139263,10.370675 2.617725,10.4770074 2.617725,10.608175 L2.617725,16.070675 L8.317725,16.070675 L8.317725,10.608175 C8.317725,10.4770074 8.42405737,10.370675 8.555225,10.370675 C8.68639263,10.370675 8.792725,10.4770074 8.792725,10.608175 L8.792725,16.308175 C8.792725,16.4393426 8.68639263,16.545675 8.555225,16.545675 Z M21.617725,6.333175 C19.915325,6.333175 18.530225,4.948075 18.530225,3.245675 C18.530225,1.543275 19.915325,0.158175 21.617725,0.158175 C23.320125,0.158175 24.705225,1.543275 24.705225,3.245675 C24.705225,4.948075 23.320125,6.333175 21.617725,6.333175 Z M21.617725,1.108175 C20.43925,1.108175 19.480225,2.0672 19.480225,3.245675 C19.480225,4.42415 20.43925,5.383175 21.617725,5.383175 C22.7962,5.383175 23.755225,4.42415 23.755225,3.245675 C23.755225,2.0672 22.7962,1.108175 21.617725,1.108175 Z M26.367725,16.783175 L16.867725,16.783175 C16.6053897,16.783175 16.392725,16.5705103 16.392725,16.308175 L16.392725,9.658175 C16.392725,8.3486 17.45815,7.283175 18.767725,7.283175 L24.467725,7.283175 C25.7773,7.283175 26.842725,8.3486 26.842725,9.658175 L26.842725,16.308175 C26.842725,16.5705103 26.6300603,16.783175 26.367725,16.783175 Z M17.342725,15.833175 L25.892725,15.833175 L25.892725,9.658175 C25.892725,8.872525 25.253375,8.233175 24.467725,8.233175 L18.767725,8.233175 C17.982075,8.233175 17.342725,8.872525 17.342725,9.658175 L17.342725,15.833175 Z" id="Shape" fill="#024665"></path>
                    <path d="M24.705225,16.545675 L18.530225,16.545675 C18.3990574,16.545675 18.292725,16.4393426 18.292725,16.308175 L18.292725,10.608175 C18.292725,10.4770074 18.3990574,10.370675 18.530225,10.370675 C18.6613926,10.370675 18.767725,10.4770074 18.767725,10.608175 L18.767725,16.070675 L24.467725,16.070675 L24.467725,10.608175 C24.467725,10.4770074 24.5740574,10.370675 24.705225,10.370675 C24.8363926,10.370675 24.942725,10.4770074 24.942725,10.608175 L24.942725,16.308175 C24.942725,16.4393426 24.8363926,16.545675 24.705225,16.545675 Z" id="Path" fill="#024665"></path>
                </g>
            </g>
        </g>
    </g>
</svg>